/* XPM */
static char *e51c3d51068e4247c797a522b60d2134q7OCL9bFbWtJU7ve[] = {
/* columns rows colors chars-per-pixel */
"50 65 2 1 ",
"  c None",
". c black",
/* pixels */
"                                                  ",
"                           ..........             ",
"                        ..............            ",
"                      ..................          ",
"                     ....................         ",
"                   .......................        ",
"                  .........................       ",
"                 ..........................       ",
"                ............................      ",
"               .............................      ",
"              ...............................     ",
"              ...............................     ",
"             ..............      ............     ",
"            .............         ............    ",
"           .............          ............    ",
"           ............            ...........    ",
"          .............            ...........    ",
"         .............             ............   ",
"         ............              ............   ",
"        ............                ...........   ",
"        ...........                 ...........   ",
"       ............                 ...........   ",
"       ...........                  ...........   ",
"       ...........                  ...........   ",
"      ...........                   ...........   ",
"      ...........                   ...........   ",
"      ...........                   ...........   ",
"     ...........                    ...........   ",
"     ...........                    ...........   ",
"     ...........                     ..........   ",
"     ...........                     .........    ",
"    ...........                      .........    ",
"    ...........                      .........    ",
"    ...........                      .........    ",
"    ..........                       .........    ",
"    ..........                      ..........    ",
"    .........                       .........     ",
"    .........                       .........     ",
"   ..........                       .........     ",
"   ..........                      ..........     ",
"   ..........                      .........      ",
"   ..........                      .........      ",
"  ...........                     ..........      ",
"  ...........                     ... .....       ",
"  ...........                     .........       ",
"  ...........                    ..........       ",
"  ...........                   ........ .        ",
"  ...........                   ... ... ..        ",
"  ...........                  .......  .         ",
"  ...........                  ....... ..         ",
"  ...........                 ... ...  .          ",
"   ...........               . . .... .           ",
"   ...........                  .... ..           ",
"   ...........                 .... ..            ",
"   ............               .... ..             ",
"    ............              ...  .              ",
"    ...........        .... ....  .               ",
"    ...........................  .                ",
"     ........................                     ",
"      ......................                      ",
"      ....................                        ",
"       .................                          ",
"        .... ........                             ",
"          ...        ....                         ",
"            ..........                            "
};
