/* XPM */
static char *b5d1c0ae6e964e89e195fca640b352e8MBuwNHiu2Y0Imz4v[] = {
/* columns rows colors chars-per-pixel */
"50 65 2 1 ",
"  c None",
". c black",
/* pixels */
"                                .........         ",
"                               .............      ",
"                           ...................    ",
"                        .......................   ",
"                      ..........................  ",
"                    ............................. ",
"                   .............................. ",
"                  ................................",
"                 .... ............................",
"                .... .............................",
"               .... .........       ..............",
"              .... ........            ...........",
"             .... ...  ..               ..........",
"             . . ...  ..                ..........",
"                ...  ..                 ..........",
"                ... ..                  ..........",
"                .. ..                   ..........",
"                .  .                    ..........",
"               ..                       ..........",
"               .                        ..........",
"              ..                       ...........",
"              .                        ...........",
"             ..                        ...........",
"             .                        ........... ",
"                                     ............ ",
"                                     ............ ",
"                                    ............  ",
"                                   .............  ",
"                                  .............   ",
"                                  ............    ",
"                                 .............    ",
"                                .............     ",
"                               .............      ",
"                             ..............       ",
"                            ..............        ",
"                           ..............         ",
"                         ...............          ",
"                        ...............           ",
"                      ................            ",
"                     ................             ",
"                    ................              ",
"                   ...............                ",
"                 ...............                  ",
"                ...............                   ",
"               ...............                    ",
"              ..............                      ",
"             ..............                       ",
"            ..............                        ",
"           .............                          ",
"          .. ..........                           ",
"          . .........                             ",
"         .. ........                              ",
"        .. ......                                 ",
"        . .......                                 ",
"       . .....................                    ",
"     ...............................              ",
"     ................................             ",
"     ...................................          ",
"       .................................          ",
"    .....................................         ",
"........................................          ",
".......................................           ",
"       ...............................            ",
"   ..................................             ",
"    .....        ..........  ........             "
};
