/* XPM */
static char *_e7bef87d08b46a7c3162c197f309c84Yxc69pPKpSnxuyZA[] = {
/* columns rows colors chars-per-pixel */
"50 65 2 1 ",
"  c None",
". c black",
/* pixels */
"                             ..    ...........    ",
"                           ...   ....             ",
"                         ...  ....                ",
"                        ... ....                  ",
"                       ..  .....                  ",
"                      ..  ....                    ",
"                    ... .....                     ",
"                   ... .... .. .                  ",
"                  ..  .... .....                  ",
"                  .. .........                    ",
"                 ............                     ",
"                ............                      ",
"               ...........                        ",
"              ....... ...                         ",
"              ...... ...                          ",
"             ...........                          ",
"            ...........                           ",
"            ..........                            ",
"           ..........                             ",
"           ..........                             ",
"          ..........                              ",
"          ..........                              ",
"         ..........        ....                   ",
"         .........     .............              ",
"        ..........  ..................            ",
"        ................................          ",
"        .................................         ",
"       .......... ........................        ",
"       ....................................       ",
"      .....................................       ",
"      ......................................      ",
"      ......................................      ",
"      .................. ...................      ",
"     .............             .............      ",
"     ............                ............     ",
"     ..........                  ............     ",
"    ...........                   ...........     ",
"    ...........                   ...........     ",
"    ..........                     ..........     ",
"    ..........                     ..........     ",
"    ..........                    ...........     ",
"    ..........                    ...........     ",
"   ...........                    ...........     ",
"   ...........                    ...........     ",
"  ............                   ...........      ",
"  ............                   ...........      ",
"   ...........                  ............      ",
"   ............                 ...........       ",
"   ............                ............       ",
"    ...........               ............        ",
"    ............             .............        ",
"    .............          ..............         ",
"    ..............        ...............         ",
"     ...................................          ",
"     ..................................           ",
"      ................................            ",
"      ...............................             ",
"      ..............................              ",
"       ............................               ",
"        ..........................                ",
"         .......................                  ",
"          .....................                   ",
"            .................                     ",
"              ............                        ",
"                    .                             "
};
