/* XPM */
static char *f45357b88889411a951619dd89dee0deC8kpq1I2X4UO2lz2[] = {
/* columns rows colors chars-per-pixel */
"50 65 2 1 ",
"  c None",
". c black",
/* pixels */
"                                             ..   ",
"                                            ..    ",
"                                       ..  .      ",
"                      .............   .. ..       ",
"                  ........................        ",
"           ...............................        ",
"           ..................................     ",
"           ..................................     ",
"            ...................................   ",
"          ....................................    ",
"       ......................................     ",
"            .............................         ",
"          .................................       ",
"         ......         ..................        ",
"                           ...........            ",
"                          ...........             ",
"                          ..........              ",
"                         ..........               ",
"                        ...........               ",
"                       ...........                ",
"                      ...........                 ",
"                      ...........                 ",
"                     ...........                  ",
"                    ...........                   ",
"                   ...........                    ",
"                  ............                    ",
"                 ............                     ",
"                 ...........                      ",
"                ...........                       ",
"                ...........                       ",
"               ...........                        ",
"              ...........                         ",
"              ...........                         ",
"             ...........                          ",
"             ...........                          ",
"            ...........                           ",
"           ...........                            ",
"           ...........                            ",
"           ..........                             ",
"          ...........                             ",
"         ...........                              ",
"         ..........                               ",
"         ..........                               ",
"        ..........                                ",
"       ..........                                 ",
"       ..........                                 ",
"      ..........                                  ",
"      ..........                                  ",
"      .........                                   ",
"     ..........                                   ",
"     .........                                    ",
"     .........                                    ",
"    .........                                     ",
"    .........                                     ",
"    ........                                      ",
"    .......                                       ",
"   .. .....                                       ",
"   ........                                       ",
"   . .....                                        ",
"   . .....                                        ",
"     .....                                        ",
"     . .                                          ",
"      ..                                          ",
"      ..                                          ",
"                                                  "
};
