/* XPM */
static char * wall_revert_xpm[] = {
"64 64 119 2",
"  	c #B89E91",
". 	c #B9A495",
"+ 	c #BBAB9C",
"@ 	c #BAA799",
"# 	c #BCAE9F",
"$ 	c #C0BBAD",
"% 	c #B9A592",
"& 	c #BFB9AB",
"* 	c #441D1D",
"= 	c #481F1F",
"- 	c #4B2120",
"; 	c #504E4C",
"> 	c #542323",
", 	c #5C2424",
"' 	c #2D1A1A",
") 	c #5F2925",
"! 	c #5E2828",
"~ 	c #622726",
"{ 	c #89746E",
"] 	c #8B7771",
"^ 	c #341E1E",
"/ 	c #48221F",
"( 	c #682723",
"_ 	c #846B66",
": 	c #53514E",
"< 	c #6D2926",
"[ 	c #622A26",
"} 	c #642928",
"| 	c #8A362C",
"1 	c #782F2A",
"2 	c #6C2B2B",
"3 	c #9A3625",
"4 	c #87726C",
"5 	c #732E2C",
"6 	c #8F7F79",
"7 	c #953C2D",
"8 	c #A23E2A",
"9 	c #9D3927",
"0 	c #763230",
"a 	c #793332",
"b 	c #938680",
"c 	c #8E392F",
"d 	c #7C322C",
"e 	c #742C25",
"f 	c #7B2C24",
"g 	c #833631",
"h 	c #802F27",
"i 	c #6C6966",
"j 	c #993E2E",
"k 	c #913B31",
"l 	c #83342C",
"m 	c #706E6B",
"n 	c #9C3F30",
"o 	c #9C4332",
"p 	c #99402F",
"q 	c #843B31",
"r 	c #A8452F",
"s 	c #978E88",
"t 	c #A94632",
"u 	c #85382F",
"v 	c #AB4933",
"w 	c #74736F",
"x 	c #74322D",
"y 	c #A5422D",
"z 	c #A7442F",
"A 	c #99948D",
"B 	c #AB4832",
"C 	c #8A3A32",
"D 	c #9B9790",
"E 	c #A34532",
"F 	c #A74531",
"G 	c #A74832",
"H 	c #9B9891",
"I 	c #A94630",
"J 	c #C3563F",
"K 	c #AA4933",
"L 	c #AB5132",
"M 	c #BEB7A9",
"N 	c #7E392F",
"O 	c #343331",
"P 	c #A04330",
"Q 	c #A94933",
"R 	c #BFB6A7",
"S 	c #C0B9AB",
"T 	c #97908A",
"U 	c #BFB9AA",
"V 	c #6E6D69",
"W 	c #BDB09F",
"X 	c #958B85",
"Y 	c #BCB1A2",
"Z 	c #958B84",
"` 	c #91837D",
" .	c #90817B",
"..	c #8E7C76",
"+.	c #948983",
"@.	c #BEB3A3",
"#.	c #856E69",
"$.	c #45201D",
"%.	c #6E312C",
"&.	c #A64A2E",
"*.	c #A4422F",
"=.	c #474643",
"-.	c #AB4932",
";.	c #C35E3F",
">.	c #41403D",
",.	c #BEB4A7",
"'.	c #262524",
").	c #B49286",
"!.	c #302F2D",
"~.	c #923D32",
"{.	c #AA4732",
"].	c #BFB8AA",
"^.	c #3A2121",
"/.	c #403F3C",
"(.	c #3E3D3B",
"_.	c #A44532",
":.	c #A64833",
"<.	c #A84632",
"[.	c #A44732",
"  . + + @ @   . .   @ @   . + @ @             @ + + # + + @ @ @ + @ # @ @ + + + + + $   @ @ @ . . . . . . . % % % . . @ + # & # ",
"* * * * * * = = - = = = = = * ; ; * * * * > > > > , * * ' * > , ) , , ! = , ~ , ~ ~ ~ , = = { { ] = = = = ^ ' ' / > = / - - = = ",
"* * * , > > , > , ( , , , , = _ : * * , , , , < ( ~ , [ , ~ ~ ~ ~ ~ ~ - ~ ~ ~ ~ } ~ ~ } } - > ] ( [ ( | ( ( | | 1 ( ( 2 ( } ( - ",
", ~ , , ~ < < 3 < < , , , = , 4 ~ ! , ~ < < 2 ~ < < 5 ( ~ ~ ~ ~ ~ } } ~ 2 } 2 } 2 } 2 5 5 2 > 6 2 2 2 2 7 | 1 1 5 5 1 8 1 5 2 2 ",
"< < < [ < < < < < , 2 < < < ~ ] = ~ 9 1 < 5 5 5 5 2 5 5 2 5 2 2 5 2 2 2 5 2 2 0 2 1 a 1 a 1 , b 2 5 7 7 c 7 7 7 d 1 d d 1 d 5 1 ",
"5 e e 2 5 e e e 5 5 5 3 5 1 } 6 > 8 8 5 1 1 1 1 5 d f 5 d 2 d d 1 a 8 5 0 d 5 5 5 g h a h a 5 i 2 j k j d j 7 j l d d d d a a d ",
"8 9 8 e | 7 5 7 e 1 7 a 1 1 5 b 2 8 8 g g 1 h a d a l a g d a g g l g a 0 g 0 g g g g l a l 0 m 0 n o p p p q g g a l j g g g l ",
"8 8 7 9 7 d 5 7 7 7 8 8 8 r 5 s 0 t r 1 g u g t t v g g g g g g g g g g g a g g g g g g g a a w x o o p o o o u o o g g o o g t ",
"7 8 y 7 7 7 j j p r p r z z x A 0 r t v g B g g C g v C g g g C g g g C C v g v t g g C v a a D a v o o o o o C C C E p o B B v ",
"y j 7 j j j p p z r r r F G 0 A 0 0 B v B v B g v g v g u u C g g C g g u g g g t g v g a a a H A v o o o v o I o o o v o B B v ",
"z j z j j p z z p v I I v v a D A g B B v v t g g g g v B B v v v v v v v v u t v g v v a 0 a H a v v I o v o v v v o v o v v v ",
"r r r r F t v o I J v v v G a & w g B B v v v C v g v v v v I t v v v v K l v v J g v v v a } $ d B v v v o v v v v v p v v v v ",
"t B t B j v t v v v I v L a a w w C g g v v t B v v v t v B v v v v v v B B B v K v v v t a ! M a v v J v t v v o v p v o o o o ",
"o x B t v v v v a a a a N ) O w w a g g g a g B t v v v B B v v a v I v v t B v v t a K a } ! $ d v v v v v v v v a o o o j o P ",
"d a a a a a a a a d a a ) O w w w a a a a a a a a a a a d a a a a a a a a a a a a a a a a } ! $ a v I v B B Q a [ [ a a a a a 1 ",
"R S R A S T A A D A A U & V W i X X X X T T D S S S R R S & S S S & R Y # + + + X # # # # # # s Z Z `  ... .` X X +.X @.+ + S S ",
"> , , * * , , #.X ] ' ' ) ) > ) ) $._ _ _ _ _ $.$.$.$.$.$.$.$.$.$.$.$.$.$.$._ 4 #.= * = = * = = * * ' ' ' ; : ; ; , > > > ( > > ",
"< < , = , , ~ ~ X ] ' * ) ) ) ) ) ) / / ) ) ) ) ) ) ) [ ) ) ) ) [ < ) ) [ / $.] ( - ~ ~ ~ ~ } ~ ~ ( ~ ~ ~ - - - ~ < < < ( ( ( ( ",
"< 2 ~ ~ ( ~ 9 ~ s - / } ) ) [ [ e [ [ / [ [ [ %.%.[ ) [ %.[ [ %.%.[ %.%.[ %.%. .> 2 5 1 5 2 1 1 2 2 2 2 2 > > 2 5 1 5 5 1 1 e 5 ",
"1 1 2 } e 2 8   # > 2 x N %.N %.N %.%.%.%.N x %.N &.N x N N x N d &.N x N %.x i 5 7 a a g d n a a g a 5 0 5 5 5 d y d d 1 1 5 1 ",
"1 1 2 1 d 8 8 2 S x x x N x N N %.%.%.%.%.x %.%.N &.N N N N N N N N N N N x %.V a o n k g a o g o g g a 0 a a a a g g d d d a d ",
"a 1 1 d d F 5 2 @.x N N &.N N N N N N %.p : N N N N N N N N N N N N N N u p N w a o o o o o g C g o g g a g g g g g g o g g g l ",
"y 1 z d j *.5 5 @.x N N N N L N N N %.N N N N N N N N N N N q N N N p L L N p w a o o o o o o o o g o o o g o g g C o o o o g g ",
"7 l d a 8 F t x H x x N N N N N N p N N N %.p N N p N L p L _ N q q N N L L N w =.o o o o o o o o o o g C g o o g o o o o o o q ",
"p p I r I I v x H 0 %.p N L L N N N N N N N N N N N q L L N N N q L L L p L N O O o L o o o o o o o o F o o C o o o v o -.o o o ",
"-.I I J I I Q d H a 0 N q N N L L L p N N o N L N N ;.L L L L L ;.N N N L L a : %.o L L v v v v v o o o o o o o o o o v o -.-.o ",
"p B v J Q B B a H N : N q q N L L L L L L L ;.L L L L L L L L L N N ;.L N L a $ a o G G v v K K K o o o o o B B o v v v -.-.o -.",
"B v J -.B B B d H 0 ;.q q q L ;.L L ;.L L ;.L L L L L L ;.L L L L L L L L L a $ a 0 G L K K a K K o o o v B B B v v v v -.-.-.I ",
"J J Q I v v a a H >.L L N N N N L L ;.L ;.L L L L L L L L L L L L L L L N L N $ a o o a a v 0 v v v v v v v B B v v v v v v v v ",
"J J v v v a v a H ! L L L L L L L L L ;.;.L L ;.L L L N L L L L L L L L L N N $ a a o o a v v v v v v v v v B v B B v v v I v v ",
"G Q v a v I a a H =.%.N N L L L L L L L ;.;.L L N L a a N a L L : a a N a N [ $ a a o o o a a v v v v v v v B J J J J J v G v v ",
"a a a a a a x H H w =.N a a N N a a a a N N N : a a N N a a a a p a N 0 a >.[ $ & a o a a a a a a a a a a a a a d a a a d a a a ",
"S S S S S S S $ S & $ $ S S S S $ w $ $ $ $ H H H $ $ & & $ $ S $ $ $ & & M & ,.@.R @.S M M R R S D D A D D w w w w D D D D D S ",
", , > , > , , , ~ ~ > = > = > 2 > , ~ 0 0 5 0 T A @ > 2 2 2 2 2 2 2 ~ ~ ~ ~ ~ ~ ) , ~ , , , * * , , ' ' = '.'.i ).~ ~ ~ | | h ~ ",
"> > > f > f > > > > > > > * * > * > > > , , > } ` * * > > > , > , > > > > > > , ( , , > , * , , , * > * * , '.!., > f e f e f > ",
", , f h f , , ~ , , ~ , , , , ~ ~ , , , , , , } ` , , , < ) , , , , e < < ~ ~ ~ , ~ ~ , ~ , , , * * * ~ ~ ~ e !.~ , f f f f f ~ ",
"~ ~ ~ ~ [ f h h h h ~ ~ h ~ ( ~ ~ ( ~ ( , ~ ~ 5 X ~ ~ ) e e ~ [ ~ ~ ~ ~ ~ ~ } ~ e ( ~ ~ e } ( ( ~ ~ } ( ~ } 1 +.~ ~ h h h h h ~ ",
"2 } h l l < l h h l < h l l h h l 1 2 f l l h 5 +.} f d d f d d 2 2 5 < } 2 < 5 2 < f 2 2 < d d f d d f h 1 2 S 2 } l l h h | h ",
"| } | | | | | | | | | | | 8 | | | | | | | | c k i 2 d d y l d d 5 5 5 1 5 5 5 d 5 d g l 5 d d l y d l 8 8 l < S 5 | | l | | 2 | ",
"c 5 | | c | | c | c | | c | c c C | | | c c 8 a V x l u y u u l 5 5 5 1 5 5 5 5 g 5 l 5 x l l u y l y g 8 8 < S 5 | | | c | | | ",
"c c c y y c c c P j 7 k c c c k k k k k 7 t F 0 m u r r v F g u 0 g g g C g u u u u u u u u u u r u r u r r r S x F c c c c c c ",
"7 I z G *.G F z t t k k ~.~.~.k 8 B t t B B B a w u C C C q C C C C C C C a C C C C u C C u u r t t B r r r r R 1 t c c k c c 7 ",
"I -.Q v G &.v v F v k v v v t v B B B B B B v a w C C C p u C C C C C C C C C C c C C C C C C I t r C u r v t S a t t k k k k c ",
"I B v -.G Q v t v v v ~.~.t t t B J B B B B B a w a C v v v C C C C C C C C C t v v v C C v v v B t C v v t a S a a B v k k k B ",
"v I -.-.B v v v t v v B v v k v B B B J J B B a w C v J v v v v v v v I v t v v v v u u B v J J B B t J J v d D a a t t B v K {.",
"v I -.J J v I v v I B B v v v v B a B B J B B a D a C t J v v t B I v v v v J B v v v v B v v B B v J v v t a D a a a t B v K {.",
"v v v v J B v v v a B B t v v t B a B B B B B a D a C v C v v v B -.v v v v B B v v v v B B B B B B J J J a a H O a a a a B {.{.",
"a a v v a d a a a a a d v v v t a a a a B B a a H a a a C a d a -.-.v a a a a d a a 0 a a d a a a a a a a a a H =.O ~ a a a a 0 ",
"D D O O $ $ $ $ $ & $ $ M $ $ $ $ S $ $ $ D D D D D S $ ].S D w w w H H H H $ & & H D H H H H H H & & $ $ & & & & & H H D D D D ",
"6 > > ~ 2 2 2 2 > ^ > > > ^ ^ > } 2 } } } ~ } ~ ~ 2 2 5 2 5 5 6 V ` > > > > ! ^.^.! ! ! /./.(.(.` > > > > > > ! > > > %.2 5 6 . ",
"X * , ~ > ! , , ! = = ! = = = ~ - ~ ~ ~ ~ ~ ~ ~ } 2 1 } a 5 5 0 & ) , x 5 5 5 5 2 2 2 > - > > > > > - > > > 2 2 2 2 2 2 l 2 2 > ",
"X ~ < ~ ~ ~ ~ ~ ~ = = ~ - - } } } } 2 1 1 2 2 2 2 2 2 d 2 1 1 5 U > > 2 5 2 2 2 %.2 5 2 2 > - > 2 5 2 | %.2 2 2 5 2 | g 2 2 2 > ",
"+.] ~ 1 ~ 1 } } } } } > } 2 2 2 2 2 a 1 1 l 2 5 2 h 5 5 5 l c 0 R > 0 , > 5 5 5 5 5 0 5 0 2 0 2 5 5 g 5 x 5 2 5 5 2 g 5 2 | 5 > ",
"X > 1 f 5 1 a 2 2 5 2 5 5 5 5 2 5 5 l g g l g l g g 5 g 5 g n 0 S x 5 5 > 0 5 x 0 0 5 5 2 0 0 0 | | | | 5 5 5 5 | | | | | | 5 > ",
"X a h 1 h 8 a g l l g l 5 g 5 5 0 g g t u g C g g C g g g g E a & x x 5 0 5 0 d g 5 a 5 c | 5 g 5 c c c C 5 5 5 5 5 C | | | | > ",
"X g g g g g g g g g g g g a a a C g | C C g C C g t g g v g _.a & a a a a a k C a k k 8 k c c 0 0 5 0 c C c 5 c C 5 7 | | c C > ",
",.a g C C g g C C g C C C g C C C g C C g v C C C v C v _._.t a & a a a a a k C k k C k k k C k C a ~.k c C c c c c c r c c p , ",
"M g n C C C C C C C g q C C F q C C v C v C C F :.C C v g v v a & p a C k a G G F F K ~.~.k k ~.~.~.C k k 7 C 7 C C 7 C k C v ! ",
"$ a a C n v v F F t C G E C v G F t K F K F K K v <.C v v v v a & p a p G E F F F {.{.E {.~.~.{.C ~.p C B k B t k k 7 z t v t ! ",
"& a a C C C F t v t v v F C F t t t v t K K v K v v v v t t v a & ~.k k G F v K F [.{.{.K {.~.~.~.~.:.p t B B B v k v I v r v ! ",
"$ ! a C C C G K C K K K t v v v F t t J v G v v v v v J K K ;.a & C o :.K t k K v v v G :.:.v v K K k v I G v v v v v B v v v ! ",
"$ ! a a a C E K G G v K a t v v v v v t v G v J v v v v v K J a & o o C K p ~.~.v t v v K K t v :.:.G k v v p t v v B v v v G [ ",
"H ! a a C q C K g a v a a a a a a a a a a a a a a a J J J J a $ & ~.C a k k k a 0 g a g g a a a a k p p k k v v v v B B v } ! [ ",
"H $ C C q q g a a a a a a a a a a a 0 a a a a a a a a a a a & & & & a a a a a a a a a a a a a g a g a a a a a a a a a d a ! [ H "};
