/* XPM */
static char *_5_fps_zombie_DEAD_crop[] = {
/* columns rows colors chars-per-pixel */
"103 183 13 1 ",
"  c black",
". c #010000",
"X c #01070A",
"o c #1C0000",
"O c #063938",
"+ c #460100",
"@ c #470100",
"# c #1D5D5B",
"$ c #960D00",
"% c #F30802",
"& c #F30803",
"* c #DFB77B",
"= c None",
/* pixels */
"=======================================================================================================",
"=======================================================================================================",
"=======================================================================================================",
"=======================================================================================================",
"=======================================================================================================",
"=======================================================================================================",
"=======================================================================================================",
"=======================================================================================================",
"=======================================================================================================",
"=======================================================================================================",
"=======================================================================================================",
"=======================================================================================================",
"========================================== ============================================================",
"=========================================  ===   ======================================================",
"=======================================  XX   XXX   ===================================================",
"====================================== XXXXXXXXXXXXX  =================================================",
"====================================  XXXXXXXXXXXXXXXX  ===============================================",
"===================================  = XXXXXXXXXXXXXXXXX  =   =========================================",
"===================================== XXXXXXXXXXXXXXXXXXXX XX =========================================",
"===================================== XXXXXXXXXXXXXXXOXXXXXX ==========================================",
"===================================== XXXXXXXXXXXXXXXXXOXXX ===========================================",
"==================================== ##XXXXXXXXXXXXXXXXXXXX ===========================================",
"=================================== ##O#XXXXXXXXXXXXXXXXX XX ==========================================",
"================================== ##$$######XXXXXXXXXXXX XX ==========================================",
"================================= ###$O#########OXXOOOXXX XX ==========================================",
"================================ ##################OOOXXX XX ==========================================",
"=============================== ###################OOOXXXXXX ==========================================",
"=============================== ###########%########OOXXXXXX ==========================================",
"=============================== O#O########%@#######OOXXXXXX ==========================================",
"================================ #########$%%%#######OXXXXXX ==========================================",
"================================ #O#O#####$%%%@#####OOOOO##X ==========================================",
"================================ #########$%%%#############X ==========================================",
"================================= O#O#O#O#$%$$O#####O#O####  ==========================================",
"================================= #OO##################### ============================================",
"================================== OOOO#O#O#########O#O### ============================================",
"================================= $OOOOOOO################ ============================================",
"================================= +OOOOOOO%#O#######OOO### ============================================",
"================================= $OOOOOOO%OO#######OO### =============================================",
"================================= +O$%%%%%%OO######OOOO## =============================================",
"================================= $O%%%%%%%OO######OOOOO# =============================================",
"================================= +OXXXXX%%OO#####OOOOOOO =============================================",
"================================= $OXXXXX%%XO#####OOOOO  ==============================================",
"================================ $O#XX  ****O#####OOOO ================================================",
"================================ $##XX*******#####OOO @     ===========================================",
"================================ $##X ********###OOO @++++++    =======================================",
"==============================  +###O$********###OOO @++++++++++ ======================================",
"============================= @ +####O********O#OOO X@+$++++++++@ =====================================",
"============================ ++ @#####$*******###OO o@++++++++++@@  ===================================",
"=========================== ++@ oOO####$$*$*$###OOX X@@+++++++++++++ ==================================",
"=========================  +++++  oOOO#Ooo+$####OO Xo@+++++++++++++++  ================================",
"======================== ++++++@@@  oOOOOOoOOOXO..XXo+++++++++++++++++ ================================",
"======================= ++++++++++++  oXXXXXO   OXXXX+++++++++++++++++@ ===============================",
"====================== +++++++++++o+oo  X XOXOXOXXXXX+++++++++++++++++@ ===============================",
"===================== ++++++++++++o+ooXX XXXOOOOXXXXo+++++++++++++++++@+ ==============================",
"==================== +++++++++++++o+ooXXXXXXXXXXXXXXX+++++++++++++++++++ ==============================",
"==================== +++++++++++++o++ooXXXXXXXXXXXXXo+++++++++++++++++++ ==============================",
"==================== +++++++++++++oo+ooXXXXXXXXXXXXXo+++++++++++++++++++ ==============================",
"==================== #O++++++++++++o++ooXXXXXXXXXXXXo@++++++++++++++++++ ==============================",
"==================== #OOO+++++++++o+o+ooXXXXXXXXXXXo@@+++++++++++++++++++ =============================",
"==================== ##Ooo +++++++++o++++oXXXXXXXo+++++++++++++++++++++++ =============================",
"==================== ###X = ++++++++oooooooXXXXo+++++++++++++++@+++++++++ =============================",
"==================== ### == +++++++++ooooooXXXoooo++++++++++++@ooo+++++++ =============================",
"==================== ### === +++++++o+ooooooXXooo+++++++++++++oooo+++++++ =============================",
"==================== ### === ++++++++++ooooooooo++++++++++++++oo o+++++++ =============================",
"==================== ### ==== o+++++++o+o+ooooo+++++++++++++++oo o+++++++ =============================",
"==================== ### ==== o+++++++++++++++++++++++++++++++++ o+++++++ =============================",
"==================== ### ==== ooo++++++++++++++++++++$++++++++@@ o++++++++ ============================",
"==================== ### ===== oo++++++++++++++++++++$++++++++++ @++++++++ ============================",
"==================== ### ===== oooo++++++++++++++++++$++++++++++ +++++++++ ============================",
"==================== ### ====== ooo+++++++$++++++++++$$+++++++++@++++++++++ ===========================",
"==================== ### ====== ooooo++++++++++++++++$$++++++++++++++++++++ ===========================",
"=================== ### ======== oooo+++++$$$++++++++$$$+++++++ +++++++++++ ===========================",
"=================== ### ======== ooooo+++++$$++$$%$++$$+++++++@ o++++++++++ ===========================",
"=================== ### ======== ooooo+$++$$$$$$$%$+++$+++++++ @@+++++++++ ============================",
"=================== ## ========== ooooo$+++$$$+$$%$$++++++++++@ +++++++++++ ===========================",
"=================== ## ========== ooooo$$+++$$$$$%%$++++++++++@ ++o+++++++++ ==========================",
"================== ### ========== oooooo++o+$$$$$%%%$$++++++++@ +++++++$+$+$ ==========================",
"================== ### =========== ooooo++++$$$$%%%%%$+++++++++ ++++++$$$$$$ ==========================",
"================== ### =========== oooooo+++$$$$$%%%$$++++++++@ +++++++$+$@+ ==========================",
"================== ### =========== oooo+++++$$%$%%%%%%++++++++@ @o+++++++++ ===========================",
"================== ### =========== oooo+o++++$%%%%%%%%+++++++++ @ o@ooooo++ ===========================",
"================== ### ============ oo++++++$$%&%%%%%%$+++++++++ = oooO#### ===========================",
"================== ### ============ o+o+++++$%%%%%%%%%$++++++++++ ooOOO#### ===========================",
"================== ## ============= ++++++++%%%%%%%%&&$++++++++++ @oOO##### ===========================",
"================== ## ============= o++++++$%%%%%%$%$+++++++++++++ oXO##### ===========================",
"================== ## ============= +++++++$&%%%%%$+++++++++++++++ @OO###### ==========================",
"================== ## ============= o+++++++$&%%%%+$++++++++++++++@ XO###### ==========================",
"================== ## ============= ++++++++++$$%+++++++++++++++++@ OO###### ==========================",
"================== ## ============ ++++++++++++++++++++++++++++++++  OO##### ==========================",
"================== # ============= +++++++++++++++++++++++++++++++ == O##### ==========================",
"================== # ============= +++++++++++++++++++++++++++++++ == O###### =========================",
"================= ## ============= ++++++++++++++++++++++++++++++++ == ###### =========================",
"================= ### ============ ++++++++++++++++++++++++++++++++ == ####### ========================",
"================ ##### =========== ++++++++++++++++++++++++++++++++ == ####### ========================",
"================ ##### =========== ++++++++++++++++++++++++++++++++ = O####### ========================",
"================ #### # =========== +++++++++++++++++++++++++++++++ = O####### ========================",
"=============== O### = # ========== o+o+++++++++++++++++++++++++o@o = O####### ========================",
"=============== O## == # ========= ooooo+++++++++++++++++++++++oooo = O####### ========================",
"=============== O## ===  ========= XXoooooooooo+o+o+o+o+o+ooooooooo  OO####### ========================",
"=============== O#O ============== XXoooooooooooooooooooooooooooooo   oO###### ========================",
"=============== O#O# ============= XXXXoooooooooooooooooooooooooooo  = O###### ========================",
"===============      ============= XXXXooooooooooooooooooooooooooooo = O###### ========================",
"================================== XXXXooooooooooooooooooooooooooooo == ###### ========================",
"================================== XXXXooooooooooooooooooooooooooooo == oo#### ========================",
"================================== XXXXoXoooooooooooooooooooooooooo  = $$ooo### =======================",
"=================================== XXXXooooooooooooooooooooooooooooo  #$%%%$o# =======================",
"=================================== XXXXXoooooooooooooooooooooooooooo = #$$%%%$ =======================",
"=================================== XXXXooooooooooooooooooooooooooooo = o####$% =======================",
"=================================== XXXXXoooooooooooooooooooooooooooo == #####O =======================",
"================================== XXXXXooooooooooooooooooooooooooooo == O##### =======================",
"================================== XXXXoXoooooooXoXoooooooooooooooooo == OO#### =======================",
"================================== XXXXooooooooooooooooooooooooooooooo = O##### =======================",
"=================================  oXXXoooooooooXoXoXoXooooooooooooooo == O#### =======================",
"================================= o@+oooooooooooooooooooooooooooooooooo = ##### =======================",
"================================ oo@$$+oooooooooooXoXoXoXoooooooooooooo = O##### ======================",
"================================ o  %%&$++oooooooooooXXooooooooooooooooo OO##### ======================",
"================================  @@ %%%o+oooooooo     XXoXooooooooooooo OO##### ======================",
"=============================== ++@$$$%%%++oooooo ===== ooooooooooooooooo O##### ======================",
"=============================== +$$$$$$%%++ooooo ====== XoXoooooooooooooo.o##### ======================",
"============================== %%%%%$$$%%%$oooo ======== oooooooooooooooo.o##### ======================",
"============================== %%%%%%$++%%++ooo ========= XoXoooooooooooo.O###### =====================",
"============================= %%%%%%%$$+$%$@oo ========== Xooooooooooooo.O####### =====================",
"==========================   %%%%%%%%%+++$$@oo =========== oXoXoooooooo.O#O####### ====================",
"=========================== *%%%%%%*$%++++$@o ============= oooooooooooOO########## ===================",
"=========================== $%%%%%%*%%$+++$oo ============= XoXooooooooOOOO######## ===================",
"=========================== o$$%%%**%%&+++oo =============== oooooooooOOOO######### ===================",
"=========================== oo$$$%%*%$$$$+oo ================ XoooooooOOOOO######### ==================",
"=========================== ooo$$%%%%$&$$oo ================= ooooooooOOOOO######### ==================",
"=========================== Xooo$$*$$$$$+oo ================== oXoooooOOOOOOO####### ==================",
"=========================== Xooo$$**$$$$+o ==================== ooooooOOOOOO######### =================",
"=========================== XXXoo@$**$$$+o ==================== XoXoooOXXOOOO######## =================",
"========================== XXXoooo@$$*$@+ ====================== oooooooooOO######### =================",
"========================== XXXXoooo+$$+++ ====================== oXoooooooOOO######### ================",
"========================== XXXooooo+@@+++ ======================= ooooooooOO########## ================",
"========================== XXXXoooo+++++ ======================== XoXooooooOO#O#O##### ================",
"========================== XXXoooooo++++ ========================= oooooooo##ooO####### ===============",
"========================== XXXXoooooo++@ ========================= XXoooooo##ooOOOO#O## ===============",
"========================== XXXooooooooo =========================== Xoooooo##ooOOOO#### ===============",
"========================  XXXXooooooooo ============================ oXooooooooOOOOOO#O ===============",
"======================= ooXXXooooooooo ============================= ooooooooooOOOOOOO ================",
"======================= XoXXXooooooooo ============================== XoooooooooOOOO  =================",
"====================== XXXXXooooooooo =============================== ooooooooooXO  ===================",
"===================== XXXXXXXoooooooo =============================== XoooooooooX =====================",
"==================== XXXXXXooooooooo ================================ Xooooooooo ======================",
"=================== XXXXXXXoooooooo ================================= XXXoooooo =======================",
"================== XXXXXXoooooooooo ================================= XXXoooooo =======================",
"================== XXXXXXoooooooooo ================================= XXXXXoXoX =======================",
"================= XXXXXoooooooooooo ================================= XXXXoooX ========================",
"================ XXXXXXoooooooXoX  ================================== XXXXXoXX ========================",
"================ XXXXXoooooooooX ===================================== XXXoooo ========================",
"================ XXXXoXoooooooX ====================================== XXXXoX =========================",
"================ XXXXooooooooo ======================================= .XXXoo =========================",
"================ XXXXoXoXoXoX ======================================== ..XX.. =========================",
"===============  XXooooooXo  ======================================== ...... ==========================",
"==============  O...XoXX   ========================================== X..... ==========================",
"=============  OOOOO..X ============================================= XXXOOO ==========================",
"============= XXOOOOOO ============================================= XXOOOOO ==========================",
"============= XXXXOOOO ============================================= ...OOOO ==========================",
"============ XXXXXXXXXX ============================================ XX.....O  ========================",
"============ XXX...XXX ============================================= XXXX...... =======================",
"============ .....   X ============================================= XX.XXXXXXXX ======================",
"=========== XXXXXXXXX ============================================== ...XXXXXXXXX  ====================",
"=========== XXXXXXXX ===============================================  ..XXXXXXXXXX ====================",
"=========== XXXXXXXX =================================================             ====================",
"=========== XXXXXXXX ==================================================================================",
"===========     XXXX ==================================================================================",
"================    ===================================================================================",
"=======================================================================================================",
"=======================================================================================================",
"=======================================================================================================",
"=======================================================================================================",
"=======================================================================================================",
"=======================================================================================================",
"=======================================================================================================",
"=======================================================================================================",
"=======================================================================================================",
"=======================================================================================================",
"=======================================================================================================",
"=======================================================================================================",
"=======================================================================================================",
"=======================================================================================================",
"=======================================================================================================",
"======================================================================================================="
};
