/* XPM */
static char *_6_fps_zombie_DEAD_crop[] = {
/* columns rows colors chars-per-pixel */
"103 183 15 1 ",
"  c black",
". c #010000",
"X c #01070A",
"o c #01070B",
"O c #1C0000",
"+ c #1D0000",
"@ c #063938",
"# c #073938",
"$ c #460100",
"% c #470100",
"& c #1D5D5B",
"* c #960D00",
"= c #F30802",
"- c #DFB77B",
"; c None",
/* pixels */
";;;;;;;;;;;;;;;;;;;;;;;;;;;;;;;;;;;;;;;;;;;;;;;;;;;;;;;;;;;;;;;;;;;;;;;;;;;;;;;;;;;;;;;;;;;;;;;;;;;;;;;",
";;;;;;;;;;;;;;;;;;;;;;;;;;;;;;;;;;;;;;;;;;;;;;;;;;;;;;;;;;;;;;;;;;;;;;;;;;;;;;;;;;;;;;;;;;;;;;;;;;;;;;;",
";;;;;;;;;;;;;;;;;;;;;;;;;;;;;;;;;;;;;;;;;;;;;;;;;;;;;;;;;;;;;;;;;;;;;;;;;;;;;;;;;;;;;;;;;;;;;;;;;;;;;;;",
";;;;;;;;;;;;;;;;;;;;;;;;;;;;;;;;;;;;;;;;;;;;;;;;;;;;;;;;;;;;;;;;;;;;;;;;;;;;;;;;;;;;;;;;;;;;;;;;;;;;;;;",
";;;;;;;;;;;;;;;;;;;;;;;;;;;;;;;;;;;;;;;;;;;;;;;;;;;;;;;;;;;;;;;;;;;;;;;;;;;;;;;;;;;;;;;;;;;;;;;;;;;;;;;",
";;;;;;;;;;;;;;;;;;;;;;;;;;;;;;;;;;;;;;;;;;;;;;;;;;;;;;;;;;;;;;;;;;;;;;;;;;;;;;;;;;;;;;;;;;;;;;;;;;;;;;;",
";;;;;;;;;;;;;;;;;;;;;;;;;;;;;;;;;;;;;;;;;;;;;;;;;;;;;;;;;;;;;;;;;;;;;;;;;;;;;;;;;;;;;;;;;;;;;;;;;;;;;;;",
";;;;;;;;;;;;;;;;;;;;;;;;;;;;;;;;;;;;;;;;;;;;;;;;;;;;;;;;;;;;;;;;;;;;;;;;;;;;;;;;;;;;;;;;;;;;;;;;;;;;;;;",
";;;;;;;;;;;;;;;;;;;;;;;;;;;;;;;;;;;;;;;;;;;;;;;;;;;;;;;;;;;;;;;;;;;;;;;;;;;;;;;;;;;;;;;;;;;;;;;;;;;;;;;",
";;;;;;;;;;;;;;;;;;;;;;;;;;;;;;;;;;;;;;;;;;;;;;;;;;;;;;;;;;;;;;;;;;;;;;;;;;;;;;;;;;;;;;;;;;;;;;;;;;;;;;;",
";;;;;;;;;;;;;;;;;;;;;;;;;;;;;;;;;;;;;;;;;;;;;;;;;;;;;;;;;;;;;;;;;;;;;;;;;;;;;;;;;;;;;;;;;;;;;;;;;;;;;;;",
";;;;;;;;;;;;;;;;;;;;;;;;;;;;;;;;;;;;;;;;;;;;;;;;;;;;;;;;;;;;;;;;;;;;;;;;;;;;;;;;;;;;;;;;;;;;;;;;;;;;;;;",
";;;;;;;;;;;;;;;;;;;;;;;;;;;;;;;;;;;;;;;;;;;;;;;;;;;;;;;;;;;;;;;;;;;;;;;;;;;;;;;;;;;;;;;;;;;;;;;;;;;;;;;",
";;;;;;;;;;;;;;;;;;;;;;;;;;;;;;;;;;;;;;;;;;;;;;;;;;;;;;;;;;;;;;;;;;;;;;;;;;;;;;;;;;;;;;;;;;;;;;;;;;;;;;;",
";;;;;;;;;;;;;;;;;;;;;;;;;;;;;;;;;;;;;;;;;;;;;;;;;;;;;;;;;;;;;;;;;;;;;;;;;;;;;;;;;;;;;;;;;;;;;;;;;;;;;;;",
";;;;;;;;;;;;;;;;;;;;;;;;;;;;;;;;;;;;;;;;;;;;;;;;;;;;;;;;;;;;;;;;;;;;;;;;;;;;;;;;;;;;;;;;;;;;;;;;;;;;;;;",
";;;;;;;;;;;;;;;;;;;;;;;;;;;;;;;;;;;;;;;;;;  ;;   ;;;;;;;;;;;;;;;;;;;;;;;;;;;;;;;;;;;;;;;;;;;;;;;;;;;;;;",
";;;;;;;;;;;;;;;;;;;;;;;;;;;;;;;;;;;;;;;;  XX  XXX  ;;;;;;;;;;;;;;;;;;;;;;;;;;;;;;;;;;;;;;;;;;;;;;;;;;;;",
";;;;;;;;;;;;;;;;;;;;;;;;;;;;;;;;;;;;;;  XXXXXXXXXXX  ;;;;;;;;;;;;;;;;;;;;;;;;;;;;;;;;;;;;;;;;;;;;;;;;;;",
";;;;;;;;;;;;;;;;;;;;;;;;;;;;;;;;;;;;; XXXXXXXXXXXXXXX  ;;;;;;;;;;;;;;;;;;;;;;;;;;;;;;;;;;;;;;;;;;;;;;;;",
";;;;;;;;;;;;;;;;;;;;;;;;;;;;;;;;;;;; XXXXXXXXXXXXXXXXXX        ;;;;;;;;;;;;;;;;;;;;;;;;;;;;;;;;;;;;;;;;",
";;;;;;;;;;;;;;;;;;;;;;;;;;;;;;;;;;;;; XXXXXXXXXXXXXXX@XXXX#XX ;;;;;;;;;;;;;;;;;;;;;;;;;;;;;;;;;;;;;;;;;",
";;;;;;;;;;;;;;;;;;;;;;;;;;;;;;;;;;;;;; XXXXXXXXXXXXXXXX@XXXX ;;;;;;;;;;;;;;;;;;;;;;;;;;;;;;;;;;;;;;;;;;",
";;;;;;;;;;;;;;;;;;;;;;;;;;;;;;;;;;;;; @XXXXXXXXXXXXXXXXXXXXX ;;;;;;;;;;;;;;;;;;;;;;;;;;;;;;;;;;;;;;;;;;",
";;;;;;;;;;;;;;;;;;;;;;;;;;;;;;;;;;;; &@&@XXXXXXXXXXXXXXXXXXX ;;;;;;;;;;;;;;;;;;;;;;;;;;;;;;;;;;;;;;;;;;",
";;;;;;;;;;;;;;;;;;;;;;;;;;;;;;;;;;; &@*&&&&&&XXXXXXXXXXXXXXX ;;;;;;;;;;;;;;;;;;;;;;;;;;;;;;;;;;;;;;;;;;",
";;;;;;;;;;;;;;;;;;;;;;;;;;;;;;;;;; &&*$&&&&&&&&&@@@@XXXXXX X ;;;;;;;;;;;;;;;;;;;;;;;;;;;;;;;;;;;;;;;;;;",
";;;;;;;;;;;;;;;;;;;;;;;;;;;;;;;;; &&&&&&&&&&&&&&&&&@@@XXXXXX ;;;;;;;;;;;;;;;;;;;;;;;;;;;;;;;;;;;;;;;;;;",
";;;;;;;;;;;;;;;;;;;;;;;;;;;;;;;  &&&&&&&&&&&&&&&&&&&@@XXXXXX ;;;;;;;;;;;;;;;;;;;;;;;;;;;;;;;;;;;;;;;;;;",
";;;;;;;;;;;;;;;;;;;;;;;;;;;;;;; &&&&&&&&&&&=&&&&&&&&&@XXXXXX ;;;;;;;;;;;;;;;;;;;;;;;;;;;;;;;;;;;;;;;;;;",
";;;;;;;;;;;;;;;;;;;;;;;;;;;;;;; @&&&&&&&&&@=*&&&&&&&@@XXXXXX ;;;;;;;;;;;;;;;;;;;;;;;;;;;;;;;;;;;;;;;;;;",
";;;;;;;;;;;;;;;;;;;;;;;;;;;;;;;; &&&&&&&&&*===*&&&&&&&@XXXXX ;;;;;;;;;;;;;;;;;;;;;;;;;;;;;;;;;;;;;;;;;;",
";;;;;;;;;;;;;;;;;;;;;;;;;;;;;;;; &@&@&&&&&*===$&&&&&@&@XXXXXX ;;;;;;;;;;;;;;;;;;;;;;;;;;;;;;;;;;;;;;;;;",
";;;;;;;;;;;;;;;;;;;;;;;;;;;;;;;;; &&&&&&&@*===&&&&&&&&@@&&&X ;;;;;;;;;;;;;;;;;;;;;;;;;;;;;;;;;;;;;;;;;;",
";;;;;;;;;;;;;;;;;;;;;;;;;;;;;;;;; @&@&@&@&$***&&&&&&@&@&@&&& ;;;;;;;;;;;;;;;;;;;;;;;;;;;;;;;;;;;;;;;;;;",
";;;;;;;;;;;;;;;;;;;;;;;;;;;;;;;;; &@&&&&&&&&&&&&&&&&&&&&&&&&X ;;;;;;;;;;;;;;;;;;;;;;;;;;;;;;;;;;;;;;;;;",
";;;;;;;;;;;;;;;;;;;;;;;;;;;;;;;;;; @@&@&@&@&&&&&&&&&@&@&&&&&  ;;;;;;;;;;;;;;;;;;;;;;;;;;;;;;;;;;;;;;;;;",
";;;;;;;;;;;;;;;;;;;;;;;;;;;;;;;;;; @@@@&&&=&&&&&&&&&&&&&&&& ;;;;;;;;;;;;;;;;;;;;;;;;;;;;;;;;;;;;;;;;;;;",
";;;;;;;;;;;;;;;;;;;;;;;;;;;;;;;;;; @@@@@@@=&&&&&&&&&@&@&&& ;;;;;;;;;;;;;;;;;;;;;;;;;;;;;;;;;;;;;;;;;;;;",
";;;;;;;;;;;;;;;;;;;;;;;;;;;;;;;;; *&@@XXX&=&&&&&&&&&&&&&&& ;;;;;;;;;;;;;;;;;;;;;;;;;;;;;;;;;;;;;;;;;;;;",
";;;;;;;;;;;;;;;;;;;;;;;;;;;;;;;;; *@*======@@&&&&&&&@@@&&& ;;;;;;;;;;;;;;;;;;;;;;;;;;;;;;;;;;;;;;;;;;;;",
";;;;;;;;;;;;;;;;;;;;;;;;;;;;;;;;; *@*=$-----&&&&&&&@@@@&& ;;;;;;;;;;;;;;;;;;;;;;;;;;;;;;;;;;;;;;;;;;;;;",
";;;;;;;;;;;;;;;;;;;;;;;;;;;;;;;;; $@XX-------&&&&&@@@@@&& ;;;;;;;;;;;;;;;;;;;;;;;;;;;;;;;;;;;;;;;;;;;;;",
";;;;;;;;;;;;;;;;;;;;;;;;;;;;;;;;; *&XX--------&&&&&@@@@@@ ;;;;;;;;;;;;;;;;;;;;;;;;;;;;;;;;;;;;;;;;;;;;;",
";;;;;;;;;;;;;;;;;;;;;;;;;;;;;;;;; &&XX--------&&&&@@@@@  ;;;;;;;;;;;;;;;;;;;;;;;;;;;;;;;;;;;;;;;;;;;;;;",
";;;;;;;;;;;;;;;;;;;;;;;;;;;;;;;; *&&X&--------&&&&@@@# ;;;;;;;;;;;;;;;;;;;;;;;;;;;;;;;;;;;;;;;;;;;;;;;;",
";;;;;;;;;;;;;;;;;;;;;;;;;;;;;;;; *&&XX@-*-=--&&&&&@@  ;;;;;;;;;;;;;;;;;;;;;;;;;;;;;;;;;;;;;;;;;;;;;;;;;",
";;;;;;;;;;;;;;;;;;;;;;;;;;;;;;;; &&&O*$$***-&&&&&&@@ $      ;;;;;;;;;;;;;;;;;;;;;;;;;;;;;;;;;;;;;;;;;;;",
";;;;;;;;;;;;;;;;;;;;;;;;;;;;;;;; &&&&$$$O$O&@&&&&@@ OO$$$$$$    ;;;;;;;;;;;;;;;;;;;;;;;;;;;;;;;;;;;;;;;",
";;;;;;;;;;;;;;;;;;;;;;;;;;;;;;;; &&&&&&&@@#@&&&&&@@ #O$$$$$$$$$$ ;;;;;;;;;;;;;;;;;;;;;;;;;;;;;;;;;;;;;;",
";;;;;;;;;;;;;;;;;;;;;;;;;;;;;;; O@@&&&&&&&&&&&&&@@@ XO$*$$$$$$$$$  ;;;;;;;;;;;;;;;;;;;;;;;;;;;;;;;;;;;;",
";;;;;;;;;;;;;;;;;;;;;;;;;;;;;  $ OO#&&&&&&&&&&&&@@ @OO$*$$$$$$$$$$$ ;;;;;;;;;;;;;;;;;;;;;;;;;;;;;;;;;;;",
";;;;;;;;;;;;;;;;;;;;;;;;;;;; $$$$  OO##&@&@&@&@@@@ XX%%*$$$$$$$$$$$$  ;;;;;;;;;;;;;;;;;;;;;;;;;;;;;;;;;",
";;;;;;;;;;;;;;;;;;;;;;;;;;; $$$$$$%  OX@@@@@@X@@  #XO%$$$$$$$$$$$$$$$$ ;;;;;;;;;;;;;;;;;;;;;;;;;;;;;;;;",
";;;;;;;;;;;;;;;;;;;;;;;;;; $$$$$$$O%   XXXX@X@X@X#XXX$$$$$$$$$$$$$$$$$$ ;;;;;;;;;;;;;;;;;;;;;;;;;;;;;;;",
";;;;;;;;;;;;;;;;;;;;;;;;; $$$$$$$$$$$OX X@@@@@@@@@XXO$$$$$$$$$$$$$$$$$$ ;;;;;;;;;;;;;;;;;;;;;;;;;;;;;;;",
";;;;;;;;;;;;;;;;;;;;;;;; $$$$$$$$$O%OOXXXXX@X@X@XXXXO%$$$$$$$$$$$$$$$$$ ;;;;;;;;;;;;;;;;;;;;;;;;;;;;;;;",
";;;;;;;;;;;;;;;;;;;;;;; $$$$$$$$$$$$%OXXXX@#@@@@@XXXX$$$$$$$$$$$$$$$$$$$ ;;;;;;;;;;;;;;;;;;;;;;;;;;;;;;",
";;;;;;;;;;;;;;;;;;;;;; $$$$$$$$$$$O%OOXXXXX@X@X@XXXXX$$$$$$$$$$$$$$$$$$$ ;;;;;;;;;;;;;;;;;;;;;;;;;;;;;;",
";;;;;;;;;;;;;;;;;;;;; $$$$$$$$$$$$$$$OOXXXXXXXXXXXXXo$$$$$$$$$$$$$$$$$$$ ;;;;;;;;;;;;;;;;;;;;;;;;;;;;;;",
";;;;;;;;;;;;;;;;;;;; $$$$$$$$$$$$$OO$OOXXXXXXXXXXXXXX$$$$$$$$$$$$$$$$$$$$ ;;;;;;;;;;;;;;;;;;;;;;;;;;;;;",
";;;;;;;;;;;;;;;;;;;; $$$$$$$$$$$$$$O$$OXXXXXXXXXXXXXO$$$$$$$$$$$$$$$$$$$$ ;;;;;;;;;;;;;;;;;;;;;;;;;;;;;",
";;;;;;;;;;;;;;;;;;;; *$$$$$$$$$$$$$$O$OOXXXXXXXXXXXO$$$$$$$$$$$$$$$$$$$$$ ;;;;;;;;;;;;;;;;;;;;;;;;;;;;;",
";;;;;;;;;;;;;;;;;;;; @*$$$$$$$$$$$$$$O$O$XXXXXXXXOO$$$$$$$$$$$$$$$$$$$$$$ ;;;;;;;;;;;;;;;;;;;;;;;;;;;;;",
";;;;;;;;;;;;;;;;;;;; &@@@%$$$$$$$$$$OOOOOO$XXXX$$$$$$$$$$$$$$$%%$$$$$$$$$ ;;;;;;;;;;;;;;;;;;;;;;;;;;;;;",
";;;;;;;;;;;;;;;;;;;; &&@OO $$$$$$$$$$OOOOOOXXXX$$$$$$$$$$$$$$$$OO$$$$$$$$ ;;;;;;;;;;;;;;;;;;;;;;;;;;;;;",
";;;;;;;;;;;;;;;;;;;; &&&# ; O$$$$$$$O$OOOOOXXXXOO$$$$$$$$$$$$$OOOO$$$$$$$ ;;;;;;;;;;;;;;;;;;;;;;;;;;;;;",
";;;;;;;;;;;;;;;;;;;; &&& ;;; $$$$$$$$$$$OOOOOOOO$$$$$$$$$$$$$$OO%O$$$$$$$ ;;;;;;;;;;;;;;;;;;;;;;;;;;;;;",
";;;;;;;;;;;;;;;;;;;; &&& ;;; %O$$$$$$$O$O$OOOOO$O$$$$$$$$$$$$$OOOO$$$$$$$ ;;;;;;;;;;;;;;;;;;;;;;;;;;;;;",
";;;;;;;;;;;;;;;;;;;; &&& ;;;; $$$$$$$$$$$$$$$$$$$$$$$$$$$$$$$$%$$O$$$$$$$ ;;;;;;;;;;;;;;;;;;;;;;;;;;;;;",
";;;;;;;;;;;;;;;;;;;; &&& ;;;; O%O$$$$$$$$$$$$$$$$$$$$$$$$$$$$$$$$$$$$$$$$$ ;;;;;;;;;;;;;;;;;;;;;;;;;;;;",
";;;;;;;;;;;;;;;;;;;; &&& ;;;;; O$$$$$$$$$$$$$$$$$$$$$*$$$$$$$$$$$$$$$$$$$$ ;;;;;;;;;;;;;;;;;;;;;;;;;;;;",
";;;;;;;;;;;;;;;;;;;; &&& ;;;;; OO$O$$$$$$$$$$$$$$$$$$**$$$$$$$$$ $$$$$$$$$ ;;;;;;;;;;;;;;;;;;;;;;;;;;;;",
";;;;;;;;;;;;;;;;;;;; &&& ;;;;;; OOO%$$$$$$*$$$$$$$$$$**$$$$$$$$$$$$$$$$$$$$ ;;;;;;;;;;;;;;;;;;;;;;;;;;;",
";;;;;;;;;;;;;;;;;;;; &&& ;;;;;; OOOOO$$$$$$$$$$$$$$$$**$$$$$$$$$$$$$$$$$$$$ ;;;;;;;;;;;;;;;;;;;;;;;;;;;",
";;;;;;;;;;;;;;;;;;;; &&& ;;;;;;; OOOO$$$$$*$*$$$$$$$$***$$$$$$$$$$$$$$$$$$$ ;;;;;;;;;;;;;;;;;;;;;;;;;;;",
";;;;;;;;;;;;;;;;;;;; &&& ;;;;;;; OOOOO$$$$$$*$$$$**$$***$$$$$$$ O$$$$$$$$$$ ;;;;;;;;;;;;;;;;;;;;;;;;;;;",
";;;;;;;;;;;;;;;;;;;; && ;;;;;;;; OOOOO$*$$$***$**==$$$**$$$$$$$$$$$$$$$$$$ ;;;;;;;;;;;;;;;;;;;;;;;;;;;;",
";;;;;;;;;;;;;;;;;;; &&& ;;;;;;;;; OOOOO*$$$***$**=**$$$$$$$$$$$ $O$$$$$$$$$ ;;;;;;;;;;;;;;;;;;;;;;;;;;;",
";;;;;;;;;;;;;;;;;;; &&& ;;;;;;;;; OOOOO**$$$******=*$$$$$$$$$$$ $$O$$$$$$$$$ ;;;;;;;;;;;;;;;;;;;;;;;;;;",
";;;;;;;;;;;;;;;;;;; && ;;;;;;;;;;; OOOOO$$$$*****===**$$$$$$$$$ $$$$$$$$$*$*$ ;;;;;;;;;;;;;;;;;;;;;;;;;",
";;;;;;;;;;;;;;;;;;; && ;;;;;;;;;;; OOOOO$$$$*****====*$$$$$$$$% $$$$$$$****** ;;;;;;;;;;;;;;;;;;;;;;;;;",
";;;;;;;;;;;;;;;;;;; && ;;;;;;;;;;; OOOOOO$$$*****===**$$$$$$$$% $%$$$$$*$*$$ ;;;;;;;;;;;;;;;;;;;;;;;;;;",
";;;;;;;;;;;;;;;;;; &&& ;;;;;;;;;;; OOOO$$$$$**=*======$$$$$$$$$ %O$$$$$$$$$ ;;;;;;;;;;;;;;;;;;;;;;;;;;;",
";;;;;;;;;;;;;;;;;; &&& ;;;;;;;;;;;; OOO$O$$$$*========*$$$$$$$% %%O%$$OO$$@ ;;;;;;;;;;;;;;;;;;;;;;;;;;;",
";;;;;;;;;;;;;;;;;; &&& ;;;;;;;;;;;; OO$$$$$$**========*$$$$$$$$$  OOOO#&&&& ;;;;;;;;;;;;;;;;;;;;;;;;;;;",
";;;;;;;;;;;;;;;;;; &&& ;;;;;;;;;;;; OOO%$$$$**========*$$$$$$$$%%  Oo@#&&&& ;;;;;;;;;;;;;;;;;;;;;;;;;;;",
";;;;;;;;;;;;;;;;;; &&& ;;;;;;;;;;;; +%%%$$$$*=========*$$$$$$$$$$ ; @@&&&&& ;;;;;;;;;;;;;;;;;;;;;;;;;;;",
";;;;;;;;;;;;;;;;;; &&& ;;;;;;;;;;;; O$$$$$$**=====*==*$$$$$$$$$$$ ; o@&&&&&& ;;;;;;;;;;;;;;;;;;;;;;;;;;",
";;;;;;;;;;;;;;;;;; &&& ;;;;;;;;;;;; $$$$$$$*======***$$$$$$$$$$$$$ $o@&&&&&& ;;;;;;;;;;;;;;;;;;;;;;;;;;",
";;;;;;;;;;;;;;;;;; &&& ;;;;;;;;;;;; O$$$$$$**=====**$$$$$$$$$$$$$$$ o@&&&&&& ;;;;;;;;;;;;;;;;;;;;;;;;;;",
";;;;;;;;;;;;;;;;;; && ;;;;;;;;;;;;; $$$$$$$$$====**$$$$$$$$$$$$$$$$  #&&&&&& ;;;;;;;;;;;;;;;;;;;;;;;;;;",
";;;;;;;;;;;;;;;;;; && ;;;;;;;;;;;;; $$$$$$$$$$$***$$$$$$$$$$$$$$$$$ ; @&&&&& ;;;;;;;;;;;;;;;;;;;;;;;;;;",
";;;;;;;;;;;;;;;;;; && ;;;;;;;;;;;; $$$$$$$$$$$$$$$$$$$$$$$$$$$$$$$$ ; @&&&&&& ;;;;;;;;;;;;;;;;;;;;;;;;;",
";;;;;;;;;;;;;;;;;; && ;;;;;;;;;;;; $$$$$$$$$$$$$$$$$$$$$$$$$$$$$$$ ;; @&&&&&& ;;;;;;;;;;;;;;;;;;;;;;;;;",
";;;;;;;;;;;;;;;;;; && ;;;;;;;;;;;; $$$$$$$$$$$$$$$$$$$$$$$$$$$$$$$$ ;; &&&&&& ;;;;;;;;;;;;;;;;;;;;;;;;;",
";;;;;;;;;;;;;;;;;; && ;;;;;;;;;;;; $$$$$$$$$$$$$$$$$$$$$$$$$$$$$$$$ ;; &&&&&&& ;;;;;;;;;;;;;;;;;;;;;;;;",
";;;;;;;;;;;;;;;;;; & ;;;;;;;;;;;;; $$$$$$$$$$$$$$$$$$$$$$$$$$$$$$$$ ;; &&&&&&& ;;;;;;;;;;;;;;;;;;;;;;;;",
";;;;;;;;;;;;;;;;; &&& ;;;;;;;;;;;; %$$$$$$$$$$$$$$$$$$$$$$$$$$$$$$$ ;; &&&&&&& ;;;;;;;;;;;;;;;;;;;;;;;;",
";;;;;;;;;;;;;;;;; &&&& ;;;;;;;;;;;; $$$$$$$$$$$$$$$$$$$$$$$$$$$$$$$ ; @&&&&&&& ;;;;;;;;;;;;;;;;;;;;;;;;",
";;;;;;;;;;;;;;;; &&&&& ;;;;;;;;;;;; O$%%$$$$$$$$$$$$$$$$$$$$$$$%$$O ; @&&&&&&& ;;;;;;;;;;;;;;;;;;;;;;;;",
";;;;;;;;;;;;;;;; &&&&&& ;;;;;;;;;;; OOO%$$$$$$$$$$$$$$$$$$$$$$$%$$O  @@@&&&&&& ;;;;;;;;;;;;;;;;;;;;;;;;",
";;;;;;;;;;;;;;;; &&&@ && ;;;;;;;;; XXOOOO%O%$$$$$$$$$$$$$$$$O$OO++O   o#&&&&&& ;;;;;;;;;;;;;;;;;;;;;;;;",
";;;;;;;;;;;;;;;; &&& ; & ;;;;;;;;; XXXOOOOOOO$$$$$$$$$$$$$$OOOOOOOO  ; #&&&&&&& ;;;;;;;;;;;;;;;;;;;;;;;",
";;;;;;;;;;;;;;; @&@& ;;  ;;;;;;;;; ooooOOOOOOOOOOOOOOOOOOOOOOOOOOO+  ; #&&&&&&& ;;;;;;;;;;;;;;;;;;;;;;;",
";;;;;;;;;;;;;;; @&@& ;;;;;;;;;;;;; oXooOOOOOOOOOOOOOOOOOOOOOOOOOOO+  ; #&&&&&&& ;;;;;;;;;;;;;;;;;;;;;;;",
";;;;;;;;;;;;;;; @&@& ;;;;;;;;;;;;; oXXXOOOOOOOOOOOOOOOOOOOOOOOOOO+++ ;; &&&&&&& ;;;;;;;;;;;;;;;;;;;;;;;",
";;;;;;;;;;;;;;; @&&& ;;;;;;;;;;;;; oXXXXOOOOOOOOOOOOOOOOOOOOOOOOOOOO ;;; O&&&&& ;;;;;;;;;;;;;;;;;;;;;;;",
";;;;;;;;;;;;;;;     ;;;;;;;;;;;;;; oXXXXoOOOOOOOOOOOOOOOOOOOOOOOOOOO ;; **OOO&& ;;;;;;;;;;;;;;;;;;;;;;;",
";;;;;;;;;;;;;;;;;;;;;;;;;;;;;;;;;; oXXXoOOOOOOOOOOOOOOOOOOOOOOOOOOO  ;; *====*O ;;;;;;;;;;;;;;;;;;;;;;;",
";;;;;;;;;;;;;;;;;;;;;;;;;;;;;;;;;;; XXoooOOOOOOOOOOOOOOOOOOOOOOOOOOOO ; o**===*O ;;;;;;;;;;;;;;;;;;;;;;",
";;;;;;;;;;;;;;;;;;;;;;;;;;;;;;;;;;; XXooOOOOOOOOOOOOOOOOOOOOOOOOOOOOO ;; #&&&*** ;;;;;;;;;;;;;;;;;;;;;;",
";;;;;;;;;;;;;;;;;;;;;;;;;;;;;;;;;;; XXXXXOOOOOOOOOOOOOOOOOOOOOOOOOOOO ;; #&&&&&& ;;;;;;;;;;;;;;;;;;;;;;",
";;;;;;;;;;;;;;;;;;;;;;;;;;;;;;;;;;; XXXXOOOOOOOOOOOOOOOOOOOOOOOOOOOOO ;; #&&&&&& ;;;;;;;;;;;;;;;;;;;;;;",
";;;;;;;;;;;;;;;;;;;;;;;;;;;;;;;;;; XXXXXoOOOOOOOOOOOOOOOOOOOOOOOOOOO+ ;;; #&&&&& ;;;;;;;;;;;;;;;;;;;;;;",
";;;;;;;;;;;;;;;;;;;;;;;;;;;;;;;;;; OOXXOOOOOOOOOOOOOOOOOOOOOOOOOOOOOOO ;; @&&&&& ;;;;;;;;;;;;;;;;;;;;;;",
";;;;;;;;;;;;;;;;;;;;;;;;;;;;;;;;;  OXOXOOOOOOOoOoOoOoOOOOOOOOOOOOOOOOO ;; @&&&&& ;;;;;;;;;;;;;;;;;;;;;;",
";;;;;;;;;;;;;;;;;;;;;;;;;;;;;;;;; O%OOOOOOOOOOOOOOOOOOOOOOOOOOOOOOOOOO+ ; @&&&&& ;;;;;;;;;;;;;;;;;;;;;;",
";;;;;;;;;;;;;;;;;;;;;;;;;;;;;;;; OO%%%O$OOOOOOOOoOoOoOoOoOOOOOOOOOOOOOO ;; &&&&& ;;;;;;;;;;;;;;;;;;;;;;",
";;;;;;;;;;;;;;;;;;;;;;;;;;;;;;;; O  ===$%OOOOOOOOOOOO+oOOOOOOOOOOOOOOOOO ; &&&&& ;;;;;;;;;;;;;;;;;;;;;;",
";;;;;;;;;;;;;;;;;;;;;;;;;;;;;;; O %$ ===$$OOOOOOOOOOooooo+oOOOOOOOOOOOOO ; &@&&& ;;;;;;;;;;;;;;;;;;;;;;",
";;;;;;;;;;;;;;;;;;;;;;;;;;;;;;; $$****==$%%OOOOO+     ooooOOOOOOOOOOOOOOO @@&&&&& ;;;;;;;;;;;;;;;;;;;;;",
";;;;;;;;;;;;;;;;;;;;;;;;;;;;;; $$***$$==*$OOOOO+ ;;;;;  oooOOOOOOOOOOOOOOO #@&&&& ;;;;;;;;;;;;;;;;;;;;;",
";;;;;;;;;;;;;;;;;;;;;;;;;;;;;; =====*$*==$%OOOO ;;;;;;;; ooOOOOOOOOOOOOOOO #&&&&& ;;;;;;;;;;;;;;;;;;;;;",
";;;;;;;;;;;;;;;;;;;;;;;;;;;;; ======**$==*$OOOO ;;;;;;;; ooooOOOOOOOOOOOO @&&&&&& ;;;;;;;;;;;;;;;;;;;;;",
";;;;;;;;;;;;;;;;;;;;;;;;;;;; ========$$*==$OO+ ;;;;;;;;;; oOOOOOOOOOOOOO @@&&&&&&& ;;;;;;;;;;;;;;;;;;;;",
";;;;;;;;;;;;;;;;;;;;;;;;;;  =========$$$**$OO ;;;;;;;;;;;; OoOoOOOOOOOOO#@@&&&&&&&& ;;;;;;;;;;;;;;;;;;;",
";;;;;;;;;;;;;;;;;;;;;;;;;; --=====-==**$$*$O+ ;;;;;;;;;;;;; OOOOOOOOOOOO@@@&&&&&&&&& ;;;;;;;;;;;;;;;;;;",
";;;;;;;;;;;;;;;;;;;;;;;;;; **====-==**%%$$OO ;;;;;;;;;;;;;; XOoOOOOOOOO@@@@&&&&&&&&& ;;;;;;;;;;;;;;;;;;",
";;;;;;;;;;;;;;;;;;;;;;;;;; ++*===--===*%%%OO ;;;;;;;;;;;;;;; oOOOOOOOOO@@@@@&&&&&&&& ;;;;;;;;;;;;;;;;;;",
";;;;;;;;;;;;;;;;;;;;;;;;;; +++*=*=*=*=*$OOO ;;;;;;;;;;;;;;;;; oOoOOOOOO#@@@@@&&&&&&&& ;;;;;;;;;;;;;;;;;",
";;;;;;;;;;;;;;;;;;;;;;;;;; OOOO**===***$OO ;;;;;;;;;;;;;;;;;;; OOOOOOOO#@@@@@&&&&&&&& ;;;;;;;;;;;;;;;;;",
";;;;;;;;;;;;;;;;;;;;;;;;;; ooOO**-****$$OO ;;;;;;;;;;;;;;;;;;; ooOOOOOO#@@@@@&&&&&&&& ;;;;;;;;;;;;;;;;;",
";;;;;;;;;;;;;;;;;;;;;;;;;; ooOO%*--$**$$O ;;;;;;;;;;;;;;;;;;;;; OOOOOOO#oo@@@&&&&&&&&& ;;;;;;;;;;;;;;;;",
";;;;;;;;;;;;;;;;;;;;;;;;;; ooOOOO*$-$*$OO ;;;;;;;;;;;;;;;;;;;;;; OoOOOOOOOo@@&@&&&&&&& ;;;;;;;;;;;;;;;;",
";;;;;;;;;;;;;;;;;;;;;;;;; oooOOOO$*$$*$$ ;;;;;;;;;;;;;;;;;;;;;;; oOOOOOOOOO@@@&&&&&&&& ;;;;;;;;;;;;;;;;",
";;;;;;;;;;;;;;;;;;;;;;;;; XooOOOOO$$$$$$ ;;;;;;;;;;;;;;;;;;;;;;;; oOoOOOOOO@@@#&@&@&&&& ;;;;;;;;;;;;;;;",
";;;;;;;;;;;;;;;;;;;;;;;;; XoOOOOOO$$$$$ ;;;;;;;;;;;;;;;;;;;;;;;;;; OOOOOOOO@@#O&&&&&&&& ;;;;;;;;;;;;;;;",
";;;;;;;;;;;;;;;;;;;;;;;;; oooOOOOOO$$$% ;;;;;;;;;;;;;;;;;;;;;;;;;; OoOOOOOO@@@O#@@@&@&& ;;;;;;;;;;;;;;;",
";;;;;;;;;;;;;;;;;;;;;;;;; oOOOOOOOO$$$$ ;;;;;;;;;;;;;;;;;;;;;;;;;;; +OOOOOOO@&O#@@@@@&&& ;;;;;;;;;;;;;;",
";;;;;;;;;;;;;;;;;;;;;;;; oo+OOOOOOOOO$ ;;;;;;;;;;;;;;;;;;;;;;;;;;;;; OoOOOOOOOOO@@@@@@@& ;;;;;;;;;;;;;;",
";;;;;;;;;;;;;;;;;;;;;;; +ooOOOOOOOOOOO ;;;;;;;;;;;;;;;;;;;;;;;;;;;;; OOOOOOOOOOO@@@@@@@& ;;;;;;;;;;;;;;",
";;;;;;;;;;;;;;;;;;;;;; +oooOOOOOOOOOO  ;;;;;;;;;;;;;;;;;;;;;;;;;;;;;; XOOOOOOOOOO@@@@@@ ;;;;;;;;;;;;;;;",
";;;;;;;;;;;;;;;;;;;;; OXoooOOOOOOOOO ;;;;;;;;;;;;;;;;;;;;;;;;;;;;;;;; OOOOOOOOOOOO@@@  ;;;;;;;;;;;;;;;;",
";;;;;;;;;;;;;;;;;;;; oooXXXOOOOOOOOOO ;;;;;;;;;;;;;;;;;;;;;;;;;;;;;;;; +oOOOOOOOOO+  ;;;;;;;;;;;;;;;;;;",
";;;;;;;;;;;;;;;;;;; ooXXooXOOOOOOOOO ;;;;;;;;;;;;;;;;;;;;;;;;;;;;;;;;;; OOOOOOOOOO ;;;;;;;;;;;;;;;;;;;;",
";;;;;;;;;;;;;;;;;; oXXXXoooOOOOOOO% ;;;;;;;;;;;;;;;;;;;;;;;;;;;;;;;;;; ooOOOOOOOOO ;;;;;;;;;;;;;;;;;;;;",
";;;;;;;;;;;;;;;;; ooXXXXoOOOOOOOOO ;;;;;;;;;;;;;;;;;;;;;;;;;;;;;;;;;;; +o+++OOOO+ ;;;;;;;;;;;;;;;;;;;;;",
";;;;;;;;;;;;;;;;; XXXXXXoOOOOOOOOO ;;;;;;;;;;;;;;;;;;;;;;;;;;;;;;;;;;; ooooOOOOOO ;;;;;;;;;;;;;;;;;;;;;",
";;;;;;;;;;;;;;;; XXXXXXXOOOOOOOOOO ;;;;;;;;;;;;;;;;;;;;;;;;;;;;;;;;;;; ooooOOOOO+ ;;;;;;;;;;;;;;;;;;;;;",
";;;;;;;;;;;;;;;; oXXXXXXoOOOOOO+o  ;;;;;;;;;;;;;;;;;;;;;;;;;;;;;;;;;;; ooooooOoO ;;;;;;;;;;;;;;;;;;;;;;",
";;;;;;;;;;;;;;;; oXXXXXXOOOOOOOO ;;;;;;;;;;;;;;;;;;;;;;;;;;;;;;;;;;;;; ooooXo+O+ ;;;;;;;;;;;;;;;;;;;;;;",
";;;;;;;;;;;;;;;; oooXXXXXOOOO+  ;;;;;;;;;;;;;;;;;;;;;;;;;;;;;;;;;;;;;; oooooooo ;;;;;;;;;;;;;;;;;;;;;;;",
";;;;;;;;;;;;;;;; oXoXXXXXOOOO ;;;;;;;;;;;;;;;;;;;;;;;;;;;;;;;;;;;;;;;;  XXoooo ;;;;;;;;;;;;;;;;;;;;;;;;",
";;;;;;;;;;;;;;  X XXooXXoOo  ;;;;;;;;;;;;;;;;;;;;;;;;;;;;;;;;;;;;;;;;    oooo ;;;;;;;;;;;;;;;;;;;;;;;;;",
";;;;;;;;;;;;; .### oooXX   ;;;;;;;;;;;;;;;;;;;;;;;;;;;;;;;;;;;;;;;;;;   ...o. ;;;;;;;;;;;;;;;;;;;;;;;;;",
";;;;;;;;;;;;; ooX##  XX ;;;;;;;;;;;;;;;;;;;;;;;;;;;;;;;;;;;;;;;;;;;;  ooo.   ;;;;;;;;;;;;;;;;;;;;;;;;;;",
";;;;;;;;;;;; XooXX##X  ;;;;;;;;;;;;;;;;;;;;;;;;;;;;;;;;;;;;;;;;;;;;; o.Xoo## ;;;;;;;;;;;;;;;;;;;;;;;;;;",
";;;;;;;;;;;; XXoXoooooX ;;;;;;;;;;;;;;;;;;;;;;;;;;;;;;;;;;;;;;;;;;;; ooo.....  ;;;;;;;;;;;;;;;;;;;;;;;;",
";;;;;;;;;;; X    ...XX ;;;;;;;;;;;;;;;;;;;;;;;;;;;;;;;;;;;;;;;;;;;;; ooooooooo.  ;;;;;;;;;;;;;;;;;;;;;;",
";;;;;;;;;; .....XXooo ;;;;;;;;;;;;;;;;;;;;;;;;;;;;;;;;;;;;;;;;;;;;;;  oooXXXoXXXX  ;;;;;;;;;;;;;;;;;;;;",
";;;;;;;;; oXoooXXXoo. ;;;;;;;;;;;;;;;;;;;;;;;;;;;;;;;;;;;;;;;;;;;;;;  .oooXXooXXooo ;;;;;;;;;;;;;;;;;;;",
";;;;;;;;; XXooXXXXo.. ;;;;;;;;;;;;;;;;;;;;;;;;;;;;;;;;;;;;;;;;;;;;;;    ooXXooooooo ;;;;;;;;;;;;;;;;;;;",
";;;;;;;;; XXooXXXXo. ;;;;;;;;;;;;;;;;;;;;;;;;;;;;;;;;;;;;;;;;;;;;;;;;;;;            ;;;;;;;;;;;;;;;;;;;",
";;;;;;;;   ooooXXXX ;;;;;;;;;;;;;;;;;;;;;;;;;;;;;;;;;;;;;;;;;;;;;;;;;;;;;;;;;;;;;;;;;;;;;;;;;;;;;;;;;;;",
";;;;;;;;;;;   ooXX ;;;;;;;;;;;;;;;;;;;;;;;;;;;;;;;;;;;;;;;;;;;;;;;;;;;;;;;;;;;;;;;;;;;;;;;;;;;;;;;;;;;;",
";;;;;;;;;;;;;;    ;;;;;;;;;;;;;;;;;;;;;;;;;;;;;;;;;;;;;;;;;;;;;;;;;;;;;;;;;;;;;;;;;;;;;;;;;;;;;;;;;;;;;",
";;;;;;;;;;;;;;;;;;;;;;;;;;;;;;;;;;;;;;;;;;;;;;;;;;;;;;;;;;;;;;;;;;;;;;;;;;;;;;;;;;;;;;;;;;;;;;;;;;;;;;;",
";;;;;;;;;;;;;;;;;;;;;;;;;;;;;;;;;;;;;;;;;;;;;;;;;;;;;;;;;;;;;;;;;;;;;;;;;;;;;;;;;;;;;;;;;;;;;;;;;;;;;;;",
";;;;;;;;;;;;;;;;;;;;;;;;;;;;;;;;;;;;;;;;;;;;;;;;;;;;;;;;;;;;;;;;;;;;;;;;;;;;;;;;;;;;;;;;;;;;;;;;;;;;;;;",
";;;;;;;;;;;;;;;;;;;;;;;;;;;;;;;;;;;;;;;;;;;;;;;;;;;;;;;;;;;;;;;;;;;;;;;;;;;;;;;;;;;;;;;;;;;;;;;;;;;;;;;",
";;;;;;;;;;;;;;;;;;;;;;;;;;;;;;;;;;;;;;;;;;;;;;;;;;;;;;;;;;;;;;;;;;;;;;;;;;;;;;;;;;;;;;;;;;;;;;;;;;;;;;;",
";;;;;;;;;;;;;;;;;;;;;;;;;;;;;;;;;;;;;;;;;;;;;;;;;;;;;;;;;;;;;;;;;;;;;;;;;;;;;;;;;;;;;;;;;;;;;;;;;;;;;;;",
";;;;;;;;;;;;;;;;;;;;;;;;;;;;;;;;;;;;;;;;;;;;;;;;;;;;;;;;;;;;;;;;;;;;;;;;;;;;;;;;;;;;;;;;;;;;;;;;;;;;;;;",
";;;;;;;;;;;;;;;;;;;;;;;;;;;;;;;;;;;;;;;;;;;;;;;;;;;;;;;;;;;;;;;;;;;;;;;;;;;;;;;;;;;;;;;;;;;;;;;;;;;;;;;",
";;;;;;;;;;;;;;;;;;;;;;;;;;;;;;;;;;;;;;;;;;;;;;;;;;;;;;;;;;;;;;;;;;;;;;;;;;;;;;;;;;;;;;;;;;;;;;;;;;;;;;;",
";;;;;;;;;;;;;;;;;;;;;;;;;;;;;;;;;;;;;;;;;;;;;;;;;;;;;;;;;;;;;;;;;;;;;;;;;;;;;;;;;;;;;;;;;;;;;;;;;;;;;;;",
";;;;;;;;;;;;;;;;;;;;;;;;;;;;;;;;;;;;;;;;;;;;;;;;;;;;;;;;;;;;;;;;;;;;;;;;;;;;;;;;;;;;;;;;;;;;;;;;;;;;;;;",
";;;;;;;;;;;;;;;;;;;;;;;;;;;;;;;;;;;;;;;;;;;;;;;;;;;;;;;;;;;;;;;;;;;;;;;;;;;;;;;;;;;;;;;;;;;;;;;;;;;;;;;",
";;;;;;;;;;;;;;;;;;;;;;;;;;;;;;;;;;;;;;;;;;;;;;;;;;;;;;;;;;;;;;;;;;;;;;;;;;;;;;;;;;;;;;;;;;;;;;;;;;;;;;;",
";;;;;;;;;;;;;;;;;;;;;;;;;;;;;;;;;;;;;;;;;;;;;;;;;;;;;;;;;;;;;;;;;;;;;;;;;;;;;;;;;;;;;;;;;;;;;;;;;;;;;;;",
";;;;;;;;;;;;;;;;;;;;;;;;;;;;;;;;;;;;;;;;;;;;;;;;;;;;;;;;;;;;;;;;;;;;;;;;;;;;;;;;;;;;;;;;;;;;;;;;;;;;;;;",
";;;;;;;;;;;;;;;;;;;;;;;;;;;;;;;;;;;;;;;;;;;;;;;;;;;;;;;;;;;;;;;;;;;;;;;;;;;;;;;;;;;;;;;;;;;;;;;;;;;;;;;"
};
