/* XPM */
static char *_9_fps_zombie_DEAD_crop[] = {
/* columns rows colors chars-per-pixel */
"103 183 16 1 ",
"  c black",
". c #010000",
"X c #01070A",
"o c #01070B",
"O c #1C0000",
"+ c #1D0000",
"@ c #063938",
"# c #073938",
"$ c #460100",
"% c #470100",
"& c #1D5D5B",
"* c #960D00",
"= c #970D00",
"- c #F30802",
"; c #DFB77B",
": c None",
/* pixels */
":::::::::::::::::::::::::::::::::::::::::::::::::::::::::::::::::::::::::::::::::::::::::::::::::::::::",
":::::::::::::::::::::::::::::::::::::::::::::::::::::::::::::::::::::::::::::::::::::::::::::::::::::::",
":::::::::::::::::::::::::::::::::::::::::::::::::::::::::::::::::::::::::::::::::::::::::::::::::::::::",
":::::::::::::::::::::::::::::::::::::::::::::::::::::::::::::::::::::::::::::::::::::::::::::::::::::::",
":::::::::::::::::::::::::::::::::::::::::::::::::::::::::::::::::::::::::::::::::::::::::::::::::::::::",
":::::::::::::::::::::::::::::::::::::::::::::::::::::::::::::::::::::::::::::::::::::::::::::::::::::::",
":::::::::::::::::::::::::::::::::::::::::::::::::::::::::::::::::::::::::::::::::::::::::::::::::::::::",
":::::::::::::::::::::::::::::::::::::::::::::::::::::::::::::::::::::::::::::::::::::::::::::::::::::::",
":::::::::::::::::::::::::::::::::::::::::::::::::::::::::::::::::::::::::::::::::::::::::::::::::::::::",
":::::::::::::::::::::::::::::::::::::::::::::::::::::::::::::::::::::::::::::::::::::::::::::::::::::::",
":::::::::::::::::::::::::::::::::::::::::::::::::::::::::::::::::::::::::::::::::::::::::::::::::::::::",
":::::::::::::::::::::::::::::::::::::::::::::::::::::::::::::::::::::::::::::::::::::::::::::::::::::::",
":::::::::::::::::::::::::::::::::::::::::::::::::::::::::::::::::::::::::::::::::::::::::::::::::::::::",
":::::::::::::::::::::::::::::::::::::::::::::::::::::::::::::::::::::::::::::::::::::::::::::::::::::::",
":::::::::::::::::::::::::::::::::::::::::::::::::::::::::::::::::::::::::::::::::::::::::::::::::::::::",
":::::::::::::::::::::::::::::::::::::::::::::::::::::::::::::::::::::::::::::::::::::::::::::::::::::::",
":::::::::::::::::::::::::::::::::::::::::::::::::::::::::::::::::::::::::::::::::::::::::::::::::::::::",
":::::::::::::::::::::::::::::::::::::::::::::::::::::::::::::::::::::::::::::::::::::::::::::::::::::::",
":::::::::::::::::::::::::::::::::::::::::::::::::::::::::::::::::::::::::::::::::::::::::::::::::::::::",
":::::::::::::::::::::::::::::::::::::::::::::::::::::::::::::::::::::::::::::::::::::::::::::::::::::::",
":::::::::::::::::::::::::::::::::::::::::::::::::::::::::::::::::::::::::::::::::::::::::::::::::::::::",
":::::::::::::::::::::::::::::::::::::::::::::::::::::::::::::::::::::::::::::::::::::::::::::::::::::::",
":::::::::::::::::::::::::::::::::::::::::::::::::::::::::::::::::::::::::::::::::::::::::::::::::::::::",
":::::::::::::::::::::::::::::::::::::::::::::::::::::::::::::::::::::::::::::::::::::::::::::::::::::::",
":::::::::::::::::::::::::::::::::::::::::::::::::::::::::::::::::::::::::::::::::::::::::::::::::::::::",
":::::::::::::::::::::::::::::::::::::::::::::::::::::::::::::::::::::::::::::::::::::::::::::::::::::::",
":::::::::::::::::::::::::::::::::::::::::::::::::::::::::::::::::::::::::::::::::::::::::::::::::::::::",
"::::::::::::::::::::::::::::::::::::::::::::    :  ::::::::::::::::::::::::::::::::::::::::::::::::::::",
"::::::::::::::::::::::::::::::::::::::::::  XXXX XX  ::::::::::::::::::::::::::::::::::::::::::::::::::",
"::::::::::::::::::::::::::::::::::::::::: XXXXXXXXXXX    ::::::::::::::::::::::::::::::::::::::::::::::",
":::::::::::::::::::::::::::::::::::::::: XXXXXXXXXXXXXXXX        ::::::::::::::::::::::::::::::::::::::",
":::::::::::::::::::::::::::::::::::::::: XXXXXXXXXXXXXXXXXXXXXX  ::::::::::::::::::::::::::::::::::::::",
"::::::::::::::::::::::::::::::::::::::: @&XXXXXXXXXXXXXXXXXXX  ::::::::::::::::::::::::::::::::::::::::",
":::::::::::::::::::::::::::::::::::::: &&@&&&&&XXXXXXXXXXXXX ::::::::::::::::::::::::::::::::::::::::::",
"::::::::::::::::::::::::::::::::::::: &&@&&&&&&&&&@@XXXXXXXXX :::::::::::::::::::::::::::::::::::::::::",
":::::::::::::::::::::::::::::::::::: &&&&&&&&&&&&&&&&@@XXXXXXX  :::::::::::::::::::::::::::::::::::::::",
"::::::::::::::::::::::::::::::::::: &&&&&&&&&*&&&&&&&&@@XXXXXXX :::::::::::::::::::::::::::::::::::::::",
":::::::::::::::::::::::::::::::::: &&&&&&&&&&-@&&&&&&&&@XXXXXXX :::::::::::::::::::::::::::::::::::::::",
":::::::::::::::::::::::::::::::::: &&&&&&&&&*$--&&&&&&@&XXXXXXX :::::::::::::::::::::::::::::::::::::::",
":::::::::::::::::::::::::::::::::: &&&&&&&&*$$--&&&&&&&&XXXXXXX :::::::::::::::::::::::::::::::::::::::",
":::::::::::::::::::::::::::::::::: &@&@&&&@$$--*&&&&&&&&@XXXXXX :::::::::::::::::::::::::::::::::::::::",
":::::::::::::::::::::::::::::::::: &&&&&&&;;;;*&&&&&&&&&@XXXXXX :::::::::::::::::::::::::::::::::::::::",
"::::::::::::::::::::::::::::::::::: @&@&;;;;;;;&&&&&&&&&@XXXXXX :::::::::::::::::::::::::::::::::::::::",
"::::::::::::::::::::::::::::::::::: &&&&;;;;;;;;&&&&&&&&&@XXXXX :::::::::::::::::::::::::::::::::::::::",
"::::::::::::::::::::::::::::::::::: @&@&;;;;;;;;&&&&&&&&@&&&&XX :::::::::::::::::::::::::::::::::::::::",
"::::::::::::::::::::::::::::::::::: &&@@;;;;;;;;&&&&&&&&&&&&&XX :::::::::::::::::::::::::::::::::::::::",
"::::::::::::::::::::::::::::::::::: @-*-**$**;;;&&&&&&&&&&&&&&X :::::::::::::::::::::::::::::::::::::::",
"::::::::::::::::::::::::::::::::::: &--*$***-;;&&&&&&&&&&&&&&&X :::::::::::::::::::::::::::::::::::::::",
"::::::::::::::::::::::::::::::::::: @XX$X$$*$&&&&&&&&&@&&&&&&XX :::::::::::::::::::::::::::::::::::::::",
"::::::::::::::::::::::::::::::::::: &XXXXXXX@&&&&&&&&&&&&&&&&X  :::::::::::::::::::::::::::::::::::::::",
":::::::::::::::::::::::::::::::::: *@XXXXXXXX&&&&&&&@&@&&&&&X :::::::::::::::::::::::::::::::::::::::::",
":::::::::::::::::::::::::::::::::: &&XXXXXXXX&&&&&&&&@@&&&&&@ :::::::::::::::::::::::::::::::::::::::::",
":::::::::::::::::::::::::::::::::: &&XXXXXXXX&&&&&&&@@@@&&&@ ::::::::::::::::::::::::::::::::::::::::::",
":::::::::::::::::::::::::::::::::: &&XXXXXXXX&&&&&&@@@@X&&& :::::::::::::::::::::::::::::::::::::::::::",
":::::::::::::::::::::::::::::::::: &&XXXXXXXX+&&&&&@@@@@@@@ :::::::::::::::::::::::::::::::::::::::::::",
"::::::::::::::::::::::::::::::::: &&&&&XXXX@++&&&&&@@@@@@  ::::::::::::::::::::::::::::::::::::::::::::",
"::::::::::::::::::::::::::::::::: &&&&$*----X@&&&&@@@@@@ ::::::::::::::::::::::::::::::::::::::::::::::",
"::::::::::::::::::::::::::::::::: &&&&&@@@@@@&&&&&@@@@  :::::::::::::::::::::::::::::::::::::::::::::::",
"::::::::::::::::::::::::::::::::: @&&&&&&&&&&&&&&&@@  :::::::::::::::::::::::::::::::::::::::::::::::::",
":::::::::::::::::::::::::::::::::  @&&&&&&&&&&&&&&@ @ :::::::::::::::::::::::::::::::::::::::::::::::::",
":::::::::::::::::::::::::::::::::::  @@&&&&&&&&&&@@ @$       ::::::::::::::::::::::::::::::::::::::::::",
"::::::::::::::::::::::::::::::::::::: X@@@@@@@@@@@@ @$+****$$    ::::::::::::::::::::::::::::::::::::::",
":::::::::::::::::::::::::::::::::::: +XXXXXXXXX@@@ @X+O*$*$$$$$$$  ::::::::::::::::::::::::::::::::::::",
":::::::::::::::::::::::::::::::::::  +XXXXX@@@@@@@@@X++$*$$$$$$$$$$  ::::::::::::::::::::::::::::::::::",
":::::::::::::::::::::::::::::::::  $$ XXX@@@@@@@@@X@XXO$$$$$$$$$$$$$$ :::::::::::::::::::::::::::::::::",
":::::::::::::::::::::::::::::::: $$$$ +XX@@@@@@@@@@@XXO$*$$$$$$$$$$$$$  :::::::::::::::::::::::::::::::",
"::::::::::::::::::::::::::::::: $$$$$$+XX@@@@@@@@@X@XXX$$$$$$$$$$$$$$$$$ ::::::::::::::::::::::::::::::",
":::::::::::::::::::::::::::::: $$$$$$$+oXX@@@@@@@@@XXXO$$$$$$$$$$$$$$$$$ ::::::::::::::::::::::::::::::",
"::::::::::::::::::::::::::::: $$$$+$$$+XXXX@@@@@@@XXXOO$$$$$$$$$$$$$$$$$ ::::::::::::::::::::::::::::::",
":::::::::::::::::::::::::::: $$$$$$$$$OXXXX@@@@@@@@XXX$$$$$$$$$$$$$$$$$$$ :::::::::::::::::::::::::::::",
"::::::::::::::::::::::::::: $$$$$$+$$$OXXXX@X@X@X@XXXO$$$$$$$$$$$$$$$$$$$ :::::::::::::::::::::::::::::",
":::::::::::::::::::::::::: $$$$$$$$$$$OOXXXX@@@@XXXXXX$$$$$$$$$$$$$$$$$$$ :::::::::::::::::::::::::::::",
"::::::::::::::::::::::::: $$$$$$$$O$$$OOXXXXXXXXXXXXXX$$$$$$$$$$$$$$$$$$$ :::::::::::::::::::::::::::::",
":::::::::::::::::::::::: $$$$$$$$$$$O$OOXXXXXXXXXXXXXO$$$$$$$$$$$$$$$$$$$ :::::::::::::::::::::::::::::",
"::::::::::::::::::::::: $$$$$$$$$$$$O$OOXXXXXXXXXXXXXO$$$$$$$$$$$$$$$$$$$ :::::::::::::::::::::::::::::",
"::::::::::::::::::::::: $$$$$$$$$$$$$O$OOXXXXXXXXXXXO$$$$$$$$$$$$$$$$$$$$ :::::::::::::::::::::::::::::",
":::::::::::::::::::::: $$$$$$$$$$$$$$$O$$OXXXXXXXXXOO$$$$$$$$$$$$$$$$$$$$ :::::::::::::::::::::::::::::",
"::::::::::::::::::::: $$$$$$$$$$$$$$$$OO$$O$XXXX+$$$$$$$$$$$$$$$$$$$$$$$$ :::::::::::::::::::::::::::::",
"::::::::::::::::::::: $$$$$$$$$$$$$$$$OOOOO$XXXXO$O$$$$$$$$$$$$OO$+$$$$$$$ ::::::::::::::::::::::::::::",
":::::::::::::::::::: *$$$$$$$$$$$$$$$$$$$OOOXXXOO$$$$$$$$$$$$$$OOO$$$$$$$$ ::::::::::::::::::::::::::::",
":::::::::::::::::::: *+$$$$$$$$$$$$$$$O$OOOOOOXO+$$$$$$$$$$$$$$OOOO$$$$$$$ ::::::::::::::::::::::::::::",
":::::::::::::::::::: $***$$$$$$$$$$$$$$$$$$OOOOO$$$$$$$$$$$$$$$OOO$$$$$$$$ ::::::::::::::::::::::::::::",
":::::::::::::::::::: &&&@&+ +$O$$$$$$$$$$$O$O$O$$$$$$$$$$$$$$$$+OOO$$$$$$$ ::::::::::::::::::::::::::::",
":::::::::::::::::::: &&&@+ : +$$$$$$$$$$$$$$$$$$$$$$$$$$$$$$$$$$$$$$$$$$$$ ::::::::::::::::::::::::::::",
":::::::::::::::::::: &&&@ ::: +OO$$$$$$$$$$$$$$$$$$$$$*$$$$$$$$$O$$$$$$$$$$ :::::::::::::::::::::::::::",
":::::::::::::::::::: &&&& :::: +O$$$$$$$$$$$$$$$$$$$$$*$$$$$$$$$$$$$$$$$$$$ :::::::::::::::::::::::::::",
":::::::::::::::::::: &&& :::::: OOO$O$$$$$$$$$$$$$$$$$**$$$$$$$$OO$$$$$$$$$ :::::::::::::::::::::::::::",
":::::::::::::::::::: &&& ::::::: +OO$$$$$$$*$$$$$$$$$$**$$$$$$$$$O$$$$$$$$$$ ::::::::::::::::::::::::::",
":::::::::::::::::::: &&& ::::::: +OOOOO$$$$*$$$$$$$$$$**$$$$$$$$OO$$$$$$$$$ :::::::::::::::::::::::::::",
":::::::::::::::::::: &&& :::::::: OOOOO$$$$***$$$$*$$$***$$$$$$$$+$$$$$$$$$ :::::::::::::::::::::::::::",
":::::::::::::::::::: &&& :::::::: OOOOO$$$$*$*$*****$$**$$$$$$$$+++$$$$$$$$$ ::::::::::::::::::::::::::",
":::::::::::::::::::: &&& :::::::: +OOOO**$$*******-*$$$*$$$$$$$$ $$$$$$$$$$$$ :::::::::::::::::::::::::",
":::::::::::::::::::: &&& ::::::::: +OOO$*$$$*******-$$$$$$$$$$$$ $$$$$$$$$$$$ :::::::::::::::::::::::::",
":::::::::::::::::::: &&& ::::::::: +OOOO*$$$$*****--*$$$$$$$$$$$ $$$$$$$****$ :::::::::::::::::::::::::",
":::::::::::::::::::: &&& ::::::::: +OOOOO$O$$*****--**$$$$$$$$$ $$$$$$$*$*$*  :::::::::::::::::::::::::",
":::::::::::::::::::: &&& :::::::::: OOOO$$$$$****-----*$$$$$$$$ $$$$$$$$$$$ :::::::::::::::::::::::::::",
":::::::::::::::::::: && ::::::::::: +OOOO$$$$****-----*$$$$$$$$ $$+$$$$$$+$ :::::::::::::::::::::::::::",
":::::::::::::::::::: && ::::::::::: +OO$$$$$$**--------$$$$$$$$$   ++++$@&& :::::::::::::::::::::::::::",
":::::::::::::::::::: && ::::::::::: OOO$$$$$$**-------**$$$$$$$$$ : X@@&&&&& ::::::::::::::::::::::::::",
"::::::::::::::::::: && :::::::::::: OO$$$$$$**--------*$$$$$$$$$$ : X@&&&&&& ::::::::::::::::::::::::::",
"::::::::::::::::::: && :::::::::::: O++$$$$$**--------*$$$$$$$$$$ : X@@&&&&& ::::::::::::::::::::::::::",
"::::::::::::::::::: && ::::::::::::: $$$$$$$*---------*$$$$$$$$$$ :: @&&&&&& ::::::::::::::::::::::::::",
"::::::::::::::::::: && ::::::::::::: $$$$$$$*-----***$$$$$$$$$$$$$ : @@&&&&& ::::::::::::::::::::::::::",
":::::::::::::::::: &&& ::::::::::::: $$$$$$*------**$$$$$$$$$$$$$$ :: @&&&&& ::::::::::::::::::::::::::",
":::::::::::::::::: &&& ::::::::::::: $$$$$$$*-----**$$$$$$$$$$$$$$$ : @&&&&&& :::::::::::::::::::::::::",
":::::::::::::::::: &&& :::::::::::: $$$$$$$$$*----*$$$$$$$$$$$$$$$$ : @&&&&&& :::::::::::::::::::::::::",
":::::::::::::::::: &&& :::::::::::: $$$$$$$$$$****$$$$$$$$$$$$$$$$$$ : @&&&&& :::::::::::::::::::::::::",
":::::::::::::::::: &&& :::::::::::: $$$$$$$$$$$$*$$$$$$$$$$$$$$$$$$ :: @&&&&&& ::::::::::::::::::::::::",
":::::::::::::::::: &&& :::::::::::: $$$$$$$$$$$$$$$$$$$$$$$$$$$$$$$ :: @&&&&&& ::::::::::::::::::::::::",
":::::::::::::::::: &&& :::::::::::: $$$$$$$$$$$$$$$$$$$$$$$$$$$$$$$ :: @&&&&&& ::::::::::::::::::::::::",
":::::::::::::::::: &&& ::::::::::: $$$$$$$$$$$$$$$$$$$$$$$$$$$$$$$$ :: @&&&&&&& :::::::::::::::::::::::",
":::::::::::::::::: && :::::::::::: $$$$$$$$$$$$$$$$$$$$$$$$$$$$$$$$ :: @&&&&&&& :::::::::::::::::::::::",
":::::::::::::::::: && ::::::::::::: $$$$$$$$$$$$$$$$$$$$$$$$$$$$$$$ :: @@&&&&&& :::::::::::::::::::::::",
":::::::::::::::::: && ::::::::::::: +$$$$$$$$$$$$$$$$$$$$$$$$$$$$$$$ : @&&&&&&& :::::::::::::::::::::::",
":::::::::::::::::: && ::::::::::::: +OO$$$$$$$$$$$$$$$$$$$$$$$$$$$+$ : @@&&&&&& :::::::::::::::::::::::",
":::::::::::::::::: && :::::::::::: XOOOO$$$$$$$$$$$$$$$$$$$$$$$$$$$+ : @@&&&&&& :::::::::::::::::::::::",
":::::::::::::::::: && :::::::::::: XX+OOOOO$$$$$$$$$$$$$$$$$$$$$$$OO :: @&&&&&& :::::::::::::::::::::::",
":::::::::::::::::: &&& ::::::::::: XXXXOOOOO$$$$$$$$$$$$$$$$$$$$$OOO :: @&&&&&&& ::::::::::::::::::::::",
":::::::::::::::::: &&& ::::::::::: XXXXXXOOOOOOOO$O$O$+$+$OOOOOOOOO+ ::: &&&&&&& ::::::::::::::::::::::",
"::::::::::::::::: &&&&& :::::::::: XXXXXXOOOOOOOOOOOOO++OOOOOOOOOOOO ::: ++&&&&& ::::::::::::::::::::::",
"::::::::::::::::: &&& @& ::::::::: XXXXXXOXOOOOOOOOOOOOOOOOOOOOOOOOO ::: *+OO&&& ::::::::::::::::::::::",
"::::::::::::::::: && : & ::::::::: XXXXXXXOOOOOOOOOOOOOOOOOOOOOOOOOO ::: *----+O ::::::::::::::::::::::",
"::::::::::::::::: @& ::  :::::::::: X+XXXXXOXOOOOOOOOOOOOOOOOOOOOOOO ::: +*-----* :::::::::::::::::::::",
"::::::::::::::::: && ::::::::::::::: +OXXXXXXOOOOOOOOOOOOOOOOOOOOOO+ :::: &&&&*** :::::::::::::::::::::",
"::::::::::::::::: && :::::::::::::: XOXOXXXXXXXOXOOOOOOOOOOOOOOOOOOO+ ::: X&&&&&@ :::::::::::::::::::::",
"::::::::::::::::: &@ ::::::::::::: +OOOOXXXXXXXXXOOOOOOOOOOOOOOOOOOO+ ::: @&&&&&& :::::::::::::::::::::",
"::::::::::::::::: &  ::::::::::::: OOOOOXXXXXXXXXXXOOOOOOOOOOOOOOOOO+ :::: @@&&&& :::::::::::::::::::::",
":::::::::::::::::  ::::::::::::::  ++OOOXXXXXXXXXXXXOOOOOOOOOOOOOOOO+ :::: @&&&&& :::::::::::::::::::::",
":::::::::::::::::::::::::::::::: + ++OOOXXXXXXXXXXXXXOXOOOOOOOOOOOOOO :::: @@&&&& :::::::::::::::::::::",
":::::::::::::::::::::::::::::::: $$$OOOOOXXXXXXXXXXXXXXOOOOOOOOOOOOOO+ :::: &&&&& :::::::::::::::::::::",
":::::::::::::::::::::::::::::::   $$*$$$OOXXXXXXXXXXXXXXXOOOOOOOOOOOOO+ ::: @&&&&& ::::::::::::::::::::",
"::::::::::::::::::::::::::::::  $$  --$$OOOOOOOOOOOXXXXXXOOOOOOOOOOOOOOO :: @&&&&& ::::::::::::::::::::",
"::::::::::::::::::::::::::::: + $$$$*-$$OOOOOOOOXOX+XXXXXXXOOOOOOOOOOOOO+ :: @@&&& ::::::::::::::::::::",
"::::::::::::::::::::::::::::: - **$$--*$$OOOOOO+OOO+XXXXXXOOOOOOOOOOOOOOO+ : @&&&& ::::::::::::::::::::",
":::::::::::::::::::::::::::: ---**$$---$$OOOOOX XXXXXXXXXXXOOOOOOOOOOOOOOO+ @@@&&& ::::::::::::::::::::",
":::::::::::::::::::::::: :: -----*$$*--*$OOOO+ : XXXXXXXXXXXOOOOOOOOOOOOO+O @&&&&& ::::::::::::::::::::",
"::::::::::::::::::::::::   ------*$$$--*$OOO+ :::    XXXXXXXX+OOOOOOOOOO+  @@&@&&&& :::::::::::::::::::",
":::::::::::::::::::::::: ;-------**$*---$$OO ::::::::   XXXXXXOOOO+OOOOO+@@@@&&&&&&& ::::::::::::::::::",
":::::::::::::::::::::::: *-----;-*$$$***$$+ ::::::::::::  XXXXXOOOOOOOOO+@@@@@@&&&&& ::::::::::::::::::",
"::::::::::::::::::::::: +$*---;;-*$$$***$+ ::::::::::::::: XXXX+OOOOOOOO@@@@@@&&&&&&& :::::::::::::::::",
"::::::::::::::::::::::: OO*-*--;-*$$$$$$O+ :::::::::::::::: XXX+XOOOOOOO@@@@@@@&&&&&& :::::::::::::::::",
"::::::::::::::::::::::: +O$**----**$$$$O+ :::::::::::::::::: XXXOOOOOOOO@@@@@@@&&&&&&& ::::::::::::::::",
":::::::::::::::::::::: ++OO**;*-**$$+OO+ :::::::::::::::::::: XXXOXOOOOOXXX@@@@@@&&&&& ::::::::::::::::",
":::::::::::::::::::::: OOO$$O;****$+OO+ :::::::::::::::::::::: XXXXOOOOOOOXX@@@@&&&&&& ::::::::::::::::",
":::::::::::::::::::::: +OOOO$;;$**$O++ :::::::::::::::::::::::: oooXX++OOOOXX@@@@@@&@&& :::::::::::::::",
"::::::::::::::::::::: ++OOOO$*;***OO+ :::::::::::::::::::::::::: oooX+++OOOOOX@@@@@@&&& :::::::::::::::",
"::::::::::::::::::::: ++OOOOO*$*$$OO :::::::::::::::::::::::::::: ooXXX+OOOOOX@@@@@@@@@& ::::::::::::::",
"::::::::::::::::::::: ++OOOOO$$*$$O+ ::::::::::::::::::::::::::::: oXXX+OOOOOO@@@@@@@@@@ ::::::::::::::",
":::::::::::::::::::  +X+OOOOO$$$$$+ ::::::::::::::::::::::::::::::: XXooXOOOOO@@@@@@@@@@@ :::::::::::::",
":::::::::::::::::   ++OOOOOOO$$$$$ ::::::::::::::::::::::::::::::::: XXoX+OOOOOO+O@@@@@@@ :::::::::::::",
":::::::::::::::: +  ++XOOOOOOOO$$+ :::::::::::::::::::::::::::::::::: ooX+OOOOOOOOOO@@@@@ :::::::::::::",
":::::::::::::::    +++OOOOOOOOOO$ :::::::::::::::::::::::::::::::::::: oXXOOOOOOOOOOO+++ ::::::::::::::",
":::::::::::::::    oX+OOOOOOOOOO+ ::::::::::::::::::::::::::::::::::::: XXXOOOOOOOOOOOO :::::::::::::::",
":::::::::::::::    oX+OOOOOOOOO+ ::::::::::::::::::::::::::::::::::::::: XXOOOOOOOOOOO+$ ::::::::::::::",
":::::::::::::  .o ooX+OOOOOOOO+ ::::::::::::::::::::::::::::::::::::::   XXXoO+OOOOOOOO+ ::::::::::::::",
":::::::::::: o..o.ooXXO+OOO$O++ ::::::::::::::::::::::::::::::::::::  ..  oooX++OOOOOOOO$ :::::::::::::",
"::::::::::: XX..o.oooo++OOOO+  :::::::::::::::::::::::::::::::::::: ....  .oooX+OOOOOOOO ::::::::::::::",
":::::::::  XXXo..oooXo++OOO$ :::::::::::::::::::::::::::::::::::::: o ..  ..ooX++OOOOOOO ::::::::::::::",
":::::::     Xooo..ooXXX+OOO+ ::::::::::::::::::::::::::::::::::::::  o......ooXXX+OOOO+ :::::::::::::::",
":::::          .oo.ooo++OO+  ::::::::::::::::::::::::::::::::::::::  ooo.... XXXOOOOO++ :::::::::::::::",
":::: XoooXXXooXXooo oX     ::::::::::::::::::::::::::::::::::::::::  Xooo  ..oooo+++OO+ :::::::::::::::",
":::: XooXXXXooXXooo   :::::::::::::::::::::::::::::::::::::::::::::  Xoooo...oooX+++OO  :::::::::::::::",
"::: XXooXXXXooXooo   ::::::::::::::::::::::::::::::::::::::::::::::           ooXXX+X   :::::::::::::::",
":::: XXooXoooooo  ::::::::::::::::::::::::::::::::::::::::::::::::::::::::::::    XX ::::::::::::::::::",
":::::  oXXooX   ::::::::::::::::::::::::::::::::::::::::::::::::::::::::::::::::::  :::::::::::::::::::",
":::::::      ::::::::::::::::::::::::::::::::::::::::::::::::::::::::::::::::::::::::::::::::::::::::::",
":::::::::::::::::::::::::::::::::::::::::::::::::::::::::::::::::::::::::::::::::::::::::::::::::::::::",
":::::::::::::::::::::::::::::::::::::::::::::::::::::::::::::::::::::::::::::::::::::::::::::::::::::::",
":::::::::::::::::::::::::::::::::::::::::::::::::::::::::::::::::::::::::::::::::::::::::::::::::::::::",
":::::::::::::::::::::::::::::::::::::::::::::::::::::::::::::::::::::::::::::::::::::::::::::::::::::::",
":::::::::::::::::::::::::::::::::::::::::::::::::::::::::::::::::::::::::::::::::::::::::::::::::::::::",
":::::::::::::::::::::::::::::::::::::::::::::::::::::::::::::::::::::::::::::::::::::::::::::::::::::::",
":::::::::::::::::::::::::::::::::::::::::::::::::::::::::::::::::::::::::::::::::::::::::::::::::::::::",
":::::::::::::::::::::::::::::::::::::::::::::::::::::::::::::::::::::::::::::::::::::::::::::::::::::::",
":::::::::::::::::::::::::::::::::::::::::::::::::::::::::::::::::::::::::::::::::::::::::::::::::::::::",
":::::::::::::::::::::::::::::::::::::::::::::::::::::::::::::::::::::::::::::::::::::::::::::::::::::::",
":::::::::::::::::::::::::::::::::::::::::::::::::::::::::::::::::::::::::::::::::::::::::::::::::::::::",
":::::::::::::::::::::::::::::::::::::::::::::::::::::::::::::::::::::::::::::::::::::::::::::::::::::::",
":::::::::::::::::::::::::::::::::::::::::::::::::::::::::::::::::::::::::::::::::::::::::::::::::::::::",
":::::::::::::::::::::::::::::::::::::::::::::::::::::::::::::::::::::::::::::::::::::::::::::::::::::::",
":::::::::::::::::::::::::::::::::::::::::::::::::::::::::::::::::::::::::::::::::::::::::::::::::::::::",
":::::::::::::::::::::::::::::::::::::::::::::::::::::::::::::::::::::::::::::::::::::::::::::::::::::::",
":::::::::::::::::::::::::::::::::::::::::::::::::::::::::::::::::::::::::::::::::::::::::::::::::::::::"
};
