/* XPM */
static char *_4_fps_zombie_DEAD_crop[] = {
/* columns rows colors chars-per-pixel */
"103 183 16 1 ",
"  c black",
". c #010100",
"X c #01070A",
"o c #01070B",
"O c #1C0000",
"+ c #063838",
"@ c #063938",
"# c #063939",
"$ c #460100",
"% c #470100",
"& c #1D5D5A",
"* c #1D5D5B",
"= c #960D00",
"- c #F30802",
"; c #DFB77B",
": c None",
/* pixels */
":::::::::::::::::::::::::::::::::::::::::::::::::::::::::::::::::::::::::::::::::::::::::::::::::::::::",
":::::::::::::::::::::::::::::::::::::::::::::::::::::::::::::::::::::::::::::::::::::::::::::::::::::::",
":::::::::::::::::::::::::::::::::::::::::::::::::::::::::::::::::::::::::::::::::::::::::::::::::::::::",
":::::::::::::::::::::::::::::::::::::::::::::::::::::::::::::::::::::::::::::::::::::::::::::::::::::::",
":::::::::::::::::::::::::::::::::::::::::::::::::::::::::::::::::::::::::::::::::::::::::::::::::::::::",
":::::::::::::::::::::::::::::::::::::::::::::::::::::::::::::::::::::::::::::::::::::::::::::::::::::::",
":::::::::::::::::::::::::::::::::::::::::::::::::::::::::::::::::::::::::::::::::::::::::::::::::::::::",
":::::::::::::::::::::::::::::::::::::::::::::::::::::::::::::::::::::::::::::::::::::::::::::::::::::::",
":::::::::::::::::::::::::::::::::::::::::::::::::::::::::::::::::::::::::::::::::::::::::::::::::::::::",
":::::::::::::::::::::::::::::::::::::::::::::::::::::::::::::::::::::::::::::::::::::::::::::::::::::::",
":::::::::::::::::::::::::::::::::::::::::::::::::::::::::::::::::::::::::::::::::::::::::::::::::::::::",
":::::::::::::::::::::::::::::::::::::::::::::::::::::::::::::::::::::::::::::::::::::::::::::::::::::::",
":::::::::::::::::::::::::::::::::::::::::::::::::::::::::::::::::::::::::::::::::::::::::::::::::::::::",
":::::::::::::::::::::::::::::::::::::::::::::::::::::::::::::::::::::::::::::::::::::::::::::::::::::::",
":::::::::::::::::::::::::::::::::::::::::::::::::::::::::::::::::::::::::::::::::::::::::::::::::::::::",
":::::::::::::::::::::::::::::::::::::::::::::::::::::::::::::::::::::::::::::::::::::::::::::::::::::::",
":::::::::::::::::::::::::::::::::::::::::::::::::::::::::::::::::::::::::::::::::::::::::::::::::::::::",
":::::::::::::::::::::::::::::::::::::::::::::::::::::::::::::::::::::::::::::::::::::::::::::::::::::::",
":::::::::::::::::::::::::::::::::::::::::::::::::::::::::::::::::::::::::::::::::::::::::::::::::::::::",
":::::::::::::::::::::::::::::::::::::::::::::::::::::::::::::::::::::::::::::::::::::::::::::::::::::::",
":::::::::::::::::::::::::::::::::::::::::::::::::::::::::::::::::::::::::::::::::::::::::::::::::::::::",
":::::::::::::::::::::::::::::::::::::::::::::::::::::::::::::::::::::::::::::::::::::::::::::::::::::::",
":::::::::::::::::::::::::::::::::::::::::::::::::::::::::::::::::::::::::::::::::::::::::::::::::::::::",
":::::::::::::::::::::::::::::::::::::::::::::::::::::::::::::::::::::::::::::::::::::::::::::::::::::::",
":::::::::::::::::::::::::::::::::::::::::::::::::::::::::::::::::::::::::::::::::::::::::::::::::::::::",
":::::::::::::::::::::::::::::::::::::::::::::::::::::::::::::::::::::::::::::::::::::::::::::::::::::::",
":::::::::::::::::::::::::::::::::::::::::::::::::::::::::::::::::::::::::::::::::::::::::::::::::::::::",
":::::::::::::::::::::::::::::::::::::::::::::::::::::::::::::::::::::::::::::::::::::::::::::::::::::::",
":::::::::::::::::::::::::::::::::::::::::::::::::::::::::::::::::::::::::::::::::::::::::::::::::::::::",
":::::::::::::::::::::::::::::::::::::::::::::::::::::::::::::::::::::::::::::::::::::::::::::::::::::::",
":::::::::::::::::::::::::::::::::::::::::::::::::::::::::::::::::::::::::::::::::::::::::::::::::::::::",
":::::::::::::::::::::::::::::::::::::::::::::::::::::::::::::::::::::::::::::::::::::::::::::::::::::::",
":::::::::::::::::::::::::::::::::::::::::::::::::::::::::::::::::::::::::::::::::::::::::::::::::::::::",
":::::::::::::::::::::::::::::::::::::::::::::::::::::::::::::::::::::::::::::::::::::::::::::::::::::::",
":::::::::::::::::::::::::::::::::::::::::::::::::::::::::::::::::::::::::::::::::::::::::::::::::::::::",
":::::::::::::::::::::::::::::::::::::::::::::::::::::::::::::::::::::::::::::::::::::::::::::::::::::::",
":::::::::::::::::::::::::::::::::::::::::::::::::::::::::::::::::::::::::::::::::::::::::::::::::::::::",
":::::::::::::::::::::::::::::::::::::::::::::::::::::::::::::::::::::::::::::::::::::::::::::::::::::::",
":::::::::::::::::::::::::::::::::::::::::::::::::::::::::::::::::::::::::::::::::::::::::::::::::::::::",
":::::::::::::::::::::::::::::::::::::::::::::::::::::::::::::::::::::::::::::::::::::::::::::::::::::::",
":::::::::::::::::::::::::::::::::::::::::::::::::::::::::::::::::::::::::::::::::::::::::::::::::::::::",
":::::::::::::::::::::::::::::::::::::::::::::::::::::::::::::::::::::::::::::::::::::::::::::::::::::::",
":::::::::::::::::::::::::::::::::::::::::::::::::::::::::::::::::::::::::::::::::::::::::::::::::::::::",
":::::::::::::::::::::::::::::::::::::::::::::::::::::::::::::::::::::::::::::::::::::::::::::::::::::::",
":::::::::::::::::::::::::::::::::::::::::::::::::::::::::::::::::::::::::::::::::::::::::::::::::::::::",
":::::::::::::::::::::::::::::::::::::::::::::::::::::::::::::::::::::::::::::::::::::::::::::::::::::::",
":::::::::::::::::::::::::::::::::::::::::::::::::::::::::::::::::::::::::::::::::::::::::::::::::::::::",
":::::::::::::::::::::::::::::::::::::::::::::::::::::::::::::::::::::::::::::::::::::::::::::::::::::::",
":::::::::::::::::::::::::::::::::::::::::::::::::::::::::::::::::::::::::::::::::::::::::::::::::::::::",
"::::::::::::::::::::::::::::::::::::::::::::::::::: :::::::::::::::::::::::::::::::::::::::::::::::::::",
":::::::::::::::::::::::::::::::::::::::::::::::::: o   ::::::::::::::::::::::::::::::::::::::::::::::::",
"::::::::::::::::::::::::::::::::::::::::::::::::  ooooo    ::::::::::::::::::::::::::::::::::::::::::::",
"::::::::::::::::::::::::::::::::::::::::::::::: ooooooooXXo     :::::::::::::::::::::::::::::::::::::::",
"::::::::::::::::::::::::::::::::::::::::::::::: &##oooooXoXXoooX    :::::::::::::::::::::::::::::::::::",
"::::::::::::::::::::::::::::::::::::::::::::   *&&&&##@ooooooooooooo    :::::::::::::::::::::::::::::::",
"::::::::::::::::::::::::::::::::::::::::::: *****&;&&&&&&&ooooXXooooo  ::::::::::::::::::::::::::::::::",
":::::::::::::::::::::::::::::::::::::::::  &****;;;;;*****&#XXXXooo  ::::::::::::::::::::::::::::::::::",
":::::::::::::::::::::::::::::::::::::::: &*****;;;;;;;****&&@oXXoo ::::::::::::::::::::::::::::::::::::",
":::::::::::::::::::::::::::::::::::::::: &****#;-;;;;;**&&&&@@Xooo ::::::::::::::::::::::::::::::::::::",
":::::::::::::::::::::::::::::::::::::::: *****&=#=;;;******&&@XXooo :::::::::::::::::::::::::::::::::::",
"::::::::::::::::::::::::::::::::::::::: #&#&#&#&O==*********##XXoXoo ::::::::::::::::::::::::::::::::::",
"::::::::::::::::::::::::::::::::::::::: =*&&&&*&*&**********&@XoXXoX ::::::::::::::::::::::::::::::::::",
":::::::::::::::::::::::::::::::::::::::: *####@&#****&*****&#oooXXXXo :::::::::::::::::::::::::::::::::",
":::::::::::::::::::::::::::::::::::::::: =----@@&***********&oooXXooo :::::::::::::::::::::::::::::::::",
":::::::::::::::::::::::::::::::::::::::: ====--@#***********@oooXXXoo :::::::::::::::::::::::::::::::::",
"::::::::::::::::::::::::::::::::::::::: #=====$@#**********&&oooXXXXo :::::::::::::::::::::::::::::::::",
"::::::::::::::::::::::::::::::::::::::: oooooooo#&********&&@&#oXXXX ::::::::::::::::::::::::::::::::::",
"::::::::::::::::::::::::::::::::::::::: oooooooX&&&&******&&&&**&oXX ::::::::::::::::::::::::::::::::::",
":::::::::::::::::::::::::::::::::::::: &ooooXXoo&&*&************&&oo ::::::::::::::::::::::::::::::::::",
":::::::::::::::::::::::::::::::::::::: &ooXXXooo&&**************&&oo ::::::::::::::::::::::::::::::::::",
"::::::::::::::::::::::::::::::::::::: &&ooXXoooo********#*******&&oo ::::::::::::::::::::::::::::::::::",
"::::::::::::::::::::::::::::::::::::: &&ooXXoooo&&******&*****&*&ooo ::::::::::::::::::::::::::::::::::",
":::::::::::::::::::::::::::::::::::: *&&#Oo@ooo#&&****##@@@&&*&&ooo :::::::::::::::::::::::::::::::::::",
":::::::::::::::::::::::::::::::::::: ***#--@@@Oo******@#@@@&**&@ooo :::::::::::::::::::::::::::::::::::",
":::::::::::::::::::::::::::::::::::: ***&&&#---o****&@@@@@#&*&#@oo  :::::::::::::::::::::::::::::::::::",
"::::::::::::::::::::::::::::::::::: #*&&&*&*&&&&****&@@@@@@@###@# :::::::::::::::::::::::::::::::::::::",
"::::::::::::::::::::::::::::::::::: o#@&&&&*********#@@@@@@@@@@# ::::::::::::::::::::::::::::::::::::::",
"::::::::::::::::::::::::::::::::::::  o@@&*****&***&#@@@@@@@@@@ :::::::::::::::::::::::::::::::::::::::",
":::::::::::::::::::::::::::::::::::::: o@@@@#&&&**&&@@@@@@@#   ::::::::::::::::::::::::::::::::::::::::",
"::::::::::::::::::::::::::::::::::::::: o@@###@###@@@@@@#   :::::::::::::::::::::::::::::::::::::::::::",
"::::::::::::::::::::::::::::::::::::::: ooooo@@@@@@@@@o@ ::::::::::::::::::::::::::::::::::::::::::::::",
"::::::::::::::::::::::::::::::::::::::: o#@@@@@@@@@@@@@# ::::::::::::::::::::::::::::::::::::::::::::::",
":::::::::::::::::::::::::::::::::::::::: #@@@@@@@@@@@@oO$           :::::::::::::::::::::::::::::::::::",
"::::::::::::::::::::::::::::::::::::::: oo@@@@@@@@@@@@@OO$====$$$$$$  :::::::::::::::::::::::::::::::::",
":::::::::::::::::::::::::::::::::::::: $ooo@@@@@@@@@@@oOO$$=$$$$$$$$$$   ::::::::::::::::::::::::::::::",
":::::::::::::::::::::::::::::::::::::: $Oo@@@@@@@@@@@@@oO$$=$$$$$$$$$$$$$ :::::::::::::::::::::::::::::",
"::::::::::::::::::::::::::::::::::::: O$OoX@@@@@@@@@@@ooO$$$$$$$$$$$$$$$$ :::::::::::::::::::::::::::::",
":::::::::::::::::::::::::::::::::::: $$$OoX@@@@@@@@@@@ooO$$$$$$$$$$$$$$$$$ ::::::::::::::::::::::::::::",
"::::::::::::::::::::::::::::::::::: O$O$OoXX@@@@@@@@@@ooo$$$$$$$$$$$$$$$$$ ::::::::::::::::::::::::::::",
":::::::::::::::::::::::::::::::::: $$OO$Oooo@@@@@@@@@XXXo$$$$$$$$$$$$$$$$$ ::::::::::::::::::::::::::::",
"::::::::::::::::::::::::::::::::: OOOOO$Ooooo@@@@@@@XXXXo$$$$$$$$$$$$$$$$$$ :::::::::::::::::::::::::::",
":::::::::::::::::::::::::::::::: $$OOOO$Ooooo@@@@@@@XXXXo$$$$$$$$$$$$$$$$$$ :::::::::::::::::::::::::::",
"::::::::::::::::::::::::::::::: $$OOOOO$OOooX@@@X@XXXoooo$$$$$$$$$$$$$$$$$$ :::::::::::::::::::::::::::",
":::::::::::::::::::::::::::::: $$$$$OOO$OOXXXX@@@XXXXoooO$$$$$$$$$$$$$$$$$$ :::::::::::::::::::::::::::",
"::::::::::::::::::::::::::::: $$$$O$O$O$OoXXXXX@XXXXXXooO$$$$$$$$$$$$$$$$$$ :::::::::::::::::::::::::::",
":::::::::::::::::::::::::::: $$$$$$$$$O$OOXXXXXXXXXXXooo$$$$$$$$$$$$$$$$$$$ :::::::::::::::::::::::::::",
"::::::::::::::::::::::::::: $$$$$$$$$$OO$OooooXXXXoXXooO$$$$$$$$$$$$$$$$$$$ :::::::::::::::::::::::::::",
":::::::::::::::::::::::::: $$$$$$$$$$$$O$$OOooXXXXooooO$$$$$$$$$$$$$$$$$$$$ :::::::::::::::::::::::::::",
"::::::::::::::::::::::::: $$$$$$$$$$$$$$O$$$OoooXXXooO$$$$$$$$$$$$O$$$$$$$$ :::::::::::::::::::::::::::",
":::::::::::::::::::::::: $$$$$$$$$$$$$$$OOO$$OoooX$$$$$$$$$$$$$$$$$O$$$$$$$ :::::::::::::::::::::::::::",
":::::::::::::::::::::::: $$$$$$$$$$$$$$$$$OOOOoooo$$$$$$$$$$$$$$O$OO$$$$$$$ :::::::::::::::::::::::::::",
"::::::::::::::::::::::: $$$$$$$$$$$$$$$$$$$$OOOOOO$$$$$$$$$$$$$$$O$O$$$$$$$ :::::::::::::::::::::::::::",
"::::::::::::::::::::::: $$$$$$$$$$$$$$$$$$$$O$OOoO$$$$$$$$$$$$$$O$OO$$$$$$$ :::::::::::::::::::::::::::",
"::::::::::::::::::::::: $$$$$$$$$$$$$$$$$$$$$$%OOO$$$$$$$$$$$$$$$$$O$$$$$$$$ ::::::::::::::::::::::::::",
":::::::::::::::::::::: $$$$$$$$$$$$$$$$$$$$$$$$$$$$$$$$$$$$$$$$$$$O$$$$$$$$$ ::::::::::::::::::::::::::",
":::::::::::::::::::::: $$$$$$$$$$$$$$$$$$$$$$$$$$$$$$$$$$$$$$$$$$$$$$$$$$$$$ ::::::::::::::::::::::::::",
":::::::::::::::::::::: $$$$$$$$$O$O$$$$$$$$$$$$$$$$$$$$$=$$$$$$$$$O$$$$$$$$$$ :::::::::::::::::::::::::",
":::::::::::::::::::::: =$O$$$$$ OOO$$$$$$$$$$$$$$$$$$$$$=$$$$$$$$$$$$$$$$$$$ ::::::::::::::::::::::::::",
":::::::::::::::::::::: =#&#&   : OOOO$$$$$$$$$$$$$$$$$$==$$$$$$$$$O$$$$$$$$$ ::::::::::::::::::::::::::",
":::::::::::::::::::::: *&&# ::::: OOOO$$$$$$=$$$$$$$$$$===$$$$$$$$O$$$$$$$$$$ :::::::::::::::::::::::::",
":::::::::::::::::::::: *&*# :::::: OOOO$$$$$$$$$$$$$$$$===$$$$$$$$OOO$$$$$$$$$ ::::::::::::::::::::::::",
"::::::::::::::::::::: **** ::::::: OOOOO$$$$=$=$$$$$$$$===$$$$$$$$$OO$$$$$$$$$ ::::::::::::::::::::::::",
"::::::::::::::::::::: **** ::::::: OOOOO$$$$$===$$$$=$$$==$$$$$$$$ $$$$$$$$=$= ::::::::::::::::::::::::",
"::::::::::::::::::::: *** ::::::::: OOOO$=$$$===$==--$$$==$$$$$$$ : $$$$$$===$ ::::::::::::::::::::::::",
"::::::::::::::::::::: *&* ::::::::: OOOOO=$$$===$==-==$$$$$$$$$$$  $$$$$$$$$$$ ::::::::::::::::::::::::",
"::::::::::::::::::::: *** ::::::::: OOOOO$$$$$=====--=$$$$$$$$$$$ $$$$$$$$$$$ :::::::::::::::::::::::::",
"::::::::::::::::::::: *** :::::::::: OOOO$$$$$=====--==$$$$$$$$$$ $ OOO$$$$$# :::::::::::::::::::::::::",
"::::::::::::::::::::: ** ::::::::::: OO$$$$$$$====-----=$$$$$$$$$$ : OOOO#**& :::::::::::::::::::::::::",
"::::::::::::::::::::: ** ::::::::::: OO$$$$$$====-=-=--=$$$$$$$$$$ :: o@#&**& :::::::::::::::::::::::::",
"::::::::::::::::::::: ** ::::::::::: O$$$$$$$===--------$$$$$$$$$$ :: o#*&*** :::::::::::::::::::::::::",
":::::::::::::::::::: &** ::::::::::: OO$$$$$$===-------=$$$$$$$$$$ ::: @#&**** ::::::::::::::::::::::::",
":::::::::::::::::::: *** ::::::::::: $$$$$$$$=---------=$$$$$$$$$$ ::: @#&**** ::::::::::::::::::::::::",
":::::::::::::::::::: ** :::::::::::: $$$$$$$$=---------=$$$$$$$$$$ ::: ##&&*** ::::::::::::::::::::::::",
":::::::::::::::::::: ** :::::::::::: %$$$$$$-------===$$$$$$$$$$$$ :::: @&**** ::::::::::::::::::::::::",
":::::::::::::::::::: ** :::::::::::: %$$$$$$=-----==$$$$$$$$$$$$$$ :::: o&***** :::::::::::::::::::::::",
"::::::::::::::::::: ** ::::::::::::: %$$$$$$------=$$%$$$$$$$$$$$$$ :::: #***** :::::::::::::::::::::::",
"::::::::::::::::::: ** ::::::::::::: $$$$$$$$-----$$$$$$$$$$$$$$$$$ :::: #****** ::::::::::::::::::::::",
"::::::::::::::::::: ** :::::::::::: $$$$$$$$$$---=$$$$$$$$$$$$$$$$$ :::: #****** ::::::::::::::::::::::",
"::::::::::::::::::: * ::::::::::::: %%%$$$$$$$$=$$$$$$$$$$$$$$$$$$$$ ::: #&&**** ::::::::::::::::::::::",
":::::::::::::::::: ** ::::::::::::: %%$$$$$$$$$$$$$$$$$$$$$$$$$$$$$$ ::: #******* :::::::::::::::::::::",
":::::::::::::::::: ** ::::::::::::: $$$$$$$$$$$$$$$$$$$$$$$$$$$$%$% :::: ##&***** :::::::::::::::::::::",
"::::::::::::::::: *** ::::::::::::: $$$$$$$$$$$$$$$$$$$$$$$$$$$$%%% :::: #&****** :::::::::::::::::::::",
"::::::::::::::::: *** ::::::::::::: O$$$$$$$$$$$$$$$$$$$$$$$$$$$$$$ :::: ##&&&*** :::::::::::::::::::::",
"::::::::::::::::: *** ::::::::::::: OO$$$$$$$$$$$$$$$$$$$$$$$$%$$$$ :::: @#&***** :::::::::::::::::::::",
"::::::::::::::::: *** ::::::::::::: OOO$$$$$$$$$$$$$$$$$$$$$$$$$%$% :::: #@&****** ::::::::::::::::::::",
"::::::::::::::::: ** :::::::::::::: OOOO$$$$$$$$$$$$$$$$$$$$$$$$%%% ::::: @@****** ::::::::::::::::::::",
"::::::::::::::::: ** :::::::::::::: oOOOOOO%%$$$$$$$$$$$$$$$$$$$$$O :::::  ******* ::::::::::::::::::::",
"::::::::::::::::: ** :::::::::::::: ooOOOOOO%%$$$$$$$$$$$$$$$$$$%%O ::::::: ****** ::::::::::::::::::::",
"::::::::::::::::: ** :::::::::::::: oooOoOOOOOO%$$$$$$$$$$$$$$$$%%O :::::: %%*&*** ::::::::::::::::::::",
"::::::::::::::::: ** :::::::::::::: XXOOOXOOOOOOOO%%%$$$$$$$$$$$%OO :::::: ===%%&** :::::::::::::::::::",
"::::::::::::::::: ** :::::::::::::  XOXOXXXXXOOOOOOOOOO$OOOOOOOOOOO :::::: &=---=== :::::::::::::::::::",
"::::::::::::::::: * ::::::::::::: O XOOOOOXXXXOOOOOOOOOOOOOOOOOOOOO ::::::: %====== :::::::::::::::::::",
"::::::::::::::::: * :::::::::::: OO XOOOOOXXXXXXXOOOOOOOOOOOOOOOOOO ::::::: X#****#* ::::::::::::::::::",
":::::::::::::::: ** ::::::::::  OOOooOOOOOOOXXXXXXOOOOOOOOOOOOOOOOOO ::::::: ##&**&* ::::::::::::::::::",
":::::::::::::::: * :::::::::  % O$OOoOOOOOOOXOXXXXXXXOOOOOOOOOOOOOOO ::::::: ##&**** ::::::::::::::::::",
":::::::::::::::: ** ::::::: - $$$$$$OOOOOOOOOOOXXXXXXXOOOOOOOOOOOOOO :::::::: @@**** ::::::::::::::::::",
":::::::::::::::: ***  :::  --%%%$$%==OOOOOOOOOXOXXXXXXoooOOOOOOOOOOOO ::::::: @@#&** ::::::::::::::::::",
":::::::::::::::: *****   ----%%%$$==%OOOOOOOOOOOOOOXXXXXoOOOOOOOOOOOOO   :::: @@#&** ::::::::::::::::::",
":::::::::::::::: ***@*** ---$$$$$--=$$OOOOOOOOOOOOXOXXXooXoOOOOOOOOOOOOOO   :: ##@#& ::::::::::::::::::",
":::::::::::::::: ***@@*; ---$$$$=--=%OOOOOOOOOOOOOOOOOXXoooOOOOOOOOOOOOOOOOO  ###@&& ::::::::::::::::::",
":::::::::::::::: ***... ---$$$$$---=%%OOOOXOXOXOOOOOOOoOoooOoOOOOOOOOOOOOOOOOO.X@##** :::::::::::::::::",
"::::::::::::::  O@**.=---;;%$$$----=%%OOOXXXXXXOOOOOOOOOOooOOOOOOOOOOOOOOOOO...X@##&& :::::::::::::::::",
"::::::::::::: O.X*@*.---=;-%$$----==$OOOXX    XXXOOOOOOOOOoOoOOOOOOOOOOOOOOO#@#@@@@@#& ::::::::::::::::",
":::::::::::  ...O@O*&.---;%%%=-======$OO  ::::  XXOOOOOOOOOOOOOOOOOOOOOOOO#@@@@@@@@@&&* :::::::::::::::",
"::::::::    .OO.X@*@&.--=-%%%======$%%  :::::::: XXXXOOOOOOOoOoOoOOOOOOOOO#@@@@@@@@##*** ::::::::::::::",
":::::   XX  OOOO O**% -==$%%O%====$O  :::::::::::  OoooOOOOOOOOOOOOOOOOOOOOOX@##@@@@&&&&&  ::::::::::::",
"     oo  X..OOOO.O#. --%$$OOOO%%OO  :::::::::::::::  OoooOOOoOoOoOoOOOOOOOOXXXX#@@@@#&#&& O :::::::::::",
" ooooooo ..OOOOO O %;-=%$$OOOOOo  :::::::::::::::::::    OOOOOOOOOOOOOOOOOOO@@oX@@@@#@&&&& O ::::::::::",
" ooooXooX OOOOOOO O==-%=%OOoooo :::::::::::::::::::::::::   oooOoOoOoOOOOOOOO#XXX@@@@@@@#@.OO :::::::::",
" oooooXXX.OOOOOOOO%===%%OOooo  :::::::::::::::::::::::::::::   oooXooOOOOOOOOOXXXX@@@@@@##* OO ::::::::",
" oooXXXX.OXOOOOOOOO$==%%ooo  ::::::::::::::::::::::::::::::::::   XooooOoOoOoOXXXXo########&&OO  ::::::",
" oXXXXX.OXOOOOOOOOO%=%%OOo :::::::::::::::::::::::::::::::::::::::   ooOOOOOOoXXXXXXXXXXoO#&&OOOO :::::",
": XXXXX.XOOOOOOOOOOO%%OOo :::::::::::::::::::::::::::::::::::::::::::   oOooooXXXXXXXXXXoOOOOOOOO :::::",
"::       OOOOOOOOOOOOOO  :::::::::::::::::::::::::::::::::::::::::::::::   oooXXooXXXOOOOOOOOOOOO :::::",
"::::::::: OOOOOOOOO%OO ::::::::::::::::::::::::::::::::::::::::::::::::::::   XXooXXoOoOOOOOOOOOO :::::",
"::::::::: OOOOOOOOOOO ::::::::::::::::::::::::::::::::::::::::::::::::::::::::  oooOOOOOOOOOOOOOO :::::",
"::::::::: XOOOOXXXX  :::::::::::::::::::::::::::::::::::::::::::::::::::::::::::  oOoOoooOOOOOOOO :::::",
"::::::::: XOOOXXX  :::::::::::::::::::::::::::::::::::::::::::::::::::::::::::::::   oooOoOOOOOOO :::::",
"::::::::: . XOXX :::::::::::::::::::::::::::::::::::::::::::::::::::::::::::::::::::: oooooooOOO ::::::",
"::::::::::::    :::::::::::::::::::::::::::::::::::::::::::::::::::::::::::::::::::::: oXXoooOOO ::::::",
":::::::::::::::::::::::::::::::::::::::::::::::::::::::::::::::::::::::::::::::::::::::  XoooooO ::::::",
"::::::::::::::::::::::::::::::::::::::::::::::::::::::::::::::::::::::::::::::::::::::::: ooo  O ::::::",
"::::::::::::::::::::::::::::::::::::::::::::::::::::::::::::::::::::::::::::::::::::::::::   :: :::::::",
":::::::::::::::::::::::::::::::::::::::::::::::::::::::::::::::::::::::::::::::::::::::::::::::::::::::",
":::::::::::::::::::::::::::::::::::::::::::::::::::::::::::::::::::::::::::::::::::::::::::::::::::::::",
":::::::::::::::::::::::::::::::::::::::::::::::::::::::::::::::::::::::::::::::::::::::::::::::::::::::",
":::::::::::::::::::::::::::::::::::::::::::::::::::::::::::::::::::::::::::::::::::::::::::::::::::::::",
":::::::::::::::::::::::::::::::::::::::::::::::::::::::::::::::::::::::::::::::::::::::::::::::::::::::",
":::::::::::::::::::::::::::::::::::::::::::::::::::::::::::::::::::::::::::::::::::::::::::::::::::::::",
":::::::::::::::::::::::::::::::::::::::::::::::::::::::::::::::::::::::::::::::::::::::::::::::::::::::",
":::::::::::::::::::::::::::::::::::::::::::::::::::::::::::::::::::::::::::::::::::::::::::::::::::::::",
":::::::::::::::::::::::::::::::::::::::::::::::::::::::::::::::::::::::::::::::::::::::::::::::::::::::",
":::::::::::::::::::::::::::::::::::::::::::::::::::::::::::::::::::::::::::::::::::::::::::::::::::::::"
};
