/* XPM */
static char *_2_fps_zombie_DEAD_crop[] = {
/* columns rows colors chars-per-pixel */
"103 183 12 1 ",
"  c black",
". c #010000",
"X c #01070A",
"o c #1C0000",
"O c #063938",
"+ c #460100",
"@ c #470100",
"# c #1D5D5B",
"$ c #960D00",
"% c #F30802",
"& c #DFB77B",
"* c None",
/* pixels */
"*******************************************************************************************************",
"*******************************************************************************************************",
"*******************************************************************************************************",
"*******************************************************************************************************",
"*******************************************************************************************************",
"*******************************************************************************************************",
"*******************************************************************************************************",
"*******************************************************************************************************",
"*******************************************************************************************************",
"*******************************************************************************************************",
"*******************************************************************************************************",
"*******************************************************************************************************",
"*******************************************************************************************************",
"*******************************************************************************************************",
"*******************************************************************************************************",
"*******************************************************************************************************",
"*******************************************************************************************************",
"*******************************************************************************************************",
"*******************************************************************************************************",
"*******************************************************************************************************",
"*******************************************************************************************************",
"*******************************************************************************************************",
"*******************************************************************************************************",
"*******************************************************************************************************",
"*******************************************************************************************************",
"*******************************************************************************************************",
"*******************************************************************************************************",
"*******************************************************************************************************",
"*******************************************************************************************************",
"*******************************************************************************************************",
"*******************************************************************************************************",
"*******************************************************************************************************",
"*******************************************************************************************************",
"*******************************************************************************************************",
"*******************************************************************************************************",
"*******************************************************************************************************",
"*******************************************************************************************************",
"*******************************************************************************************************",
"*******************************************************************************************************",
"*******************************************************************************************************",
"*******************************************************************************************************",
"*******************************************************************************************************",
"*******************************************************************************************************",
"*******************************************************************************************************",
"*******************************************************************************************************",
"*******************************************************************************************************",
"*******************************************************************************************************",
"*******************************************************************************************************",
"*******************************************************************************************************",
"*******************************************************************************************************",
"*******************************************************************************************************",
"*******************************************************************************************************",
"*******************************************************************************************************",
"*******************************************************************************************************",
"*******************************************************************************************************",
"*******************************************************************************************************",
"*******************************************************************************************************",
"*******************************************************************************************************",
"*******************************************************************************************************",
"*******************************************************************************************************",
"*******************************************************************************************************",
"*******************************************************************************************************",
"*******************************************************************************************************",
"*******************************************************************************************************",
"*******************************************************************************************************",
"*******************************************************************************************************",
"*******************************************************************************************************",
"*******************************************************************************************************",
"*******************************************************************************************************",
"*******************************************************************************************************",
"*******************************************************************************************************",
"*******************************************************************************************************",
"*******************************************************************************************************",
"*******************************************************************************************************",
"*******************************************************************************************************",
"*******************************************************************************************************",
"*******************************************************************************************************",
"*******************************************************************************************************",
"*******************************************************************************************************",
"*******************************************************************************************************",
"*******************************************************************************************************",
"*******************************************************************************************************",
"*******************************************************************************************************",
"*******************************************************************************************************",
"*******************************************************************************************************",
"*******************************************************************************************************",
"*******************************************************************************************************",
"*******************************************************************************************************",
"*******************************************************************************************************",
"*******************************************************************************************************",
"*******************************************************************************************************",
"*******************************************************************************************************",
"*******************************************************************************************************",
"*******************************************************************************************************",
"*******************************************************************************************************",
"*******************************************************************************************************",
"*******************************************************************************************************",
"*******************************************************************************************************",
"*******************************************************************************************************",
"*******************************************************************************************************",
"*******************************************************************************************************",
"*******************************************************************************************************",
"*******************************************************************************************************",
"*******************************************************************************************************",
"*******************************************************************************************************",
"********************************************************** ********************************************",
"*****************************************************     X  ******************************************",
"***************************************************** XXXXXXX *****************************************",
"***************************************************** XXXXXXXX  ***************************************",
"***********************************************      XXXXXXXXXXX   ************************************",
"********************************************   #####O#XXXXXXXXXXXo+ ***********************************",
"******************************************* ######$$##OXXXXXXXXXXX++   ********************************",
"******************************************* ###########OXXXXXXXXXXX+++ ********************************",
"******************************************* #######&&###OXXXXXXXXXXo+++ *******************************",
"****************************************** #######&&&&&&#OXXXXXXXXXX+++ *******************************",
"****************************************** ######&&&&&&&##XXXXXXXXXXo+++ ******************************",
"****************************************** ######$%&&&&&###XXXXXXXXXXo+++ *****************************",
"****************************************** ######$$&&&&&&##OXXXXXXXoXo+++ *****************************",
"***************************************** #######$+&&&&&#####XXXXXXXXooo+ *****************************",
"**************************************** ########+$&&&%######OOXXXXXXXXooo ****************************",
"*************************************** ##########$@%%+#####OOOXXXXXXXXXXo ****************************",
"************************************** ##OOO######$%%$######OOOOXXXXXXXo++ ****************************",
"************************************  #O+%$XO#######O#######OOOXXXXXXXXo++ ****************************",
"*********************************** ###oX&%%XO#############OOOOXXXXXXXXo+++ ***************************",
"********************************** #####$Xo%%%O###########OOOOXXXXXXXXX++++ ***************************",
"**************************        O#######%o%%O###########OOOOXXXXXXXXX++++ ***************************",
"************************* ++++++ ooOO######%o%X#########OOOOOOXXXXXXXX++++++ **************************",
"************************* ++++@@o oXOO##################OOOOOOXXXXXXXX+++++++ *************************",
"************************ ++++++@o oXXOO###############OOOOOOOOOXXXXXX+++++++++ ************************",
"*********************** @+++++++@o oXXOO##############OOOOOOOO###XXXo+++++++++ ************************",
"********************** @++++++++oo oXXXOOO##########OOOOOOOOO#O##XXXX++++++++++ ***********************",
"********************** +++++++++++o XXXXOOOO#######OOOOOOOOO#####Xooo++++++++++ ***********************",
"********************** +++++++++++o XXXXXOXOOO###OOOOOOOOOO#O###XXoo ++++++++++ ***********************",
"********************** +++++++++++@o XXXXXXOOOOOOOOOOOOOOO#####oXXo * ++++++++++  *********************",
"********************** +++++++++++@@ oXXXXXOXOOOOOOOOOXOO#O###o+ooo * ++++++++++++ ********************",
"********************* +++++++++++++@@  oOOOOXXXOOOOOOXXOO###+++++ooo o++++++++++++ ********************",
"********************* +++++++++++++++@o oOXOOOXXXXXXXoXOOO#+++++++ooooo++++++++++$+ *******************",
"********************* ++++++++++@+++++++++ooOOOXXoooooooOO+++++++++++ o+++++++$$$$$ *******************",
"******************** @++++++++++++++++++++++ooXXX+o+++++++++++++++o+ * oo++++++$+$ ********************",
"******************** o+++++++++++++++++++++++ooOo+++++++++++++++++++ ** @+++++++++ ********************",
"******************** OXoo++++++++++++++++++++oXOX@++++++++++++++++++ *** @++@++++O# *******************",
"******************** OOXXoo o++++++++++++++++ooOo+++++++++++++++++++ *** @++@@++### *******************",
"******************** XXOX  * o++++++++++++++++Xoo+++++++++++++++++++ *** oooooX##### ******************",
"******************* XXXX **** +++++++++++++++++++++++++++++++++++++@ *   ooooOO##### ******************",
"******************* XXX ***** o++++++++++++++++++++++++$+$+++++++++ *  OO  XXOO###### *****************",
"****************** XXX ******* +++++++++++++++++++++++$$$$+++++++++@  OOOOO.XXOO##### *****************",
"***************** OOX ********* o++++++++++++++++++++++$$$++++++++@ @ OOOOOX.XXO###### ****************",
"***************** OO *********** +++++++++++++++++++++$$$$$++++++++  XOOOOXXX.XXO######  **************",
"**************** OO *************  @@+++++++@@+++++++++$$+++++++@+ @ oXOOXXXXX.XXO#######  ************",
"**************** OO#  ************* @@++++@+$$++++++++$$%$$+++++@@ o.XXXXXXXXXX.XO########. ***********",
"*************   OO##.# ************ oo++++@@$$$@+++++++$%$+++@++@ @o.XXX..XXX...#XO#######.o **********",
"***********  ..OO###..& *********  o  o+@$@@$$$$$$$%$$$$$++++@  @ @o XXXX....ooo.XXO#######.o *********",
"***         .o.OO###.&&  ***     oo Xo   $@+$$$$+$%%$++$++@@  @@ @oo XXXX..oooooo.XOO######.oo ********",
"*  XXXXXXXX oo.O###..&%%%   ++ooooo XXoo @@  $$$%$%%%$$     ++@@@ooo   ..oooooooo.XOOO#####.oo ********",
"* XXXXXXXX.ooo.OO##...%%%%%@o@oooooXXXXoo  o $$%$%%%$$ +@@++o+ooooo *** ooooooo...XOOOO#O###.oo *******",
"* XXXXXXX..ooo.O###.##.%%%oooooooooXXXooooooo  .   $%@@@+oooooooooo *  oo@oooo ##.XXOOOOO### oo *******",
"* XXXXXXX.oooo.O##.####.%%ooooo@+@oXXXXoooooooooXoX @oooooooooooooo  ooooooooo ##.XOXOOOO### oo *******",
" XXXXXXX.oooo.oO#####..%%.oooooo+++oXoooooooooooooXXooooooooooooooo ooo@oooooo.O##..XXOO##O## oo ******",
" XXXXXX Xoooo.O#####.%...#.ooo@$$++oXoooooooooooooXXXXXXXooooooooooo ooooooooo.oO#O#.. OOOOO## o ******",
" XXXXX oooooo.O#####..O####.$%%$$++ooooooooooooooooooXXXXXoooooooooooooooooooo.oXOOOOOOXOOOO###.o *****",
"* XXX ooooooo.############ %%%$$$+ooooXoXoooooooooooXoXXXXXXXoooooooooooooooooo.OXXOOOXOXOOOO##.o *****",
"**   oooooooo.########OX## %%%$$$++oooooooooooooooooooXXXXXXoooooooooooooooooooo..OXXXOOOOOOOO##  *****",
"**** ooooooooo OO#O#O###O# $$$$$$+ooooXXXXXoXoooooooooXXXXXXXooooooooooooooooooooo OXXXXXOOOOOOO# *****",
"**** oooooooo@& OOOOOOOOOO $$$$$$$ooooXXXXXXooooooooooooXXXXXoooooooooooooooooooooo.OXXXXOOOOOOO# *****",
"**** oooooooo@$ ooXXXXXOO @@+@@@@+o      XXoXoooooooooooXXXXXoooooooooooooooooooooo. XXXXXXOOOO   *****",
"**** oooooooo@@$ .... .. ooo++     ******    oooooooooooooXXXoooooooooooooooooooo   * XXXXX    ********",
"**** oooooooo@$$ooooooooo     ***************   oXXoXoooooXoXoXoXoXXXXXXXXXXX    ****      ************",
"**** ooooooooo$oooooo    ***********************  oooooooooooooXXXXXXXXXXX   **************************",
"*** ooooXoXoo@ooooX  *****************************   oooooXoXoXXXXXXXXX   *****************************",
"***  ooooooooooo   **********************************                  ********************************",
"*****  oXoXoX   ***************************************************************************************",
"*******      ******************************************************************************************",
"*******************************************************************************************************",
"*******************************************************************************************************",
"*******************************************************************************************************",
"*******************************************************************************************************",
"*******************************************************************************************************",
"*******************************************************************************************************",
"*******************************************************************************************************",
"*******************************************************************************************************",
"*******************************************************************************************************",
"*******************************************************************************************************",
"*******************************************************************************************************"
};
