/* XPM */
static char *_9_fps_zombie_DEAD_crop[] = {
/* columns rows colors chars-per-pixel */
"103 183 12 1 ",
"  c black",
". c #010000",
"X c #01070A",
"o c #1C0000",
"O c #063938",
"+ c #460100",
"@ c #470100",
"# c #1D5D5B",
"$ c #960D00",
"% c #F30802",
"& c #DFB77B",
"* c None",
/* pixels */
"*******************************************************************************************************",
"*******************************************************************************************************",
"*******************************************************************************************************",
"*******************************************************************************************************",
"*******************************************************************************************************",
"*******************************************************************************************************",
"*******************************************************************************************************",
"*******************************************************************************************************",
"*******************************************************************************************************",
"*******************************************************************************************************",
"*******************************************************************************************************",
"*******************************************************************************************************",
"*******************************************************************************************************",
"*******************************************************************************************************",
"*******************************************************************************************************",
"*******************************************************************************************************",
"*******************************************************************************************************",
"*******************************************************************************************************",
"*******************************************************************************************************",
"*******************************************************************************************************",
"*******************************************************************************************************",
"*******************************************************************************************************",
"*******************************************************************************************************",
"*******************************************************************************************************",
"*******************************************************************************************************",
"*******************************************************************************************************",
"*******************************************************************************************************",
"*******************************************************************************************************",
"*******************************************************************************************************",
"*******************************************************************************************************",
"*******************************************************************************************************",
"*******************************************************************************************************",
"*******************************************************************************************************",
"*******************************************************************************************************",
"*******************************************************************************************************",
"*******************************************************************************************************",
"*******************************************************************************************************",
"*******************************************************************************************************",
"*******************************************************************************************************",
"*******************************************************************************************************",
"*******************************************************************************************************",
"*******************************************************************************************************",
"*******************************************************************************************************",
"*******************************************************************************************************",
"*******************************************************************************************************",
"*******************************************************************************************************",
"*******************************************************************************************************",
"*******************************************************************************************************",
"*******************************************************************************************************",
"*******************************************************************************************************",
"*******************************************************************************************************",
"*******************************************************************************************************",
"*******************************************************************************************************",
"*******************************************************************************************************",
"*******************************************************************************************************",
"*******************************************************************************************************",
"*******************************************************************************************************",
"*******************************************************************************************************",
"*******************************************************************************************************",
"*******************************************************************************************************",
"*******************************************************************************************************",
"*******************************************************************************************************",
"*******************************************************************************************************",
"*******************************************************************************************************",
"*******************************************************************************************************",
"*******************************************************************************************************",
"*******************************************************************************************************",
"*******************************************************************************************************",
"*******************************************************************************************************",
"*******************************************************************************************************",
"*******************************************************************************************************",
"*******************************************************************************************************",
"*******************************************************************************************************",
"*******************************************************************************************************",
"*******************************************************************************************************",
"*******************************************************************************************************",
"*******************************************************************************************************",
"*******************************************************************************************************",
"*******************************************************************************************************",
"*******************************************************************************************************",
"*******************************************************************************************************",
"*******************************************************************************************************",
"*******************************************************************************************************",
"*******************************************************************************************************",
"*******************************************************************************************************",
"*******************************************************************************************************",
"*******************************************************************************************************",
"*******************************************************************************************************",
"*******************************************************************************************************",
"*******************************************************************************************************",
"*******************************************************************************************************",
"*******************************************************************************************************",
"*******************************************************************************************************",
"*******************************************************************************************************",
"*******************************************************************************************************",
"*******************************************************************************************************",
"*******************************************************************************************************",
"*******************************************************************************************************",
"*******************************************************************************************************",
"*******************************************************************************************************",
"*******************************************************************************************************",
"*******************************************************************************************************",
"*******************************************************************************************************",
"*******************************************************************************************************",
"*******************************************************************************************************",
"*******************************************************************************************************",
"*******************************************************************************************************",
"*******************************************************************************************************",
"*******************************************************************************************************",
"*******************************************************************************************************",
"*******************************************************************************************************",
"*******************************************************************************************************",
"*******************************************************************************************************",
"*******************************************************************************************************",
"*******************************************************************************************************",
"*******************************************************************************************************",
"*******************************************************************************************************",
"*******************************************************************************************************",
"*******************************************************************************************************",
"*******************************************************************************************************",
"*******************************************************************************************************",
"*******************************************************************************************************",
"*******************************************************************************************************",
"*******************************************************************************************************",
"*******************************************************************************************************",
"*******************************************************************************************************",
"*******************************************************************************************************",
"*******************************************************************************************************",
"*******************************************************************************************************",
"*******************************************************************************************************",
"*******************************************************************************************************",
"*******************************************************************************************************",
"*******************************************************************************************************",
"*******************************************************************************************************",
"*******************************************************************************************************",
"*******************************************************************************************************",
"*******************************************************************************************************",
"*******************************************************************************************************",
"*******************************************************************************************************",
"*******************************************************************************************************",
"*******************************************************************************************************",
"*******************************************************************************************************",
"*******************************************************************************************************",
"**************************************************            *****************************************",
"**********************************************    @@++@@+@@@ @  ***************************************",
"******************************************    @+@@@@@@++@   @@@@  ** **********************************",
"***************************************** ++@@+++++$@o@@@@@oo+@@@@  X    ******************************",
"********************     *************** @+@@@++$$+oXXXXXXXXX+@@@@oXoo  X  ****************************",
"****                .XXX ************   @@@++++++oXXooXXXXXXXXXo@XXXX+++ XX  **************************",
"*** XXXXXXXXXXXXX....... ****    *   +@@@@+++++oXoo##XXXXXXXXXXXXXXXX++@@  X   ************************",
"*** XXXXXXXXXXXX.oo.oooo *** %$   @@++++++++@oXo###OOOXXXXXXXXXXXXXXXo@@@@@  @o  **********************",
"*** XXXXXXXXXXX.ooooo... *  %  @@@@@++++++++@oo####oOXXXXXXXXXXXXXXXXXXo@@@+@ ooo     ***    * ********",
"** XXXXXXXXXXXX.Xooooo..o @$ @@@@@+++++++++++ooOO#OOXXXXXXXXXXXXXXXXXXXXXo++@@   ..###  * ## *    *****",
"** XXXXXXXXXXXX o.oooooo@@@$ +@@+@++++++++++++oOOOOOXXXXXXXXXXXXXXXXXXXXXo++@@@ ooo####. ### * ###  ***",
"** XXXXXXXXXXXX o.ooooooo@@ @@++++++++o+o++@+&%&&&OOXXXXXXXXXXXXXXXXXXXXXXo+@@@@.oo####. ### * O#### **",
"** XXXXXXXXXXX X.oooooooo@$ +++++++++++++++@$&&&&&&OXXXXXXXXXXXXXXXXXXXXXXo+++++ oo####.o ## * O##### *",
"*** XXXXXXXXXX X.oooooooo@ @@@++++++o+oooo@$$&&&&&&OOXXXXXXXXXXXXXXXXXXXXXXo++++@  o####  ## * OO##### ",
"****        XXX .ooooooo@% @@@++++++++ooooo$&&&&&&&OOXXXXXXXXXXXXXXXXXXXXXoo++++@@@  #### ## * O###### ",
"************     oXoXoX$$% @@+++++++++ooooo$#&&&&&&&OXXXXXXXXXXXXXXXXXXXXXXo++++@@@@@ ####### O####### ",
"***************** .    &$% @@++++++++++ooo$O&&&&&&&OOOXXXXXXXXXXXXXXXXXXXXXo++++@@@@@ ############### *",
"***************** O#### $% +++++++++++++$$@OO&&&&&&OOOXXXXXXXXXXXXXXXXXXXXXo@@+++++++@ ############## *",
"************     #######   @++++++++@@####OOOO&&&&OOOOOOXOXXXXXXXXXXXXXXXXXoo@++++++++@ ###########  **",
"*********   OOOOOOOOOOO###+++++++++++###OOOOOOO#O%OOOOOOXOXXXXXXXXXXXXXXXXXoo@@@++++++@@ ########  ****",
"*********  OXOOOOOOOOOOOO#@+++++++++@##oO%OOOO@%%OO#OOOOXXOOXXXXXXXXXXXXXXXooooo++++++@@ ####    ******",
"***********       XXXXXOOO@@@++++@@@ ###O$XOOOO@OOOOOOOXXXOOXXXXXXXXXXXXXXXo oooo+++++++ ### **********",
"******************      XO@@@@+++@@ O####O%OOOOOOOOOOOOXXOOOXXXXXXXXXXXXXXX ooooo+++++++#### **********",
"************************  Xo@@@ +@o OOO###OOOOOOOOOOOOOOOOOOOXXXXXXXXXXXXXX oooooo+++++#### ***********",
"************************** ooo *  oo OO####OOOOOOOOOOOOOOOOOOXXXXXXXXXXXXXX oooooo+++++##O# ***********",
"*************************** X ****   XO#O#OOOOOOOOOOOOOOOOOOOXXXXXXXXXXXXXX   ooo+++@@OOO## ***********",
"**************************** ******** XOO#OOOOOOOOOOOOOOOOOOOOOOXXXXXXXXXX *** oo+++@@OOOO# ***********",
"************************************* XXOOOOOOOOOOOOOOOOOOOOOOO#O#XXXXXXX ****        XOOO ************",
"************************************** XXOOOOOOOOOOOOOOOOOOOOOOO##XXXXXXX ************    *************",
"*************************************** XXOOOOOOOOOOOOOOOOOOOOO#O#XXXXXX ******************************",
"**************************************** XXOOOOOOOOOOOOOOOO#######XXXXXX ******************************",
"***************************************** XXXOXOOOOOOOOOOOO#O#O##XXXX   *******************************",
"******************************************    XOOOOOOOOXO######XXXXX **********************************",
"**********************************************   XXOXXXXXOO###XXX   ***********************************",
"*************************************************         O#     **************************************",
"**********************************************************  *******************************************",
"*******************************************************************************************************",
"*******************************************************************************************************",
"*******************************************************************************************************",
"*******************************************************************************************************"
};
