/* XPM */
static char *_2_fps_zombie_DEAD_crop[] = {
/* columns rows colors chars-per-pixel */
"103 183 12 1 ",
"  c black",
". c #010001",
"X c #01070A",
"o c #1C0000",
"O c #063938",
"+ c #073938",
"@ c #460100",
"# c #1D5D5B",
"$ c #960D00",
"% c #F30802",
"& c #DFB77B",
"* c None",
/* pixels */
"*******************************************************************************************************",
"*******************************************************************************************************",
"*******************************************************************************************************",
"*******************************************************************************************************",
"*******************************************************************************************************",
"*******************************************************************************************************",
"*******************************************************************************************************",
"*******************************************************************************************************",
"*******************************************************************************************************",
"*******************************************************************************************************",
"*******************************************************************************************************",
"*******************************************************************************************************",
"*******************************************************************************************************",
"*******************************************************************************************************",
"*******************************************************************************************************",
"*******************************************************************************************************",
"*******************************************************************************************************",
"*******************************************************************************************************",
"*******************************************************************************************************",
"*******************************************************************************************************",
"*******************************************************************************************************",
"*******************************************************************************************************",
"*******************************************************************************************************",
"*******************************************************************************************************",
"*******************************************************************************************************",
"*******************************************************************************************************",
"*******************************************************************************************************",
"*******************************************************************************************************",
"*******************************************************************************************************",
"*******************************************************************************************************",
"*******************************************************************************************************",
"*******************************************************************************************************",
"*******************************************************************************************************",
"*******************************************************************************************************",
"*******************************************************************************************************",
"*******************************************************************************************************",
"*******************************************************************************************************",
"*******************************************************************************************************",
"*******************************************************************************************************",
"*******************************************************************************************************",
"*******************************************************************************************************",
"*******************************************************************************************************",
"*******************************************************************************************************",
"*******************************************************************************************************",
"*******************************************************************************************************",
"*******************************************************************************************************",
"*******************************************************************************************************",
"*******************************************************************************************************",
"*******************************************************************************************************",
"*******************************************************************************************************",
"*******************************************************************************************************",
"*******************************************************************************************************",
"*******************************************************************************************************",
"*******************************************************************************************************",
"*******************************************************************************************************",
"*******************************************************************************************************",
"*******************************************************************************************************",
"*******************************************************************************************************",
"*******************************************************************************************************",
"*******************************************************************************************************",
"*******************************************************************************************************",
"*******************************************************************************************************",
"*******************************************************************************************************",
"*******************************************************************************************************",
"*******************************************************************************************************",
"*******************************************************************************************************",
"*******************************************************************************************************",
"*******************************************************************************************************",
"*******************************************************************************************************",
"*******************************************************************************************************",
"*******************************************************************************************************",
"*******************************************************************************************************",
"*******************************************************************************************************",
"*******************************************************************************************************",
"*******************************************************************************************************",
"*******************************************************************************************************",
"*******************************************************************************************************",
"*******************************************************************************************************",
"*******************************************************************************************************",
"*******************************************************************************************************",
"*******************************************************************************************************",
"*******************************************************************************************************",
"*******************************************************************************************************",
"*******************************************************************************************************",
"*******************************************************************************************************",
"*******************************************************************************************************",
"*******************************************************************************************************",
"*******************************************************************************************************",
"*******************************************************************************************************",
"*******************************************************************************************************",
"*******************************************************************************************************",
"*******************************************************************************************************",
"*******************************************************************************************************",
"*******************************************************************************************************",
"*******************************************************************************************************",
"*******************************************************************************************************",
"*******************************************************************************************************",
"*******************************************************************************************************",
"*******************************************************************************************************",
"*******************************************************************************************************",
"*******************************************************************************************************",
"*******************************************************************************************************",
"*******************************************************************************************************",
"*******************************************************************************************************",
"*******************************************************************************************************",
"*******************************************************************************************************",
"*******************************************************************************************************",
"*******************************************************************************************************",
"*******************************************************************************************************",
"*******************************************************************************************************",
"*******************************************************************************************************",
"*******************************************************************************************************",
"*******************************************************************************************************",
"*******************************************************************************************************",
"*******************************************************************************************************",
"*******************************************************************************************************",
"*******************************************************************************************************",
"*******************************************************************************************************",
"*******************************************************************************************************",
"*******************************************************************************************************",
"*******************************************************************************************************",
"*******************************************************************************************************",
"*******************************************************************************************************",
"*******************************************************************************************************",
"*******************************************************************************************************",
"*******************************************************************************************************",
"*******************************************************************************************************",
"*******************************************************************************************************",
"*******************************************************************************************************",
"*******************************************************************************************************",
"*******************************************************************************************************",
"*******************************************************************************************************",
"*******************************************************************************************************",
"*******************************************************************************************************",
"*******************************************************************************************************",
"*******************************************************************************************************",
"*******************************************************************************************************",
"*******************************************************************************************************",
"*******************************************************************************************************",
"*******************************************************************************************************",
"*******************************************************************************************************",
"*******************************************************************************************************",
"*******************************************************************************************************",
"******************************************                    *****************************************",
"****************************************  @@@@@@@@@@@@@@@$@$@$  ***************************************",
"*************************************** @@@@@@@@@@@@@@@@@@@@@@@$  *************************************",
"*************************************** @@@@@@@@@@@@@@@@@@@@@@@@@$  ***********************************",
"*********                *****  ****** @@@@@@@@@@@@@@@@@@@@@@@@@@@@@  *********************************",
"****     XXXXXXXX.oooooo **** $.      @@@@@@@@@@@@@@@@@@@@@@@@@@@@@@@@  *******************************",
"*** XXXXXXXXXXXX.oooooooo    %.@@@@@@@@@@@@@@@@@@@@@@@@@@@@@@@@@@@@@@@@@   ****************************",
"*** XXXXXXXXXXX Xooooooooo@@@.@@@@@@@@@@@@@@@@@@@@@$@$@@@###ooo@@@@@@@@@@@@  **************************",
"*** XXXXXXXXXXX Xooooooooo@@$.@@@@@@@@@@@@@@@@@@$$$$XX$@&###ooo@@@@o@@@@@@@@.  ****   *****************",
"*** XXXXXXXXXX XXXXoooooooo@.@@@@@@@@@@@@@@@@@@@#$#$$%$%XXXXXoX@@oXooo@@@@@@@.o  ** # *****************",
"** XXXXXXXXXXXX XXXooooooo@$.@@@@@@@@@@@@@@@@@@@#####XXXXXXXXXXX@oXXX@@@@@@@@@.@o  ### ****  *   ******",
"*** XXXXXXXXXXX XXXXXoooo@@ @@@@@@@@@@@@@@@@@@@#+####XXXXXXXXXXXXXXXX@@@@@@@@@@.... ## **  # * ##  ****",
"*** XXXXXXXXXXXX XXXooooo@$ @@@@@@@@@@@@@@@@@ooO+#+X#XXXXXXXXXXXXXXXXo@@@@@@@@@@@@@@ # ** ## * ####  **",
"****      XXXXXX ..XXX.o$$ @@@@@@@@@@@@@@@@@@oOO+#@#+XXXXXXXXXXXXXXXXXXoooo@@@@@@@@@@ # * ## * ###### *",
"**********    XXX . . #. $ @@@@@@@@@@@@@@@@@@oOOO#OOXXXXXXXXXXXXXXXXXXXXXoo@@@@@@@@@@ ## +## * ####### ",
"**************    +#+#+#+..@@@@@@@@@@@o@o@@@oOOOO+OXXXXXXXXXXXXXXXXXXXXXXoo@@@@@@@@@@@ ###### +####### ",
"**************** ++++++###@@@@@@@@@@@@@o@@@@@OOOO++XXXXXXXXXX++++XXXXXXXXXo@@@@@@@@@@@@    ########## *",
"**************  OO+++++++++@@@@@@@@@@@oooo@@oOOOOOOOXXXXXXXXXXX+XXXXXXXXXXo@@@@@@@@@@@@ ############# *",
"************  ++O+++++X Xo@@@@@@@@@@@@@oo%$OOOOOOOOOXXXXXXXXXXXXXXXXXXXXXXo@@@@@@@@@@@@############## *",
"*******     X++        *  o@@@@@@@@@@@@$@&&OOOOOOOOOXXXXXXXXXXXXXXXXXXXXXXooo@@@o@@@@@@############  **",
"********  +++  ***********  o@@$@@@@@##&&&&&OOOOOOOOXXXXXXXXXXXXXXXXXXXXXXooooooo@@@@@+#######++   ****",
"**********   *************** o   @o +#@$$&&&&Oo$$@OOXXXXXXXXXXXXXXXXXXXXXXXo.oooo@@@@@+++###    *******",
"***************************** *** o ##$%&&&&&&@%%OOOXXXXXXXXXXXXXXXXXXXXXXXo.oooo@@@@o++++# ***********",
"**********************************  +#@&&&&&&&@@%OOOXXXXXXXXXXXXXXXXXXXXXXXo.ooo      X+++ ************",
"*********************************** #+$&&&&&&&@%%OOO+XXXXXXXXXXXXXXXXXXXXXXX    ******    *************",
"*********************************** +#+$&&&&&&@%oOOO++XXXXXXXXXXXXXXXXXXXXX  **************************",
"************************************ #+#&&&&&&OOOOOOO++XXXXXXXXXXXXXXXXXXX ****************************",
"************************************ +#+O##&OOOOOOOOOO+XXXXXXXXXXXXXXXXXXX ****************************",
"************************************ +####O+OOOOOOOOOOXXX+XXXXXXXXXXXXXXX *****************************",
"************************************ X+#OOOOOOOOOOOOOOXXO+XXXXXXXXXXXXXXX *****************************",
"************************************* X##O+OOOOOOOOOOOXXO++XXXXXXXXXXXXXX *****************************",
"************************************** +OOOOOOOOOOOOOOXOOOOO+XXXXXXXXXXX ******************************",
"*************************************** OOOOOOOOOOOOO++OOOOO++++XXXXXXXX ******************************",
"**************************************** +++X+X+X+X+X+X+++OOOO+++XXXXXX *******************************",
"*****************************************   XXXXXXXXXXX+OOOOOOOO++XXXXX *******************************",
"********************************************   XXXXXXXX+OOOO++OO++     ********************************",
"***********************************************   XXX  XOOOO+     *************************************",
"**************************************************   ** +++  ******************************************",
"********************************************************   ********************************************",
"*******************************************************************************************************"
};
