/* XPM */
static char *_6_fps_zombie_DEAD_crop[] = {
/* columns rows colors chars-per-pixel */
"103 183 14 1 ",
"  c black",
". c #010000",
"X c #01070A",
"o c #01070B",
"O c #1C0000",
"+ c #063938",
"@ c #460100",
"# c #470100",
"$ c #1D5D5A",
"% c #1D5D5B",
"& c #960D00",
"* c #F30802",
"= c #DFB77B",
"- c None",
/* pixels */
"-------------------------------------------------------------------------------------------------------",
"-------------------------------------------------------------------------------------------------------",
"-------------------------------------------------------------------------------------------------------",
"-------------------------------------------------------------------------------------------------------",
"-------------------------------------------------------------------------------------------------------",
"-------------------------------------------------------------------------------------------------------",
"-------------------------------------------------------------------------------------------------------",
"-------------------------------------------------------------------------------------------------------",
"-------------------------------------------------------------------------------------------------------",
"-------------------------------------------------------------------------------------------------------",
"-------------------------------------------------------------------------------------------------------",
"-------------------------------------------------------------------------------------------------------",
"-------------------------------------------------------------------------------------------------------",
"-------------------------------------------------------------------------------------------------------",
"-------------------------------------------------------------------------------------------------------",
"-------------------------------------------------------------------------------------------------------",
"-------------------------------------------------------------------------------------------------------",
"-------------------------------------------------------------------------------------------------------",
"-------------------------------------------------------------------------------------------------------",
"-------------------------------------------------------------------------------------------------------",
"-------------------------------------------------------------------------------------------------------",
"-------------------------------------------------------------------------------------------------------",
"-------------------------------------------------------------------------------------------------------",
"-------------------------------------------------------------------------------------------------------",
"-------------------------------------------------------------------------------------------------------",
"-------------------------------------------------------------------------------------------------------",
"-------------------------------------------------------------------------------------------------------",
"-------------------------------------------------------------------------------------------------------",
"-------------------------------------------------------------------------------------------------------",
"-------------------------------------------------------------------------------------------------------",
"-------------------------------------------------------------------------------------------------------",
"-------------------------------------------------------------------------------------------------------",
"-------------------------------------------------------------------------------------------------------",
"-------------------------------------------------------------------------------------------------------",
"-------------------------------------------------------------------------------------------------------",
"-------------------------------------------------------------------------------------------------------",
"-------------------------------------------------------------------------------------------------------",
"-------------------------------------------------------------------------------------------------------",
"-------------------------------------------------------------------------------------------------------",
"-------------------------------------------------------------------------------------------------------",
"-------------------------------------------------------------------------------------------------------",
"-------------------------------------------------------------------------------------------------------",
"-------------------------------------------------------------------------------------------------------",
"-------------------------------------------------------------------------------------------------------",
"-------------------------------------------------------------------------------------------------------",
"-------------------------------------------------------------------------------------------------------",
"-------------------------------------------------------------------------------------------------------",
"-------------------------------------------------------------------------------------------------------",
"-------------------------------------------------------------------------------------------------------",
"-------------------------------------------------------------------------------------------------------",
"-------------------------------------------------------------------------------------------------------",
"-------------------------------------------------------------------------------------------------------",
"-------------------------------------------------------------------------------------------------------",
"-------------------------------------------------------------------------------------------------------",
"-------------------------------------------------------------------------------------------------------",
"-------------------------------------------------------------------------------------------------------",
"-------------------------------------------------------------------------------------------------------",
"-------------------------------------------------------------------------------------------------------",
"-------------------------------------------------------------------------------------------------------",
"-------------------------------------------------------------------------------------------------------",
"-------------------------------------------------------------------------------------------------------",
"-------------------------------------------------------------------------------------------------------",
"-------------------------------------------------------------------------------------------------------",
"-------------------------------------------------------------------------------------------------------",
"-------------------------------------------------------------------------------------------------------",
"-------------------------------------------------------------------------------------------------------",
"-------------------------------------------------------------------------------------------------------",
"-------------------------------------------------------------------------------------------------------",
"-------------------------------------------------------------------------------------------------------",
"-------------------------------------------------------------------------------------------------------",
"-------------------------------------------------------------------------------------------------------",
"-------------------------------------------------------------------------------------------------------",
"-------------------------------------------------------------------------------------------------------",
"-------------------------------------------------------------------------------------------------------",
"-------------------------------------------------------------------------------------------------------",
"-------------------------------------------------------------------------------------------------------",
"-------------------------------------------------------------------------------------------------------",
"-------------------------------------------------------------------------------------------------------",
"-------------------------------------------------------------------------------------------------------",
"-------------------------------------------------------------------------------------------------------",
"-------------------------------------------------------------------------------------------------------",
"-------------------------------------------------------------------------------------------------------",
"-------------------------------------------------------------------------------------------------------",
"-------------------------------------------------------------------------------------------------------",
"-------------------------------------------------------------------------------------------------------",
"-------------------------------------------------------------------------------------------------------",
"-------------------------------------------------------------------------------------------------------",
"-------------------------------------------------------------------------------------------------------",
"-------------------------------------------------------------------------------------------------------",
"-------------------------------------------------------------------------------------------------------",
"-------------------------------------------------------------------------------------------------------",
"-------------------------------------------------------------------------------------------------------",
"-------------------------------------------------------------------------------------------------------",
"-------------------------------------------------------------------------------------------------------",
"-------------------------------------------------------------------------------------------------------",
"-------------------------------------------------------------------------------------------------------",
"-------------------------------------------------------------------------------------------------------",
"-------------------------------------------------------------------------------------------------------",
"-------------------------------------------------------------------------------------------------------",
"-------------------------------------------------------------------------------------------------------",
"-------------------------------------------------------------------------------------------------------",
"-------------------------------------------------------------------------------------------------------",
"-------------------------------------------------------------------------------------------------------",
"-------------------------------------------------------------------------------------------------------",
"-------------------------------------------------------------------------------------------------------",
"-------------------------------------------------------------------------------------------------------",
"-------------------------------------------------------------------------------------------------------",
"-------------------------------------------------------------------------------------------------------",
"-------------------------------------------------------------------------------------------------------",
"-------------------------------------------------------------------------------------------------------",
"-------------------------------------------------------------------------------------------------------",
"-------------------------------------------------------------------------------------------------------",
"-------------------------------------------------------------------------------------------------------",
"-------------------------------------------------------------------------------------------------------",
"-------------------------------------------------------------------------------------------------------",
"-------------------------------------------------------------------------------------------------------",
"-------------------------------------------------------------------------------------------------------",
"-------------------------------------------------------------------------------------------------------",
"-------------------------------------------------------------------------------------------------------",
"-------------------------------------------------------------------------------------------------------",
"-------------------------------------------------------------------------------------------------------",
"-------------------------------------------------------------------------------------------------------",
"-------------------------------------------------------------------------------------------------------",
"-------------------------------------------------------------------------------------------------------",
"-------------------------------------------------------------------------------------------------------",
"-------------------------------------------------------------------------------------------------------",
"-------------------------------------------------------------------------------------------------------",
"-------------------------------------------------------------------------------------------------------",
"-------------------------------------------------------------------------------------------------------",
"-------------------------------------------------------------------------------------------------------",
"-------------------------------------------------------------------------------------------------------",
"-------------------------------------------------------------------------------------------------------",
"-------------------------------------------------------------------------------------------------------",
"-------------------------------------------------------------------------------------------------------",
"-------------------------------------------------------------------------------------------------------",
"-------------------------------------------------------------------------------------------------------",
"-------------------------------------------------------------------------------------------------------",
"-------------------------------------------------------------------------------------------------------",
"-------------------------------------------------------------------------------------------------------",
"-------------------------------------------------------------------------------------------------------",
"------------------------------------------  -----------------------------------------------------------",
"----------------------------------------  ##     ------------------------------------------------------",
"--------------------------------------- #########              ----------------------------------------",
"-------------------------------------- #################&&&&&&&  --------------------------------------",
"------------------------------------- #@@@@@@@@@#@@@@@##@@@@@&#&#  ------------------------------------",
"-----------------------------------  ###@@@@@@@@##@@#@#@@@@@@@&&&&&  ----------------------------------",
"-----------------------------   -- ###@@@@@@@@@@@@#@@@@@@@@@@@#&#&#&#  --------------------------------",
"------------------           *&&  @###@@@@@@@@@@@@@@@@@@@@@@@@#&&&&&&##  ------------------------------",
"-----             OOO.OOOOO#&&  ####@@@@@@@@@@@@@@@@@@@@@@@@@@#&@&@&@@@@# -----------------------------",
"---- ooooXoooo+.OOO.OOOOOO##  #@####@@@@@@@@@@@@@@@@@@@@@@@@@@#@&&&&@@@@#& ----------------------------",
"---- oooXXoooo.OOOOOOOOOOO# ##@####@@@@@@@@@@@@@@@@@@@@@@%%%%@@@@@@@@@@@### ---------------------------",
"---- oooXXoooo. OOOOOOOOO# ###@@@@@@@@@@@@@@@@@@@@@@@@@%%%%%%@@@@@@@@@@@#### --------------------------",
"--- ooXXXXXXXX  oOoOoOOOO ##@@@@@@@@@@@@@@@@@@@@#&#&&*&&@&##@@@@@@@@@@@@@@###        ------------------",
"--- XoXXXXXXXXo oooooOOO# ###@@@@@@@@@@@@@@@@@@&&&&*==*****OO**@@@@@@@@@@@@@####&&##  -----------------",
"--- ooooXXXXooo ooooooO## ####@@@@@@@@@@@@@@@@@%&*&*********oO*@#@##@@@@@@@@##@######  ----------------",
"---- oooXXXXooo oooo..   +####@@@@@@@@@@@@@@##%%************oo**##O##@@@@@@@@#@@#####  ----------------",
"-----      oooo  o..+++++O####@@@@O@O#@@@@@@#O+%%*&********XoXXOoOoOO#@#@@@@@@@@@@@@## -----   --------",
"-----------    o  +++++++oO#####@@@@##@@@@@@O+++%%%%XXoXoXoXoooooOOoO#@#@@@@@@@@@@@@##%  --- %%   -----",
"--------------- +++++++ooooO###OOOOOOOO@@@@#++++%%%%XXXXXXXXXXoXXXoooOOOOO@@@@@@@@@@##%%%      %%%   --",
"-------------- +++++++o   ooO###OOOOOOOO@@##++++%#o%XXXXXXXXXXXXXXXooooOOO##@@@@#####%%%%%%%%%%%%%%% --",
"------------- ++++++   ---       OOOOOOOO*&+++++#&+%XXXXXXXXXXXXXXXXXXXXXOO###O#O####++%+%%%%%%%%%%% --",
"------------ +++++  -------    O #OOOO&**&++++++%+%oXXXXXX++XXXXXXXXXXXXXOOO########O++++++%%%%%%%%% --",
"------ -    ooo   -------------  OO##*&&#+++++++++ooXXXXXXX+XXXXXXXXXXXXoO OOOOO     O+++++%+++%+%% ---",
"-------  +++o  ------------------ %%%%%+++++++++++ooXXXXXXXXXXXXXXXXXXooo O OOO -----    +++++o++   ---",
"---------    --------------------- %%%+o++++++++++XXXXXXXXXXXXXXXXXXXXXoo OO    ---------        ------",
"---------------------------------- %%+&#+++++++++++XXXXXXXXXXXXXXXXXXXXXoo OOOO -----------------------",
"---------------------------------- %%+&&+++++++++++XXXXXXXXXXXXXXXXXXXXXoo O    -----------------------",
"---------------------------------- %%+**++++O###+++XXXXXXXXXXXXXXXXXXXXXoo  ---------------------------",
"---------------------------------- %%+**o++O#**&++XXXXXXXXXXXXXXXXXXXXXXo -----------------------------",
"--------------------------------- %%=====++O#**#+++XXXXXXXXXXXXXXXXXXXooo -----------------------------",
"--------------------------------- +=======oO#***+++XXXXXXXXXXXXXXXXXXXXoo -----------------------------",
"---------------------------------- ========O*&&O+++XXXXXXXXXXXXXXXXXXXXX ------------------------------",
"---------------------------------- =*======+oOo++++XXXXXXXXXXXXXXXXXoooo ------------------------------",
"---------------------------------- &*======++++++++XXXXXXXXXXXXXXXXXXooo ------------------------------",
"---------------------------------- &#*=====+++++++XXXXXXXXXXXXXXXXXXXXoo ------------------------------",
"----------------------------------- &*=====++++++XXXXXXXXXXXXXXXXXXXXXo -------------------------------",
"------------------------------------ &%===++++ooXXXXXXXXXXXXXXXXoXXXXXo -------------------------------",
"------------------------------------- #%%+++++XoXXXXXXXXX+XXXXXXooXXoo --------------------------------",
"-------------------------------------- oooooooooooXXooo+X+XXXXXXooooo ---------------------------------",
"---------------------------------------             ooo++++++ooo oo  ----------------------------------",
"---------------------------------------------------- oo++++     -  ------------------------------------",
"-----------------------------------------------------  +   --------------------------------------------",
"------------------------------------------------------- -----------------------------------------------"
};
