/* XPM */
static char *_4_fps_zombie_DEAD_crop[] = {
/* columns rows colors chars-per-pixel */
"103 183 12 1 ",
"  c black",
". c #010000",
"X c #01070A",
"o c #1C0000",
"O c #063938",
"+ c #460100",
"@ c #470100",
"# c #1D5D5B",
"$ c #960D00",
"% c #F30802",
"& c #DFB77B",
"* c None",
/* pixels */
"*******************************************************************************************************",
"*******************************************************************************************************",
"*******************************************************************************************************",
"*******************************************************************************************************",
"*******************************************************************************************************",
"*******************************************************************************************************",
"*******************************************************************************************************",
"*******************************************************************************************************",
"*******************************************************************************************************",
"*******************************************************************************************************",
"*******************************************************************************************************",
"*******************************************************************************************************",
"*******************************************************************************************************",
"*******************************************************************************************************",
"*******************************************************************************************************",
"*******************************************************************************************************",
"*******************************************************************************************************",
"*******************************************************************************************************",
"*******************************************************************************************************",
"*******************************************************************************************************",
"*******************************************************************************************************",
"*******************************************************************************************************",
"*******************************************************************************************************",
"*******************************************************************************************************",
"*******************************************************************************************************",
"*******************************************************************************************************",
"*******************************************************************************************************",
"*******************************************************************************************************",
"*******************************************************************************************************",
"*******************************************************************************************************",
"*******************************************************************************************************",
"*******************************************************************************************************",
"*******************************************************************************************************",
"*******************************************************************************************************",
"*******************************************************************************************************",
"*******************************************************************************************************",
"*******************************************************************************************************",
"*******************************************************************************************************",
"*******************************************************************************************************",
"*******************************************************************************************************",
"*******************************************************************************************************",
"*******************************************************************************************************",
"*******************************************************************************************************",
"*******************************************************************************************************",
"*******************************************************************************************************",
"*******************************************************************************************************",
"*******************************************************************************************************",
"*******************************************************************************************************",
"*******************************************************************************************************",
"*******************************************************************************************************",
"*******************************************************************************************************",
"*******************************************************************************************************",
"*******************************************************************************************************",
"*******************************************************************************************************",
"*******************************************************************************************************",
"*******************************************************************************************************",
"*******************************************************************************************************",
"*******************************************************************************************************",
"*******************************************************************************************************",
"*******************************************************************************************************",
"*******************************************************************************************************",
"*******************************************************************************************************",
"*******************************************************************************************************",
"*******************************************************************************************************",
"*******************************************************************************************************",
"*******************************************************************************************************",
"*******************************************************************************************************",
"*******************************************************************************************************",
"*******************************************************************************************************",
"*******************************************************************************************************",
"*******************************************************************************************************",
"*******************************************************************************************************",
"*******************************************************************************************************",
"*******************************************************************************************************",
"*******************************************************************************************************",
"*******************************************************************************************************",
"*******************************************************************************************************",
"*******************************************************************************************************",
"*******************************************************************************************************",
"*******************************************************************************************************",
"*******************************************************************************************************",
"*******************************************************************************************************",
"*******************************************************************************************************",
"*******************************************************************************************************",
"*******************************************************************************************************",
"*******************************************************************************************************",
"*******************************************************************************************************",
"*******************************************************************************************************",
"*******************************************************************************************************",
"*******************************************************************************************************",
"*******************************************************************************************************",
"*******************************************************************************************************",
"*******************************************************************************************************",
"*******************************************************************************************************",
"*******************************************************************************************************",
"*******************************************************************************************************",
"*******************************************************************************************************",
"*******************************************************************************************************",
"*******************************************************************************************************",
"*******************************************************************************************************",
"*******************************************************************************************************",
"*******************************************************************************************************",
"*******************************************************************************************************",
"*******************************************************************************************************",
"*******************************************************************************************************",
"*******************************************************************************************************",
"*******************************************************************************************************",
"*******************************************************************************************************",
"*******************************************************************************************************",
"*******************************************************************************************************",
"*******************************************************************************************************",
"*******************************************************************************************************",
"*******************************************************************************************************",
"*******************************************************************************************************",
"*******************************************************************************************************",
"*******************************************************************************************************",
"*******************************************************************************************************",
"*******************************************************************************************************",
"*******************************************************************************************************",
"*******************************************************************************************************",
"*******************************************************************************************************",
"*******************************************************************************************************",
"*******************************************************************************************************",
"*******************************************************************************************************",
"*******************************************************************************************************",
"*******************************************************************************************************",
"*******************************************************************************************************",
"*******************************************************************************************************",
"*******************************************************************************************************",
"*******************************************************************************************************",
"*******************************************************************************************************",
"*******************************************************************************************************",
"*******************************************************************************************************",
"*******************************************************************************************************",
"*******************************************************************************************************",
"*******************************************************************************************************",
"*******************************************************************************************************",
"*******************************************************************************************************",
"*******************************************************************************************************",
"*******************************************************************************************************",
"*******************************************************************************************************",
"*******************************************************************************************************",
"*******************************************************************************************************",
"*****************************************           ***************************************************",
"**************************************** +++++++@@@+       ********************************************",
"*************************************** @+++++++@@++++@$$$$  ******************************************",
"****************************** ******* @@@++++++++++++@+@@@+@ *****************************************",
"******************     ****** %    *  ++++++++++++++++++@@++@$  ***************************************",
"*****             ooooo      %$%%   @+++++++++++++++++++++++@++$ **************************************",
"**** XXXXXXXXXX.oooooooooo@@$%%% @ @++++++++++++++++++++++++@@++$  ************************************",
"**** XXXXXXXXX.XXoooooooooo@$%%%  @@+++++++++++++++++++++++$#+++++@        ****************************",
"**** XXXXXXXXX.XXooooooooo@$%%%  @@@+++++++++++++++++++#$$###+++@@@@@@ X  X  **************************",
"*** XXXXXXXXXX XXoXoooooo@@%   @@@++++++++++++++@$#$$&&&+$+$O+++++++++@ o@ XX *************************",
"*** XXXXXXXXXX .XXXoooooo@  @+@@@@++++++++++++$$#$&&%%%%%%%&&+++++++++++ @@ XX  ***********************",
"*** XXXXXXXXXXX XXXXX.Xo@ @@++@@@++++++++++++++##&%%%%%%%%%%%++++++++++@@ @@    ***********************",
"**** XXXXXXXXXX XXX..#.   @@++++++++++++++++++#####&%%%%%$%%%%o+++++++++@@   @ ************************",
"*****      XXXX ...OO#O#O@++++++++++++++++++o#O######%%%%%%%%%oo@+++++++@@++@  *      *****************",
"***********    X.OOOOOOO@@++++++++++++++@@+###########XXX%X%%XXo@@++++++@@++++@ $$@+@  ****************",
"*************** OOOOOOXXo@@++++++++++++%%%O#O#O###@O##XXXXXXXXXXooXoooo+++++++@@@$++@@  ***************",
"************** OOOOOOXXXo@@+++++++@O%%%%##########%$##XXXXXXXXXXXXooXo++++++++@@@@+@@@@          ******",
"************* OOOOOO      @@@@@@+$@$@OOOOOO#O#####OOOXXXXXXXXXXXXXXXXoooo@@@+++++++++++##########     *",
"************ OOOOO  **  ** @@@@#####OXOOOO##########XXXXXXXXXXXXXXXXXXoo@@@@++++++++++++############# *",
"****** *    XO    *********  o ###OXX$OOOOO#O######OXXXXXXXXXXXXXXXXXXXoo+++++@@+++++++############## *",
"******   OOOX *************** ####X$X%OOOOO########OXXXXXXXXXXXXXXXXXXXo+++++@@@+@+++++O#######OOO   **",
"*********    ***************** ###$%X%OOOOOOO#O#O#OOXXXXXXXXXXXXXXXXXXXoo+@@@+ooo+@@+@oOOOO#O     *****",
"****************************** ###$%X   OOOOO#####OOXXXXXXXXXXXXXXXXXXXoo+@@++ooo+@@+  oOOOO **********",
"****************************** ###%% &&&&&O$%%$%%OOXXXXXXXXXXXXXXXXXXXXoo@   oooooo@ **     ***********",
"***************************** ####% &&&&&&&%%%%@OOOXXXXXXXXXXXXXXXXXXXXX  ***        ******************",
"***************************** O### &&&$&&&&@%%@OOOOXXXXXXXXXXXXXXXXXXXX *******************************",
"****************************** ### #&&&$&&&&%%%OOOOXXXXXXXXXXXXXXXXXXXX *******************************",
"****************************** ### ##&$$@&&&@@OOOOOXXXXXXXXXXXXXXXXXXXX *******************************",
"******************************* ## #$&&&&&&&OOOOOOOXXXXXXXXXXXXXXXXXXXX *******************************",
"******************************** #O O$#%$&&&OOOOOOOXXXXXXXXXXXXXXXXXXXX *******************************",
"******************************** #O O##$&&&OOOOOOOOXXXXXXXXXXXXXXXXXXXX *******************************",
"********************************* OO OOOO#OOXOXXXXXXXXXXXXXXXXXXXXXXXX ********************************",
"********************************* OOO    OXXXXXXXXXXXXXXXXXXXXXXXXXXXX ********************************",
"********************************** OXXXXXXXXXXXXXXXXXXXXXXXXXXXXXXXXXX ********************************",
"***********************************            XXXXXXXXXXXXXXXXXXXXXX *********************************",
"*********************************************** XOXOXXXXXXXXXXXXXXX  **********************************",
"*********************************************** XOOXXXXXXO XXXXXX  ************************************",
"************************************************ OO       *  XXX **************************************",
"*************************************************  ********** X ***************************************",
"************************************************************** ****************************************"
};
