/* XPM */
static char *__0[] = {
/* columns rows colors chars-per-pixel */
"35 35 2 1 ",
"  c #CB0001",
". c None",
/* pixels */
"...................................",
"...................................",
"...................................",
"...................................",
"...................................",
"...................................",
"...................................",
"...................................",
"..............      ...............",
".............         .............",
"............           ............",
"...........            ............",
"...........             ...........",
"...........             ...........",
"...........             ...........",
"...........             ...........",
"...........            ............",
"...........            ............",
"...........           .............",
"............          .............",
".............        ..............",
"..............     ................",
"...................................",
"...................................",
"...................................",
"...................................",
"...................................",
"...................................",
"...................................",
"...................................",
"...................................",
"...................................",
"...................................",
"...................................",
"..................................."
};
