/* XPM */
static char *__15[] = {
/* columns rows colors chars-per-pixel */
"35 35 2 1 ",
"  c #780109",
". c None",
/* pixels */
"...................................",
"...................................",
"...................................",
"...................................",
"...................................",
"...................................",
"...................................",
"...................................",
"...................................",
"...................................",
".............   ...................",
"............    ...................",
".............   ....  ...   .......",
".............  ..........   .......",
".........................   .......",
"........ ..........................",
".......  ..........................",
"...................................",
"...................................",
"...................................",
"..........................  .......",
"..........................  .......",
"...................................",
"...................................",
"...................................",
"...................................",
"...................................",
"...................................",
"...................................",
"....... ...   .....................",
"...........   .....................",
"..........    .....................",
"...............   .................",
"...............   .................",
"................  ................."
};
