/* XPM */
static char *__29[] = {
/* columns rows colors chars-per-pixel */
"35 35 2 1 ",
"  c #D00001",
". c None",
/* pixels */
"...................................",
"...................................",
"...................................",
"...................................",
"...................................",
"...................................",
"...................................",
"...................................",
"...............    ................",
".............        ..............",
"............          .............",
"............           ............",
"...........            ............",
"...........            ............",
"...........            ............",
"...........            ............",
"...........            ............",
"...........           .............",
"............          .............",
"............         ..............",
"..............      ...............",
"...................................",
"...................................",
"...................................",
"...................................",
"...................................",
"...................................",
"...................................",
"...................................",
"...................................",
"...................................",
"...................................",
"...................................",
"...................................",
"..................................."
};
