/* XPM */
static char *CRATE_2J[] = {
/* columns rows colors chars-per-pixel */
"64 64 12 1 ",
"  c #322320",
". c #3E3936",
"X c #744000",
"o c #716033",
"O c #4F4C48",
"+ c #67625C",
"@ c #855A00",
"# c #9F7315",
"$ c #807B6A",
"% c #B08A2E",
"& c #C1B339",
"* c #979578",
/* pixels */
"***$$$$$$+$$$$+$+$+$+$++++++$+$+$+$$$$$$$$$$$$$$$$$$$$$$$+$$$$+$",
"$OOOOOOOOOOOOOOOOOOOOOOOOOOOOOOOOOOOOOOOOOOOOOOOOOOOOOOOOOOOOOOO",
"$OOOOOOOOOOOOOOOOOOOOOOOOOOOOOOOOOOOOOOOOOOOOOOOOOOOOOOOOOOOOOO ",
"+O.$ OOOOOOOOOOOOOOOOOOOOOOOOOOOOOOOOOOOOOOOOOOOOOOOOOOOOO.$ OOO",
"$O.  OOOOOOOOOOOOOOOOOOOOOOOOOOOOOOOOOOOOOOOOOOOOOOOOOOOOO.  OO ",
"+O..OOOOOOOOOOOOOOOOOOOOOOOOOOOOOOOOOOOOOOOOOOOOOOOOOOOOOO..OOOO",
"+OOOOOOOOOOOOOOOOOOOOOOOOOOOOOOOOOOOOOOOOOOOOOOOOOOOOOOOOOOOOOO ",
"+OOOOOOOOOOOOOOOOOOOOOOOOOOOOOOOOOOOOOOOOOOOOOOOOOOOOOOOOOOOOOO ",
"OOOOOOOO          . ............................. . .   OOOOOOO ",
"+OOOOOOO .OOOOOOOOOOOOOOOOOOOOOOOOOOOOOOOOOOOOOOOOOOOOOOOOOOOOO ",
"OOOOOOOO O............................................O+OOOOOOO ",
"+OOOOOOO O............................................OOOOOOOOO ",
"+OOOOOOO.O............................................O+OOOOOOO.",
"+OOOOOOO.O............................................O+OOOOOOO ",
"+OOOOOOO O............................................O+OOOOOOO.",
"+OOOOOOO.O............................................O+OOOOOOO.",
"+OOOOOOO.OOOOOOOOOOOOOOOOOOOOOOOOOOOOOOOOOOOOOOOOOOOOOO$OOOOOOO.",
"+OOOOOOO.O............................................O$OOOOOOO ",
"+OOOOOOO.OOOOOOOOOOOOOOOOOOOOOOOOOOOOOOOOOOOOOOOOOOOOOO$OOOOOOO.",
"+OOOOOOO.OOOOOOOOOOOOOOOOOOOOOOOOOOOOOOOOOOOOOOOOOOOOOO$OOOOOOO ",
"+OOOOOOO.OOOOOOOOOOOOOOOOOOOOOOOOOOOOOOOOOOOOOOOOOOOOOO$OOOOOOO ",
"+OOOOOOO.OOOOOOOOOOOOOOOOOOOOOOOOOOOOOOOOOOOOOOOOOOOOOO$OOOOOOO ",
"+OOOOOOO.OOOOOOOOOOOOOOOOOOOOOOOOOOOOOOOOOOOOOOOOOOOOOO$OOOOOOO ",
"+OOOOOOO.OOOOOOOOOOOOOOOOOOOOOOOOOOOOOOOOOOOOOOOOOOOOOO$OOOOOOO ",
"+OOOOOOO OOOOOOOOOOOOOOOOOOOOOOOOOOOOOOOOOOOOOOOOOOOOOO$OOOOOOO ",
"+OOOOOOO.OOOOOOOOOOOOOOOOOOOOOOOOOOOOOOOOOOOOOOOOOOOOOO$OOOOOOO ",
"+OOOOOOO OOOOOOOOOOOOOOOOOOOOOOOOOOOOOOOOOOOOOOOOOOOOOO$OOOOOOO ",
"+OOOOOOO OOOOOOOOOOOOOOOOOOOO##OO##OOOOOOOOOOOOOOOOOOOO$OOOOOOO.",
"+OOOOOOO OOOOOOOOOOOOOOOOOOO###OO###OOOOOOOOOOOOOOOOOOO$OOOOOOO ",
"OOOOOOOO OOOOOOOOOO.O.OOOOO####OO####OOOOOOOOOOOOOOOOOO+OOOOOOO.",
"+OOOOOOO OOOOOOOOO.O.OOOOO#####OO#####OOOOOOOOOOOOOOOOO$OOOOOOO ",
"OOOOOOOO OOOOOO...O.OOOOO#####oOOo#####OOOOOOOOOOOOOOOO+OOOOOOO.",
"+OOOOOO. OOO..  +OOOOOOO######OOOO####@X  OOOOOOOOOOOOO+OOOOOOO.",
"OOOOOOO ...  $+OOOOOOOO######OOOOOO##@X@@..OOOOOOOOOOOO+OOOOOOO.",
"+OOOOOO +$$+OOOOO#OOOOO####oOOO##OOOoX@@#O.+##OOOOOOOOO+OOOOOOO.",
"+OOOOOO..OOOOOOOO#O#OOOOOOOOOO####OO ..O.OO+O#OOOOOOOOO+OOOOOOO.",
"+OOOOOO. OOOOOOOO###OOOOOOOOOO####OO ...OO$+O#OOOOOOOOO+OOOOOOO.",
"+OOOOOOO.OOOOOOOOOO#OOO####oOOO##OOOo%##&$+O###OOOOOOOO+OOOOOOO.",
"+OOOOOOO.OOOOOOOOOOOOOO######OOOOOO###&&%OOOOOOOOOOOOOO+OOOOOOO.",
"+OOOOOOO OOOOOOOOOOOOOOO######OOOO######OOOOOOOOOOOOOOO+OOOOOOO.",
"OOOOOOOO OOOOOOOOOOOOOOOO#####oOOo#####OOOOOOOOOOOOOOOO+OOOOOOO.",
"+OOOOOOO OOOOOOOOOOOOOOOOO#####OO#####OOOOOOOOOOOOOOOOO+OOOOOOO.",
"OOOOOOOO OOOOOOOOOOOOOOOOOO####OO####OOOOOOOOOOOOOOOOOO+OOOOOOO ",
"OOOOOOOO OOOOOOOOOOOOOOOOOOO###OO###OOOOOOOOOOOOOOOOOOO+OOOOOOO.",
"OOOOOOOO OOOOOOOOOOOOOOOOOOOO##OO##OOOOOOOOOOOOOOOOOOOO+OOOOOOO ",
"OOOOOOOO OOOOOOOOOOOOOOOOOOOOOOOOOOOOOOOOOOOOOOOOOOOOOO+OOOOOOO.",
"OOOOOOOO OOOOOOOOOOOOOOOOOOOOOOOOOOOOOOOOOOOOOOOOOOOOOO+OOOOOOO.",
"+OOOOOOO OOOOOOOOOOOOOOOOOOOOOOOOOOOOOOOOOOOOOOOOOOOOOO+OOOOOOO.",
"OOOOOOOO OOOOOOOOOOOOOOOOOOOOOOOOOOOOOOOOOOOOOOOOOOOOOO+OOOOOOO.",
"+OOOOOOO OOOOOOOOOOOOOOOOOOOOOOOOOOOOOOOOOOOOOOOOOOOOOO$OOOOOOO.",
"+OOOOOOO OOOOOOOOOOOOOOOOOOOOOOOOOOOOOOO#O#O##OOO#OO##O+OOOOOOO.",
"+OOOOOOO OOOOOOOOOOOOOOOOOOOOOOOOOOOOO#O#O##O#O#O#O#O#O$OOOOOOO.",
"+OOOOOOO OOOOOOOOOOOOOOOOOOOOOOOOOOOOOOOOOOOOOOOOOOOOOO+OOOOOOO ",
"+OOOOOOO OOOOOOOOOOOOOOOOOOOOOOOO#OO#O#OO##O##O#O#O#O#O$OOOOOOO.",
"+OOOOOOO OOOOOOOOOOOOOOOOOOOOOOOO#O##O#O#O##O#O#O##O##O$OOOOOOO ",
"+OOOOOOO OOOOOOOOOOOOOOOOOOOOOOOOOOOOOOOOOOOOOOOOOOOOOO$OOOOOOO ",
"+OOOOOOOO++++$$$$$$$$$$$$+$+$$$$$$$$$$$$$$$$$$$+$+$$$$$$OOOOOOO ",
"+OOOOOOOOOOOOOOOOOOOOOOOOOOOOOOOOOOOOOOOOOOOOOOOOOOOOOOOOOOOOOO ",
"OOOOOOOOOOOOOOOOOOOOOOOOOOOOOOOOOOOOOOOOOOOOOOOOOOOOOOOOOOOOOOO ",
"+O.$ OOOOOOOOOOOOOOOOOOOOOOOOOOOOOOOOOOOOOOOOOOOOOOOOOOOOO.$ OO ",
"OO.  OOOOOOOOOOOOOOOOOOOOOOOOOOOOOOOOOOOOOOOOOOOOOOOOOOOOO.  OO ",
"+O..OOOOOOOOOOOOOOOOOOOOOOOOOOOOOOOOOOOOOOOOOOOOOOOOOOOOOO..OOO ",
"OOOOOOOOOOOOOOOOOOOOOOOOOOOOOOOOOOOOOOOOOOOOOOOOOOOOOOOOOOOOOOO ",
".      . . ....... .   . .    . ........ . .. . .               "
};
