/* XPM */
static char *CRATE_1A[] = {
/* columns rows colors chars-per-pixel */
"64 64 11 1 ",
"  c black",
". c #1C1C1B",
"X c #241B17",
"o c #2F1C17",
"O c #382B2F",
"+ c #383F40",
"@ c #464D4F",
"# c #536265",
"$ c #62797E",
"% c #9F7315",
"& c #889C9E",
/* pixels */
"&&&$$$$$$#$$$$#$#$#$#$######$#$#$#$$$$$$$$$$$$$$$$$$$$$$$#$$$$#$",
"$@@@@@@@@@@@@@@@@@@@@@@@@@@@@@@@@@@@@@@@@@@@@@@@@@@@@@@@@@@@@@@@",
"$@@@@@@@@@@@@@@@@@@@@@@@@@@@@@@@@@@@@@@@@@@@@@@@@@@@@@@@@@@@@@@+",
"#@O$+@@@@@@@@@@@@@@@@@@@@@@@@@@@@@@@@@@@@@@@@@@@@@@@@@@@@@O$+@@@",
"$@O++@@@@@@@@@@@@@@@@@@@@@@@@@@@@@@@@@@@@@@@@@@@@@@@@@@@@@O++@@+",
"#@OO@@@@@@@@@@@@@@@@@@@@@@@@@@@@@@@@@@@@@@@@@@@@@@@@@@@@@@OO@@@@",
"#@@@@@@@@@@@@@@@@@@@@@@@@@@@@@@@@@@@@@@@@@@@@@@@@@@@@@@@@@@@@@@+",
"#@@@@@@@@@@@@@@@@@@@@@@@@@@@@@@@@@@@@@@@@@@@@@@@@@@@@@@@@@@@@@@+",
"@@@@@@@@XXOOOOOOO+O+OOOOOOOOOOOOOOOOOOOOOOOOOOOOO+O+O+++@@@@@@@+",
"#@@@@@@@O+@@@@@@@@@@@@@@@@@@@@@@@@@@@@@@@@@@@@@@@@@@@@@@@@@@@@@+",
"@@@@@@@@+@++++++++++++++++++++++++++++++++++++++++++++@#@@@@@@@+",
"#@@@@@@@O@++++++++++++++++++++++++++++++++++++++++++++@@@@@@@@@+",
"#@@@@@@@+@++++++++++++++++++++++++++++++++++++++++++++@#@@@@@@@O",
"#@@@@@@@O@++++++++++++++++++++++++++++++++++++++++++++@#@@@@@@@+",
"#@@@@@@@+@++++++++++++++++++++++++++++++++++++++++++++@#@@@@@@@O",
"#@@@@@@@O@++++++++++++++++++++++++++++++++++++++++++++@#@@@@@@@O",
"#@@@@@@@O@@@@@@@@@@@@@@@@@@@@@@@@@@@@@@@@@@@@@@@@@@@@@@$@@@@@@@O",
"#@@@@@@@O@++++++++++++++++++++++++++++++++++++++++++++@$@@@@@@@+",
"#@@@@@@@O@@@@@@@@@@@@@@@@@@@@@@@@@@@@@@@@@@@@@@@@@@@@@@$@@@@@@@O",
"#@@@@@@@O@@@@@@@@@@@@@@@@@@@@@@@@@@@@@@@@@@@@@@@@@@@@@@$@@@@@@@+",
"#@@@@@@@O@@@@@@@@@@@@@@@@@@@@@@@@@@@@@@@@@@@@@@@@@@@@@@$@@@@@@@+",
"#@@@@@@@O@@@@@@@@@@@@@@@@@@@@@@@@@@@@@@@@@@@@@@@@@@@@@@$@@@@@@@+",
"#@@@@@@@O@@@@@@@@@@@@@@@@@@@@@@@@@@@@@@@@@@@@@@@@@@@@@@$@@@@@@@+",
"#@@@@@@@O@@@@@@@@@@@@@@@@@@@@@@@@@@@@@@@@@@@@@@@@@@@@@@$@@@@@@@+",
"#@@@@@@@O@@@@@@@@@@@@@@@@@@@@@@@@@@@@@@@@@@@@@@@@@@@@@@$@@@@@@@+",
"#@@@@@@@O@@@@@@@@@@@@@@@@@@@@@@@@@@@@@@@@@@@@@@@@@@@@@@$@@@@@@@+",
"#@@@@@@@O@@@@@@@@@@@@@@@@@@@@@@@@@@@@@@@@@@@@@@@@@@@@@@$@@@@@@@+",
"#@@@@@@@+@@@@@@@@@@@@@@@@@@@@@@@@@@@@@@@@@@@@@@@@@@@@@@#@@@@@@@O",
"#@@@@@@@O@@@@@@@@@@@@@@@@@@@@@@@@@@@@@@@@@@@@@@@@@@@@@@$@@@@@@@+",
"@@@@@@@@+@@@@@@@@@@@@@@@@@@@@@@@@@@@@@@@@@@@@@@@@@@@@@@#@@@@@@@O",
"#@@@@@@@O@@@@@@@@@@@@@@@@@@@@@@@@@@@@@@@@@@@@@@@@@@@@@@#@@@@@@@+",
"@@@@@@@@+@@@@@@@@@@@@@@@@@@@@@@@@@@@@@@@@@@@@@@@@@@@@@@#@@@@@@@O",
"#@@@@@@@+@@@@@@@@@@@@@@@@@@@@@@@@@@@@@@@@@@@@@@@@@@@@@@#@@@@@@@O",
"@@@@@@@@+@@@@@@@@@@@@@@@@@@@@@@@@@@@@@@@@@@@@@@@@@@@@@@#@@@@@@@O",
"#@@@@@@@+@@@@@@@@@@@@@@@@@@@@@@@@@@@@@@@@@@@@@@@@@@@@@@#@@@@@@@O",
"#@@@@@@@+@@@@@@@@@@@@@@@@@@@@@@@@@@@@@@@@@@@@@@@@@@@@@@#@@@@@@@O",
"#@@@@@@@+@@@@@@@@@@@@@@@@@@@@@@@@@@@@@@@@@@%%%@@@%%%@@@#@@@@@@@O",
"#@@@@@@@+@@@@@@@@@@@@@@@@@@@@@@@@@@@@@@@@@%%%%%@%%%%%@@#@@@@@@@O",
"#@@@@@@@+@@@@@@@@@@@@@@@@@@@@@@@@@@@@@@@@@%%@%%@%%@%%@@#@@@@@@@O",
"#@@@@@@@+@@@@@@@@@@@@@@@@@@@@@@@@@@@@@@@@@%%@%%@%%@%%@@#@@@@@@@O",
"@@@@@@@@+@@@@@@@@@@@@@@@@@@@@@@@@@@@@@@@@@%%@%%@@%%%@@@#@@@@@@@O",
"#@@@@@@@+@@@@@@@@@@@@@@@@@@@@@@@@@@@@@@@@@%%@%%@%%%%%@@#@@@@@@@O",
"@@@@@@@@+@@@@@@@@@@@@@@@@@@@@@@@@@@@@@@@@@%%@%%@%%@%%@@#@@@@@@@o",
"@@@@@@@@+@@@@@@@@@@@@@@@@@@@@@@@@@@@@@@@@@%%@%%@%%@%%@@#@@@@@@@O",
"@@@@@@@@+@@@@@@@@@@@@@@@@@@@@@@@@@@@@@@@@@%%%%%@%%%%%@@#@@@@@@@o",
"@@@@@@@@+@@@@@@@@@@@@@@@@@@@@@@@@@@@@@@@@@@%%%@@@%%%@@@#@@@@@@@O",
"@@@@@@@@+@@@@@@@@@@@@@@@@@@@@@@@@@@@@@@@@@@@@@@@@@@@@@@#@@@@@@@O",
"#@@@@@@@+@@%%%@%%%%%%%%%%%%%%%%%%%%%%%%%%%%%%%%%%%%%%@@#@@@@@@@O",
"@@@@@@@@+@@%%%@%%%%%%%%%%%%%%%%%%%%%%%%%%%%%%%%%%%%%%@@#@@@@@@@O",
"#@@@@@@@+@@%%%@%%%%%%%%%%%%%%%%%%%%%%%%%%%%%%%%%%%%%%@@$@@@@@@@O",
"#@@@@@@@+@@@@@@@@@@@@@@@@@@@@@@@@@@@@@@@@@@@@@@@@@@@@@@#@@@@@@@O",
"#@@@@@@@+@@%%%%%%%%%%%%%%%%%%%%%%%%%%%%%%%%%%%%%%@%%%@@$@@@@@@@O",
"#@@@@@@@+@@%%%%%%%%%%%%%%%%%%%%%%%%%%%%%%%%%%%%%%@%%%@@#@@@@@@@o",
"#@@@@@@@+@@%%%%%%%%%%%%%%%%%%%%%%%%%%%%%%%%%%%%%%@%%%@@$@@@@@@@O",
"#@@@@@@@+@@@@@@@@@@@@@@@@@@@@@@@@@@@@@@@@@@@@@@@@@@@@@@$@@@@@@@o",
"#@@@@@@@+@@@@@@@@@@@@@@@@@@@@@@@@@@@@@@@@@@@@@@@@@@@@@@$@@@@@@@o",
"#@@@@@@@@####$$$$$$$$$$$$#$#$$$$$$$$$$$$$$$$$$$#$#$$&&&&@@@@@@@o",
"#@@@@@@@@@@@@@@@@@@@@@@@@@@@@@@@@@@@@@@@@@@@@@@@@@@@@@@@@@@@@@@o",
"@@@@@@@@@+O++O+O+OOOOOOO+@@@@@@@@@@@@@@+O++O+O+OOOOOOO+@@@@@@@@o",
"#@O$+@@@+O         . . .O+@@@@@@@@@@@@+O         . . .O+@@O$+@@o",
"@@O++@@@O       . . . . .#@@@@@@@@@@@@O       . . . . .#@@O++@@o",
"#@OO@@@@#. . . . . . ....#@@@@@@@@@@@@#. . . . . . ....#@@OO@@@o",
"@@@@@@@@@#$####$#$#$$$$$#@@@@@@@@@@@@@@#$####$#$#$$$$$#@@@@@@@@o",
"OooooooOoOoOOOOOOOoOoooOoOooooOoOOOOOOOOoOoOOoOoOooooooooooooooo"
};
