/* XPM */
static char *CRATE_2B[] = {
/* columns rows colors chars-per-pixel */
"64 64 13 1 ",
"  c black",
". c #1C1C1B",
"X c #322320",
"o c #382B2F",
"O c #3E3936",
"+ c #4B3F38",
"@ c #716033",
"# c #4F4C48",
"$ c #67625C",
"% c #9F7315",
"& c #807B6A",
"* c #C0A436",
"= c #979578",
/* pixels */
"===&&&&&&$&&&&$&$&$&$&$$$$$$&$&$&$&&&&&&&&&&&&&&&&&&&&&&&$&&&&$&",
"&###############################################################",
"&##############################################################X",
"$#O&X#####################################################O&X###",
"&#OXX#####################################################OXXo#X",
"$#OO+#####################################################OOoo##",
"$##++#####################################################+oo##X",
"$##+#######################################################+o##X",
"########XXXXXXOOOXOXOOOOOOOOOOOOXXXXXOXOOOOOOOOOOXOXOXXX###o+##X",
"$#######XO######################+#+++#+#+##################+o##X",
"########X#OOOOOOOOOOOOOOOOOOOOOOOoOoooOOOOOOOOOOOOOOOO#$###++##X",
"$#######X#OOOOOOOOOOOOOOOOOOOOOOOOoOoOoOOOOOXOOOOOOOOO######+##X",
"$#######O#OOOOOOOOOOOOOOOOOOOOOOOOOoooOOOXOXOOOOOOOOOO#$###+###O",
"$#######O#OOOOOOOOOOOOOOOOOOOOOOOOOOoOoOXOXOOOOOOOOOOO#$####+##X",
"$#######X#OOOOOOOOOOOOOXOOOOOOOOOOOoOoOXOXOOOOOOOOOOOO#$###+###O",
"$#######O#OOOOOOOOOOOOXOOOOOOOOOOOOOoOXOOOOOOOOOOOOOOO#$####+##O",
"$#######O############O$############+###################&#######O",
"$#######O#OOOOOOOOOOX#OOOOOOOOOOOOoOOOOOOOOOOOOOOOOOOO#&####+##X",
"$#######O##############################################&#######O",
"$#######O#########O##################O#################&#######X",
"$#######O########O$###############O#O##################&#######X",
"$#######O#######O&###############O#O###################&#######X",
"$#######O######O&###############OOO####################&#######X",
"$#######X#####O&###############O#+#####################&#######X",
"$#######O####O$#################+++####################&#######X",
"$#######X######################+#+#####################&#######X",
"$#######X#######################+######################&#######X",
"$#######X####################%%###%####################&#######O",
"$#######X###################%%%####%###################&#######X",
"########X##################%%%%###%#%##################$#######O",
"$#######X+################%%%%%##%#%%%#################&#######X",
"########O################%%%%%@##@%%%%%################$#######O",
"$#######X+##############%%%%%%####%%%%%%###############$#######O",
"########O##############%%%%%%######%%%%%%##############$#######O",
"$#######X+#+##O#O%#####%%%%@###%%###@%%%%###%%#########$#######O",
"$#######O#+##O#O#%#%##########%%%%###########%#########$#######O",
"$#######O++#O#O##%%%##########%%%%###########%#########$#######O",
"$#####+#O+#O#######%###%%%%@###%%###@%%%%###%%%########$#######O",
"$####+#+O++############%%%%%%######%%%%%%##############$#######O",
"$###+#++O+#+############%#%#%%######%#%%###############$#######O",
"###+#+##O++##############%###%@##%#%%%%################$#######O",
"$#######X+##################%#*###%#%%#################$#######O",
"########O###########O$#####%#*#####%%##################$#######O",
"########X##########O$#######*#####%%###################$#######O",
"########O##########$######O##%###%#####################$#######O",
"########X#########$####O#O#############################$#######O",
"########X#############O$O#O$###########################$#######O",
"$#######X############O&O#O&############################$#######O",
"########X###########O&##O&#############################$#######O",
"$#######X##########O$##O###############################&#######X",
"$#######X#########O$##########O#########%#%#%%###%##%%#$#######O",
"$#######X#########$##########O$#######%#%#%%#%#%#%#%#%#&#######X",
"$#######X###################O$#########################$#######O",
"$#######X########################%##%#%##%%#%%#%#%#%#%#&#######X",
"$#######X########################%#%%#%#%#%%#%#%#%%#%%#&#######X",
"$#######X##############################################&#######X",
"$########$$$$&&&&&&&&&&&&$&$&&&&&&&&&&&&&&&&&&&$&$&&&&&&#######X",
"$##############################################################X",
"#########OXXX.X.X......XO##############OXXX.X.X......XO########X",
"$#O&X###O.              .O############O.              .O##O&X##X",
"##OXX###O                $############O                $##OXX##X",
"$#OO####$                $############$                $##OO+##X",
"#########$&$$$$&$&$&&&&&$##############$&$$$$&$&$&&&&&$####++##X",
"OOOOOOOOOOOOOOOOOOOOOOOOOOOOOOOOOOOOOOOOOOOOOOOOOOOOOXOXOXXXXXXX"
};
