/* XPM */
static char *DIRT_1B[] = {
/* columns rows colors chars-per-pixel */
"64 64 18 1 ",
"  c #281305",
". c #2E1B0E",
"X c #231A15",
"o c #372111",
"O c #3C2410",
"+ c #3F2A17",
"@ c #353934",
"# c #402515",
"$ c #4F463B",
"% c #5D5445",
"& c #6A5E4E",
"* c #696654",
"= c #7A6B56",
"- c #7E7050",
"; c #86785B",
": c #9C977E",
"> c #A09669",
", c #A9A27E",
/* pixels */
"+###o#+#####o###o####o##.+####o#+###o#oo.o##o###o####o##.+####o#",
".##o###.#o#o##oo#..###o#######.+.##oo.o@Xo#o##oo#..###o#######.+",
"#o#o+###o#o+####..o+#o#o+o###oo##o#oo@&Xo#o+#####o#+#o#o+o###oo#",
"##o.#oo.oo#####.&;$oo#o.oo#.+#####o.o$Xo#o##########o#o.oo#.+@X#",
"#####.@Xo#+##o.-$&@.#####+#oo#+#######o##@X##o###o#.#####+##oX.#",
"o..+ooXo#o####.$&@X.#o+#oo$@oo#####+oo###X.####+o####o+#o####o##",
".&@.o#o#o#o.o#o.$X o##oo@X@ .#o.##..o###o#o###o##o####o.####o#o.",
"o$Xo#o+o.>-$o.#o# .o#o#oXoo.o###+##o#o+o#o##+o#o###.#o#####o####",
"#o.#o##.,-&*;@o#####ooo##+o.o#####o#o###.##oo#.o####ooo##+o.o###",
"###o###.--&$*$o+.o#o+o#####o###.###o###o###ooo#+.#o.+o#####o###.",
".#o+o#.&*&$$@ o.;$o#oo##.#oo#+o#.#o+o###.###o#####&@.o##.#oo#+o#",
"#o+o##.@&$*@ ...@Xoo#####o#o##.##o+o####+##o+oo.o.$Xo####o#o##.#",
"o#####.X*&$X.o##oo#o##o+#o######o#########ooo.@Xooo.##o+#o######",
"##+###oX$@X o#+o###########o.##o##+###.##o.oooXo###############o",
"#o.###o. Xo####o#o###.###.#&@.o##o.###+#o#+###oo#o###.###.###oo#",
"####oo#ooo######o##+##o##o+$Xoo#####oo#o########o##+##@X#o+o##+#",
"+##+######.####.#o#.#o+o##oo.o.o+##.o#####.####.#o#.#oX.$@o#o#o#",
"##o#.#####+###o##+##o####oooo-&Xo#.@Xo####+###o##+##o###@ o#####",
"#.#+.###.o###o#+#o+o##o#o#o.-&=.#o#Xo###.o###o#+#o+ooo.oo#ooo###",
"o#o#+o#+o###o#####ooo###.o.;&*$X.#o#+o#+o###o#####oo.&;$o##o#+##",
".#o####oo##o##o#oo#o#o###.,**%@ o#o####oo##o##o#oo#.$&@X&@o##.#o",
"###+##o#o#o#####o#o+####.X=%%&@X.##+##o#o#o#####o#o+.$X $X.+o###",
".#o#.o#ooo##+##+#.###o#+o;&%$%X..oo#.o.ooo##+##+#.###o .####oo##",
"####o#oo+##o#.oo########.*%$%@X&@o.oo@Xo+##o#.oo########o##o###o",
"###oo+#oo#######o##o.###.@$@ X $X.-&;Xooo#######o##+####o#o#o+o#",
"#o##o####o###o####o@X.#o.oo...oo o$&@o###o###o####o##o#o.o#ooo.#",
"#+#o..#o###o######+X.#o#oo$@.o.o#.$XXoo.###o######+o##o#ooo+o###",
"##..-$.#+##.##o+###o#+.o#o@ ###o#.o. .@X+##.##o+#####+.o#o#o###o",
"##.&$&$o##+o#o########+###.##+##.$@##oXo##+o#o########+###.##+##",
"##.;&@X #oo#o##o+###oo#o#o##o#o#o@ oo#o##oo#o##o+###oo#o#o##o#o#",
"#oo$@X .###o######o+#o##.o#######o###+#####o######o+#o##.o######",
"##ooo.oo##.##+#.#o####oo.oo###o###o#o#####.##+#.#o####o#+#####o#",
"+###o#+#####o###o####o#.&@o###o#+###o#+#####o###o####o##.+####o#",
".##o###.#o#o##oo#..###oo$Xo###.+.##o###.#o#o##oo#..###o#######.+",
"#o#o+###o#o+#####o#+#o#ooo###oo##o#o+###o#o+#####o#+#o#o+o###oo#",
"#oo.o#o+#o##########o#o.oo#.+#####o.##o+#o##########o#o.oo#.+###",
"#.@Xo#o###+##o###o#.#####+##o#+#######o###+##o###o#.###o.o##o#+#",
"#oXooo###o###o.+o####o+#o####o#####+oo###o####.oo####o+o@&o##o##",
"##o.o###o#o##&@.#o####o.####o#o.##..o###o#o##.$@#o####oo$X##o.o.",
"+##o#o+o#o##+$Xo###.#o#####o#..#+##o#o+o#o##+o@ o##.#o###o#o&@.#",
"##o#o###.##ooo.#####ooo##+o..-$.##o#o###.##oo#o#####ooo.ooo.$Xo#",
"###o###o###ooo#+.##o+o#####.&$&$###o###o##.o..&X.##o+o.-&;.oo.#.",
".#o+o###.###o#####o#oo##.#o.;&@X #o+o###.o@X.:%$#.o#ooo$&@oo#+o#",
"#o+o####+##o+o.##.#o#####o#o$@X .o+o####+oX.X*&%.o#o##.$XX o##.#",
"o#########oooo#####o##o+#o##o#.oo#########o.*%$& .#o##o+. o#####",
"##+###.##o.oo#+o###############o.o+###.##o.o$&%@.&@######o#####o",
"#o.###+#o#+####o#o###.###.###oo.&@o###+#o#+#X$@X $X##.###.###oo#",
"####oo#o########o##+##o##o+o##+o$X.#oo#o####..X @X#+##o##o+o##+#",
"+##+######.####.#o#.#o+o##o#o#oOo #+######.##oo.X.#.#o+o##o#o#o#",
"##o#.#####+###o##+##o####oo#######o#.#####+###o##+##o####oo#####",
"#.#+.###.o#..o#+#o+o##o###ooo####.#+.###.o###o#+#o+o##o###ooo###",
"o#o#+o#+o#.&;$o###ooo###.##o#+##o#o#+o#+o###o#####ooo###.##o#+##",
".#o####oo.-$&@oooo#o#o###.o##.#o.#o####oo##o##oooo#o#o###.o##.#o",
"###+##o#o.$&@X.#o#o+#####o.+o######+##o#o#o#####oo.+#####o.+o###",
".#o#.o#ooo.$X o+@X###o#+####@&##.#o#.o#ooo##+##+#$@.#o#+####oo##",
"####o#oo+##o .ooXo######o##o$X#o####o#oo+##o#.oo#@ o#o.#o##o###o",
"###oo+#oo###.&@oo##+####o$@#.ooo###oo+#oo#######oo.+#&@.o#o#o+o#",
"#o##o####o##o$X.##o##o#o.@ .-&;.oo##o$@##o###o####o##$Xo.o#ooo.#",
"#+#o###o###o######+o##o#oooo$&@o#+#o#@ .o##o######+ooo.#ooo+o###",
"#@X+o###+##.##o+#####+.o#o#.$XX ##.+o.&;$o#.##o+#####+.o#o#o###o",
"#Xo##o#o##+o#o########+###.##. o####.-$&@#+o#o########+###.##+##",
"##+#o#o##oo#o##o+###oo#o#o##o#o###+#.$&@X.o#o##o+###oo#o#o##o#o#",
"#o###+#####o######o+#o##.o#######o###.$X o#o######o+#o##.o######",
"##o#o#####.##+#.#o####o#+#####o###o#o## .o.##+#.#o####o#+#####o#"
};
