/* XPM */
static char *DOOR_3A[] = {
/* columns rows colors chars-per-pixel */
"64 64 9 1 ",
"  c black",
". c #141413",
"X c #1C1C1B",
"o c #322E1D",
"O c #373C2C",
"+ c #434436",
"@ c #4F4C3F",
"# c #66684C",
"$ c #818556",
/* pixels */
"@@@@@@@@@@@@@@@@@O@@@@OOooo. OOOO@@@@@@@@@@@@@@@@@@@@@@@@@@O@O@@",
"OOOOOOOOOOOOOOOOOOOOOOOoooo. OoooOOOOOOOOOOOOOOOOOOOOOOOOOOOOOOO",
"OOOOOOOOOOOOOOOOOOOOOOOoooX. OoooOOOOOOOOOOOOOOOOOOOOOOOOOOOOOOO",
"OOOOXXXXXXoXoooooooOOOOoooo. OoooOOOXXXXXXXXXXXXoXooooXXXooOOOOO",
"OOOXoOOOOOOOOOOOOOOOOOOoooX. OoooOOXoOOOOOOOOOOOOOOOOOOOOOOOOOOO",
"OOOXOOOOOOOOOOOOOOOO@OOoooX. OoooOOXOOOOOOOOOOOOOOOOOOOOOOOO@OOO",
"OOOXOOOOOOOOOOOOOOOO@OOoooX. OoooOOXOOOOOOOOOOOOOOOOOOOOOOOO@OOO",
"@@@o@@@@@@@@@@@@@@@@#@@OOOoX.#OOO@@o@@@@@@@@@@@@@@@@@@@@@@@@#@@@",
"OOOXOOOOOOOOOOOOOOOO@OOoooX. OoooOOXOOOOOOOOOOOOOOOOOOOOOOOO@OOO",
"@@@o@@@@@@@@@@@@@@@@#@@OOOoX.#OOO@@O@@@@@@@@@@@@@@@@@@@@@@@@#@@@",
"@@@o@@@@@@@@@@@@@@@@$@@OOOo. #OOO@@O@@@@@@@@@@@@@@@@@@@@@@@@$@@@",
"@@@o@@@@@@@@@@@@@@@@#@@OOOo. #OOO@@@@@@@@@@@@@@@@@@@@@@@@@@@#@@@",
"@@@o@@@@@@@@@@@@@@@@$@@OOOoX.#OOO@@@@###$#$$$$#@@@@@@@@@@@@@$@@@",
"@@@o@@@@@@@@@@@@@@@@$@@OOOoX.#OOO@@@@@@@@@@@@@@#@@@@@@@@@@@@$@@@",
"@@@o@@@@@@@@@@@@@@@@$@@OOOoX.#OOO@@@@@@@@@@@@@@@#@@@@@@@@@@@$@@@",
"@@@O@@@@@@@@@@@@@@@@$@@OOOo..@OOOOOOOOOOOOOOO+@@@#@@@@@@@@@@$@@@",
"@@@O@@@@@@@@@@@@@@@@$@@OOOoX.#OOOOOOOOOOOOOOOOO@@@#@@@@@@@@@$@@@",
"@@@@@@@@@@@@@@@@@@@#$@@OOOO..@OOOOOOOOOOOOOOOOO+@@@#@@@@@@@#$@@@",
"@@@@@#####$#$#$$$$$$@@@OOOoX.@@@@@@@@O@O@OOOOOOO@@@@#$$$$$$$@@@@",
"@@@@@@@@@@@@@@@@@@@@@@@OOOOXXXXXXXXXX.X... oOOOO@@@@@@@@@@@@@@@@",
"@@@@@@@@@@@@@@@@@@@@@@@OOOOoXXXXXXXX.X.X... OOOO@@@@@@@@@@@@@@@@",
"@@@@ooooooOoOOOOOOO@@@@OOOOOOOOOOOOOOOOOOX. @OOO@@@ooooOOOO@@@@@",
"@@@oO@@@@@@@@@@@@@@@@@@+OOOOOOOOOOOOOOOOOO. #OOO@@o@@@@@@@@@@@@@",
"@@@o@@@@@@@@@@@@@@@@#@@@OOOOOOOOOOOOOOOOOo. #OOO@@o@@@@@@@@@#@@@",
"@@@o@@@@@@@@@@@@@@@@@$@@@+OOOOOOOOOOOOOOOO. #OOO@@o@@@@@@@@@#@@@",
"@@@o@@@@@@@@@@@@@@@@@@#@@@@@@@@@@@@@@@OOOo. #OOO@@o@@@@@@@@@#@@@",
"@@@O@@@@@@@@@@@@@@@@@@@#@@@@@@@@@@@@@@OOOo. #OOO@@o@@@@@@@@@$@@@",
"@@@o@@@@@@@@@@@@@@@@@@@@OooooooOOO@@@@OOOo. #OOO@@o@@@@@@@@@#@@@",
"@@@O@@@@@@@@@@@@@@@@@@@@@@@@@@@@@@@@@@OOOo. #OOO@@o@@@@@@@@@$@@@",
"@@@o@@@@@@@@@@@@@@@@@@@@@@@@@@@@@@@#@@OOOo. @OOO@@o@@@@@@@@@$@@@",
"@@@O@@@@@@@@@@@@@@@@@@@@@@@@@@@@@@@#@@OOOo..#OOO@@O@@@@@@@@@$@@@",
"@@@o@@@@@@@@@@@@@@@@@@@@@@@@@@@@@@@#@@OOOo.X@OOO@@o@@@@@@@@@$@@@",
"@@@o@@@@@@@@@@@@@@@@@@@@@@@@@@@@@@@#@@OOOoX.@OOO@@O@@@@@@@@@#@@@",
"@@@o@@@@@@@@@@@@@@@@@@@@@@@@@@@@@@@$@@OOOo.X@OOO@@o@@@@@@@@@$@@@",
"@@@o@@@@@@@@@@@@@@@@@@@@@@@@@@@@@@@$@@OOOoX.@OOO@@O@@@@@@@@@$@@@",
"@@@o@@@@@@@@@@@@@@@@@@@@@@@@@@@@@@#$@@OOOo.X@OOO@@O@@@@@@@@@$@@@",
"@@@o@@@@@@@@@@@@@$$$$$$$$$$$$$$$$$$@@@OOOOXX@OOO@@O@@@@@@@@@$@@@",
"@@@O@@@@@@@@@@@@$@@@@@@@@@@@@@@@@@@@@@OOOo.X@OOO@@O@@@@@@@@@$@@@",
"@@@o@@@@@@@@@@@$@@@@@@@@@@@@@@@@@@@@@@OOOOXX@OOO@@O@@@@@@@@@$@@@",
"@@@O@@@@@@@@@@$@@@+OOOOOOOOOOOOOOOOOOOOOOo.XOOOO@@O@@@@@@@@@$@@@",
"@@@O@@@@@@@@@$@@@OOOOOOOOOOOOOOOOOOOOOOOOOXX@OOO@@O@@@@@@@@@$@@@",
"@@@@@@@@@@@@$@@@+OOOOOOOOOOOOOOOOOOOOOOOOO.XOOOO@@@@@@@@@@@#$@@@",
"@@@@@##$$$$$@@@@OOOOOOO@@@@@@@@@@@@O@O@OOXXX@OOO@@@@###$$$$$@@@@",
"@@@@@@@@@@@@@@@@OOOOo..XXXXXX.X.X.X.X.X.XXXXOOOO@@@@@@@@@@@@@@@@",
"@@@@@@@@@@@@@@@@OOOO. .XXXXX.X.X.X.X.X.XXXXoOOOO@@@@@@@@@@@@@@@@",
"@@@@ooooOOOO@@@@OOOO. OOOOOOOOOOOOOOOOOOOOOOOOOO@@@@oooOOOO@@@@@",
"@@@oO@@@@@@@@@@@OOOo. OOOOOOOOOOOOOOOOOOOOOOOOO+@@@o@@@@@@@@@@@@",
"@@@o@@@@@@@@@#@@OOOO. @OOOOOOOOOOOOOOOOOOOOOOOO@@@o@@@@@@@@@#@@@",
"@@@o@@@@@@@@@#@@OOOo. OOOOOOOOOOOOOOOOOOOOOOO+@@@o@@@@@@@@@@#@@@",
"@@@o@@@@@@@@@#@@OOOo. @OOO@@@@@@@@@@@@@@@@@@@@@@o@@@@@@@@@@@#@@@",
"@@@O@@@@@@@@@$@@OOOo. #OOO@@@@@@@@@@@@@@@@@@@@@O@@@@@@@@@@@@$@@@",
"@@@o@@@@@@@@@$@@OOOoX.#OOO@@@ooooooooooOoOOOOOO@@@@@@@@@@@@@#@@@",
"@@@O@@@@@@@@@$@@OOOo. #OOO@@oO@@@@@@@@@@@@@@@@@@@@@@@@@@@@@@$@@@",
"@@@O@@@@@@@@@$@@OOOoX.@OOO@@o@@@@@@@@@@@@@@@@@@@@@@@@@@@@@@@$@@@",
"@@@O@@@@@@@@@$@@OOOo. #OOO@@o@@@@@@@@@@@@@@@@@@@@@@@@@@@@@@@$@@@",
"@@@o@@@@@@@@@#@@OOOXX.OOOO@@o@@@@@@@@@@@@@@@@@@@@@@@@@@@@@@@$@@@",
"@@@O@@@@@@@@@$@@OOOoX.@OOO@@O@@@@@@@@@@@@@@@@@@@@@@@@@@@@@@@$@@@",
"@@@O@@@@@@@@@$@@OOOXX.OOOO@@O@@@@@@@@@@@@@@@@@@@@@@@@@@@@@@@$@@@",
"@@@O@@@@@@@@@$@@OOOX..OOOO@@O@@@@@@@@@@@@@@@@@@@@@@@@@@@@@@@$@@@",
"@@@@@@@@@@@@#$@@OOOXX.OOOO@@@@@@@@@@@@@@@@@@@@@@@@@@@@@@@@@#$@@@",
"@@@@@####$$$$@@@OOOX..OOOO@@@@######$$$$$#$#$$$$$$$$$$$$$$$$@@@@",
"@@@@@@@@@@@@@@@@OOOXX.OOOO@@@@@@@@@@@@@@@@@@@@@@@@@@@@@@@@@@@@@@",
"@@@@@@@@@@@@@@@@OOOXXXOOOO@@@@@@@@@@@@@@@@@@@@@@@@@@@@@@@@@@@@@@",
"oXXXXXXoXoXoooooXXX....X....o.ooooooooooXoXooXoXoXXXXXXoXoXooooo"
};
