/* XPM */
static char *DOORTRIM_1C[] = {
/* columns rows colors chars-per-pixel */
"64 64 11 1 ",
"  c #141413",
". c #382B2F",
"X c #792429",
"o c #383F40",
"O c #464D4F",
"+ c #536265",
"@ c #62797E",
"# c #911C1B",
"$ c #AE0C0B",
"% c #C41817",
"& c #889C9E",
/* pixels */
"+ ..ooo.+ ..ooo.+ ..ooo.+ ..ooo.+ .....o.oooooo.+ .....o.oooooo.",
"@.X##X+.@.X##X+.@.X##X+.@.X##X+.@.X##########X+.@.X##########X+.",
"@.$%%$+.@.$%%$+.@.$%%$+.@.$%%$+.@.$%%%%%%%%%%$+.@.$%%%%%%%%%%$+.",
"@.$%%$+.@.$%%$+.@.$%%$+.@.$%%$+.@.$%%%%%%%%%%$+.@.$%%%%%%%%%%$+.",
"@o$%%$@.@o$%%$@.@o$%%$@.@o$%%$@.@o$%%%%%%%%%%$@.@o$%%%%%%%%%%$@.",
"@o$%%$@o@o$%%$@o@o$%%$@o@o$%%$@o@o$%%%%%%%%%%$@o@o$%%%%%%%%%%$@o",
"@o#$$#@.@o#$$#@.@o#$$#@.@o#$$#@.@o#$$$$$$$$$$#@.@o#$$$$$$$$$$#@.",
"@O++@@&o@O++@@&o@O++@@&o@O++@@&o@O++++@+@@@@@@&o@O++++@+@@@@@@&o",
"+ ..ooo.+ ..ooo.+ ..ooo.+ ..ooo.+ .......oooooo.+ .......oooooo.",
"@.X##X+o@.X##X+o@.X##X+o@.X##X+o@.X##########X+o@.X##########X+o",
"+.$%%$+.+.$%%$+.+.$%%$+.+.$%%$+.+.$%%%%%%%%%%$+.+.$%%%%%%%%%%$+.",
"O.$%%$+OO.$%%$+OO.$%%$+OO.$%%$+OO.$%%%%%%%%%%$+OO.$%%%%%%%%%%$+O",
"@o$%%$@o@o$%%$@o@o$%%$@o@o$%%$@o@o$%%%%%%%%%%$@o@o$%%%%%%%%%%$@o",
"+o$%%$@o+o$%%$@o+o$%%$@o+o$%%$@o+o$%%%%%%%%%%$@o+o$%%%%%%%%%%$@o",
"+o#$$#@o+o#$$#@o+o#$$#@o+o#$$#@o+o#$$$$$$$$$$#@o+o#$$$$$$$$$$#@o",
"+O++@@&o+O++@@&o+O++@@&o+O++@@&o+O++++@+@@@@@@&o+O++++@+@@@@@@&o",
"+ ..oooo+ ..oooo+ ..oooo+ ..oooo+ .......o.ooooo+ .......o.ooooo",
"+.X##X+o+.X##X+o+.X##X+o+.X##X+o+.X##########X+o+.X##########X+o",
"+.$%%$+o+.$%%$+o+.$%%$+o+.$%%$+o+.$%%%%%%%%%%$+o+.$%%%%%%%%%%$+o",
"+.$%%$+o+.$%%$+o+.$%%$+o+.$%%$+o+.$%%%%%%%%%%$+o+.$%%%%%%%%%%$+o",
"+o$%%$@o+o$%%$@o+o$%%$@o+o$%%$@o+o$%%%%%%%%%%$@o+o$%%%%%%%%%%$@o",
"+o$%%$@o+o$%%$@o+o$%%$@o+o$%%$@o@o$%%%%%%%%%%$@o@o$%%%%%%%%%%$@o",
"+o#$$#@o+o#$$#@o+o#$$#@o+o#$$#@o+o#$$$$$$$$$$#@o+o#$$$$$$$$$$#@o",
"+O++@@&o+O++@@&o+O++@@&o+O++@@&o@O++++@+@@@@@@&o@O++++@+@@@@@@&o",
"+ ..oooo+ ..oooo+ ..oooo+ ..oooo@ ......o.oooooo@ ......o.oooooo",
"+.X##X+o+.X##X+o+.X##X+o+.X##X+o@.X##########X+o@.X##########X+o",
"+.$%%$+.+.$%%$+.+.$%%$+.+.$%%$+.@.$%%%%%%%%%%$+.@.$%%%%%%%%%%$+.",
"+.$%%$+o+.$%%$+o+.$%%$+o+.$%%$+o@.$%%%%%%%%%%$+o@.$%%%%%%%%%%$+o",
"+o$%%$@.+o$%%$@.+o$%%$@.+o$%%$@.@o$%%%%%%%%%%$@.@o$%%%%%%%%%%$@.",
"+o$%%$@o+o$%%$@o+o$%%$@o+o$%%$@o@o$%%%%%%%%%%$@o@o$%%%%%%%%%%$@o",
"+o#$$#@.+o#$$#@.+o#$$#@.+o#$$#@.@o#$$$$$$$$$$#@.@o#$$$$$$$$$$#@.",
"+O++@@&.+O++@@&.+O++@@&.+O++@@&.@O+++@+@@@@@@@&.@O+++@+@@@@@@@&.",
"+ ..ooo.+ ..ooo.+ ..ooo.+ ..ooo.@ ......o.ooooo.@ ......o.ooooo.",
"+.X##X+.+.X##X+.+.X##X+.+.X##X+.@.X##########X+.@.X##########X+.",
"+.$%%$+.+.$%%$+.+.$%%$+.+.$%%$+.@.$%%%%%%%%%%$+.@.$%%%%%%%%%%$+.",
"+.$%%$+.+.$%%$+.+.$%%$+.+.$%%$+.@.$%%%%%%%%%%$+.@.$%%%%%%%%%%$+.",
"+o$%%$@.+o$%%$@.+o$%%$@.+o$%%$@.@o$%%%%%%%%%%$@.@o$%%%%%%%%%%$@.",
"+o$%%$@.+o$%%$@.+o$%%$@.+o$%%$@.@o$%%%%%%%%%%$@.@o$%%%%%%%%%%$@.",
"+o#$$#@.+o#$$#@.+o#$$#@.+o#$$#@.@o#$$$$$$$$$$#@.@o#$$$$$$$$$$#@.",
"+O++@@&.+O++@@&.+O++@@&.+O++@@&.+O++++@+@@@@@@&.+O++++@+@@@@@@&.",
"+ ..ooo.+ ..ooo.+ ..ooo.+ ..ooo.@ .......oooooo.@ .......oooooo.",
"+.X##X+.+.X##X+.+.X##X+.+.X##X+.+.X##########X+.+.X##########X+.",
"@.$%%$+.@.$%%$+.@.$%%$+.@.$%%$+.@.$%%%%%%%%%%$+.@.$%%%%%%%%%%$+.",
"+.$%%$+.+.$%%$+.+.$%%$+.+.$%%$+.+.$%%%%%%%%%%$+.+.$%%%%%%%%%%$+.",
"@o$%%$@.@o$%%$@.@o$%%$@.@o$%%$@.@o$%%%%%%%%%%$@.@o$%%%%%%%%%%$@.",
"@o$%%$@.@o$%%$@.@o$%%$@.@o$%%$@.@o$%%%%%%%%%%$@.@o$%%%%%%%%%%$@.",
"@o#$$#@.@o#$$#@.@o#$$#@.@o#$$#@.@o#$$$$$$$$$$#@.@o#$$$$$$$$$$#@.",
"@O++@@&.@O++@@&.@O++@@&.@O++@@&.@O+++@+@@@@@@@&.@O+++@+@@@@@@@&.",
"@ ..ooo.@ ..ooo.@ ..ooo.@ ..ooo.@ ......o.ooooo.@ ......o.ooooo.",
"@.X##X+.@.X##X+.@.X##X+.@.X##X+.@.X##########X+.@.X##########X+.",
"@.$%%$+o@.$%%$+o@.$%%$+o@.$%%$+o@.$%%%%%%%%%%$+o@.$%%%%%%%%%%$+o",
"@.$%%$+.@.$%%$+.@.$%%$+.@.$%%$+.@.$%%%%%%%%%%$+.@.$%%%%%%%%%%$+.",
"@o$%%$@.@o$%%$@.@o$%%$@.@o$%%$@.@o$%%%%%%%%%%$@.@o$%%%%%%%%%%$@.",
"+o$%%$@.+o$%%$@.+o$%%$@.+o$%%$@.+o$%%%%%%%%%%$@.+o$%%%%%%%%%%$@.",
"@o#$$#@.@o#$$#@.@o#$$#@.@o#$$#@.@o#$$$$$$$$$$#@.@o#$$$$$$$$$$#@.",
"+O++@@&o+O++@@&o+O++@@&o+O++@@&o+O+++@+@@@@@@@&o+O+++@+@@@@@@@&o",
"+ ..ooo.+ ..ooo.+ ..ooo.+ ..ooo.+ .....o.oooooo.+ .....o.oooooo.",
"+.X##X+o+.X##X+o+.X##X+o+.X##X+o+.X##########X+o+.X##########X+o",
"+.$%%$+.+.$%%$+.+.$%%$+.+.$%%$+.+.$%%%%%%%%%%$+.+.$%%%%%%%%%%$+.",
"O.$%%$+.O.$%%$+.O.$%%$+.O.$%%$+.O.$%%%%%%%%%%$+.O.$%%%%%%%%%%$+.",
"+o$%%$@.+o$%%$@.+o$%%$@.+o$%%$@.+o$%%%%%%%%%%$@.+o$%%%%%%%%%%$@.",
"Oo$%%$@.Oo$%%$@.Oo$%%$@.Oo$%%$@.Oo$%%%%%%%%%%$@.Oo$%%%%%%%%%%$@.",
"+o#$$#@.+o#$$#@.+o#$$#@.+o#$$#@.+o#$$$$$$$$$$#@.+o#$$$$$$$$$$#@.",
"+O++@@&.+O++@@&.+O++@@&.+O++@@&.+O++++@+@@@@@@&.+O++++@+@@@@@@&."
};
