/* XPM */
static char *GRID_1B[] = {
/* columns rows colors chars-per-pixel */
"64 64 10 1 ",
"  c #141413",
". c #1C1C1B",
"X c #28221F",
"o c #382B2F",
"O c #4B3F38",
"+ c #383F40",
"@ c #464D4F",
"# c #536265",
"$ c #62797E",
"% c #889C9E",
/* pixels */
"$$$#$#$$$$$$$#$#$########O#O#O#O$$$#$#$$$$$$$#$#$########O#O#O#O",
"$@@@@@@@@+@+@@@+@@@@@@+@@@@@@@@O$@@@@@@@@+@+@@@+@@@@@@+@@@@@@@@O",
"$@@XXoXoooXoooooooXoXXooooXoX@+o$@@XXoXoooXoooooooXoXXooooXoX@+o",
"$@X.. ... .......... .... . .+@O$@X.. ... .......... .... . .+@O",
"$@o................ .... ....$+o$@o................ .... ....$+o",
"$@@$$#$$$#$$$$$#%$$%$$$$%$$$$@@O$@@$$#$$$#$$$$$#%$$%$$$$%$$$$@@O",
"$@@@O#@#+@@@@@O#@@@@@@+@@@@@+#@o$@@@O#@#+@@@@@O#@@@@@@+@@@@@+#@o",
"$@@O#+@@$O@@@+#+@@@@@+@@@@@+@@@o$@@O#+@@$O@@@+#+@@@@@+@@@@@+@@@o",
"$@@oXoooX+ooXoXoo+XoXXXoooXoX@@o$@@oXoooX+ooXoXoo+XoXXXoooXoX@@o",
"$@o........   ..... . ..... .#@o$@o........   ..... . ..... .#@o",
"$@o ........ ... ... ..... . $@o$@o ........ ... ... ..... . $@o",
"$+@+$$$$$$$#$#$$%@$#%$$$$@%$$@@o$+@+$$$$$$$#$#$$%@$#%$$$$@%$$@@o",
"#@@@@@@@@@+++#@@@#O@@@@@@#@@@@@o#@@@@@@@@@+++#@@@#O@@@@@@#@@@@@o",
"$@@@#+@@@+#+#@@@@@#+@@@@@@@@@@@o$@@@#+@@@+#+#@@@@@#+@@@@@@@@@@@o",
"#@@oo+XoX+oooooXoXo+ooooooooo@+o#@@oo+XoX+oooooXoXo+ooooooooo@+o",
"$@o. .. ........ ..... .... .#@o$@o. .. ........ ..... .... .#@o",
"#@o ........... ..... .... ..$@o#@o ........... ..... .... ..$@o",
"#@+$$$$$$$#$$$#%$$$$#%$$%#%$$@@o#@+$$$$$$$#$$$#%$$$$#%$$%#%$$@@o",
"#+@+@@@@@+@@@O#@@@@+#@@@@#o@+@@o#+@+@@@@@+@@@O#@@@@+#@@@@#o@+@@o",
"#@+@@@@@+@@@+#@@@@+++@@@@@$O@@@o#@+@@@@@+@@@+#@@@@+++@@@@@$O@@@o",
"#@@ooooXoooXoooooXoX+oooooX#o@@o#@@ooooXoooXoooooXoX+oooooX#o@@o",
"#@o... . . ..... . ...... ...#@o#@o... . . ..... . ...... ...#@o",
"#@o.. .   ..... ............ $@o#@o.. .   ..... ............ $@o",
"#@@$#%#$#%$$$$#%$$$$@%$$$$$#$@@o#@@$#%#$#%$$$$#%$$$$@%$$$$$#$@@o",
"O@@+#+@O#@@@@O#@@@@O#@@@+@+#O@+oO@@+#+@O#@@@@O#@@@@O#@@@+@+#O@+o",
"#@@#+@@#@@@@+#@@@@O#@@@O++@+#+@o#@@#+@@#@@@@+#@@@@O#@@@O++@+#+@o",
"O@@oooo+ooo+o+oooXooo+oooooXo+@oO@@oooo+ooo+o+oooXooo+oooooXo+@o",
"#@o ..... ................ . #@o#@o ..... ................ . #@o",
"O@+... . .................. .$@oO@+... . .................. .$@o",
"#@#$$#$#%$$$$$$$$$$$$$$$$$#$$@@o#@#$$#$#%$$$$$$$$$$$$$$$$$#$$@@o",
"O@@@@+@@@@@+@@@@@@+@@@@@+@@@@@@XO@@@@+@@@@@+@@@@@@+@@@@@+@@@@@@X",
"OOOoOoOoooooooooooooooooooooooXXOOOoOoOoooooooooooooooooooooooXX",
"$$$#$#$$$$$$$#$#$########O#O#O#O$$$#$#$$$$$$$#$#$########O#O#O#O",
"$@@@@@@@@+@+@@@+@@@@@@+@@@@@@@@O$@@@@@@@@+@+@@@+@@@@@@+@@@@@@@@O",
"$@@XXoXoooXoooooooXoXXooooXoX@+o$@@XXoXoooXoooooooXoXXooooXoX@+o",
"$@X.. ... .......... .... . .+@O$@X.. ... .......... .... . .+@O",
"$@o................ .... ....$+o$@o................ .... ....$+o",
"$@@$$#$$$#$$$$$#%$$%$$$$%$$$$@@O$@@$$#$$$#$$$$$#%$$%$$$$%$$$$@@O",
"$@@@O#@#+@@@@@O#@@@@@@+@@@@@+#@o$@@@O#@#+@@@@@O#@@@@@@+@@@@@+#@o",
"$@@O#+@@$O@@@+#+@@@@@+@@@@@+@@@o$@@O#+@@$O@@@+#+@@@@@+@@@@@+@@@o",
"$@@oXoooX+ooXoXoo+XoXXXoooXoX@@o$@@oXoooX+ooXoXoo+XoXXXoooXoX@@o",
"$@o........   ..... . ..... .#@o$@o........   ..... . ..... .#@o",
"$@o ........ ... ... ..... . $@o$@o ........ ... ... ..... . $@o",
"$+@+$$$$$$$#$#$$%@$#%$$$$@%$$@@o$+@+$$$$$$$#$#$$%@$#%$$$$@%$$@@o",
"#@@@@@@@@@+++#@@@#O@@@@@@#@@@@@o#@@@@@@@@@+++#@@@#O@@@@@@#@@@@@o",
"$@@@#+@@@+#+#@@@@@#+@@@@@@@@@@@o$@@@#+@@@+#+#@@@@@#+@@@@@@@@@@@o",
"#@@oo+XoX+oooooXoXo+ooooooooo@+o#@@oo+XoX+oooooXoXo+ooooooooo@+o",
"$@o. .. ........ ..... .... .#@o$@o. .. ........ ..... .... .#@o",
"#@o ........... ..... .... ..$@o#@o ........... ..... .... ..$@o",
"#@+$$$$$$$#$$$#%$$$$#%$$%#%$$@@o#@+$$$$$$$#$$$#%$$$$#%$$%#%$$@@o",
"#+@+@@@@@+@@@O#@@@@+#@@@@#o@+@@o#+@+@@@@@+@@@O#@@@@+#@@@@#o@+@@o",
"#@+@@@@@+@@@+#@@@@+++@@@@@$O@@@o#@+@@@@@+@@@+#@@@@+++@@@@@$O@@@o",
"#@@ooooXoooXoooooXoX+oooooX#o@@o#@@ooooXoooXoooooXoX+oooooX#o@@o",
"#@o... . . ..... . ...... ...#@o#@o... . . ..... . ...... ...#@o",
"#@o.. .   ..... ............ $@o#@o.. .   ..... ............ $@o",
"#@@$#%#$#%$$$$#%$$$$@%$$$$$#$@@o#@@$#%#$#%$$$$#%$$$$@%$$$$$#$@@o",
"O@@+#+@O#@@@@O#@@@@O#@@@+@+#O@+oO@@+#+@O#@@@@O#@@@@O#@@@+@+#O@+o",
"#@@#+@@#@@@@+#@@@@O#@@@O++@+#+@o#@@#+@@#@@@@+#@@@@O#@@@O++@+#+@o",
"O@@oooo+ooo+o+oooXooo+oooooXo+@oO@@oooo+ooo+o+oooXooo+oooooXo+@o",
"#@o ..... ................ . #@o#@o ..... ................ . #@o",
"O@+... . .................. .$@oO@+... . .................. .$@o",
"#@#$$#$#%$$$$$$$$$$$$$$$$$#$$@@o#@#$$#$#%$$$$$$$$$$$$$$$$$#$$@@o",
"O@@@@+@@@@@+@@@@@@+@@@@@+@@@@@@XO@@@@+@@@@@+@@@@@@+@@@@@+@@@@@@X",
"OOOoOoOoooooooooooooooooooooooXXOOOoOoOoooooooooooooooooooooooXX"
};
