/* XPM */
static char *GRID_2A[] = {
/* columns rows colors chars-per-pixel */
"64 64 8 1 ",
"  c #1C1C1B",
". c #322E1D",
"X c #373C2C",
"o c #44402F",
"O c #4F4C3F",
"+ c #66684C",
"@ c #818556",
"# c #979578",
/* pixels */
"@@@+@+@@@@@@@+@+@++++++++o+o+o+o@@@+@+@@@@@@@+@+@++++++++o+o+o+o",
"@OOOOOOOOXOXOOOXOOOOOOXOOOOOOOOo@OOOOOOOOXOXOOOXOOOOOOXOOOOOOOOo",
"@OO  . ... ....... .  .... . OX.@OO  . ... ....... .  .... . OX.",
"@O XX.XXX.XXXXXXXXXX.XXXX.X.OXOo@O XX.XXX.XXXXXXXXXX.XXXX.X.OXOo",
"@O.XXXXXXXXXXXXXXXX.OXXX.OXOX@X.@O.XXXXXXXXXXXXXXXX.OXXX.OXOX@X.",
"@OO@@+@@@+@@@@@+#@@#@@@@#@@@@OOo@OO@@+@@@+@@@@@+#@@#@@@@#@@@@OOo",
"@OOOo+O+XOOOOOo+OOOOOOXOOOOOX+O.@OOOo+O+XOOOOOo+OOOOOOXOOOOOX+O.",
"@OOo+XOO@oOOOX+XOOOOOXOOOOOXOOO.@OOo+XOO@oOOOX+XOOOOOXOOOOOXOOO.",
"@OO. ... X.. . ..X .   ... . OO.@OO. ... X.. . ..X .   ... . OO.",
"@O.XXXXXXXO...XXXXO.X.XXXXX.O+O.@O.XXXXXXXO...XXXXO.X.XXXXX.O+O.",
"@O..XXXXXXXX.XXO.XXO.XXXXX.OX@O.@O..XXXXXXXX.XXO.XXO.XXXXX.OX@O.",
"@XOX@@@@@@@+@+@@#O@+#@@@@O#@@OO.@XOX@@@@@@@+@+@@#O@+#@@@@O#@@OO.",
"+OOOOOOOOOXXX+OOO+oOOOOOO+OOOOO.+OOOOOOOOOXXX+OOO+oOOOOOO+OOOOO.",
"@OOO+XOOOX+X+OOOOO+XOOOOOOOOOOO.@OOO+XOOOX+X+OOOOO+XOOOOOOOOOOO.",
"+OO..X . X..... . .X.........OX.+OO..X . X..... . .X.........OX.",
"@O.X.XO.XXXXXXXX.XXXXX.XXXX.X+O.@O.X.XO.XXXXXXXX.XXXXX.XXXX.X+O.",
"+O..XXXOXXXXXXX.XXXXX.XXXX.OX@O.+O..XXXOXXXXXXX.XXXXX.XXXX.OX@O.",
"+OX@@@@@@@+@@@+#@@@@+#@@#+#@@OO.+OX@@@@@@@+@@@+#@@@@+#@@#+#@@OO.",
"+XOXOOOOOXOOOo+OOOOX+OOOO+.OXOO.+XOXOOOOOXOOOo+OOOOX+OOOO+.OXOO.",
"+OXOOOOOXOOOX+OOOOXXXOOOOO@oOOO.+OXOOOOOXOOOX+OOOOXXXOOOOO@oOOO.",
"+OO.... ... ..... . X..... +.OO.+OO.... ... ..... . X..... +.OO.",
"+O.XXX.X.X.XXXXX.O.OXXXXX.XXX+O.+O.XXX.X.X.XXXXX.O.OXXXXX.XXX+O.",
"+O.XX.O...XXXXX.OXXXXXXXXXXX.@O.+O.XX.O...XXXXX.OXXXXXXXXXXX.@O.",
"+OO@+#+@+#@@@@+#@@@@O#@@@@@+@OO.+OO@+#+@+#@@@@+#@@@@O#@@@@@+@OO.",
"oOOX+XOo+OOOOo+OOOOo+OOOXOX+oOX.oOOX+XOo+OOOOo+OOOOo+OOOXOX+oOX.",
"+OO+XOO+OOOOX+OOOOo+OOOoXXOX+XO.+OO+XOO+OOOOX+OOOOo+OOOoXXOX+XO.",
"oOO....X...X.X... ...X..... .XO.oOO....X...X.X... ...X..... .XO.",
"+O..XXXXX.OXXXXOXXXXXXXXXX.O.+O.+O..XXXXX.OXXXXOXXXXXXXXXX.O.+O.",
"oOXOXX.X.OXXXXXXXXXXXXXXXXO.X@O.oOXOXX.X.OXXXXXXXXXXXXXXXXO.X@O.",
"+O+@@+@+#@@@@@@@@@@@@@@@@@+@@OO.+O+@@+@+#@@@@@@@@@@@@@@@@@+@@OO.",
"oOOOOXOOOOOXOOOOOOXOOOOOXOOOOOO oOOOOXOOOOOXOOOOOOXOOOOOXOOOOOO ",
"ooo.o.o.......................  ooo.o.o.......................  ",
"@@@+@+@@@@@@@+@+@++++++++o+o+o+o@@@+@+@@@@@@@+@+@++++++++o+o+o+o",
"@OOOOOOOOXOXOOOXOOOOOOXOOOOOOOOo@OOOOOOOOXOXOOOXOOOOOOXOOOOOOOOo",
"@OO  . ... ....... .  .... . OX.@OO  . ... ....... .  .... . OX.",
"@O XX.XXX.XXXXXXXXXX.XXXX.X.OXOo@O XX.XXX.XXXXXXXXXX.XXXX.X.OXOo",
"@O.XXXXXXXXXXXXXXXX.OXXX.OXOX@X.@O.XXXXXXXXXXXXXXXX.OXXX.OXOX@X.",
"@OO@@+@@@+@@@@@+#@@#@@@@#@@@@OOo@OO@@+@@@+@@@@@+#@@#@@@@#@@@@OOo",
"@OOOo+O+XOOOOOo+OOOOOOXOOOOOX+O.@OOOo+O+XOOOOOo+OOOOOOXOOOOOX+O.",
"@OOo+XOO@oOOOX+XOOOOOXOOOOOXOOO.@OOo+XOO@oOOOX+XOOOOOXOOOOOXOOO.",
"@OO. ... X.. . ..X .   ... . OO.@OO. ... X.. . ..X .   ... . OO.",
"@O.XXXXXXXO...XXXXO.X.XXXXX.O+O.@O.XXXXXXXO...XXXXO.X.XXXXX.O+O.",
"@O..XXXXXXXX.XXO.XXO.XXXXX.OX@O.@O..XXXXXXXX.XXO.XXO.XXXXX.OX@O.",
"@XOX@@@@@@@+@+@@#O@+#@@@@O#@@OO.@XOX@@@@@@@+@+@@#O@+#@@@@O#@@OO.",
"+OOOOOOOOOXXX+OOO+oOOOOOO+OOOOO.+OOOOOOOOOXXX+OOO+oOOOOOO+OOOOO.",
"@OOO+XOOOX+X+OOOOO+XOOOOOOOOOOO.@OOO+XOOOX+X+OOOOO+XOOOOOOOOOOO.",
"+OO..X . X..... . .X.........OX.+OO..X . X..... . .X.........OX.",
"@O.X.XO.XXXXXXXX.XXXXX.XXXX.X+O.@O.X.XO.XXXXXXXX.XXXXX.XXXX.X+O.",
"+O..XXXOXXXXXXX.XXXXX.XXXX.OX@O.+O..XXXOXXXXXXX.XXXXX.XXXX.OX@O.",
"+OX@@@@@@@+@@@+#@@@@+#@@#+#@@OO.+OX@@@@@@@+@@@+#@@@@+#@@#+#@@OO.",
"+XOXOOOOOXOOOo+OOOOX+OOOO+.OXOO.+XOXOOOOOXOOOo+OOOOX+OOOO+.OXOO.",
"+OXOOOOOXOOOX+OOOOXXXOOOOO@oOOO.+OXOOOOOXOOOX+OOOOXXXOOOOO@oOOO.",
"+OO.... ... ..... . X..... +.OO.+OO.... ... ..... . X..... +.OO.",
"+O.XXX.X.X.XXXXX.O.OXXXXX.XXX+O.+O.XXX.X.X.XXXXX.O.OXXXXX.XXX+O.",
"+O.XX.O...XXXXX.OXXXXXXXXXXX.@O.+O.XX.O...XXXXX.OXXXXXXXXXXX.@O.",
"+OO@+#+@+#@@@@+#@@@@O#@@@@@+@OO.+OO@+#+@+#@@@@+#@@@@O#@@@@@+@OO.",
"oOOX+XOo+OOOOo+OOOOo+OOOXOX+oOX.oOOX+XOo+OOOOo+OOOOo+OOOXOX+oOX.",
"+OO+XOO+OOOOX+OOOOo+OOOoXXOX+XO.+OO+XOO+OOOOX+OOOOo+OOOoXXOX+XO.",
"oOO....X...X.X... ...X..... .XO.oOO....X...X.X... ...X..... .XO.",
"+O..XXXXX.OXXXXOXXXXXXXXXX.O.+O.+O..XXXXX.OXXXXOXXXXXXXXXX.O.+O.",
"oOXOXX.X.OXXXXXXXXXXXXXXXXO.X@O.oOXOXX.X.OXXXXXXXXXXXXXXXXO.X@O.",
"+O+@@+@+#@@@@@@@@@@@@@@@@@+@@OO.+O+@@+@+#@@@@@@@@@@@@@@@@@+@@OO.",
"oOOOOXOOOOOXOOOOOOXOOOOOXOOOOOO oOOOOXOOOOOXOOOOOOXOOOOOXOOOOOO ",
"ooo.o.o.......................  ooo.o.o.......................  "
};
