/* XPM */
static char *LAB_3A[] = {
/* columns rows colors chars-per-pixel */
"64 64 22 1 ",
"  c black",
". c #141413",
"X c #181817",
"o c #1E1E17",
"O c #1C1C1B",
"+ c #2F2717",
"@ c #28221F",
"# c #28261F",
"$ c #28271F",
"% c #342A15",
"& c #322E1D",
"* c #353929",
"= c #373C2C",
"- c #3F3C2C",
"; c #564115",
": c #745615",
"> c #434436",
", c #4F4C3F",
"< c #66684C",
"1 c #855A00",
"2 c #9F7315",
"3 c #818556",
/* pixels */
"                         &3,==O                                 ",
",,,,,,,,,,,,,=,=,,,,,,,,,&3,,&O==,,,=,=,,,,,,,,,,,,,,,,,,,,=,=,,",
"=========================&3,==O&&===============================",
"=========================&3,,&O&&===============================",
"=========================&3,==O&&===============================",
"=========================&3,,&O&&===============================",
"=========================&<,==O&&===============================",
"=========================&3,,&O&&===============================",
",,,,,,,,,,,,,,,,,,,,,,,,,&<,==@==,,,,,,,,,,,,,,,,,,,,,,,,,,,,,,,",
"=========================&3,,&O&&===============================",
",,,,,,,,,,,,,,,,,,,,,,,,,&3,==@==,,,,,,,,,,,,,,,,,,,,,,,,,,,,,,,",
",,,,,,,,,,,,,,,,,,,,,,,,,&3,,&@==,,,,,,,,,,,,,,,,,,,,,,,,,,,,,,,",
",,,,,,,,,,,,,,,,,,,,,,,,,&3,==@==,,,,,,,,,,,,,,,,,,,,,,,,,,,,,,,",
",,,,,,,,,,,,,,,,,,,,,,,,,@&&&@O==,,,,,,,,,,,,,,,,,,,,,,,,,,,,,,,",
",,,,,,,,,,,,,,,,,,,,,,,,&3<<,==@=>,,,,,,,,,,,,,,,,,,,,,,,,,,,,,,",
",,,,,,,,,,,,,,,,,,,,,,,,@&&&@@@O==,,,,,,,,,,,,,,,,,,,,,,,,,,,,,,",
",,,,,,,,,,,,,,,,,,,,,,,,O@&&&@@O==,,,,,,,,,,,,,,,,,,,,,,,,,,,,,,",
",,,,,,,,,,,,,,,,,,,,,,,,&<,,,==@==,,,,,,,,,,,,,,,,,,,,,,,,,,,,,,",
",,,,,,,,,,,,,,,,,,,,,,,,,@&&&&O===,,,,,,,,,,,,,,,,,,,,,,,,,,,,,,",
",,,,,,,,,,,,,,,,,,,,,,,,,&,,,&@==>,,,,,,,,,,,,,,,,,,,,,,,,,,,,,,",
",,,,,,,,,,,,,,,,,,,,,,,,,&<,==@==,,,,,,,,,,,,,,,,,,,,,,,,,,,,,,,",
",,,,,,,,,,,,,,,,,,,,,,,,,&<,,&@==,,,,,,,,,,,,,,,,,,,,,,,,,,,,,,,",
",,,,,,,,,,,,,,,,,,,,,,,,,&3,==@==,,,,,,,,,,,,,,,,,,,,,,,,,,,,,,,",
",,,,,,,,,,,,,,,,,,,,,,,,,&3,,&@==,,,,,,,,,,,,,,,,,,,,,,,,,,,,,,,",
",,,,,,,,,,,,,,,,,,,,,,,,,&3,==@&=,,,,,,,,,,,,,,,,,,,,,,,,,,,,,,,",
",,,,,,,,,,,,,,,,,,,,,,,,,&3,,==@@&&&&&&&&&&&&&&&&&&-,,,,,,,,,,,,",
",,,,,,,,,,,,,,,,,,,,,,,,,&<,=,,<<33333333333333333<,&,,,,,,,,,,,",
",,,,,,,,,,,,,,,,,,,,,,,,,-,,,,,,,,,,,,,,,,,,,,,,,,,,,&,,,,,,,,,,",
",,,,,,,,,,,,,,,121,,,,,,,,&=,=,=,=,=,=,=,=,=,=,=,=,,=&=,,,,,,,,,",
",,,,,,,,,,,,,,,222>,,,,,,,,@&=&=&=&=&=&=&=&=&=&=&,=,,&@=,,,,,,,,",
",,,,,,,,,,,,,,12221,,,,,,,,,=@@@O@O@OOOOOOOOOOOOO=,,==@=>,,,,,,,",
",,,,,,,,,,,,,,22222>,,,,,,,,,===================&O<,,&@==,,,,,,,",
",,,,,,,,,,,,,12%.%21,,,,,,,,,,>==================@<,==@==,,,,,,,",
",,,,,,,,,,,,,22:.:22>,,,,,,,,,,,,,,,-&&&&&&&&&&&&=<,=&@==,,,,,,,",
",,,,,,,,,,,,1222:2221,,,,,,,,,,,,,,&<333333333333<,=,=@==,,,,,,,",
",,,,,,,,,,,,2%.:.:.%2>,,,,,,,,,,,,&3,,,,,,,,,,,,,,=,=&&==,,,,,,,",
",,,,,,,,,,,12;.:2:.;21,,,,,,,,,,,-<,,=,=,=,=,=,=,=,=&@===,,,,,,,",
",,,,,,,,,,,222;222;222>,,,,,,,,,,&3,=,==&=&=&=&=&=&&@===>,,,,,,,",
",,,,,,,,,,,12222222221=,,,,,,,,,,&3,==&OOOOOO@O@@@@&====,,,,,,,,",
",,,,,,,,,,,,>=========>,,,,,,,,,,&3,,&O================>,,,,,,,,",
",,,,,,,,,,,,,,,,,,,,,,,,,,,,,,,,,&3,==@==============>,,,,,,,,,,",
",,,,,,,,,,,,,,,,,,,,,,,,,,,,,,,,,@&&&&O==,,,,,,,,,,,,,,,,,,,,,,,",
",,,,,,,,,,,,,,,,,,,,,,,,,,,,,,,,&3<<,==@=>,,,,,,,,,,,,,,,,,,,,,,",
",,,,,,,,,,,,,,,,,,,,,,,,,,,,,,,,@&&&@@@O==,,,,,,,,,,,,,,,,,,,,,,",
",,,,,,,,,,,,,,,,,,,,,,,,,,,,,,,,O@&&&@@O==,,,,,,,,,,,,,,,,,,,,,,",
",,,,,,,,,,,,,,,,,,,,,,,,,,,,,,,,&<,,,==@==,,,,,,,,,,,,,,,,,,,,,,",
",,,,,,,,,,,,,,,,,,,,,,,,,,,,,,,,,@&&&&O===,,,,,,,,,,,,,,,,,,,,,,",
",,,,,,,,,,,,,,,,,,,,,,,,,,,,,,,,,&,,,&@==>,,,,,,,,,,,,,,,,,,,,,,",
",,,,,,,,,,,,,,,,,,,,,,,,,,,,,,,,,&<,==@==,,,,,,,,,,,,,,,,,,,,,,,",
",,,,,,,,,,,,,,,,,,,,,,,,,,,,,,,,,&<,,&@==,,,,,,,,,,,,,,,,,,,,,,,",
",,,,,,,,,,,,,,,,,,,,,,,,,,,,,,,,,&3,==@==,,,,,,,,,,,,,,,,,,,,,,,",
",,,,,,,,,,,,,,,,,,,,,,,,,,,,,,,,,&3,,&O==,,,,,,,,,,,,,,,,,,,,,,,",
",,,,,,,,,,,,,,,,,,,,,,,,,,,,,,,,,&<,==@==,,,,,,,,,,,,,,,,,,,,,,,",
"<<<<<<<<<<,<,,,<,<<<<<<<<<<<<<<<<&3,,&O==<<,<,<,<<<,<,<,<,<<<<<<",
"                               . &<,==O                         ",
"O  OO. OO  OO. OO  OO. OO  OO. O &3,,&O    OO. OO  OO. OO  OO. O",
"*********$****$*$*$*$*$$$$$$*$*$*&3,==O$$****************$****$*",
"ooooooooXooooooooooooooooXooooooX&3,,&O. oooooooXoXoooooXooooooo",
"oXoooooXoooooooooooooooXXoooooooo&3,==Ooo$oooooooXoooooXoooooooo",
"Xoo*.oooooo*.oooooo*.ooXoo$*.oooo&3,,&O.ooo*.oooXoo*.oooooo*.ooo",
"ooX .oooooX .oooooX .oXoXoX .ooXo&3,==Oo.oX .ooXooX .oooooX .ooX",
"XoXXooooooXXooooooXXoooXooXX$oooo&3,,&O..oXXooXXooXXooooooXXooXo",
"ooooooooooooooooooooooXoooo$$oooo&<,==O..oooooXooooooooooooooXoX",
".XXXXXX.X.X.......X.X. . .    . .+3,,&O...X..X.X.XXXXXX.X.X....."
};
