/* XPM */
static char *PIPES_2A[] = {
/* columns rows colors chars-per-pixel */
"64 64 9 1 ",
"  c black",
". c #141413",
"X c #1C1C1B",
"o c #28221F",
"O c #322E1D",
"+ c #373C2C",
"@ c #4F4C3F",
"# c #66684C",
"$ c #818556",
/* pixels */
" O$@++o  O$@++o                  O#@++o  O$@++o  O$@++o  o$@++X ",
" O$@@Oo  O$@@Oo     oOOOOOOOOOOOO+#@+Oo  O$@@Oo  O$@@Oo  o$@@OX ",
" O$@++o  O$@++o    O#$$$$$$$$$$$$#@+@+o  O$@++o  O$@++o  o$@++X ",
" O$@@Oo  O$@@Oo   O$@@@@@@@@@@@@@@+@+OX  O$@@Oo  O$@@Oo  o#@@oX ",
" O$@++o  O$@++o  o#@@+@+@+@+@+@+@+@+Oo   O$@++o  O$@++o  o#+OOX ",
" O$@@Oo  O$@@Oo  O$@+@++O+O+O+O+O+OOo    O#@@Oo  O$@@Oo  o#++oX ",
" O$@++o  O$@++o  O$@++OXoooooooooooX     O$@++o  O$@++o  X#+OO. ",
" O$@@Oo  O$@@Oo  O$@@OX                  O#@@Oo  O#@@Oo  X@OOX. ",
" O$@++o  O$@++o  o$@++X   ....    ....   O$@++o  O$@++o  X@Ooo. ",
" O$@@Oo  O$@@Oo  o$@@OX  .XX...  .XX...  O#@@Oo  O#@@Oo  X+OOX. ",
" O$@++o  O$@++o  o$@++X  .oXXX   .oXXX   O#@++o  O$@++o  X+ooo  ",
" O$@@Oo  O#@@Oo  o#@@oX  XOoX..  XOoX..  O#@@Oo  O$@@Oo  XOoX.. ",
" O$@++o  O$@++o  o#+OOX  X+ooo   X+ooo   O$@++o  O$@++o  .oXXX  ",
" O$@@Oo  oOOOOX  o#++oX  X+OOX.  X+OOX.  oOOOOX  O$@@Oo  .XX... ",
" O$@++o O$##@++o X#+OO.  X@Ooo.  X@Ooo. O$##@++o O$@++o   ....  ",
" O$@@Oo oOOOoooX X@OOX.  X@OOX.  X@OOX. oOOOoooX O$@@Oo         ",
" O#@++o XoOOOooX X@Ooo.  X#+OO.  X#+OO. XoOOOooX o$@++X         ",
"O+#@+Oo O#@@@++o X+OOX.  o#++oX  o#++oX O#@@@++o o$@@OX     oOOO",
"$#@+@+o  oOOOOX  X+ooo   o#+OOX  o#+OOX  oOOOOX  o$@++X    O#$$$",
"@@+@+OX  O@@@Oo  XOoX..  o#@@oX  o#@@oX  O@@@Oo  o#@@oX   O$@@@@",
"@+@+Oo   O#@++o  .oXXX   o$@++X  o$@++X  O#@++o  o#+OOX  o#@@+@+",
"O+OOo    O#@@Oo  .XX...  o$@@OX  o$@@OX  O#@@Oo  o#++oX  O$@+@++",
"oooX     O$@++o   ....   o$@++X  o$@++X  O$@++o  X#+OO.  O$@++OX",
"         O$@@Oo          O$@@Oo  O$@@Oo  O$@@Oo  X@OOX.  O$@@OX ",
"  ....   O$@++oX         O$@++o  o$@++X  O#@++o  X@Ooo.  O$@++o ",
" .XX...  O$@@++oOOOo     O$@@Oo  o$@@OX  O#@@Oo  X+OOX.  O$@@Oo ",
" .oXXX   O#@+@@#$$#@O    O$@++o  o$@++X  O$@++o  X+ooo   O$@++o ",
" XOoX..  o@@@@@@@@@@@O   O$@@Oo  o#@@oX  O#@@Oo  XOoX..  O$@@Oo ",
" X+ooo    O+@+@+@+@@+OX  O$@++o  o#+OOX  O$@++o  .oXXX   O$@++o ",
" X+OOX.    oO+O+O@+@@Oo  O$@@Oo  o#++oX  O#@@Oo  .XX...  O$@@Oo ",
" X@Ooo.     XoooX+@@++o  O$@++o  X#+OO.  O$@++o   ....   O$@++o ",
" X@OOX.          X#@@Oo  O$@@Oo  X@OOX.  O$@@Oo          O$@@Oo ",
" X#+OO.   ....   X$@++o  O$@++o  X@Ooo.  O$@++oX         O$@++o ",
" o#++oX  .XX...  O$@@Oo  O$@@Oo  X+OOX.  O$@@++oOOOo     O$@@Oo ",
" o#+OOX  .oXXX   O$@++o  O$@++o  X+ooo   O#@+@@#$$#@O    O$@++o ",
" o#@@oX  XOoX..  O#@@Oo  O#@@Oo  XOoX..  o@@@@@@@@@@@O   O$@@Oo ",
" o$@++X  X+ooo   O$@++o  O$@++o  .oXXX    O+@+@+@+@@+OX  O$@++o ",
" o$@@OX  X+OOX.  oOOOOX  oOOOOX  .XX...    oO+O+O@+@@Oo  O$@@Oo ",
" o$@++X  X@Ooo. O$##@++oO$##@++o  ....      XoooX+@@++o  O$@++o ",
" O$@@Oo  X@OOX. oOOOoooXoOOOoooX                 X#@@Oo  O$@@Oo ",
" O$@++o  X#+OO. XoOOOooXXoOOOooX                 O#@++o  O$@++o ",
" O$@@Oo  o#++oX O#@@@++oO#@@@++o    oOOOOOOOOOOOO+#@+Oo  O$@@Oo ",
" O$@++o  o#+OOX  oOOOOX  oOOOOX    O#$$$$$$$$$$$$#@+@+o  O$@++o ",
" O#@@Oo  o#@@oX  O@@@Oo  O@@@Oo   O$@@@@@@@@@@@@@@+@+OX  O#@@Oo ",
" O$@++o  o$@++X  O#@++o  O#@++o  o#@@+@+@+@+@+@+@+@+Oo   O$@++o ",
" oOOOOX  o$@@OX  O#@@Oo  O#@@Oo  O$@+@++O+O+O+O+O+OOo    oOOOOX ",
"O$##@++o o$@++X  O$@++o  O$@++o  O$@++OXoooooooooooX    O$##@++o",
"oOOOoooX O$@@Oo  O$@@Oo  O$@@Oo  O$@@OX                 oOOOoooX",
"XoOOOooX O$@++o  o$@++X  o$@++X  O$@++o   ....    ....  XoOOOooX",
"O#@@@++o O$@@Oo  o$@@OX  o$@@OX  O$@@Oo  .XX...  .XX... O#@@@++o",
" oOOOOX  O$@++o  o$@++X  o$@++X  O$@++o  .oXXX   .oXXX   oOOOOX ",
" O@@@Oo  O$@@Oo  o#@@oX  o#@@oX  O#@@Oo  XOoX..  XOoX..  O@@@Oo ",
" O#@++o  O$@++o  o#+OOX  o#+OOX  O$@++o  X+ooo   X+ooo   O#@++o ",
" O#@@Oo  O$@@Oo  o#++oX  o#++oX  oOOOOX  X+OOX.  X+OOX.  O#@@Oo ",
" O$@++o  O$@++o  X#+OO.  X#+OO. O$##@++o X@Ooo.  X@Ooo.  O$@++o ",
" O$@@Oo  O$@@Oo  X@OOX.  X@OOX. oOOOoooX X@OOX.  X@OOX.  O$@@Oo ",
" O$@++o  O$@++o  X@Ooo.  X@Ooo. XoOOOooX X#+OO.  X#+OO.  O$@++o ",
" O$@@Oo  O$@@Oo  X+OOX.  X+OOX. O#@@@++o o#++oX  o#++oX  O$@@Oo ",
" O$@++o  O$@++o  X+ooo   X+ooo   oOOOOX  o#+OOX  o#+OOX  O$@++o ",
" O$@@Oo  O$@@Oo  XOoX..  XOoX..  O@@@Oo  o#@@oX  o#@@oX  O$@@Oo ",
" O$@++o  O$@++o  .oXXX   .oXXX   O#@++o  o$@++X  o$@++X  O$@++o ",
" O$@@Oo  O$@@Oo  .XX...  .XX...  O#@@Oo  o$@@OX  o$@@OX  O$@@Oo ",
" O$@++o  O$@++o   ....    ....   O$@++o  o$@++X  o$@++X  O$@++o ",
" O$@@Oo  O$@@Oo                  O$@@Oo  O$@@Oo  O$@@Oo  O$@@Oo "
};
