/* XPM */
static char *STEEL_2B[] = {
/* columns rows colors chars-per-pixel */
"64 64 15 1 ",
"  c black",
". c #180200",
"X c #141413",
"o c #1C1C1B",
"O c #290C0A",
"+ c #300500",
"@ c #3F0801",
"# c #3A0C07",
"$ c #2F110E",
"% c #38130E",
"& c #28221F",
"* c #382B2F",
"= c #440801",
"- c #4C0801",
"; c #383F40",
/* pixels */
"XXooooooXXoo&oooXXooooooXXooooooXXooooooXXoo&oooXXooooooXXoooooo",
"X*XoooooX*X&ooooX*Xooo&oX*XoooooX*XoooooX*X&ooooX*Xooo&oX*Xooooo",
"o &Xoooo& &Xooooo &Xo&o&o &Xoo&oo &Xoooo& &Xooooo &Xo&o&o &Xoo&o",
"oo oooo&o& Xoooooo X&o&o&o Xoooooo oooo&o& Xoooooo X&o&o&o Xoooo",
"ooooooXXooooooXXooo&ooXXoooo&oXXooooooXXooooooXXooo&ooXXoooo&oXX",
"oooooX;XoooooX;XoooooX;XoooooX;XoooooX;XoooooX;XoooooX;XoooooX;X",
"ooooX& oooooX* oooooX* oooooX* oooooX& oooooX* oooooX* oooooX* o",
"ooo&X ooooooX o&ooooX ooooo&X ooooo&X ooooooX o&ooooX ooooo&X oo",
"oXoo&oooXXoo&o&oXooo&&&oXX&o&ooooXoo&oooXXoo&o&oXooo&&&oXX&o&ooo",
"X*X&ooooX*X&&&ooX*Xoo&ooX*X&ooooX*X&ooooX*X&&&ooX*Xoo&ooX*X&oooo",
"oX&X&oooo &X&oooo &X&oooo &XoooooX&X&oooo &X&oooo &X&oooo &Xoooo",
"o&XXoooooo Xo&oooo Xooooo& Xooooo&XXoooooo Xo&oooo Xooooo& Xoooo",
"ooooooXXoo&&&oXXooooooXoooooooXXooooooXXoo&&&oXXooooooXoooooooXX",
"oooooX;Xo&o&oX;XoooooX;XoooooX;XoooooX;Xo&o&oX;XoooooX;XoooooX;X",
"ooooX* o&oooX* oooooX* oooooX* oooooX* o&oooX* oooooX* oooooX* o",
"ooooX ooooooX ooooooX &oooo&X ooooooX ooooooX ooooooX &oooo&X oo",
"XXo&ooooXXooooo&XXooo&ooXX&oooooXXo&ooooXXooooo&XXooo&ooXX&ooooo",
"X*XoooooX*Xooo&oX*Xo&oooX*Xooo=$X*XoooooX*Xooo&oX*Xo&oooX*Xooooo",
"o &Xooooo &Xo&ooo &Xooooo &X&oooo &Xooooo &Xo&ooo &Xooooo &X&ooo",
"&o ooooo&o X&ooooo X&ooooo Xoooo&o ooooo&o X&ooooo X&ooooo Xoooo",
"ooooooXXooo&ooXXo&o&ooXX=o&ooo@XooooooXXooo&ooXXo&o&ooXXoo&oooXX",
"oooooX;X&o&ooX;X&o&ooX;Xo&oooX;@$ooooX;X&o&ooX;X&o&ooX;Xo&oooX;X",
"ooooX& &&&ooX* &ooooX* oooooX*+o=oo$@& &&&ooX* &ooooX* oooooX* o",
"ooooX &o&oooX &oooooX oo===&@ o&ooo=@ &o&oooX &oooooX ooooo&X o&",
"oXo&&&o&XXooooooXoo&oooo@@-o&o&o=Xo-&&o%@XooooooXoo&ooooXX&o&o&o",
"X*Xo&oooX*XoooooX*Xoooo&X*@-&&oo@*Xo&o==X*XoooooX*Xoooo&X*X&&&oo",
"o &Xooooo &Xooooo &Xoo&o& &@-ooo$ &@oooo=+&Xooooo &Xoo&o& &X&ooo",
"oo Xoooo&o Xoo&ooo Xo&o&=& X==$$$=+Xo===-=+Ooo&ooo Xo&o&o& Xoooo",
"ooooo&XXooo&o&XXooooooXoo=-#o#O@==oo=-OO===-o&XXooooooXooo&oooXX",
"oooo&X;Xoo&o&X;Xoooo=@;Xo&oo=@;@====-@;Xo$-=&X;XoooooX;Xo&oooX;X",
"ooooX* oooo&X* oooooX* o&=o=@*+===$=@*.oooo&X* oooooX* o&oooX* o",
"ooooX ooooooX oooooo@+o=oo==@+=====oX =ooooo@ ooooooX ooooooX oo",
"XXooooooXXoo&oooXX=oooooX@==$===@@===oooXXoo&oooXXooooooXXoooooo",
"X*XoooooX*X&ooooX*Xooo&oO*@=$===@*@o$==oX*X&ooooX*Xooo&oX*Xooooo",
"o &Xoooo& &Xooooo &X$-=&= &X=o-=o &Xoo==% &Xooooo &Xo&o&o &Xoo&o",
"oo oooo&o& Xoooooo X-=&o&o X=o===o =ooo&o& Xoooooo X&o&o&o Xoooo",
"ooooooXXooooooXXooo&ooXXooo=-o@@=oo==oXXooooooXXooo&ooXXoooo&oXX",
"oooooX;XoooooX;XoooooX;@ooo==X;Xo=o==@;XoooooX;XoooooX;XoooooX;X",
"ooooX& oooooX* oooooX*.=oo==@* oooo$@&+oooooX* oooooX* oooooX* o",
"ooo&X ooooooX o&ooooX oooo=-@ =oooo&@+$oooooX o&ooooX ooooo&X oo",
"oXoo&oooXXoo&o&oXooo&&&oXX%=&o=ooXoo&oooXXoo&o&oXooo&&&oXX&o&ooo",
"X*X&ooooX*X&&&ooX*Xoo&ooX*X&ooo=X*X&oo$oX*X&&&ooX*Xoo&ooX*X&oooo",
"oX&X&oooo &X&oooo &X&oooo+&XoooooX&X&o=oo &X&oooo &X&oooo &Xoooo",
"o&XXoooooo Xo&oooo Xooooo- Xooooo&XXoooooo Xo&oooo Xooooo& Xoooo",
"ooooooXXoo&&&oXXooooooXo$oooooXXooooooXXoo&&&oXXooooooXoooooooXX",
"oooooX;Xo&o&oX;XoooooX;XoooooX;XoooooX;Xo&o&oX;XoooooX;XoooooX;X",
"ooooX* o&oooX* oooooX* oooooX*+oooooX* o&oooX* oooooX* oooooX* o",
"ooooX ooooooX ooooooX &oooo&X ooooooX ooooooX ooooooX &oooo&X oo",
"XXo&ooooXXooooo&XXooo&ooXX&oooooXXo&ooooXXooooo&XXooo&ooXX&ooooo",
"X*XoooooX*Xooo&oX*Xo&oooX*XoooooX*XoooooX*Xooo&oX*Xo&oooX*Xooooo",
"o &Xooooo &Xo&ooo &Xooooo &X&oooo &Xooooo &Xo&ooo &Xooooo &X&ooo",
"&o ooooo&o X&ooooo X&ooooo Xoooo&o ooooo&o X&ooooo X&ooooo Xoooo",
"ooooooXXooo&ooXXo&o&ooXXoo&oooXXooooooXXooo&ooXXo&o&ooXXoo&oooXX",
"oooooX;X&o&ooX;X&o&ooX;Xo&oooX;XoooooX;X&o&ooX;X&o&ooX;Xo&oooX;X",
"ooooX& &&&ooX* &ooooX* oooooX* oooooX& &&&ooX* &ooooX* oooooX* o",
"ooooX &o&oooX &oooooX ooooo&X o&ooooX &o&oooX &oooooX ooooo&X o&",
"oXo&&&o&XXooooooXoo&ooooXX&o&o&ooXo&&&o&XXooooooXoo&ooooXX&o&o&o",
"X*Xo&oooX*XoooooX*Xoooo&X*X&&&ooX*Xo&oooX*XoooooX*Xoooo&X*X&&&oo",
"o &Xooooo &Xooooo &Xoo&o& &X&oooo &Xooooo &Xooooo &Xoo&o& &X&ooo",
"oo Xoooo&o Xoo&ooo Xo&o&o& Xoooooo Xoooo&o Xoo&ooo Xo&o&o& Xoooo",
"ooooo&XXooo&o&XXooooooXooo&oooXXooooo&XXooo&o&XXooooooXooo&oooXX",
"oooo&X;Xoo&o&X;XoooooX;Xo&oooX;Xoooo&X;Xoo&o&X;XoooooX;Xo&oooX;X",
"ooooX* oooo&X* oooooX* o&oooX* oooooX* oooo&X* oooooX* o&oooX* o",
"ooooX ooooooX ooooooX ooooooX ooooooX ooooooX ooooooX ooooooX oo"
};
