/* XPM */
static char *STUCCO_2A[] = {
/* columns rows colors chars-per-pixel */
"64 64 19 1 ",
"  c #332C1F",
". c #362C20",
"X c #393322",
"o c #3F3325",
"O c #3F3425",
"+ c #3F3825",
"@ c #3D3827",
"# c #3F3B27",
"$ c #443D2B",
"% c #443E2B",
"& c #44392D",
"* c #473E2D",
"= c #483929",
"- c #4B422F",
"; c #4F4133",
": c #4F4233",
"> c #4A4632",
", c #594939",
"< c #584F3D",
/* pixels */
"*--+o=*=====o=====X++O== *====O=*===O=#+========&=======.&+===o=",
".=-X=== ==,o==oo=  O==o=======.*.==o=,+.=.*====.=..===.=*==*,=.$",
",$-X*,==*=X,==,==o,+-O,O<*===o;==O=o&=+-&=&======&=====&=&===;;=",
",=$ ,=;<==,,,=,==,>-O,;&o==&<=,=,=o.,,o>&============*.&*&&o<=,,",
",--==,;=,,&,=*,==o,@,=,,,<==o,<,====,=$+==*,=&=,=*=.=====>-,;,<=",
",=>+;o,,=;,,,=,*O,--=;<,o,=,,o,,===*;;=-=&,=,=,*====,**=;=+,,o,,",
",,+&o,,,;,X,,,;,=o->,=;&,,==;,;&==.&;,-+&=*,,,*==&=====&,--,;,;&",
"<,>X,o<;,;,,,=,&=,,+=;,,=,=o,=,,<==O,;#$=&,,,=,,===.,*==,++;,=,,",
",,$>;,,,&,,;;,&,=,--;;;,,<O&:,,,==O,;,,+.,,:*,&==,==O;O,,<$&:,,,",
",,-O,,,:,,,;;O,*.,,$<;,,,,=O,=,&,==O,,+$==,;*=,<.,=o<;==,+-;,,,&",
"&,*>:,,,&,,,;,,==,$,;;,,&,O;,<;,.=O<;,,-.,,,,,,=,=O=;;==&,$;,<;,",
",;>O,,,,<,,;<;&,=&,$,,,,,;,O,,&,,o*;,,-,-=,;<**,=&=o,,=,,$,;,,&,",
";,,-,,,,,,;;;;,==,,;,,;<,;=,,,,,;===,,,-==*,*,<,,==o,,O*,;-,,,,,",
",,>,,,&,,;&;;,<;=,,-,,,,,,,,,,,;,=*,,,&,=>&**,<*=,==,,=,,,,,,,,;",
",;&,,,<,;,<,,,,O,;,,,&,,,&=,,:;,,o.=,,<-o=<,,,,*,o=,,&,=,&-,,:;,",
",,-,;;,;,,,,,,,,O,,>,,;,,;<;,,<,,==,;;,;=,,,,,,,o,=*,,O,,;<;,,<,",
"<,,<,,,,,,&,,,,&,:,&,;<:,,O,;,;,<,=*,,,-,=&,,,,&,;=&,;<;,,$,:,;,",
",,$,&,,,,,<,,,;,=<,,;,,,,;;,,,,,,=O,&,,,=,<,,,;,,<==;,=,,;;,,,,,",
",&,<&,,,&;,,,:,<,;<;,,;,,,;;;,,,,&=<&,,,&;,,,:,<,;*O,,;,,,;;;,,,",
";,;,<;,<;,,,;,,,=,;;;,,,&,,;,<,,;=O,<;,<O,,,;,,,,,o;;,=,&,,;,<,,",
"&,;,,,,;:,,;,,:,:;,;,;,,,&;,,&,:&=O,,,,;;,,;,,:,;;=o,;,,,&;,,&,:",
",,,<,,;,;,:,,,,,;,;<,,,,,;&<;,,,,,=<,,;,O,;,,,,,;,O<,,,,,;&<;,,,",
"&,;,&;,;;;,,<,,<,&,,,:,<,,,,;:,,&=o,&;,;;;,,<,,<,&,=,;,<,,,,;:,,",
",,,,;,;;<,,;,&;;,,,,,,,,;,,;,,,:,,=,:,;:<,,;,&;;,,=,,,,,;,,;,,,:",
",,,;;<,;;,,,,,,,:,,<,,,,;,;,;<;,,=,;;<,;;,,,,,,,;,,<,,,,;,;,;<;,",
",;,,;,,,,:,,,;,,,,;,,:,;&:,;;;&,,;=,;,,,,:,,,;,,,,O,,:,;&:,;;;&,",
",<,;,,,:,,,:,,,,,,<;,,;,;:;<;,,,,<,;,,,;,,,:,,,,,,<;,,;,;:;<;,,,",
",,&<;,,,<,,&,,;<,,,,,<&;,;,;,,,:,,.<;,,,<,,&,,;<,,=,,<&;,;,;,,,:",
",,,,,;,;,,<;,:,,,,,,,,<,,,&,,<,,,,,,,;,;,,<;,:,,,,,,,,<,,,&,,<,,",
",,<,;,;,,;;,;,,;<,,,:;,;,;,,;,:,,,-,;,;,,;;,;,,;<,,,:;,;,;,,;,:,",
",;,,,<,,,,,:,,,,,,;<,:,,&:,,,,,,,;,,,<,,,,,:,,,,,,;<,:,,&:,,,,,,",
",,;,;,,,,,&,,<,&,;,,,,:,<,,,,,;,,,;,;,,,,,&,,<,&,;,,,,:,<,,,,,;,",
"<,,,:,<,,,,,:,,,;,,,,:,,&<,,,,:,<,,,;,<,,,,,:,,,;,,,,:,,&<,,,,:,",
"&,,;,,,&,;,;,,;;,&&,,,;,,,,,,,&<&,,;,,,&,;,;,,;;,&&,,,;,,,,,,,&<",
",:,;<,,,;,;<,,,,,:,<,;,;<;,,,:;,,;,;<,,,;,;<,,,,,:,<,;,;<;,,,:;,",
",,;&,,;<,;,,,,,,,,,,;,;&;:,&<,,,,,;&,,;<,;,,,,,,,,,,;,;&;:,&<,,,",
",,,,,,;,,,<,,;,,,;,&,,,,,<,,;,<,,,,,,,;,,,<,,;,,,;,&,,,,,<,,;,<,",
",,,<:;,,,;,,,,,<:,,,,;<,;,,,,;,,,,,<;;,,,;,,,,,<:,,,,;<,;,,,,;,,",
",,&&;,,,;,:,,,;,,:,,,,;&,,,,;,:&,,&&;,,,;,:,,,;,,:,,,,;&,,,,;,:&",
"<,,;,:<;,;,,<;,;,,,&,;,,,,,;,,,,<,,;,:<;,;,,<;,;,,,&,;,,,,,;,,,,",
",,:,;,,,&,,:;,&,,,,,;;:,,<;&:,,,,,:,;,,,&,,:;,&,,,,,;;:,,<;&:,,,",
",,,:,,,:,,,;;;,<&,,;<;,,,,,;,,,&,,,:,,,:,,,;;;,<&,,;<;,,,,,;,,,&",
"&,;<:,,,&,,,;,,,,,:,;;,,&,;:,<;,&,;<:,,,&,,,;,,,,,:,;;,,&,;:,<;,",
",;<;,,,,<,,;<;&,,&,;,,,,,;,:,,&,,;<;,,,,<,,;<;&,,&,;,,,,,;,:,,&,",
";,,,,,,,,,;:;:,,,,,;,,:<,;,,,,,,;,,,,,,,,,;:;:,,,,,;,,:<,;,,,,,,",
",,<,,,&,,;&;;,<;,,,,,,,,,,,,,,,;,,<,,,&,,;&;;,<;,,,,,,,,,,,,,,,;",
",;&,,,<,;,<,,,,:,;,,,&,,,&,,,:;,,;&,,,<,;,<,,,,:,;,,,&,,,&,,,:;,",
",,,,;:,;,,,,,,,,;,,<,,;,,;<;,,<,,,,,;:,;,,,,,,,,;,,<,,;,,;<;,,<,",
"<,,<,,,,,,&,,,,&,:,&,;<:,,;,:,;,<,,<,,,,,,&,,,,&,:,&,;<:,,;,:,;,",
",,;,&,,,,,<,,,;,,<,,;,,,,;;,,,,,,,;,&,,,,,<,,,;,,<,,;,,,,;;,,,,,",
",&,<&,,,&;,,,:,<,;<;,,;,,,;;;,,,,&,<&,,,&;,,,:,<,;<;,,;,,,;;;,,,",
";,;,<;,<;,,,;,,,,,;;;,,,&,,;,<,,;,;,<;,<;,,,;,,,,,;;;,,,&,,;,<,,",
"&,:,,,,;:,,;,,:,:;,;,;,,,&;,,&,:&,:,,,,;:,,;,,:,:;,;,;,,,&;,,&,:",
",,,<,,;,;,:,,,,,;,;<,,,,,;&<;,,,,,,<,,;,;,:,,,,,;,;<,,,,,;&<;,,,",
"&,;,&;,;;;,,<,,<,&,,,:,<,,,,;:,,&,;,&;,;;;,,<,,<,&,,,:,<,,,,;:,,",
",,,,:,;:<,,;,&;;,,,,,,,,;,,;,,,:,,,,:,;:<,,;,&;;,,,,,,,,;,,;,,,:",
",,,;;<,;;,,,,,,,:,,<,,,,;,;,;<;,,,,;;<,;;,,,,,,,:,,<,,,,;,;,;<;,",
",;,,;,,,,:,,,;,,,,;,,:,;&:,;;;&,,;,,;,,,,:,,,;,,,,;,,:,;&:,;;;&,",
",<,;,,,:,,,:,,,,,,<;,,;,;:;<;,,,,<,;,,,:,,,:,,,,,,<;,,;,;:;<;,,,",
",,&<;,,,<,,&,,;<,,,,,<&;,;,;,,,:,,&<;,,,<,,&,,;<,,,,,<&;,;,;,,,:",
",,,,,;,;,,<;,:,,,,,,,,<,,,&,,<,,,,,,,;,;,,<;,:,,,,,,,,<,,,&,,<,,",
",,<,;,;,,;;,;,,;<,,,:;,;,;,,;,:,,,<,;,;,,;;,;,,;<,,,:;,;,;,,;,:,",
",:,,,<,,,,,:,,,,,,;<,:,,&:,,,,,,,:,,,<,,,,,:,,,,,,;<,:,,&:,,,,,,",
",,:,;,,,,,&,,<,&,;,,,,:,<,,,,,;,,,:,;,,,,,&,,<,&,;,,,,:,<,,,,,;,"
};
