/* XPM */
static char *SUPPORT_7D[] = {
/* columns rows colors chars-per-pixel */
"64 64 14 1 ",
"  c black",
". c #141413",
"X c #322E1D",
"o c #373C2C",
"O c #076C0E",
"+ c #024829",
"@ c #44402F",
"# c #4F4C3F",
"$ c #66684C",
"% c #289237",
"& c #AFDA2F",
"* c #FFEC24",
"= c #818556",
"- c #A0B652",
/* pixels */
"                                                                ",
"######o#o#o#oooX######o#o#o#oooX######o#o#o#oooX######o#o#o#oooX",
"#ooooooooooooooX#ooooooooooooooX#ooooooooooooooX#ooooooooooooooX",
"#o$oo$$$$#ooo$oX#o$oo$$$$#ooo$oX#o$oo$$$$#ooo$oX#o$oo$$$$#ooo$oX",
"#Xoo$XXXXXXoXooX#Xoo$XXXXXXoXooX#Xoo$XXXXXXoXooX#Xoo$XXXXXXoXooX",
"#oo$XXXXXXXX#ooX#oo$XXXXXXXX#ooX#oo$XXXXXXXX#ooX#oo$XXXXXXXX#ooX",
"#o$XXX+OO+XXX#oX#o$XXX+OO+XXX#oX#o$XXX+OO+XXX#oX#o$XXX+OO+XXX#oX",
"#o$XX+OOOO+XX$oX#o$XX+OOOO+XX$oX#o$XX+OOOO+XX$oX#o$XX+OOOO+XX$oX",
"#o$XXOO&*OOXX$oX#o$XXOO&*OOXX$oX#o$XXOO&*OOXX$oX#o$XXOO&*OOXX$oX",
"#o$XXOO*&OOXX$oX#o$XXOO*&OOXX$oX#o$XXOO*&OOXX$oX#o$XXOO*&OOXX$oX",
"=#-ooO%%%%Ooo-#o=#-ooO%%%%Ooo-#o=#-ooO%%%%Ooo-#o=#-ooO%%%%Ooo-#o",
"#o$XXX+OO+XXX-oX#o$XXX+OO+XXX-oX#o$XXX+OO+XXX-oX#o$XXX+OO+XXX-oX",
"=##$oooooooo-##o=##$oooooooo-##o=##$oooooooo-##o=##$oooooooo-##o",
"=###$oooooo-###X=###$oooooo-###X=###$oooooo-###X=###$oooooo-###X",
"=####$-$---####o=####$-$---####o=####$-$---####o=####$-$---####o",
"=##############X=##############X=##############X=##############X",
"=##############o=##############o=##############o=##############o",
"=####---$$$####o=####---$$$####o=####---$$$####o=####---$$$####o",
"=###-oooooo$###o=###-oooooo$###o=###-oooooo$###o=###-oooooo$###o",
"=##-oooooooo$##o=##-oooooooo$##o=##-oooooooo$##o=##-oooooooo$##o",
"=#-oooO%%Oooo$##=#-oooO%%Oooo$##=#-oooO%%Oooo$##=#-oooO%%Oooo$##",
"$#-ooO%%%%Ooo-#o$#-ooO%%%%Ooo-#o$#-ooO%%%%Ooo-#o$#-ooO%%%%Ooo-#o",
"=#-oo%%&*%%oo$##=#-oo%%&*%%oo$##=#-oo%%&*%%oo$##=#-oo%%&*%%oo$##",
"$#$oo%%*&%%oo-#o$#$oo%%*&%%oo-#o$#$oo%%*&%%oo-#o$#$oo%%*&%%oo-#o",
"=#-ooO%%%%Ooo-##=#-ooO%%%%Ooo-##=#-ooO%%%%Ooo-##=#-ooO%%%%Ooo-##",
"$#$oooO%%Oooo-#o$#$oooO%%Oooo-#o$#$oooO%%Oooo-#o$#$oooO%%Oooo-#o",
"$##$oooooooo-##o$##$oooooooo-##o$##$oooooooo-##o$##$oooooooo-##o",
"$###$oooooo-###o$###$oooooo-###o$###$oooooo-###o$###$oooooo-###o",
"$####$-----####X$####$-----####X$####$-----####X$####$-----####X",
"$##############o$##############o$##############o$##############o",
"$##############X$##############X$##############X$##############X",
"$####---$$$####o$####---$$$####o$####---$$$####o$####---$$$####o",
"$###-oooooo$###X$###-oooooo$###X$###-oooooo$###X$###-oooooo$###X",
"$##-oooooooo$##X$##-oooooooo$##X$##-oooooooo$##X$##-oooooooo$##X",
"$#-oooO%%Oooo$#X$#-oooO%%Oooo$#X$#-oooO%%Oooo$#X$#-oooO%%Oooo$#X",
"$#-ooO%%%%Ooo-#X$#-ooO%%%%Ooo-#X$#-ooO%%%%Ooo-#X$#-ooO%%%%Ooo-#X",
"$#-oo%%&*%%oo$#X$#-oo%%&*%%oo$#X$#-oo%%&*%%oo$#X$#-oo%%&*%%oo$#X",
"$#$oo%%*&%%oo-#X$#$oo%%*&%%oo-#X$#$oo%%*&%%oo-#X$#$oo%%*&%%oo-#X",
"$#-ooO%%%%Ooo-#X$#-ooO%%%%Ooo-#X$#-ooO%%%%Ooo-#X$#-ooO%%%%Ooo-#X",
"$#$oooO%%Oooo-#X$#$oooO%%Oooo-#X$#$oooO%%Oooo-#X$#$oooO%%Oooo-#X",
"$##$oooooooo-##X$##$oooooooo-##X$##$oooooooo-##X$##$oooooooo-##X",
"$###$oooooo-###X$###$oooooo-###X$###$oooooo-###X$###$oooooo-###X",
"#####$-----####X#####$-----####X#####$-----####X#####$-----####X",
"$##############X$##############X$##############X$##############X",
"###############X###############X###############X###############X",
"$####---$$$####X$####---$$$####X$####---$$$####X$####---$$$####X",
"####-oooooo$###X####-oooooo$###X####-oooooo$###X####-oooooo$###X",
"$##-oooooooo$##X$##-oooooooo$##X$##-oooooooo$##X$##-oooooooo$##X",
"##-oooO%%Oooo$#X##-oooO%%Oooo$#X##-oooO%%Oooo$#X##-oooO%%Oooo$#X",
"##-ooO%%%%Ooo-#X##-ooO%%%%Ooo-#X##-ooO%%%%Ooo-#X##-ooO%%%%Ooo-#X",
"##-oo%%&*%%oo$#X##-oo%%&*%%oo$#X##-oo%%&*%%oo$#X##-oo%%&*%%oo$#X",
"##$oo%%*&%%oo-#X##$oo%%*&%%oo-#X##$oo%%*&%%oo-#X##$oo%%*&%%oo-#X",
"##-ooO%%%%Ooo-#X##-ooO%%%%Ooo-#X##-ooO%%%%Ooo-#X##-ooO%%%%Ooo-#X",
"##$oooO%%Oooo-#X##$oooO%%Oooo-#X##$oooO%%Oooo-#X##$oooO%%Oooo-#X",
"###$oooooooo-##X###$oooooooo-##X###$oooooooo-##X###$oooooooo-##X",
"####$oooooo-###X####$oooooo-###X####$oooooo-###X####$oooooo-###X",
"#####$-----####X#####$-----####X#####$-----####X#####$-----####X",
"#o#############X#o#############X#o#############X#o#############X",
"o##############Xo##############Xo##############Xo##############X",
"##@o-######-o#@X##@o-######-o#@X##@o-######-o#@X##@o-######-o#@X",
"o#Xoo##o##Xoo##Xo#Xoo##o##Xoo##Xo#Xoo##o##Xoo##Xo#Xoo##o##Xoo##X",
"##XX@#####XX##@X##XX@#####XX##@X##XX@#####XX##@X##XX@#####XX##@X",
"###@@########@#X###@@########@#X###@@########@#X###@@########@#X",
".X....X.XXXXXXXX.X....X.XXXXXXXX.X....X.XXXXXXXX.X....X.XXXXXXXX"
};
