/* XPM */
static char *SUPPORT_1C[] = {
/* columns rows colors chars-per-pixel */
"64 64 7 1 ",
"  c black",
". c #141413",
"X c #382B2F",
"o c #383F40",
"O c #464D4F",
"+ c #536265",
"@ c #62797E",
/* pixels */
"                                                                ",
"OOOOOOoOoOoOoooXOOOOOOoOoOoOoooXOOOOOOoOoOoOoooXOOOOOOoOoOoOoooX",
"OooooooooooooooXOooooooooooooooXOooooooooooooooXOooooooooooooooX",
"OoX@OoooooX@OooXOoX@OoooooX@OooXOoX@OoooooX@OooXOoX@OoooooX@OooX",
"OoXOOoooooXOOooXOoXOOoooooXOOooXOoXOOoooooXOOooXOoXOOoooooXOOooX",
"OoXXooooooXXoooXOoXXooooooXXoooXOoXXooooooXXoooXOoXXooooooXXoooX",
"OooooooooooooooXOooooooooooooooXOooooooooooooooXOooooooooooooooX",
"OooooooooooooooXOooooooooooooooXOooooooooooooooXOooooooooooooooX",
"OooooooooooooooXOooooooooooooooXOooooooooooooooXOooooooooooooooX",
"OooooooooooooooXOooooooooooooooXOooooooooooooooXOooooooooooooooX",
"@OOOOOOOOOOOOOOo@OOOOOOOOOOOOOOo@OOOOOOOOOOOOOOo@OOOOOOOOOOOOOOo",
"Ooo@Ooooooo@OooXOoo@Ooooooo@OooXOoo@Ooooooo@OooXOoo@Ooooooo@OooX",
"@OXooOOOOOXooOOo@OXooOOOOOXooOOo@OXooOOOOOXooOOo@OXooOOOOOXooOOo",
"@OXXOOOOOOXXOOOX@OXXOOOOOOXXOOOX@OXXOOOOOOXXOOOX@OXXOOOOOOXXOOOX",
"@OOOOOOOOOOOOOOo@OOOOOOOOOOOOOOo@OOOOOOOOOOOOOOo@OOOOOOOOOOOOOOo",
"@OOOOOOOOOOOOOOX@OOOOOOOOOOOOOOX@OOOOOOOOOOOOOOX@OOOOOOOOOOOOOOX",
"@OOOOOOOOOOOOOOo@OOOOOOOOOOOOOOo@OOOOOOOOOOOOOOo@OOOOOOOOOOOOOOo",
"@OOOOOOOOOOOOOOo@OOOOOOOOOOOOOOo@OOOOOOOOOOOOOOo@OOOOOOOOOOOOOOo",
"@OOOOOOOOOOOOOOo@OOOOOOOOOOOOOOo@OOOOOOOOOOOOOOo@OOOOOOOOOOOOOOo",
"@OO@oOOOOOO@oOOo@OO@oOOOOOO@oOOo@OO@oOOOOOO@oOOo@OO@oOOOOOO@oOOo",
"@OXooOOOOOXooOOO@OXooOOOOOXooOOO@OXooOOOOOXooOOO@OXooOOOOOXooOOO",
"+OXXOOOOOOXXOOOo+OXXOOOOOOXXOOOo+OXXOOOOOOXXOOOo+OXXOOOOOOXXOOOo",
"@OOOOOOOOOOOOOOO@OOOOOOOOOOOOOOO@OOOOOOOOOOOOOOO@OOOOOOOOOOOOOOO",
"+OOOOOOOOOOOOOOo+OOOOOOOOOOOOOOo+OOOOOOOOOOOOOOo+OOOOOOOOOOOOOOo",
"@OOOOOOOOOOOOOOO@OOOOOOOOOOOOOOO@OOOOOOOOOOOOOOO@OOOOOOOOOOOOOOO",
"+OOOOOOOOOOOOOOo+OOOOOOOOOOOOOOo+OOOOOOOOOOOOOOo+OOOOOOOOOOOOOOo",
"+OOOOOOOOOOOOOOo+OOOOOOOOOOOOOOo+OOOOOOOOOOOOOOo+OOOOOOOOOOOOOOo",
"+OO@oOOOOOO@oOOo+OO@oOOOOOO@oOOo+OO@oOOOOOO@oOOo+OO@oOOOOOO@oOOo",
"+OXooOOOOOXooOOX+OXooOOOOOXooOOX+OXooOOOOOXooOOX+OXooOOOOOXooOOX",
"+OXXOOOOOOXXOOOo+OXXOOOOOOXXOOOo+OXXOOOOOOXXOOOo+OXXOOOOOOXXOOOo",
"+OOOOOOOOOOOOOOX+OOOOOOOOOOOOOOX+OOOOOOOOOOOOOOX+OOOOOOOOOOOOOOX",
"+OOOOOOOOOOOOOOo+OOOOOOOOOOOOOOo+OOOOOOOOOOOOOOo+OOOOOOOOOOOOOOo",
"+OOOOOOOOOOOOOOX+OOOOOOOOOOOOOOX+OOOOOOOOOOOOOOX+OOOOOOOOOOOOOOX",
"+OOOOOOOOOOOOOOX+OOOOOOOOOOOOOOX+OOOOOOOOOOOOOOX+OOOOOOOOOOOOOOX",
"+OOOOOOOOOOOOOOX+OOOOOOOOOOOOOOX+OOOOOOOOOOOOOOX+OOOOOOOOOOOOOOX",
"+OO@oOOOOOO@oOOX+OO@oOOOOOO@oOOX+OO@oOOOOOO@oOOX+OO@oOOOOOO@oOOX",
"+OXooOOOOOXooOOX+OXooOOOOOXooOOX+OXooOOOOOXooOOX+OXooOOOOOXooOOX",
"+OXXOOOOOOXXOOOX+OXXOOOOOOXXOOOX+OXXOOOOOOXXOOOX+OXXOOOOOOXXOOOX",
"+OOOOOOOOOOOOOOX+OOOOOOOOOOOOOOX+OOOOOOOOOOOOOOX+OOOOOOOOOOOOOOX",
"+OOOOOOOOOOOOOOX+OOOOOOOOOOOOOOX+OOOOOOOOOOOOOOX+OOOOOOOOOOOOOOX",
"+OOOOOOOOOOOOOOX+OOOOOOOOOOOOOOX+OOOOOOOOOOOOOOX+OOOOOOOOOOOOOOX",
"+OOOOOOOOOOOOOOX+OOOOOOOOOOOOOOX+OOOOOOOOOOOOOOX+OOOOOOOOOOOOOOX",
"OOOOOOOOOOOOOOOXOOOOOOOOOOOOOOOXOOOOOOOOOOOOOOOXOOOOOOOOOOOOOOOX",
"+OO@oOOOOOO@oOOX+OO@oOOOOOO@oOOX+OO@oOOOOOO@oOOX+OO@oOOOOOO@oOOX",
"OOXooOOOOOXooOOXOOXooOOOOOXooOOXOOXooOOOOOXooOOXOOXooOOOOOXooOOX",
"+OXXOOOOOOXXOOOX+OXXOOOOOOXXOOOX+OXXOOOOOOXXOOOX+OXXOOOOOOXXOOOX",
"OOOOOOOOOOOOOOOXOOOOOOOOOOOOOOOXOOOOOOOOOOOOOOOXOOOOOOOOOOOOOOOX",
"+OOOOOOOOOOOOOOX+OOOOOOOOOOOOOOX+OOOOOOOOOOOOOOX+OOOOOOOOOOOOOOX",
"OOOOOOOOOOOOOOOXOOOOOOOOOOOOOOOXOOOOOOOOOOOOOOOXOOOOOOOOOOOOOOOX",
"OOOOOOOOOOOOOOOXOOOOOOOOOOOOOOOXOOOOOOOOOOOOOOOXOOOOOOOOOOOOOOOX",
"OOOOOOOOOOOOOOOXOOOOOOOOOOOOOOOXOOOOOOOOOOOOOOOXOOOOOOOOOOOOOOOX",
"OOO@oOOOOOO@oOOXOOO@oOOOOOO@oOOXOOO@oOOOOOO@oOOXOOO@oOOOOOO@oOOX",
"OOXooOOOOOXooOOXOOXooOOOOOXooOOXOOXooOOOOOXooOOXOOXooOOOOOXooOOX",
"OOXXOOOOOOXXOOOXOOXXOOOOOOXXOOOXOOXXOOOOOOXXOOOXOOXXOOOOOOXXOOOX",
"OOOOOOOOOOOOOOOXOOOOOOOOOOOOOOOXOOOOOOOOOOOOOOOXOOOOOOOOOOOOOOOX",
"OOOOOOOOOOOOOOOXOOOOOOOOOOOOOOOXOOOOOOOOOOOOOOOXOOOOOOOOOOOOOOOX",
"OOOOOOOOOOOOOOOXOOOOOOOOOOOOOOOXOOOOOOOOOOOOOOOXOOOOOOOOOOOOOOOX",
"OoOOOOOOoOOOOOOXOoOOOOOOoOOOOOOXOoOOOOOOoOOOOOOXOoOOOOOOoOOOOOOX",
"oOOOOOOOOOOOOOOXoOOOOOOOOOOOOOOXoOOOOOOOOOOOOOOXoOOOOOOOOOOOOOOX",
"OOO@oOOOOOO@oOOXOOO@oOOOOOO@oOOXOOO@oOOOOOO@oOOXOOO@oOOOOOO@oOOX",
"oOXooOOoOOXooOOXoOXooOOoOOXooOOXoOXooOOoOOXooOOXoOXooOOoOOXooOOX",
"OOXXOOOOOOXXOOOXOOXXOOOOOOXXOOOXOOXXOOOOOOXXOOOXOOXXOOOOOOXXOOOX",
"OOOOOOOOOOOOOOOXOOOOOOOOOOOOOOOXOOOOOOOOOOOOOOOXOOOOOOOOOOOOOOOX",
".X....X.XXXXXXXX.X....X.XXXXXXXX.X....X.XXXXXXXX.X....X.XXXXXXXX"
};
