/* XPM */
static char *TECH_1C[] = {
/* columns rows colors chars-per-pixel */
"64 64 35 1 ",
"  c black",
". c #110201",
"X c #180401",
"o c #120C0A",
"O c #1B100E",
"+ c #141413",
"@ c #1C1C1B",
"# c #230501",
"$ c #270401",
"% c #2D0501",
"& c #2D0801",
"* c #380901",
"= c #271815",
"- c #2F1C17",
"; c #331817",
": c #321A16",
"> c #28221F",
", c #292A28",
"< c #332320",
"1 c #332422",
"2 c #342726",
"3 c #3F2B27",
"4 c #3F2D28",
"5 c #382B2F",
"6 c #430A01",
"7 c #4F0D01",
"8 c #471F18",
"9 c #4B3633",
"0 c #4B3F38",
"q c #4C3D3B",
"w c #383F40",
"e c #464D4F",
"r c #584641",
"t c #536265",
"y c #62797E",
/* pixels */
"                                                                ",
"eeeeeeeeeeeeeweweeeeeeeeeewewww+ eeeeeeeeeeeeeeeeeeeeeeeeeewewee",
"wwwwwwwwwwwwwwwwwwwwwwwwwwwwwww+ ewwwwwwwwwwwwwwwwwwwwwwwwwwwwww",
"wwwwwwwwwwwwwwwwwwwwwwwwwwwwwww+ ewwwwwwwwwwwwwwwwwwwwwwwwwwwwww",
"wwwwwwwwwwwwwwwwwwwwwwwww5yewww+ ew5yewwwwwwwwwwwwwwwwwwwwwwwwww",
"wwwwwwwwwwwwwwwwwwwwwwwww5eewww+ ew5eewwwwwwwwwwwwwwwwwwwwwwwwww",
"wwwwwwwwwwwwwwwwwwwwwwwww555www+ ew55wwwwwwwwwwwwwwwwwwwwwwwwwww",
"wwwwwwwwwwwwwwwwwwwwwwwwww55www+ ewwwwwwwwwwwwwwwwwwwwwwwwwwwwww",
"eeeeeeeeeeeeeeeeeeeeeeeeee00eee>+yeeeeeeeeeeeeeeeeeeeeeeeeeeeeee",
"wwwwwwwwwwwwwwwwwwwwwwwwww5wwww+ ewwwwwwwwwwwwwwwwwwwwwwwwwwwwww",
"eeeeeeeeeeeeeeeeeeeeeeeeeee0eee>+yeeeeeeeeeeeeeeeeeeeeeeeeeeeeee",
"eeeeeeeeeeeeeeeeeeeeeeeeee0eeee+ yeeeeeeeeeeeeeeeeeeeeeeeeeeeeee",
"eeeeeeeeeeeeeeeeeeeeeeeeeeeeeee>+yeeeeeeeeeeeeeeeeeeeeeeeeeeeeee",
"eeeeeeeeeeeeeeeeeeeeeeeeeeeeeee>+yeeeeeeeeeeeeeeeeeeeeeeeeeeeeee",
"eeeeeeeeeeeeeeeeeeeeeeeeeeeeeee>+yeeeeeeeeeeeeeeeeeeeeeeeeeeeeee",
"eeeeeeeeeeeeeeeeeeeeeeeeeeeeeee>+yeeeeeeeeeeeeeeeeeeeeweeeeeeeee",
"eeeeeeeeeeeeeeeeeeeeeeeeeeeeeee>+yeeeeeeeeeeeeeeeeeeeweeeeeeeeee",
"eeeeeeeeeeeeeeeeeeeeeeeeeeeeeee++teeeeeeeeeeeeeeeeewwteeeeeeeeee",
"eeeeeeeeeeeeeeeeeeeeeeeeeeeeeee>+yeeeeeeeeeeeeeeew5wteeeeeeeeeee",
"eeeeeeeeeeeeeeeeeeeeeeeeeeeeeee++teeeeeeeeeeeew<;<9eeeeweeeeeeee",
"eeeeeeeeeeeeeeeeeeeeeeeeeeeeeee>+yeeeeeeeeeww%&79eeeewweeeeeeeee",
"eeeeeeeeeeeeeeeeeeeeeeeeeeeeeee++teeeeee<&%&76eeeew5wteeeeeeeeee",
"eeeeeeeeeeeeeeeeeeeeeeeeeeeeeee>+teeeeee676*eeeww5<9eeeeeweeeeee",
"eeeeeeeeeeeeeeeeeeeeeeeeeeeeeee++teeeeee3*eeww%&79eeeeewweeeeeee",
"eeeeeeeeeeeeeeeeeeeeeeeeeeeeeee++teeeeeee&&%&76eeeeew22teeeeeeee",
"eeeeeeeeeeeeeeeeeeeeeeeeeeeeeee++teeeeee9776*eeeew&%;qeeeeeeeeee",
"eeeeeeeeeeeeeeeeeeeeeeeeeeeeeee++eeeeeee3**eeww%%&79eeeeeeeeeeee",
"eeeeeeeeeeeeeeeeeeeeeeeeeeeeeee++teeeeeeee&%%&678eeeeeeeeeeeeeee",
"eeeeeeeeeeeeeeeeeeeeeeeeeeeeeee++eeeeeeee67763eeeeeeeeeeeeeeeeee",
"eeeeeeeeeeeeeeeeeeeeeeeeeeeeeee++teeeeeeee**eeeeeeeeeeeeeeeeeeee",
"eeeeeeeeeeeeeeeeeeeeeeeeeeeeeee++eeeeeeee**3eeeeeeeeeeeeeeeeeeee",
"eeeeeeeeeeeeeeeeeeeeeeeeeeeeeee+>eeeeeeee**eeeeeeeeeeeeeeeeeeeee",
"eeeeeeeeeeeeeeeeeeeeeeeeeeeeeee,+eeeeeeee3*eeeeeeeeeeeeeeeeeeeee",
"eeeeeeeeeeeeeeeeeeeeeeeee5yweeeo>ee5yweeee*eeeeeeeeeeeeeeeeeeeee",
"eeeeeeeeeeeeeeeeeeeeeeeee5wweee,+ee5wweeee*eeeeeeeeeeeeeeeeeeeee",
"eeeeeeeeeeeeeeeeeeeeeeeee52eeee+>ee55eeeee*eeeeeeeeeeeeeeeeeeeee",
"eeeeeeeeeeeeeeeeeeeeeeeeeeeeeee->eeeeeeeee*eeeeeeeeeeeeeeeeeeeee",
"yyyyyyyyyyyyyyyyyyyyyyyyyyyyeye,>eyeyyyyyy7eyeyeyyyeyeyeyeyyyyyy",
"                                                                ",
"                                                                ",
"@+ +@+++@+ +@+++@+ +@+++@+ +@+++@+ +@+++@+ .@+++@+ +@+++@+ +@+++",
",+ ,,@+,,+ ,,@+,,+ ,,@+,,+ ,,@+,,+ ,,@+,,+ =,@+,,+ ,,@+,,+ ,,@+,",
",+ ,,@@,,+ ,,@@,,+ ,,@@,,+ ,,@@,,+ ,,@@,,+ #,@@,,+ ,,@@,,+ ,,@@,",
",+ ,,@@,,+ ,,@@,,+ ,,@@,,+ ,,@@,,+ ,,@@,,+ #,@@,,+ ,,@@,,+ ,,@@,",
",@+,,@@,,@+,,@@,,@+,,@@,,@+,,@@,,@+,,@@,,O.#,@@,,@+,,@@,,@+,,@@,",
",+ ,,@@,,+ ,,@@,,+ ,,@@,,+ ,,@@,,+ ,,@@,,. #,@@,,+ ,,@@,,+ ,,@@,",
",@+,,@@,,@+,,@@,,@+,,@@,,@+,,@@,,@+,,@@,,X.#,@@,,@+,,@@,,@+,,@@,",
",@ ,,@@,,@ ,,@@,,@ ,,@@,,@ ,,@@,,@ ,,@@,,X #,@@,,@ ,,@@,,@ ,,@@,",
",@+,,@@,,@+,,@@,,@+,,@@,,@+,,@@,,@+,,@@,,X.#,@@,,@+,,@@,,@+,,@@,",
",@+,,@@,,@+,,@@,,@+,,@@,,@+,,@@,,@+,,@@,,@.#,@@,,@+,,@@,,@+,,@@,",
",++,,@@,,++,@@@,,++,,@@,,++,@@@,,++,,@@,,+.#@@@,,++,,@@,,++,@@@,",
",@+,,@@,,@+,,@@,,@+,,@@,,@+,,@@,,@+,,@@,,O.=,@@,,@+,,@@,,@+,,@@,",
"@+ ,@@@,@+ ,@@@,@+ ,@@@,@+ ,@@@,@+ ,@@@,@o #O@@,@+ ,@@@,@+ ,@@@,",
",++@,@@,,++@,@@,,++@,@@,,++@,@@,,++@,@@,,..X=@@,,++@,@@,,++@,@@,",
"@+ ,@@+,@+ ,@@+,@+ ,@@+,@+ ,@@+,@+ ,@@+=O. #O@+,@+ ,@@+,@+ ,@@+,",
"@  @@+ @@  @@+ @@  @@+ @@  @@+ @@  @@o OX  XXo @@  @@+ @@  @@+ @",
"yyyyyyyyytyyyytytytytyttttttytytytyyyyr7r7777yryyyyyyyyyytyyyyty",
"eeeeeeeeweeeeeeeeeeeeeeeeweeeeeeeeeeeeewe<*4eeeeweweeeeeweeeeeee",
"eweeeeeweeeeeeeeeeeeeeewweeeeeeeeeeeeeeew4*eeeeeeweeeeeweeeeeeee",
"weeyweeeeeeyweeeeeeyweeweeeyweeeeeeyweewee*7weeeweeyweeeeeeyweee",
"ee5wweeeee5wweeeee5wwewewe5wweeeee5wweeeee%&weewee5wweeeee5wweew",
"we55eeeeee55eeeeee55eeewee55eeeeee55eeeeee%%eewwee55eeeeee55eewe",
"eeeeeeeeeeeeeeeeeeeeeeweeeeeeeeeeeeeweeee4**4eweeeeeeeeeeeeeewew",
"5------5-5-5555555-5-5+5+5++++5+5555555&$%$%%$%-5------5-5-55555"
};
