/* XPM */
static char *TILE_2F[] = {
/* columns rows colors chars-per-pixel */
"64 64 62 1 ",
"  c black",
". c #200501",
"X c #2C0801",
"o c #370901",
"O c #3E0A01",
"+ c #3C0D03",
"@ c #3C1006",
"# c #281713",
"$ c #2F1510",
"% c #28221F",
"& c #382927",
"* c #420C01",
"= c #470D01",
"- c #4B0C01",
"; c #4A0D01",
": c #4F0D01",
"> c #4C0E01",
", c #530E01",
"< c #570E02",
"1 c #5E0D01",
"2 c #461A12",
"3 c #531E13",
"4 c #611B0D",
"5 c #44221B",
"6 c #46231D",
"7 c #532016",
"8 c #55241A",
"9 c #53291F",
"0 c #4E2922",
"q c #522A22",
"w c #46342F",
"e c #583129",
"r c #4A3834",
"t c #4E3A37",
"y c #6F3529",
"u c #53413D",
"i c #6C4130",
"p c #66473B",
"a c #794C39",
"s c #383F40",
"d c #464D4F",
"f c #574440",
"g c #5B4845",
"h c #4E595A",
"j c #794F43",
"k c #62504C",
"l c #715248",
"z c #675450",
"x c #785750",
"c c #616257",
"v c #79735E",
"b c #536265",
"n c #5B6F73",
"m c #666A62",
"M c #62797E",
"N c #7C9193",
"B c #888D82",
"V c #89928C",
"C c #93968B",
"Z c #869A9C",
"A c #9BACAA",
"S c #A1A9A3",
/* pixels */
"ASVCCvvvvvvvbhd  %%s%sshBBvvbhd%ASVCCvvvvvvvbhd AZZZMMMccBvvbhd ",
"Zmbbbvmmbbbmmbh%ZBBBvvBBmbbbhbh%Zmbbbvmmbbbmmbh%CmbbbbvMbbbbhbh%",
"MbbbvmbbbbmmbbbsZmbbbvmmbbbbbhbsMbbbvmbbbbmmbbbsmbbbmvbbbbbbbhbs",
"MbbMbbmbmmmbbbd%Zbbbvmbbbbbbbbb%MbbMbbmbmmmbbbd%vbbMMbbbbbbbbbb%",
"MbmMbmbmmbbbbbdsMbbMbbbbbbbbbbh%MbmMbmbmmbbbbbdsvbvbbbbbbbbbbbh%",
"MbvbbbmbbbbbbdbsMbmMbmbbbbbbnds%Mbvbbbmbbbbbbdbsvvmbbbbbbbbbnds%",
"MvbbbmbbbbhbhbbsMvmbmbmbbbbnddssMvbbbmbbbbhbhbbsMvmbmbmbbbbnddss",
"cMbbbbbbbbdbbbbsBvmmbmbbbbnndds%cMbbbbbbbbdbbbbsBvmmbmbbbbnndds%",
"cbbbbbbbbddbbbbsBvmbmmbbbnddhdsscbbbbbbbbddbbbbsBvmbmmbbbnddhdss",
"dbbbbbbbndhbhbbsvmbbbbbhbdhbbhdsdbbbbbbbndhbhbbsvmbbbbbhbdhbbhds",
"ddbbbbbndhbhbbbsmbbbbbhbhhbbbbdsddbbbbbndhbhbbbXmbbbbbhbhhbbbbds",
"ddbbbbndhbhbhbbsbbbbbhbhbbbbbbbsddbbbbndhbhbhbbXbbbbbhbhbbbbbbbs",
"dhbbbndhbhbbbbb%bbbbhbhbbbbbbbb%dhbbbndhbhbbbbb.bbbbhbhbbbbbbbb%",
"hbbndddbbbbbbbh%hbbbbbbbbbbbbbh.hbbndddbbbbbbbh.hbbbbbbbbbbbbbh%",
"hdddddhbbddhbbd hdddbbbbbddhbbw.hdw66whbbddhbbd.hdddbbbbbddhbbd ",
" %%%s%sssss%s%  %%%%s%ssXXX.X.. ....X.XXXXX.X..  ..%s%sssss%s%  ",
"ACmvvvvvvvvvbhd%NBmvvmdsdddMMt6.<ezZMMM;cddddhh NNMMMdsddhhhddd ",
"Zmbbbvmmbbbmmbh%NmbbMmbmsdMmmb0.lmbbbb1:*bd6thb.Bmbbbbdshbbbbhd%",
"ZbbbvmbbbbmmbbbsMbbMmbmmsdNmbbuXmbbbma*39bb*hbt.mbbMbbhdbbbbhbh%",
"ZbbMbbbbmmmbmbd%MbMbbmbbMdMbbbd.vbbMk**::*bbbh0.vbMbbbbdbbbbbhb%",
"MbmMbbbmmmbmbbdsMbbbbbbbbMMbbbdXvba7**:,;*ubh*OXvMmbbbhbdbbbbbhs",
"MbvbbbbbmbmbbdbsdbbbbbbbbbMbbbbXv1:**:;****0uOo.mmbmbbbhdbbbbbb%",
"MvbbbbbmbbbbhbbssdhbhbbbbhbbbbbXvmu*********=ooXdbmbbbbbdbhbbbbs",
"cMbbbbbbbbbbbbbsdsddbhbhhbhbbbbXimu*:*:*****=o7X&mmbbbbhhdbbbbbs",
"cbbbbbbbbbbbbbhsdhbbdddhbbbbbbbX4bb:::*****gdt6X2ssMbbbhbbhbbbns",
"dbbbbbbbbbbbbhhshbbbbbbdbbbbbbbXibbp:***ubbndduX6dddMbhbbbbbbnds",
"ddbbbbbbbbbhdddshbbbbbhbhbbnbbb.vbp:*:*uubb@dbdXwMNMMMbhbbbnnhds",
"ddbbbhbbnnhdbhbshbbbbbbbbbnhhbh.vp:*:***bbhwudb.kmmbbbbbbbnhhbh%",
"dhhbhbnndddbhbh%dbhbbbbbbbnhbbs.bmb:**tubbdb+bhXkmbbbbbbbbbhbhhs",
"hhbhbhddhdbdbhh%dhbhbbbbbnhbhh% t*bbuo*ubhdhbhu.hbbbbbbbbbbbbhs%",
"hbhhhddbdbdbhbd%ddhbhbbbnddhhs  oO*wo**bttdbt0o.dhbddbbbbbbhs%% ",
"%%%%s%sssss%s%% %%%%s%ssssX.X.. ..X.XXXXXX$X..  ..s%ssssss%% %  ",
"ASVCCvvvvvvvbhd%ACmvvvvvvvvvbhd. xyyqffjBi85rhh. %%s%sshBBvvbhd ",
"Zmbbbvmmbbbmmbh%Zmbbbvmmbbbmmbh.#Bmbbbvvvmbbbbd ZBBBvvBBmbbbhbh%",
"MbbbvmbbbbmmbbbsZbbbvmbbbbmmbbbX%Bbbbmmmmbbbbbd.Zmbbbvmmbbbbbhbs",
"MbbMbbmbmmmbbbd%ZbbMbbbbmmmbmbd.sBbbMMbmbbbbbbd.Zbbbvmbbbbbbbbb%",
"MbmMbmbmmbbbbbdsMbmMbbbmmmbmbbdX%vbvbbmbmbbbhbbXMbbMbbbbbbbbbbh%",
"MbvbbbmbbbbbbdbsMbvbbbbbmbmbbdbssvvmbmbmmbbhbbb.MbmMbmbbbbbbnds%",
"MvbbbmbbbbhbhbbsMvbbbbbmbbbbhbbXsBmbbbmbbbhbhbbXMvmbmbmbbbbnddss",
"cMbbbbbbbbdbbbbscMbbbbbbbbbbbbbshBmbbbbbbhbhbbbXBvmmbmbbbbnndds%",
"cbbbbbbbbddbbbbscbbbbbbbbbbbbbhsBmbbbbbbbbhbbbbXBvmbmmbbbnddhdss",
"dbbbbbbbndhbhbbsdbbbbbbbbbbbbhhsBbbbbbbbndhbbbdsvmbbbbbhbdhbbhds",
"ddbbbbbndhbhbbbsddbbbbbbbbbhdddsvbbbbbbndhbbbbdsmbbbbbhbhhbbbbds",
"ddbbbbndhbhbhbbsddbbbhbbnnhdbhbsvbbbbbnndbbbbbh%bbbbbhbhbbbbbbbs",
"dhbbbndhbhbbbbb%dhhbhbnndddbhbh%bhbbbnddhbbbbbbsbbbbhbhbbbbbbbb%",
"hbbndddbbbbbbbh%hhbhbhddhdbdbhh%hbhbbddddhbbbbb%hbbbbbbbbbbbbbh%",
"hdddddhbbddhbbd hbhhhddbdbdbhbd%dhbbhssssddbbhd%hdddbbbbbddhbbd%",
"%%%%s%sssss%s%% %%%%s%sssss%s%% %%s%%%s%ssss%%% %%%%s%sssss%s%% ",
"ACmvvvvvvvvvbhd%AZMMMMMccddddhh ACmvvvvvvvvvbhd%NBmvvmdsdddMMhd%",
"Zmbbbvmmbbbmmbh%SmbbbbvMbbddhbd%Zmbbbvmmbbbmmbh%NmbbMmbmsdMmmbh%",
"ZbbbvmbbbbmmbbbsVbbbmvbbbbbbbbd%ZbbbvmbbbbmmbbbsMbbMmbmmsdNmbbbs",
"ZbbMbbbbmmmbmbd%CbbMMbbbbbbbbnd%ZbbMbbbbmmmbmbd%MbMbbmbbMdMbbbd%",
"MbmMbbbmmmbmbbdsCbvbbbbbbbbbbddsMbmMbbbmmmbmbbdsMbbbbbbbbMMbbbds",
"Mbvbbbbbmbmbbdbsvvmbmbmbbbbbndd%MbvbbbbbmbmbbdbsdbbbbbbbbbMbbbbs",
"MvbbbbbmbbbbhbbsvmbmbmbbbbbnddhsMvbbbbbmbbbbhbbssdhbhbbbbhbbbbbs",
"cMbbbbbbbbbbbbbsvmbbmbbbbbndhbbscMbbbbbbbbbbbbbsdsddbhbhhbhbbbbs",
"cbbbbbbbbbbbbbhsvbbmmbbbbndhbbbscbbbbbbbbbbbbbhsdhbbdddhbbbbbbbs",
"dbbbbbbbbbbbbhhsvbbmbbbbddhbhbdsdbbbbbbbbbbbbhhshbbbbbbdbbbbbbbs",
"ddbbbbbbbbbhdddsvbmmbbhddhbhbbdsddbbbbbbbbbhdddshbbbbbhbhbbnbbb%",
"ddbbbhbbnnhdbhbsvmmbbbbbbbhbbbh%ddbbbhbbnnhdbhbshbbbbbbbbbnhhbh%",
"dhhbhbnndddbhbh%bmbbbbhbbhbhbbbsdhhbhbnndddbhbh%dbhbbbbbbbnhbbs%",
"hhbhbhddhdbdbhh%hbbbbdbbbbbbbbb%hhbhbhddhdbdbhh%dhbhbbbbbnhbhh%%",
"hbhhhddbdbdbhbd%dhbddbbbbbbbbhd%hbhhhddbdbdbhbd%ddhbhbbbnddhhs% ",
"%%%%s%sssss%s%%  %s%ssssssss%%% %%%%s%sssss%s%% %%%%s%sssss%s%% "
};
