/* XPM */
static char *VENT_1B[] = {
/* columns rows colors chars-per-pixel */
"64 64 13 1 ",
"  c black",
". c #141413",
"X c #1C1C1B",
"o c #2F1C17",
"O c #28221F",
"+ c #292A28",
"@ c #382B2F",
"# c #4B3F38",
"$ c #383F40",
"% c #464D4F",
"& c #536265",
"* c #62797E",
"= c #889C9E",
/* pixels */
"                                                                ",
"%%%%%%%%%$%$%$%$$$. %%%%%%$%%%%%%%%%$%$%$$$$  $$%$%$%%%%%%%$%$%%",
"$$$$$$$$$$$$$$$$$$. %$$$$$$$$$$$$$$$$$$$$$$$  $$$$$$$$$$$$$$$$$$",
"$$$$$$$$$$$$$$$$$$. %$*$$$$$$$$$$$$$$$$$$*$$  $$$$$$$$$$$$$$$$$$",
"$$$$$$$$$$$$@*%$$$. %@$$$$$$$$$$$$$$$$$$@$$$  $$@*%$$$$$$$$$$$$$",
"$$$$$$$$$$$$@%%$$$. %$$$$$$$$$$$$$$$$$$$$$$$ .$$@%%$$$$$$$$$$$$$",
"$$$$$$$$$$$$@@$$$$. %$$$$$$$$$$$$$$$$$$$$$$$. $$@@$$$$$$$$$$$$$$",
"$$$$$$$$$$$$$$$$$$. %$$$$$$$$$$$$$$$$$$$$$$$ .$$$$$$$$$$$$$$$$$$",
"%%%%%%%%%%%%%%%%%%O.%$$$$$$$$$$$$$$$$$$$$$$$. %%%%%%%%%%%%%%%%%%",
"$$$$$$$$$$$$$$$$$$. %$$$$$$$$$$$$$$$$$$$$$$$ .$$$$$$$$$$$$$$$$$$",
"%%%%%%%%%%%%%%%%%%O.*%%%%%%%%%%%%%%%%%%%%%%%. %%%%%%%%%%%%%%%%%%",
"%%%%%%%%%%%%%%%%%%. %$$$$$$$$$$$$$$$$$$$$$$$ O%%%%%%%%%%%%%%%%%%",
"%%%%%%%%%%%%%%%%%%O.*%%%%%%%%%%%%%%%%%%%%%%%O.%%%%%%%%%%%%%%%%%%",
"%%%%%%%%%%%%%%%%%%O.*%%%%&&&&&&&&&&&&&&%%%%%.O%%%%%%%%%%%%%%%%%%",
"%%%%%%%%%%%%%%%%%%O.*%%%&==*=****&*&***&%%%%O.%%%%%%%%%%%%%%%%%%",
"%%%%%%%%%%%%%%%%%%O.*%%%$+@++++X+X+XX++$%%%%.O%%%%%%%%%%%%%%%%%%",
"%%%%%%%%%%%%%%%%%%O.*%%%&*&&&&&&&&&&&&&&%%%%O.%%%%%%%%%%%%%%%%%%",
"%%%%%%%%%%%%%%%%%%..*%%%$@@@@+++X+X++++$%%%%.O%%%%%%%%%%%%%%%%%%",
"%%%%%%%%%%%%%%%%%%O.*%%%&*&&&&&&&&&&&&&&%%%%OO%%%%%%%%%%%%%%%%%%",
"%%%%%%%%%%%%%%%%%%..*%%%$@@+@+@++XXX@X+$%%%%.O%%%%%%%%%%%%%%%%%%",
"%%%%%%%%%%%%%%%%%%O.*%%%&*&&&&&&&&&&&&&&%%%%OO%%%%%%%%%%%%%%%%%%",
"%%%%%%%%%%%%%%%%%%..%%%%$XXXX+X++@X@@@@$%%%%.O%%%%%%%%%%%%%%%%%%",
"%%%%%%%%%%%%%%%%%%O.*%%%&*&&&&&&&&&&&&&&%%%%OO%%%%%%%%%%%%%%%%%%",
"%%%%%%%%%%%%%%%%%%..%%%%$+++X+XXXX@X@XX$%%%%.O%%%%%%%%%%%%%%%%%%",
"%%%%%%%%%%%%%%%%%%..*%%%%###%%%%######%%%%%%.O%%%%%%%%%%%%%%%%%%",
"%%%%%%%%%%%%%%%%%%..%%%%%###%%%%%####%%%%%%%.O%%%%%%%%%%%%%%%%%%",
"%%%%%%%%%%%%%%%%%%..*%%%%%##%%%%%###%%%%%%%%.O%%%%%%%%%%%%%%%%%%",
"%%%%%%%%%%%%%%%%%%..%%%%%%#%%%%%%##%#%%%%%%%OO%%%%%%%%%%%%%%%%%%",
"%%%%%%%%%%%%%%%%%%..%%%%%%%#%%%%%###%%%%%%%%.O%%%%%%%%%%%%%%%%%%",
"%%%%%%%%%%%%%%%%%%..%%%%%%#%%%%%%%#%%%%%%%%%OO%%%%%%%%%%%%%%%%%%",
"%%%%%%%%%%%%%%%%%%..%%%%%%%%%%%%%##%%%%%%%%%.O%%%%%%%%%%%%%%%%%%",
"%%%%%%%%%%%%%%%%%%.O%%%%%%%%%%%%%%#%%%%%%%%%OO%%%%%%%%%%%%%%%%%%",
"%%%%%%%%%%%%%%%%%%O.%%%%%%%%%%%%%%#%%%%%%%%%OO%%%%%%%%%%%%%%%%%%",
"%%%%%%%%%%%%@*$%%%.O%%%%%%%%%%%%%%%%%%%%%%%%OO%%@*$%%%%%%%%%%%%%",
"%%%%%%%%%%%%@$$%%%O.%%%%%%%%%%%%%%#%%%%%%%%%OO%%@$$%%%%%%%%%%%%%",
"%%%%%%%%%%%%@@%%%%.O%%%%%%%%%%%%%%%%%%%%%%%%OO%%@@%%%%%%%%%%%%%%",
"%%%%%%%%%%%%%%%%%%OO%%*%%%%%%%%%%%%%%%%%%*%%OO%%%%%%%%%%%%%%%%%%",
"***************%*%OO%@%%%%%%%%%%%%%%%%%%@%%%OO%*%****%*%*%******",
"                   O%%%%%%%%%%%%%%%%%%%%%%%%O                   ",
"                    %%******************%*%%                    ",
"X. .X. .X...X. .X.                             .X...X...X. .X...",
"+. ++. ++X.++. ++X.                          . ++X.++X.++. ++X.+",
"+. ++. ++XX++. ++XX+X...X. .X...X. .X...X. .X. ++XX++XX++. ++XX+",
"+. ++. ++XX++. ++XX++XX++. ++XX++. ++XX++. ++. ++XX++XX++. ++XX+",
"+X.++X.++XX++X.++XX++XX++X.++XX++X.++XX++X.++X.++XX++XX++X.++XX+",
"+. ++. ++XX++. ++XX++XX++. ++XX++. ++XX++. ++. ++XX++XX++. ++XX+",
"+X.++X.++XX++X.++XX++XX++X.++XX++X.++XX++X.++X.++XX++XX++X.++XX+",
"+X ++X ++XX++X ++XX++XX++X ++XX++X ++XX++X ++X ++XX++XX++X ++XX+",
"+X.++X.++XX++X.++XX++XX++X.++XX++X.++XX++X.++X.++XX++XX++X.++XX+",
"+X.++X.++XX++X.++XX++XX++X.++XX++X.++XX++X.++X.++XX++XX++X.++XX+",
"+..++..+XXX++..++XX++XX++..+XXX++..++XX++..++..+XXX++XX++..+XXX+",
"+X.++X.++XX++X.++XX++XX++X.++XX++X.++XX++X.++X.++XX++XX++X.++XX+",
"X. +X. +XXX+X. +XXX+XXX+X. +XXX+X. +XXX+X. +X. +XXX+XXX+X. +XXX+",
"+..X+..X+XX++..X+XX++XX++..X+XX++..X+XX++..X+..X+XX++XX++..X+XX+",
"X. +X. +XX.+X. +XX.+XX.+X. +XX.+X. +XX.+X. +X. +XX.+XX.+X. +XX.+",
"X  XX  XX. XX  XX. XX. XX  XX. XX  XX. XX  XX  XX. XX. XX  XX. X",
"*********&****&*&*&*&*&&&&&&*&*&*&***********************&****&*",
"%%%%%%%%$%%%%%%%%%%%%%%%%$%%%%%%%%%%%%%$%$%%%%%%$%$%%%%%$%%%%%%%",
"%$%%%%%$%%%%%%%%%%%%%%%$$%%%%%%%%%%%%%%%$%%%%%%%%$%%%%%$%%%%%%%%",
"$%%*$%%%%%%*$%%%%%%*$%%$%%%*$%%%%%%*$%%$%%%*$%%%$%%*$%%%%%%*$%%%",
"%%@$$%%%%%@$$%%%%%@$$%$%$%@$$%%%%%@$$%%%%%@$$%%$%%@$$%%%%%@$$%%$",
"$%@@%%%%%%@@%%%%%%@@%%%$%%@@%%%%%%@@%%%%%%@@%%$$%%@@%%%%%%@@%%$%",
"%%%%%%%%%%%%%%%%%%%%%%$%%%%%%%%%%%%%$%%%%%%%%%$%%%%%%%%%%%%%%$%$",
"@oooooo@o@o@@@@@@@o@o@.@.@....@.@@@@@@@@o@o@@o@o@oooooo@o@o@@@@@"
};
