/* XPM */
static char *PLSPA0[] = {
/* columns rows colors chars-per-pixel */
"50 28 39 1 ",
"  c black",
". c #070707",
"X c #0B0B0B",
"o c #131313",
"O c #1B1B1B",
"+ c #232323",
"@ c #272727",
"# c #2F2F2F",
"$ c #373737",
"% c gray23",
"& c #434343",
"* c gray28",
"= c #4B4B4B",
"- c gray31",
"; c gray34",
": c #5B5B5B",
"> c gray39",
", c gray42",
"< c #6F6F6F",
"1 c gray50",
"2 c #838383",
"3 c #8B8B8B",
"4 c #939393",
"5 c #979797",
"6 c #9F9F9F",
"7 c #A7A7A7",
"8 c gray67",
"9 c gray70",
"0 c #B7B7B7",
"q c gray75",
"w c gray78",
"e c #CBCBCB",
"r c LightGray",
"t c gray86",
"y c #DFDFDF",
"u c #E7E7E7",
"i c #EFEFEF",
"p c white",
"a c None",
/* pixels */
"aaa  aaaaaaaaaaaaaaaaaaaaaaaaaaaaaaaaaaaaaaaaaaaaa",
"aaa66aaaaaaaaaaaaaaaaaaaaaaiXaaaaaaaaaaaaaaaaaaaaa",
"aaa6eaaaaaaaaaaaaaaaaaae7qeeq@aaaaaaaaaaaaaaaaaaaa",
"aaaruiiuuiuuppppppaaaaqu-.oo=taaaaaaaaaaaaaaaaaaaa",
"aaa&&&&&&&&&7tyuuuuuyi,:*OOOOeeriiiiiiiiiiiiaaaaaa",
"aa2>58708981:qqqqq0946$&&#@@@*,700rtttii9&$&itaaaa",
"aa=,O,+,#>#%$$$$#####+$uww88837:e7<#####@@+++60aaa",
"aa@>O>@:+:+23iipppiiiuyte6666098->:-*&*245O++@;< a",
"aaO$O#O#O$O2eiuuuuiiiite6    6q80wwqq8777887442@o ",
"aaoOOo..X.X6666eyyyyyut6 =89# 9988q77680996522#Oo.",
"aa.       o,,>>><<>:>;-  req3 ==-$::::;;#$&$#@@Oo.",
"aa   .XXo@  >------->:o  eee5       ..Oo.    ##OX.",
"aa XOO+@@O@         o@OO &ee* oO@o@@##$OX.+@o##Oo ",
"a  oOXXoOOoo++O++@O OO+@o    oo#o.  .#%#o..@###OX.",
"a  OOOOOO.          .+++@ooXoX#..aaX .+@@o..##@@o.",
"   aaaaaaXXX  aaaaaa.@@@@@+OO@ ..aaaX o@#OX .#@@o.",
"  aaaaaaaaa    aaaaa      ###O .X  aaO O+#X   +@o.",
"  aaaaaaaaa    aaaaa.      oo.X.XXXaaaaXXX ..OO@o.",
"aaaaaaaaaaa    aaaaa  .......aa@Oo..aaaa @ Xo@+oO.",
"aaaaaaaaaaaaOo Xaaaaaaaa.@X.oOaa@+X.Xaaaa.X+#@@oo.",
"aaaaaaaaaaaa@o  aaaaaaaaaoX@oO.aa#@..Xaaa o+#@Ooo ",
"aaaaaaaaaaaaaOo oaaaaaaaaaX@OXoOaa X...aa .O+oOOaa",
"aaaaaaaaaaaaaOO. aaaaaaaaaaXX@OXoaao X aaa  XXaaaa",
"aaaaaaaaaaaaa@O. aaaaaaaaaaaooOoXoo X aaaaaaaaaaaa",
"aaaaaaaaaaaaaaOXaaaaaaaaaaaaaXo+oX   aaaaaaaaaaaaa",
"aaaaaaaaaaaaaaaaaaaaaaaaaaaaaaX@ o  aaaaaaaaaaaaaa",
"aaaaaaaaaaaaaaaaaaaaaaaaaaaaaaXXo.@aaaaaaaaaaaaaaa",
"aaaaaaaaaaaaaaaaaaaaaaaaaaaaaaaa @aaaaaaaaaaaaaaaa"
};
