/* XPM */
static char *_3_fps_zombie_WALK_crop[] = {
/* columns rows colors chars-per-pixel */
"85 167 15 1 ",
"  c black",
". c #010000",
"X c #01070A",
"o c #01070B",
"O c #1C0000",
"+ c #1D0000",
"@ c #063938",
"# c #460100",
"$ c #470100",
"% c #1D5D5B",
"& c #960D00",
"* c #F30802",
"= c #F30803",
"- c #DFB77B",
"; c None",
/* pixels */
";;;;;;;;;;;;;;;;;;;;;;;;;;;;;;;;;;;;;;;;;;;;;;;;;;;;;;;;;;;;;;;;;;;;;;;;;;;;;;;;;;;;;",
";;;;;;;;;;;;;;;;;;;;;;;;;;;;;;;;;;;;;;;;;;;;;;;;;;;;;;;;;;;;;;;;;;;;;;;;;;;;;;;;;;;;;",
";;;;;;;;;;;;;;;;;;;;;;;;;;;;;;;;;;;;;;;;;;;;;;;;;;;;;;;;;;;;;;;;;;;;;;;;;;;;;;;;;;;;;",
";;;;;;;;;;;;;;;;;;;;;;;;;;;;;;;;;;;;;;;  ;;;;;;;;;;;;;;;;;;;;;;;;;;;;;;;;;;;;;;;;;;;;",
";;;;;;;;;;;;;;;;;;;;;;;;;;;;;;;;;;;;;;; @ ;;;;;;;;;;;;;;;;;;;;;;;;;;;;;;;;;;;;;;;;;;;",
";;;;;;;;;;;;;;;;;;;;;;;;;;;;;;;;;;;;;; XXX  ;;;;;;;;;;;;;;;;;;;;;;;;;;;;;;;;;;;;;;;;;",
";;;;;;;;;;;;;;;;;;;;;;;;;;;;;;;;;;;;;; XXXXX  ;;;;;;;;;;;;;;;;;;;;;;;;;;;;;;;;;;;;;;;",
";;;;;;;;;;;;;;;;;;;;;;;;;;;;;;;;    ; XXXXXXXX  ;;;;;;;;;;;;;;;;;;;;;;;;;;;;;;;;;;;;;",
";;;;;;;;;;;;;;;;;;;;;;;;;; ;;;;;;  X XXXXXXXXXXX  ;;;;;;;;;;;;;;;;;;;;;;;;;;;;;;;;;;;",
";;;;;;;;;;;;;;;;;;;;;;;;;;  ;; ; ;; XXXXXXXXXXXXXX ;;;;;;;;;;;;;;;;;;;;;;;;;;;;;;;;;;",
";;;;;;;;;;;;;;;;;;;;;;;;;; &  * =  =XXXXXXXXXXXXXXX  ;;;;;;;;;;;;;;;;;;;;;;;;;;;;;;;;",
";;;;;;;;;;;;;;;;;;;;;;;;;; &&***====XXXXXXXXXXXXXXXX ;;;;;;;;;;;;;;;;;;;;;;;;;;;;;;;;",
";;;;;;;;;;;;;;;;;;;;;;;;;; &****===XXXXXXXXXXXXXXXXXX ;;;;;;;;;;;;;;;;;;;;;;;;;;;;;;;",
";;;;;;;;;;;;;;;;;;;;;;;;;; -****==@XXXXXXXXXXXXXXXXXXX ;;;;;;;;;;;;;;;;;;;;;;;;;;;;;;",
";;;;;;;;;;;;;;;;;;;;;;;;; -*****=XXXXXXXXXXXXXXXXXXXXX ;;;;;;;;;;;;;;;;;;;;;;;;;;;;;;",
";;;;;;;;;;;;;;;;;;;;;;;;; #*****%XXXXXXXXXXXXXXXXXXXXX ;;;;;;;;;;;;;;;;;;;;;;;;;;;;;;",
";;;;;;;;;;;;;;;;;;;;;;;;; *****%%%XXXXXXXXXXXXXXXXXXXX ;;;;;;;;;;;;;;;;;;;;;;;;;;;;;;",
";;;;;;;;;;;;;;;;;;;;;;;; &%*%*%%%%%XXXXXXXXXXXXXXXXXX ;;;;;;;;;;;;;;;;;;;;;;;;;;;;;;;",
";;;;;;;;;;;;;;;;;;;;;;;; &%&%%%%#&%XXXXXXXXXXXXXXXXXX ;;;;;;;;;;;;;;;;;;;;;;;;;;;;;;;",
";;;;;;;;;;;;;;;;;;;;;;;; &%%%%%%&&X%XXXXXXXXXXXXXXXXXX    ;;;;;;;;;;;;;;;;;;;;;;;;;;;",
";;;;;;;;;;;;;;;;;;;;;;;; &%%%%%%&&%%@XXXXXXXXXXXXXXXXXXXX ;;;;;;;;;;;;;;;;;;;;;;;;;;;",
";;;;;;;;;;;;;;;;;;;;;;;  &@%@@@%@%@%@@XXXXXXXXXXXXXXXXX  ;;;;;;;;;;;;;;;;;;;;;;;;;;;;",
";;;;;;;;;;;;;;;;;;;;;;; &&%@@@@@%%%%%%@@XXXXXXXXXXXXX  ;;;;;;;;;;;;;;;;;;;;;;;;;;;;;;",
";;;;;;;;;;;;;;;;;;;;;;; #&@@@@@@@%@%@%@@@XXXXXXXXXX  ;;;;;;;;;;;;;;;;;;;;;;;;;;;;;;;;",
";;;;;;;;;;;;;;;;;;;;;;; &&%@@@@%%%%%%@@@@@@XXXXXXX ;;;;;;;;;;;;;;;;;;;;;;;;;;;;;;;;;;",
";;;;;;;;;;;;;;;;;;;;;;; $&@@@@@%@%@%@=@@@@@@@XXXXXX    ;;;;;;;;;;;;;;;;;;;;;;;;;;;;;;",
";;;;;;;;;;;;;;;;;;;;;;; &&@@@@@@%%%@&=@@@@@@@@@@@@X# ##   ;;;;;;;;;;;;;;;;;;;;;;;;;;;",
";;;;;;;;;;;;;;;;;;;;;; &&=@@@@@@@@@&==$@@@@@@@@@@ X# #### ;;;;;;;;;;;;;;;;;;;;;;;;;;;",
";;;;;;;;;;;;;;;;;;;;; &&==@@@@@@@@#====@@@@@@@@@@ X# $### ;;;;;;;;;;;;;;;;;;;;;;;;;;;",
";;;;;;;;;;;;;;;;;;;;  $=&&@@@@@@@@&===&@@@@@@@@@# + #$#### ;;;;;;;;;;;;;;;;;;;;;;;;;;",
";;;;;;;;;;;;;;;;;;; $ &==@@@@@@@@@&==&#@@@@@@@@### ####### ;;;;;;;;;;;;;;;;;;;;;;;;;;",
";;;;;;;;;;;;;;;;;; # ##=&@@@@@@@@@&==#@@@@@@@@@########### ;;;;;;;;;;;;;;;;;;;;;;;;;;",
";;;;;;;;;;;;;;;;; ## &&*%@&*X@@@@@&*@@@@@@@@@+############ ;;;;;;;;;;;;;;;;;;;;;;;;;;",
";;;;;;;;;;;;;;;; #+# #&&@@X*&*X@@@#*@@@@@@X+X+############ ;;;;;;;;;;;;;;;;;;;;;;;;;;",
";;;;;;;;;;;;;;; ### #@%%%@&*X**&@@==@@@@@+++############### ;;;;;;;;;;;;;;;;;;;;;;;;;",
";;;;;;;;;;;;;; ###+ +%%%%%#***&&X@=@@@@@@ ################# ;;;;;;;;;;;;;;;;;;;;;;;;;",
";;;;;;;;;;;;; ##### +@%%%%%%@***=@=@@@@@+ ################# ;;;;;;;;;;;;;;;;;;;;;;;;;",
";;;;;;;;;;;; #####+# +X%%%%%%%@@@%=@@@@@ #########O######## ;;;;;;;;;;;;;;;;;;;;;;;;;",
";;;;;;;;;;; #########  +%%%%%%%%%%%@@@@+ ########OOO####### ;;;;;;;;;;;;;;;;;;;;;;;;;",
";;;;;;;;;; #########+## +@@%%%%%%=%@@@X $#######OOOO+####### ;;;;;;;;;;;;;;;;;;;;;;;;",
";;;;;;;;; ############O# ++@@%%%%=%%@@+ #########OOO+####### ;;;;;;;;;;;;;;;;;;;;;;;;",
";;;;;;;;; ############O## ++XXXXX@@@@+ #########OOOO+######## ;;;;;;;;;;;;;;;;;;;;;;;",
";;;;;;;; ##############O##  +%  =     ##########OOOO+######## ;;;;;;;;;;;;;;;;;;;;;;;",
";;;;;;; ################++##  X = #############+OOOOO######### ;;;;;;;;;;;;;;;;;;;;;;",
";;;;;; ##################++O++X  X$$###########+OOOOO######## ;;;;;;;;;;;;;;;;;;;;;;;",
";;;;;; ###################OO++ = ++############+OOOOO######## ;;;;;;;;;;;;;;;;;;;;;;;",
";;;;;; #####################$+  ++#############OOOOOO#########  ;;;;;;;;;;;;;;;;;;;;;",
";;;;; ######################$ & +###############OOOOOO+######## ;;;;;;;;;;;;;;;;;;;;;",
";;;;; ####################### = #################+ ++O########## ;;;;;;;;;;;;;;;;;;;;",
";;;;; #######################  $################+ ; +OO######## ;;;;;;;;;;;;;;;;;;;;;",
";;;; ####################### = $#######&&####### ;; OO######### ;;;;;;;;;;;;;;;;;;;;;",
";;;; &&+++######+########### = $#######&&####### ;; O######### ;;;;;;;;;;;;;;;;;;;;;;",
";;;; &&%%@%    +O########## = #########&&####### ;; O+######### ;;;;;;;;;;;;;;;;;;;;;",
";;;; %%%@@ ;;;; OOO#O#O### == #########&&####### ;;;  +######@@ ;;;;;;;;;;;;;;;;;;;;;",
";;;;; %%%% ;;;;; +OOOO##$$ == $########&&###### ;;;;;; +#O+@@%% ;;;;;;;;;;;;;;;;;;;;;",
";;;;; %%%% ;;;;; +OOOOOO+ ==.&$$#######&&#####+ ;;;;;;; O+@@@%%% ;;;;;;;;;;;;;;;;;;;;",
";;;;; %%% ;;;;;;; +OOO+++ ** &#####&&##&&###### ;;;;;;; XX@@@%%% ;;;;;;;;;;;;;;;;;;;;",
";;;;; %%% ;;;;;;; OOOOO+ *** #####&&########+## ;;;;;;;; @@@@%%% ;;;;;;;;;;;;;;;;;;;;",
";;;;; %%% ;;;;;;;; +OO++ *** $#$$#&&&########## ;;;;;;;;; @@@%%%% ;;;;;;;;;;;;;;;;;;;",
";;;;; %%% ;;;;;;;; ++++ =**- &#$#&&&&&######### ;;;;;;;;; @@@%%%%% ;;;;;;;;;;;;;;;;;;",
";;;;; %%% ;;;;;;;; +O+ ----- &&&&&&&&&######### ;;;;;;;;;; @@%%%%% ;;;;;;;;;;;;;;;;;;",
";;;;; %%% ;;;;;;;; ++ ------- $&&&&&&&&######## ;;;;;;;;;;; @@%%%% ;;;;;;;;;;;;;;;;;;",
";;;;; %%% ;;;;;;;; O -------- &&&&==&=&######## ;;;;;;;;;;; @@%%%%% ;;;;;;;;;;;;;;;;;",
";;;;; %%% ;;;;;;;; + --------% &&===&&&######### ;;;;;;;;;; @@@%%%% ;;;;;;;;;;;;;;;;;",
";;;;; %%% ;;;;;;;; + --------- *&**&&&&######### ;;;;;;;;;; @@%%%%% ;;;;;;;;;;;;;;;;;",
";;;;; %%% ;;;;;;;; O %------- **&&&&&&########### ;;;;;;;;; X@@%%%%% ;;;;;;;;;;;;;;;;",
";;;;; %% ;;;;;;;; +O+ &------ **&&&&&############ ;;;;;;;;; @@@%%%%% ;;;;;;;;;;;;;;;;",
";;;;; %% ;;;;;;;; +++ $$#*&& ##&################# ;;;;;;;;; X@@@%%%% ;;;;;;;;;;;;;;;;",
";;;;; %% ;;;;;;;; +###  &#  #################### ;;;;;;;;;;; @@@%%%%% ;;;;;;;;;;;;;;;",
";;;;; %% ;;;;;;;; +##$$#  $$#################### ;;;;;;;;;;; @@@@%%%% ;;;;;;;;;;;;;;;",
";;;; %% ;;;;;;;;; ########$###################### ;;;;;;;;;;; @@@%%%% ;;;;;;;;;;;;;;;",
";;;; %% ;;;;;;;;; ############################### ;;;;;;;;;;; +@@%%%%% ;;;;;;;;;;;;;;",
";;;; %% ;;;;;;;;; ############################### ;;;;;;;;;;;; ##@%%%%% ;;;;;;;;;;;;;",
";;;; %% ;;;;;;;;; ############################O#+ ;;;;;;;;;;;;; &&&&&&& ;;;;;;;;;;;;;",
";;; %%% ;;;;;;;;; ############################OO+ ;;;;;;;;;;;;; %&&&&&& ;;;;;;;;;;;;;",
";;; %%% ;;;;;;;;;; +##################+#O#O#OOOO+ ;;;;;;;;;;;;;; +%%%%%% ;;;;;;;;;;;;",
";;; %%% ;;;;;;;;; +O+OOO##############OOO###OOOOOO ;;;;;;;;;;;;;; @@@@%% ;;;;;;;;;;;;",
";;; %%% ;;;;;;;;; oOOOOOOOO+OOOOOOOO+OOOOOOOOOOOO+ ;;;;;;;;;;;;;; X@@@@% ;;;;;;;;;;;;",
";;; %%% ;;;;;;;;; oooOOOOOOOOOOOOOOOOOOOOOOOOOOOOO ;;;;;;;;;;;;;;; @@@%% ;;;;;;;;;;;;",
";;; %%% ;;;;;;;;; ooooOOOOOOOOOOOOOOOOOOOOO#OOOOO+ ;;;;;;;;;;;;;;; @@@@%% ;;;;;;;;;;;",
";;; %%% ;;;;;;;;; ooXXOOOOOOOOOOOOOOOOOOOOO#OOOOOO ;;;;;;;;;;;;;;;; @@@%% ;;;;;;;;;;;",
";;; %%% ;;;;;;;;; ooXXoOOOOOOOOOOOOOOOOOOOO#OOOOOO ;;;;;;;;;;;;;;;; X@@@@ ;;;;;;;;;;;",
";;; %% ;;;;;;;;;; oXoXoOOOOOOOOOOOOOOOOOOOOOOOOOOO ;;;;;;;;;;;;;;;;; @@@%% ;;;;;;;;;;",
";;; %% ;;;;;;;;;; XXooo+OOOOOOOOOOOOOOOOOOOOOOOOO++ ;;;;;;;;;;;;;;;; @@@@%% ;;;;;;;;;",
";;; %% ;;;;;;;;;; ooXXXOOOOOOOOOOOOOOOOOOOOOOOOOOO+ ;;;;;;;;;;;;;;  @@@@@%%% ;;;;;;;;",
";;; %% ;;;;;;;;;; ooXXXOOOOOOOOOOOOOOOOOOOOOOOOOOOO ;;;;;;;;;;;;; @@@@@@@%%%% ;;;;;;;",
";;; %% ;;;;;;;;;; oXoXoOOOOOOOOOOOOOOOOOOOOOOOOOOO+ ;;;;;;;;;;;;; @@@@@@@%%%% ;;;;;;;",
";; %% ;;;;;;;;;;;; XoooOOOOOOOoOoOOOOOOOOOOOOOOOOO+ ;;;;;;;;;;;;; X@@@@@@@%%%% ;;;;;;",
";; %% ;;;;;;;;;;;; ++OOOOOOOOOOOOOOOOOOOOOOOOOOOOOO ;;;;;;;;;;;; @@@@@@@@@%%%% ;;;;;;",
";; @% ;;;;;;;;;;;;; oOoOoOOOoOoooooOOOOOOOOOOOOOOOO+ ;;;;;;;;;;; XXXX@@@@@@%@% ;;;;;;",
";; @% ;;;;;;;;;;;;; OOOOOOOOOOOOoXXOOOOOOOOOOOOOOOOO ;;;;;;;;;;; XX XX@@@@@@@%% ;;;;;",
";; %% ;;;;;;;;;;;;; OOoooOoOoOoOooXXXOOOOOOOOOOOOOO+ ;;;;;;;;;;; @ ; XX@@@@@@@@ ;;;;;",
";; %% ;;;;;;;;;;;; +OOooOOOOOOOOXXXXXOOOOOOOOOOOOOO ;;;;;;;;;;;;   ;; X@@@@@@@@% ;;;;",
"; @@% ;;;;;;;;;;;; +oOoOoOoOOOooXXXoXOOOOOOOOOOOOO+ ;;;;;;;;;;;;;;;;; XXX@@@@@@@@ ;;;",
";; @@% ;;;;;;;;;;; +OOOOOOOO+O+o  ooXOOOOOOOOOOOOO+ ;;;;;;;;;;;;;;;;; XXX@@@@@@@@% ;;",
";; @@% ;;;;;;;;;;; #OOOOOOOOo+oo ; oXXOOOOOOOOOOOO+ ;;;;;;;;;;;;;;;;; XXX X@@@@@@% ;;",
";; @@@% ;;;;;;;;;; *#OOOOOOOOOoo ; oXXOOOOOOOOOOOO+ ;;;;;;;;;;;;;;;;;; @ ; @@@@@@@ ;;",
";; @@@ % ;;;;;;;; &**#OOOOOOOOooo ooXXXOOOOOOOOOOO+ ;;;;;;;;;;;;;;;;;; @X XXX@@@  ;;;",
";; @@ ;  ;;;;;;;; +***&#OOOOOOOO+  XXX+OOOOOOOOOOOO ;;;;;;;;;;;;;;;;;; @@@ XX@@ ;;;;;",
";; @@ ; % ;;;;;;; O&***##OOOOOOO ;; XXXOOOOOOOOOOO+ ;;;;;;;;;;;;;;;;;;    ;    ;;;;;;",
";;; @ ;; ;;;;;;; +OO&***#OOOOOOO ;; XXOOOOOOOOOOOO+ ;;;;;;;;;;;;;;;;;;;;;;;;;;;;;;;;;",
";;; o ;;;;;;;;;; +O+O&**&#OOOOOO ;; XXXOOOOOOOOOOO+ ;;;;;;;;;;;;;;;;;;;;;;;;;;;;;;;;;",
";;;; % ;;;;;;;; ######***#OOOOO+ ;; XXOOOOOOOOOOOO+ ;;;;;;;;;;;;;;;;;;;;;;;;;;;;;;;;;",
";;;;;  ;;;;;;;; #&#####***OOOO+ ;;;; XXOOOOOOOOOOO+ ;;;;;;;;;;;;;;;;;;;;;;;;;;;;;;;;;",
";;;;;;;;;;;;;;; *&&&###&**&#OO+ ;;;; XXOOOOOOOOOOOO ;;;;;;;;;;;;;;;;;;;;;;;;;;;;;;;;;",
";;;;;;;;;;;;;; ***&&####&**#OO+ ;;;; XXOOOOOOOOOOO+ ;;;;;;;;;;;;;;;;;;;;;;;;;;;;;;;;;",
";;;;;;;;;;;;;; ****&&####**#OO ;;;;;; X+OOO##OOOOO+ ;;;;;;;;;;;;;;;;;;;;;;;;;;;;;;;;;",
";;;;;;;;;;;;  &******####&*&O+ ;;;;;; X+OOO#O#OOOO+ ;;;;;;;;;;;;;;;;;;;;;;;;;;;;;;;;;",
";;;;;;;;;;;;; -*******####&&#+ ;;;;;; X+OOO###OOOO+ ;;;;;;;;;;;;;;;;;;;;;;;;;;;;;;;;;",
";;;;;;;;;;;;; --****&*####O#O ;;;;;;; X+OOOOO#OOOO+ ;;;;;;;;;;;;;;;;;;;;;;;;;;;;;;;;;",
";;;;;;;;;;;;;; ********#####+ ;;;;;;; XXOOOOOOOOOOO ;;;;;;;;;;;;;;;;;;;;;;;;;;;;;;;;;",
";;;;;;;;;;;;;; +&***&*&###OO+ ;;;;;;;; XXOOOOOOOOO+ ;;;;;;;;;;;;;;;;;;;;;;;;;;;;;;;;;",
";;;;;;;;;;;;;; O#*****&#####+ ;;;;;;;; X+OOOOOOOOO+ ;;;;;;;;;;;;;;;;;;;;;;;;;;;;;;;;;",
";;;;;;;;;;;;;; +O&****&###O# ;;;;;;;;; XOOOOOOOOO+ ;;;;;;;;;;;;;;;;;;;;;;;;;;;;;;;;;;",
";;;;;;;;;;;;;; +O#&***&####O ;;;;;;;;; +OOOOOOOOOO ;;;;;;;;;;;;;;;;;;;;;;;;;;;;;;;;;;",
";;;;;;;;;;;;;; ooO#****&##OO ;;;;;;;;; +OOOOOOOOO+ ;;;;;;;;;;;;;;;;;;;;;;;;;;;;;;;;;;",
";;;;;;;;;;;;;; oOO#******OOO ;;;;;;;;; +OOOOOOOOOO ;;;;;;;;;;;;;;;;;;;;;;;;;;;;;;;;;;",
";;;;;;;;;;;;;; ooOO*--***OO+ ;;;;;;;;; ++OOOOOOOOO ;;;;;;;;;;;;;;;;;;;;;;;;;;;;;;;;;;",
";;;;;;;;;;;;;; oOOOO----*O+ ;;;;;;;;;; +OOOOOOOOOO ;;;;;;;;;;;;;;;;;;;;;;;;;;;;;;;;;;",
";;;;;;;;;;;;;; ooOOOOO--&O+ ;;;;;;;;;;; OOOOOOOOO+ ;;;;;;;;;;;;;;;;;;;;;;;;;;;;;;;;;;",
";;;;;;;;;;;;;; oo+++OOO#&O  ;;;;;;;;;;; OOOOOOOOOO+ ;;;;;;;;;;;;;;;;;;;;;;;;;;;;;;;;;",
";;;;;;;;;;;;;; oo+o+oOoOo ;;;;;;;;;;;;; OOOOOOOOOO+ ;;;;;;;;;;;;;;;;;;;;;;;;;;;;;;;;;",
";;;;;;;;;;;;;; oooOOOoXX+O ;;;;;;;;;;;; OOOOOOOOOOOO ;;;;;;;;;;;;;;;;;;;;;;;;;;;;;;;;",
";;;;;;;;;;;;;; ooooOoOXoo+ ;;;;;;;;;;; XXOOOOOOOOOOO ;;;;;;;;;;;;;;;;;;;;;;;;;;;;;;;;",
";;;;;;;;;;;;;; oXXOOOOoo++ ;;;;;;;;;;; XXOOOOOOOOOOO ;;;;;;;;;;;;;;;;;;;;;;;;;;;;;;;;",
";;;;;;;;;;;;;; oXXoOoOooo ;;;;;;;;;;;;; XOOOOOOOOOOO ;;;;;;;;;;;;;;;;;;;;;;;;;;;;;;;;",
";;;;;;;;;;;;;; ooooOOOooO ;;;;;;;;;;;;; XOOOOOOOOOOO ;;;;;;;;;;;;;;;;;;;;;;;;;;;;;;;;",
";;;;;;;;;;;;; XXoooOoOo++ ;;;;;;;;;;;;; XOOOOOOOOOO++ ;;;;;;;;;;;;;;;;;;;;;;;;;;;;;;;",
";;;;;;;;;;;;; XXXX++OOOOO ;;;;;;;;;;;;; XX+OOOOOOOOO+ ;;;;;;;;;;;;;;;;;;;;;;;;;;;;;;;",
";;;;;;;;;;;;; XXXXoOoOO+O+ ;;;;;;;;;;;;; X+OOOOOOOOO+ ;;;;;;;;;;;;;;;;;;;;;;;;;;;;;;;",
";;;;;;;;;;;; ooXoooOOOOO++ ;;;;;;;;;;;;; XOOOOOOOOOOO ;;;;;;;;;;;;;;;;;;;;;;;;;;;;;;;",
";;;;;;;;;;;; ooooooOoOoOO ;;;;;;;;;;;;;; XXOOOOOOOOO+ ;;;;;;;;;;;;;;;;;;;;;;;;;;;;;;;",
";;;;;;;;;;;; XXXXXXOOOOO+ ;;;;;;;;;;;;;;; +OOOOOOOOO+ ;;;;;;;;;;;;;;;;;;;;;;;;;;;;;;;",
";;;;;;;;;;;; XXXXXoOoOo+ ;;;;;;;;;;;;;;;; X+OOOOOOOO+ ;;;;;;;;;;;;;;;;;;;;;;;;;;;;;;;",
";;;;;;;;;;;; oXXoooOOO+o ;;;;;;;;;;;;;;;; OOOOOOOOOOO ;;;;;;;;;;;;;;;;;;;;;;;;;;;;;;;",
";;;;;;;;;;; ooXXoooOoOo ;;;;;;;;;;;;;;;;; XOOOOOOOOO+ ;;;;;;;;;;;;;;;;;;;;;;;;;;;;;;;",
";;;;;;;;;;; XXXXXXX+OOo ;;;;;;;;;;;;;;;;;; X+OOOOOOO+ ;;;;;;;;;;;;;;;;;;;;;;;;;;;;;;;",
";;;;;;;;;;; XXXXXXXXooo ;;;;;;;;;;;;;;;;;; XXOOOOOOO+ ;;;;;;;;;;;;;;;;;;;;;;;;;;;;;;;",
";;;;;;;;;;; XXooXXXXoX ;;;;;;;;;;;;;;;;;;; XXOOOOOOOO ;;;;;;;;;;;;;;;;;;;;;;;;;;;;;;;",
";;;;;;;;;;; XoooXXXXoo ;;;;;;;;;;;;;;;;;;;; XOOOOOO++ ;;;;;;;;;;;;;;;;;;;;;;;;;;;;;;;",
";;;;;;;;;;; o+OO+++oo  ;;;;;;;;;;;;;;;;;;;; o+OOOOOO+ ;;;;;;;;;;;;;;;;;;;;;;;;;;;;;;;",
";;;;;;;;;;;; +oOX+ooo ;;;;;;;;;;;;;;;;;;;;; ooOOOOOO+ ;;;;;;;;;;;;;;;;;;;;;;;;;;;;;;;",
";;;;;;;;;;;; +OO++++ ;;;;;;;;;;;;;;;;;;;;;;; o+OOOOO+ ;;;;;;;;;;;;;;;;;;;;;;;;;;;;;;;",
";;;;;;;;;;;;  OO++o+ ;;;;;;;;;;;;;;;;;;;;;;; ooOOOOO+ ;;;;;;;;;;;;;;;;;;;;;;;;;;;;;;;",
";;;;;;;;;;;  o    .. ;;;;;;;;;;;;;;;;;;;;;;; oo+OOOO+ ;;;;;;;;;;;;;;;;;;;;;;;;;;;;;;;",
";;;;;;;;;;;  oo@@@@@@ ;;;;;;;;;;;;;;;;;;;;;;; o+OOOO+ ;;;;;;;;;;;;;;;;;;;;;;;;;;;;;;;",
";;;;;;;;;; o o@@@@@@@o ;;;;;;;;;;;;;;;;;;;;;; o@@%%%@ ;;;;;;;;;;;;;;;;;;;;;;;;;;;;;;;",
";;;;;;;;;;;  ooooooooo ;;;;;;;;;;;;;;;;;;;;;; o@%%%%% ;;;;;;;;;;;;;;;;;;;;;;;;;;;;;;;",
";;;;;;;;;;; XXXXXXXXoo ;;;;;;;;;;;;;;;;;;;;;;; @%%%%%% ;;;;;;;;;;;;;;;;;;;;;;;;;;;;;;",
";;;;;;;;;;; XXXXXXXXooo ;;;;;;;;;;;;;;;;;;;;;; @%%%%%% ;;;;;;;;;;;;;;;;;;;;;;;;;;;;;;",
";;;;;;;;;;;  XXXXXXXooo ;;;;;;;;;;;;;;;;;;;;;; @%%%%%% ;;;;;;;;;;;;;;;;;;;;;;;;;;;;;;",
";;;;;;;;;;;  XXXXXXXooo ;;;;;;;;;;;;;;;;;;;;;; @@%%%%% ;;;;;;;;;;;;;;;;;;;;;;;;;;;;;;",
";;;;;;;;;;;; oXXXXXXoo   ;;;;;;;;;;;;;;;;;;;; ooo@%%%% ;;;;;;;;;;;;;;;;;;;;;;;;;;;;;;",
";;;;;;;;;;;;  XoXXXXXooo  ;;;;;;;;;;;;;;;;;;; ooXXXX%% ;;;;;;;;;;;;;;;;;;;;;;;;;;;;;;",
";;;;;;;;;;;;; ooXXXXXXXooo ;;;;;;;;;;;;;;;   oXXXXXXo% ;;;;;;;;;;;;;;;;;;;;;;;;;;;;;;",
";;;;;;;;;;;;;; XXXXXXXXooo ;;;;;;;;;;;;;; ooXXXXXXXXo@% ;;;;;;;;;;;;;;;;;;;;;;;;;;;;;",
";;;;;;;;;;;;;;; oooooooooo ;;;;;;;;;;;;;; ooXXXXXXXXoo@ ;;;;;;;;;;;;;;;;;;;;;;;;;;;;;",
";;;;;;;;;;;;;;;;  oooooooo ;;;;;;;;;;;;;; ooXXXXXXXXXoo ;;;;;;;;;;;;;;;;;;;;;;;;;;;;;",
";;;;;;;;;;;;;;;;;;        ;;;;;;;;;;;;;;; oXXXXXXXXXXXXX ;;;;;;;;;;;;;;;;;;;;;;;;;;;;",
";;;;;;;;;;;;;;;;;;;;;;;;;;;;;;;;;;;;;;;;; XXXXXXXXXXXXXX ;;;;;;;;;;;;;;;;;;;;;;;;;;;;",
";;;;;;;;;;;;;;;;;;;;;;;;;;;;;;;;;;;;;;;;;; oooooXXXXXXXo ;;;;;;;;;;;;;;;;;;;;;;;;;;;;",
";;;;;;;;;;;;;;;;;;;;;;;;;;;;;;;;;;;;;;;;;;;  oXXXXXXXXXo ;;;;;;;;;;;;;;;;;;;;;;;;;;;;",
";;;;;;;;;;;;;;;;;;;;;;;;;;;;;;;;;;;;;;;;;;;;; XXXXooXXoo ;;;;;;;;;;;;;;;;;;;;;;;;;;;;",
";;;;;;;;;;;;;;;;;;;;;;;;;;;;;;;;;;;;;;;;;;;;;; XXoooXXo ;;;;;;;;;;;;;;;;;;;;;;;;;;;;;",
";;;;;;;;;;;;;;;;;;;;;;;;;;;;;;;;;;;;;;;;;;;;;;;         ;;;;;;;;;;;;;;;;;;;;;;;;;;;;;",
";;;;;;;;;;;;;;;;;;;;;;;;;;;;;;;;;;;;;;;;;;;;;;;;;;;;;;; ;;;;;;;;;;;;;;;;;;;;;;;;;;;;;",
";;;;;;;;;;;;;;;;;;;;;;;;;;;;;;;;;;;;;;;;;;;;;;;;;;;;;;;;;;;;;;;;;;;;;;;;;;;;;;;;;;;;;"
};
