/* XPM */
static char *_6_fps_zombie_WALK_crop[] = {
/* columns rows colors chars-per-pixel */
"85 167 22 1 ",
"  c black",
". c #010000",
"X c #000100",
"o c #01060A",
"O c #00070A",
"+ c #01070A",
"@ c #1C0000",
"# c #1D0000",
"$ c #1C0100",
"% c #063838",
"& c #063938",
"* c #073938",
"= c #460100",
"- c #460101",
"; c #1C5D5B",
": c #1D5D5B",
"> c #960D00",
", c #F30802",
"< c #F30902",
"1 c #F30803",
"2 c #DFB77B",
"3 c None",
/* pixels */
"3333333333333333333333333333333333333333333333333333333333333333333333333333333333333",
"3333333333333333333333333333333333333333333333333333333333333333333333333333333333333",
"3333333333333333333333333333333333333333333333333333333333333333333333333333333333333",
"3333333333333333333333333333333333333333333333333333333333333333333333333333333333333",
"3333333333333333333333333333333333333333 33333333333333333333333333333333333333333333",
"333333333333333333333333333333333333333  33333333333333333333333333333333333333333333",
"333333333333333333333333333333333333333 * 3333333333333333333333333333333333333333333",
"33333333333333333333333333333333333333 OO* 333333333333333333333333333333333333333333",
"33333333333333333333333333333333333333 ++++   333333333333333333333333333333333333333",
"33333333333333333333333333333333      ++++++++  3333333333333333333333333333333333333",
"333333333333333333333333333333333333 +++++++++++  33333333333333333333333333333333333",
"33333333333333333333333333  33333333 +++++++++++++ 3333333333333333333333333333333333",
"33333333333333333333333333 >        +++++++++++++++  33333333333333333333333333333333",
"33333333333333333333333333 >><<<,,,+++++++++++++++++ 33333333333333333333333333333333",
"33333333333333333333333333 <2,,,,,*O+++++++++++++++++ 3333333333333333333333333333333",
"33333333333333333333333333 >,,,,,,OO++++++++++++++++++ 333333333333333333333333333333",
"33333333333333333333333333 <<<,,::OOO+++++++++++++++++ 333333333333333333333333333333",
"3333333333333333333333333 =,><,:::*O++++++++++++++++++ 333333333333333333333333333333",
"3333333333333333333333333 ><>::::*::++++++++++++++++++ 333333333333333333333333333333",
"3333333333333333333333333 ::::::=>=:++++++++++++++++++ 333333333333333333333333333333",
"3333333333333333333333333 ::::::>,*:*OOO++++++++++++++%   333333333333333333333333333",
"333333333333333333333333 >::::%;*:::::+O++++++++++++++++o 333333333333333333333333333",
"333333333333333333333333 >:::::::::::::OO+++++++++++++o   333333333333333333333333333",
"333333333333333333333333 >%:%:%:::::::*:*+++++++++++++ 333333333333333333333333333333",
"333333333333333333333333 >::::::::::::::**+++++++++++ 3333333333333333333333333333333",
"333333333333333333333333 >*:*:%:::::::%:****++++++++ 33333333333333333333333333333333",
"33333333333333333333333 >>::%::::::;:<:%%%%****&+++ 333333333333333333333333333333333",
"33333333333333333333333 >>****%::;%;><=%*%&*&**+%*+ 333333333333333333333333333333333",
"33333333333333333333333 >>**%%*;;;;><<><*&&&*&&&%%++  3333333333333333333333333333333",
"33333333333333333333333 ><%*%%**&&=<<<<-*&&&**&&* ++ -    333333333333333333333333333",
"3333333333333333333333 =<<**&&**&&><<<<&&&&&*****=  ----- 333333333333333333333333333",
"333333333333333333333 =>>>*%&&&*&&-<<<-&&&&&*%***===----- 333333333333333333333333333",
"333333333333333333333 >>,***%%%%%%=,<%%%%%&&&&&&====------ 33333333333333333333333333",
"33333333333333333333  >,>*+,+%%%%%*,<&%%%%**&&&-====------ 33333333333333333333333333",
"3333333333333333333 = =,>*+,<<+%%%*,<&&&%**%&&&-====------ 33333333333333333333333333",
"333333333333333333 = =>>**+++<<<O**,&&&&%**$&&--====------ 33333333333333333333333333",
"33333333333333333 == =>>:*+++++,>**<**&&%%$$$---====------ 33333333333333333333333333",
"333333333333333  =$= ==::*>>++++OO*<**&&%$ -----====------- 3333333333333333333333333",
"33333333333333 ==== =*::::=,<,>>OO%%*&&&* ------====------- 3333333333333333333333333",
"3333333333333 ==$=$ $**:::::>,,,>>=*&&&&$ ------====------- 3333333333333333333333333",
"3333333333333 ======  $::::::::**:<*%**$ =----------------- 3333333333333333333333333",
"333333333333 =====$=$=.$*:::::::::<*%**$ =------$$$$$------ 3333333333333333333333333",
"33333333333 =========== =**::::::::*%%$ =--------$$$$------ 3333333333333333333333333",
"3333333333 ===========$=  +**:*::<*:%%$ ==------$$$$$------- 333333333333333333333333",
"333333333 =============$=$ $+++++<+$$$ ---------$$$$$------- 333333333333333333333333",
"33333333 =============$$$== ....  .   ----------$$$$$-------- 33333333333333333333333",
"33333333 ===============$$===$+.<.==------------$$$$$--------- 3333333333333333333333",
"3333333 ================$=$$$=+..+==------------$$$$$-------- 33333333333333333333333",
"333333 =====================$$.,.$==------------$$$$$-------- 33333333333333333333333",
"333333 =====================$=.,.$$=------------$-$$$--------- 3333333333333333333333",
"333333 ======================.,.$$==--------------$$$---------- 333333333333333333333",
"33333 =======================.,.$===------------$- $$-$-------- 333333333333333333333",
"33333 ======================.,.=====------------- 3 $$--------- 333333333333333333333",
"33333 =====================.,,.=====--->>-------- 3 $-$-------- 333333333333333333333",
"3333 ======================.,.======--->>------- 33 $---------- 333333333333333333333",
"3333 >>>>:==   =$=$=======.,,.======--->>------- 33 $--------- 3333333333333333333333",
"33333 ::::* 333 $$$======.,,,.======--->>---==== 33  =========: 333333333333333333333",
"33333 :::; 33333 $$$$##=.,,,.=======--->>---=== 33333 $$$==$%:; 333333333333333333333",
"33333 :::: 33333 $$$$....2,,.>======---->>--=== 333333 $$$**%:: 333333333333333333333",
"33333 :::: 333333 $$.2222222.>=====>>--->---==$ 3333333 o***%;;: 33333333333333333333",
"33333 ::: 3333333 $.22222222.=>===>>>-------=== 33333333 o***::: 33333333333333333333",
"33333 :;: 33333333 .22222222.>===>>>>-------=== 33333333 ****::: 33333333333333333333",
"33333 ;;: 33333333 .22222222.>=>>>>>>>------=== 333333333 ***:::: 3333333333333333333",
"33333 ;;: 33333333 .:2222222.>=>>>>>>>------=== 333333333 o**::::: 333333333333333333",
"33333 ::: 33333333 .=2222222 >>>>>>>>>>-------- 3333333333 *%;:::: 333333333333333333",
"33333 ::: 33333333 $.=>2222: >>>>111><>--------- 333333333 *%;;;:: 333333333333333333",
"33333 ::: 33333333 $$.=>>:: =>>>11111>>--------- 3333333333 **;;::: 33333333333333333",
"33333 ::: 33333333 $$$...  ,,,,,1>>1>>>---------= 333333333 **;:::: 33333333333333333",
"33333 ::: 33333333 $$======>,,,,>>>>>>--------=== 333333333 **::::: 33333333333333333",
"33333 ::: 33333333 $$======>>>>>>>=>->------===== 333333333 ***::::: 3333333333333333",
"33333 :: 33333333 $==========>>>====--------===== 333333333 ***::::: 3333333333333333",
"33333 :: 33333333 $=================--------==== 3333333333 o**::::: 3333333333333333",
"33333 :: 33333333 $============================== 3333333333 ***;;::: 333333333333333",
"33333 :: 33333333 $============================== 3333333333 ***%:::: 333333333333333",
"33333 : 333333333 =============================== 33333333333 ***:::: 333333333333333",
"3333 :: 333333333 $============================== 33333333333 =**::::: 33333333333333",
"3333 :: 333333333 =============================== 333333333333 ===:::: 33333333333333",
"3333 :: 3333333333 =======================$=$=$$$ 333333333333 :=>>>>>> 3333333333333",
"333 ::: 3333333333 $$========================$$$$ 3333333333333 :>>>>>> 3333333333333",
"333 ::: 333333333 +$$$$$$$$$$$$$$$$$$$$$$$$$$$$$$$ 3333333333333 :::::: 3333333333333",
"333 ::: 333333333 +++$$$$$$$$$$$$$$$$$$$$$$$$$$$$$ 3333333333333 ****:: 3333333333333",
"333 ::: 333333333 +++++$$$$$$$$$$$$$$$$$$$$$$$$$$$ 33333333333333 ***::: 333333333333",
"333 ::: 333333333 ++++$$$$$$$$$$$$$$$$$$$$$$$$$$$$ 33333333333333 *%**:: 333333333333",
"333 ::: 333333333 +++++$$$$$$$$$$$$$$$$$$$$$$$$$$$ 333333333333333 %&**: 333333333333",
"333 ::: 333333333 +++++$$$$$$$$$$$$$$$$$$$$$$$$$$$ 333333333333333 *&&;;: 33333333333",
"333 :: 3333333333 +++++$$$$$$$$$$$$$$$$$$$$$$$$$$$$ 333333333333333 &&*;: 33333333333",
"333 :: 3333333333 +++++$$$$$$$$$$$$$$$$$$$$$$$$$$$$ 333333333333333 &&*;: 33333333333",
"33 ::: 3333333333 +++++$$$$$$$$$$$$$$$$$$$$$$$$$$$$ 3333333333333333 &***: 3333333333",
"33 ::: 3333333333 +++++$$$$$$$$$$$$$$$$$$$$$$$$$$$$ 333333333333333 &&&&;;; 333333333",
"33 :: 333333333333 ++++$$$$$$$+$$$$$$$$$$$$$$$$$$$$ 3333333333333  *&&&&*;:: 33333333",
"33 :: 333333333333 $$++$$$$$$$$$$$$$$$$$$$$$$$$$$$$ 3333333333333 **&&**:::: 33333333",
"33 :: 3333333333333 +$+$+$$$+$+++$+$$$$$$$$$$$$$$$$ 333333333333 ***&&***:::: 3333333",
"33 :: 33333333333333 $$$$$$$$$$++++$$$$$$$$$$$$$$$$ 33333333333 *********;;;; 3333333",
"33 : 33333333333333 +$+$+$+$+$+++++++$$$$$$$$$$$$$$ 33333333333 O*+OO******;*: 333333",
"33 : 3333333333333 $$$$$$$$$$$$++++++$$$$$$$$$$$$$$ 33333333333 OOOOO****&&&:; 333333",
"3 *: 3333333333333 $+$+$+$+$$$+++++++$$$$$$$$$$$$$$ 33333333333 OO  OOO*&&&&*** 33333",
"3 *:: 333333333333 $$$$$$$$$$$$+.++++$$$$$$$$$$$$$$ 33333333333 * 33 OO*&&**&&*; 3333",
"3 *:: 333333333333 =$$$$$$$$$$++.+++o$$$$$$$$$$$$$$ 33333333333  3333 O*&&**&&&&: 333",
"3 ***: 33333333333 >=$$$$$$$$$$+.+++o+$$$$$$$$$$$$$ 33333333333333333 O*&&**&&&&* 333",
"3 ***: 33333333333 ,1>$$$$$$$$+++ ++++$$$$$-$$$$$$$ 33333333333333333 O*OOO*&&***: 33",
"3 *** : 333333333 $>11>>$$$$$$$$+ ++oo$$$$$---$$$$$ 33333333333333333 O****O***** 333",
"3 ** 3  333333333 +=111>==$$$$$$o +++o$$$$$-$-$$$$$ 33333333333333333 O** OOO**  3333",
"3 %% 3 : 33333333 $$>111>==$$$$$$  o+$$$$$$--$$$$$$ 33333333333333333 ** 3 OO  333333",
"3 %% 33  33333333 $$$>111==$$$$$ 33 o$$$$$$$$$$$$$ 333333333333333333 O* 3   33333333",
"33 * 33333333333 $$$==>111==$$$$ 33 +$$$$$$$$$$$$$ 3333333333333333333   333333333333",
"33   33333333333 ======111==$$$$ 33 o$$$$$$$$$$$$$ 3333333333333333333333333333333333",
"3333 33333333333 >>>=>==111=$$$$ 33 o+$$$$$$$$$$$$ 3333333333333333333333333333333333",
"333333333333333 >,>>>====111$$$ 3333 +$$$$$$$$$$$$ 3333333333333333333333333333333333",
"333333333333333 ,,,>>>===>11=$$ 3333 o$$$$==$$$$$$ 3333333333333333333333333333333333",
"333333333333333 ,,,,>>====>1>$$ 3333 oo$$$$-$$$$$$ 3333333333333333333333333333333333",
"3333333333333  ,,,,,11>====>>$$ 3333 +$$$$--$$$$$$ 3333333333333333333333333333333333",
"33333333333333 2,,,,12>======= 33333 +o$$$$-$$$$$ 33333333333333333333333333333333333",
"33333333333333 22,,,122=====$= 33333 +$$$$$=$$$$$ 33333333333333333333333333333333333",
"333333333333333 ,,,,>211====$$ 333333 +$$$$$$$$$$ 33333333333333333333333333333333333",
"333333333333333 $>,,1111=====$ 333333 $$$$$$$$$$$ 33333333333333333333333333333333333",
"333333333333333 +=>,1111===== 3333333 $$$$$$$$$$$ 33333333333333333333333333333333333",
"333333333333333 $$=>111>===== 333333 $$$$$$$$$$$$ 33333333333333333333333333333333333",
"333333333333333 +$$>1111>==== 333333 $$$$$$$$$$$$ 33333333333333333333333333333333333",
"333333333333333 $$$$11111==== 3333333 $$$$$$$$$$$ 33333333333333333333333333333333333",
"333333333333333 +$$$>2>111$$$ 3333333 $$$$$$$$$$$ 33333333333333333333333333333333333",
"333333333333333 +$$$=22211$$$ 3333333 $$$$$$$$$$$ 33333333333333333333333333333333333",
"333333333333333 +++$$$$222=$+ 33333333 $$$$$$$$$$$ 3333333333333333333333333333333333",
"333333333333333 ++$$$$$$=21$ 33333333 $$$$$$$$$$$$$ 333333333333333333333333333333333",
"333333333333333 +++$+$+$+$=$ 33333333 +$$$$$$$$$$$$ 333333333333333333333333333333333",
"333333333333333 ++$$$$$$$$$ 333333333 +$$$$$$$$$$$$ 333333333333333333333333333333333",
"333333333333333 +++$$$+$+$$$ 33333333 +$$$$$$$$$$$$ 333333333333333333333333333333333",
"333333333333333 ++$$$$$+$$$$ 333333333 +$$$$$$$$$$$$ 33333333333333333333333333333333",
"333333333333333 +++$$$+++$$ 3333333333 ++$$$$$$$$$$$ 33333333333333333333333333333333",
"3333333333333333 +$$$$$++$$ 3333333333 ++$$$$$$$$$$$ 33333333333333333333333333333333",
"33333333333333  +++$$$+++$ 333333333333 +$$$$$$$$$$$ 33333333333333333333333333333333",
"33333333333333 +++$$$$$$$$ 333333333333 +$$$$$$$$$$$ 33333333333333333333333333333333",
"33333333333333 ++++$+$+$$$$ 33333333333 ++$$$$$$$$$$ 33333333333333333333333333333333",
"33333333333333 ++++$$$$$$$$ 333333333333 +$$$$$$$$$$ 33333333333333333333333333333333",
"3333333333333 +++++++$+$$$$ 333333333333 ++$$$$$$$$$$ 3333333333333333333333333333333",
"3333333333333 +++++++$$$$$ 3333333333333 +$$$$$$$$$$$ 3333333333333333333333333333333",
"3333333333333 +++++++++$+$ 33333333333333 +$$$$$$$$$$ 3333333333333333333333333333333",
"333333333333 +++++++++$$$ 333333333333333 $$$$$$$$$$$ 3333333333333333333333333333333",
"333333333333 +++++++++++ 33333333333333333 $$$$$$$$$$ 3333333333333333333333333333333",
"333333333333 +++++++++++ 33333333333333333 $$$$$$$$$$ 3333333333333333333333333333333",
"333333333333 +++++++++++ 33333333333333333 ++$$$$$$$$ 3333333333333333333333333333333",
"333333333333 ++++++++++ 3333333333333333333 $$$$$$$$$ 3333333333333333333333333333333",
"333333333333 +++++++++ 33333333333333333333 +$$$$$$$$ 3333333333333333333333333333333",
"333333333333 ++++++++ 3333333333333333333333 $$$$$$$$ 3333333333333333333333333333333",
"33333333333   +++$+++ 3333333333333333333333 $+$$$$$$ 3333333333333333333333333333333",
"33333333333  . .    . 3333333333333333333333 +$$$$$$$$ 333333333333333333333333333333",
"33333333333 .++*****+*  333333333333333333333 +$$$$$$$ 333333333333333333333333333333",
"33333333333 +.++*++++++ 333333333333333333333 O$$***$$ 333333333333333333333333333333",
"333333333333 .+++++++++ 3333333333333333333333 **::::: 333333333333333333333333333333",
"333333333333  ++++++++++ 333333333333333333333 %%::::: 333333333333333333333333333333",
"3333333333333 ++++++++++ 333333333333333333333 *%::::: 333333333333333333333333333333",
"3333333333333 ++++++++++ 333333333333333333333 *%::::: 333333333333333333333333333333",
"3333333333333 +++++++++++ 33333333333333333333 *%:::::: 33333333333333333333333333333",
"33333333333333 +++++++++++ 3333333333333333333 +**::::: 33333333333333333333333333333",
"33333333333333 ++++++++++++ 333333333333333333 +OO+:::: 33333333333333333333333333333",
"333333333333333 +++++++++++ 33333333333333333 ++++++OO: 33333333333333333333333333333",
"3333333333333333 ++++++++++ 33333333333333333 ++++++OO: 33333333333333333333333333333",
"33333333333333333 +++++++++ 3333333333333333 +++++++++%% 3333333333333333333333333333",
"33333333333333333  ++++++++ 3333333333333333 +++++++++%*+ 333333333333333333333333333",
"3333333333333333333 +      3333333333333333 +++++++++++++ 333333333333333333333333333",
"33333333333333333333 3333333333333333333333 +++O+++++++++ 333333333333333333333333333",
"3333333333333333333333333333333333333333333 +++++++++++++ 333333333333333333333333333",
"3333333333333333333333333333333333333333333 +++++++++++++ 333333333333333333333333333",
"33333333333333333333333333333333333333333333  +++++++++++ 333333333333333333333333333",
"3333333333333333333333333333333333333333333333  +++++++++ 333333333333333333333333333",
"333333333333333333333333333333333333333333333333          333333333333333333333333333",
"3333333333333333333333333333333333333333333333333333333333333333333333333333333333333",
"3333333333333333333333333333333333333333333333333333333333333333333333333333333333333"
};
