/* XPM */
static char *_8_fps_zombie_WALK_crop[] = {
/* columns rows colors chars-per-pixel */
"85 167 14 1 ",
"  c black",
". c #010000",
"X c #01070A",
"o c #1C0000",
"O c #1C0001",
"+ c #063938",
"@ c #073938",
"# c #460100",
"$ c #1C5D5B",
"% c #1D5D5B",
"& c #960D00",
"* c #F30802",
"= c #DFB77B",
"- c None",
/* pixels */
"-------------------------------------------------------------------------------------",
"-------------------------------------------------------------------------------------",
"-------------------------------------------------------------------------------------",
"-------------------------------------------------------------------------------------",
"-------------------------------------------------------------------------------------",
"-------------------------------------------------------------------------------------",
"---------------------------------------- --------------------------------------------",
"---------------------------------------  --------------------------------------------",
"--------------------------------------- X -------------------------------------------",
"-------------------------------------- XXX  -----------------------------------------",
"---------------------------------     XXXXXX   --------------------------------------",
"------------------------------------ XXXXXXXXXX  ------------------------------------",
"------------------------------------ XXXXXXXXXXXX  ----------------------------------",
"--------------------------  ------- *XXXXXXXXXXXXXX ---------------------------------",
"-------------------------- &       *XXXXXXXXXXXXXXXX --------------------------------",
"-------------------------- ==*****XXXXXXXXXXXXXXXXXXX -------------------------------",
"-------------------------- &*****%XXXXXXXXXXXXXXXXXXXX ------------------------------",
"-------------------------- *&***%%@XXXXXXXXXXXXXXXXXXX ------------------------------",
"------------------------- &****%%$%%XXXXXXXXXXXXXXXXXX ------------------------------",
"------------------------- @&&%%%%@X%XXXXXXXXXXXXXXXXXX ------------------------------",
"------------------------- &%%%%%$&&@@XXXXXXXXXXXXXXXX@ ------------------------------",
"------------------------- #%%%%%@&@%%@XXXXXXXXXXXXXXXXX    --------------------------",
"------------------------- &%%%%%$$%%%%%XXXXXXXXXXXXXXXXXX  --------------------------",
"------------------------- #%%%%%%%%%%%%%@XXXXXXXXXXXXX   ----------------------------",
"------------------------  &%%%%%%%%%%%%%%@XXXXXXXXXXX -------------------------------",
"------------------------  #%@%%%%%%%%%%%@@@XXXXXXXXXX -------------------------------",
"------------------------  &%%%%%%%%%%$%%$@@@@XXXXXXXX -------------------------------",
"------------------------ &&%@%@%%%%$@*#%@@@@@@@@XXXX --------------------------------",
"------------------------ &&$%%%$$%$$&*&$$@@$+++XXXX ---------------------------------",
"----------------------- &&&@@%@$@$@&****@$+@++++@@X ---------------------------------",
"----------------------- &&$@@@@$$$@&***#$+++++@@@@ X  -------------------------------",
"----------------------- &*@@@@@@@@#&***+@+++++@@@@# ##    ---------------------------",
"---------------------- &&*@@@@@++++&**#@++++++++@######## ---------------------------",
"---------------------- &&&@X@@+++++&**++++++++++@######## ---------------------------",
"--------------------- &&*@X**X@@+++#*+++++++++++########## --------------------------",
"--------------------  #&&@XX&**X+++#*+++++++++++########## --------------------------",
"------------------- # &&&@XXXX**&@@+*+++++@@++@############ -------------------------",
"------------------ #o #&@@XXXXX@&@@#*++++@@O++############# -------------------------",
"----------------- ## ##%%@XXXXXXXX@#++++++ OOO############# -------------------------",
"---------------- #o# ##%%%#*XXXXXX@*+++++O ################ -------------------------",
"--------------- #### #%%%%@&*****@+*+@@@@ ################# -------------------------",
"-------------- ###o# o@%%%%%@***&&+*+@@+X ################# -------------------------",
"------------- ####### o@%%%%%%%%@%@@++++O ################# -------------------------",
"------------ #####o#o#  @%%%%%%%%%*@+++O #########ooo###### -------------------------",
"----------- ##########o# o@%%%%%%%*%@@@O ########oooo###### -------------------------",
"---------- ###########o#o  @@@@@@%@@@@O ##########ooo####### ------------------------",
"--------- #############o##o XXXXXXo    ##########oooo####### ------------------------",
"--------- #############o####..     oo###########ooooo######## -----------------------",
"-------- ###############ooo##oX.* ###############oooo######## -----------------------",
"------- ################o#ooooX.* ##############ooooo######### ----------------------",
"------- ####################oo.*.o################ooo######## -----------------------",
"------ #####################oo.*.oo#############o#ooo######## -----------------------",
"------ ######################.*.oo################oooo########  ---------------------",
"------ #####################.**.o###############o#ooooo######## ---------------------",
"----- ##################### **.#########&#########  oo########## --------------------",
"----- #################### ***.#########&######## -- oo######## ---------------------",
"----- #################.#.***.#########&&####### -- oo######### ---------------------",
"----- &&#&## ###o#o##..=. ***.#########&&####### -- oo######## ----------------------",
"----- %%%%@ -   ooo#.=======.##########&&####### -- oo######### ---------------------",
"----- %%%% ----- ooo =======.&#########&&&###### ---  oo####O@@ ---------------------",
"----- %%%% ------ o ========.&&#########&&##### ------ ooo@@@%% ---------------------",
"----- %%%% ------ o ========.#&####&&###&###### ------- X@@@@%%% --------------------",
"----- %%%% -------  &=======.&&&#&&&&########## ------- XX@@@%%% --------------------",
"----- %%% --------  o*======.&###&&&&########## -------- @@@@%%% --------------------",
"----- %%% -------- o.#*==== ###&&&&&&&&######## --------- @@@$%%% -------------------",
"----- %%% -------- oo.o&@% ####&&&&&&&&######## --------- X@@$%%%% ------------------",
"----- %%% -------- ooo    o##&&&&&*&&&&######## ---------- @@$$%%% ------------------",
"----- %%% -------- oooooo#o##&&&&***&*&&######## --------- @@$%%%% ------------------",
"----- %%% -------- ooooo#####&&&&****&&########## -------- @@%%%%% ------------------",
"----- %%% -------- oooo####&****&&&&&&&########## --------- @%%%%%% -----------------",
"----- %%% -------- oo######&&***&&&&&&&########## --------- @@%%%%% -----------------",
"----- %%% -------- oo########&&&###&############# --------- @@@%%%% -----------------",
"----- %%% ------- o############################## --------- @@%%%%%% ----------------",
"----- %% -------- o############################# ---------- X@@%%%%% ----------------",
"----- %% -------- ############################### --------- @@@%%%%% ----------------",
"----- %% -------- o############################## ---------- @@@%%%%% ---------------",
"----- %% -------- ############################### ----------  @@%%%%% ---------------",
"---- %% --------- o###########################o#o ------------ @@%%%% ---------------",
"---- %% --------- o###########################ooo ----------- ##%%%%%% --------------",
"---- %% ---------- oo#################o#o#o#ooooo ------------ #&&#%%% --------------",
"--- %%% --------- Xooooooooooooooooooooooo##oooooo ----------- %&&&&&& --------------",
"--- %%% --------- XXXooooooooooooooooooooooooooooo ------------ %%#&#&% -------------",
"--- %%% --------- XXXXoooooooooooooooooooooooooooo ------------ @@%%%%% -------------",
"--- %%% --------- XXXXXooooooooooooooooooooooooooo ------------- @@@@%% -------------",
"--- %%% --------- XXXXXooooooooooooooooooooooooooo ------------- @@@@$$% ------------",
"--- %%% --------- XXXXXooooooooooooooooooooooooooo -------------- @@@$$% ------------",
"--- %%% --------- XXXXXooooooooooooooooooooooooooo -------------- @@@@%% ------------",
"--- %% ---------- XXXXXoooooooooooooooooooooooooooo -------------- @@@@% ------------",
"-- %%% ---------- XXXXXoooooooooooooooooooooooooooo -------------- @@@$$$ -----------",
"-- %%% ---------- XXXXXoooooooooooooooooooooooooooo --------------- @@@$$ -----------",
"-- %%% ----------- XXXXoooooooooooooooooooooooooooo --------------- ++@$% -----------",
"-- %% ------------- XXXoooooooXoXoooooooooooooooooo --------------- ++@@%%  ---------",
"-- %% ------------- ooooooooooXXXoooooooooooooooooo -------------  @@@++%$% ---------",
"-- %% -------------- oXoXoXoXoXXXXXXXoooooooooooooo ------------ @@@+@++@$%% --------",
"-- % -------------- oooooooooooXXXXXXoooooooooooooo ------------ @@@++++$%%% --------",
"- @% -------------- ooXoXoXoXoXXXXXXXoooooooooooooo ----------- @@@@++++@$%%% -------",
"- %% ------------- ooooooooooooXXXXXXoooooooooooooo ---------- @@@@@++@@++$$% -------",
" @%% ------------- oooXoooooooXX.XXXXoooooooooooooo ---------- XXXXXX+@@+@@@@% ------",
" @%%% ------------ #oooooooooooX XXXXoooooooooooooo ---------- XXX XX@@@++@@@@ ------",
" @@%% ------------ &#oooooooooXX XXXXoooooo#ooooooo ---------- @X - XXX@++@@@@@ -----",
" @%%% ------------ &*&#ooooooooo XXXXooooo###oooooo -----------  --- XX@@@++++++ ----",
" @@@@% ----------- &**&#ooooooooX XXXoooooo#oooooo ----------------- XX@@@+++@+@@ ---",
" @@@ @ ---------- oo****&#ooooooo XXXooooo###ooooo ------------------ X@ @++@@@@@ ---",
" @@ - % --------- oo&****#ooooooX XXXoooooo#oooooo ------------------ X - X+@@@@ ----",
" @@ --  --------- ooo&****#oooooo  XXooooooooooooo ------------------ @ - @@@@@ -----",
"- @ --  --------- oo###***ooooooo - Xooooooooooooo ------------------ X - X@X  ------",
"- @% ------------ #####&***ooooo -- Xooooooooooooo ------------------ @@ -   --------",
"- @% ----------- #&#####&***oooo -- Xooooooooooooo ------------------   -------------",
"--   ----------- &&&&&###&**#ooo -- Xooooooooooooo ----------------------------------",
"---------------- ***&&####&*#ooo -- Xoooooooooooo -----------------------------------",
"--------------- ****&&&####&*#oo --- Xooooooooooo -----------------------------------",
"--------------- *******&####&#o ---- Xooooooooooo -----------------------------------",
"-------------- =******=&######o ---- Xooooooooooo -----------------------------------",
"--------------- =*******####o#o ---- XXoooooooooo -----------------------------------",
"--------------- =*****==*#####o ---- oooooooooooo -----------------------------------",
"--------------- o&&*****&#####o ---- ooooooooooo ------------------------------------",
"---------------- o&******#&### ----- ooooooooooo ------------------------------------",
"---------------- oo&****&##&## ----- ooooooooooo ------------------------------------",
"---------------- ooo&***&&#&## ----- ooooooooooo ------------------------------------",
"---------------- ooo#*****###o ----- ooooooooooo ------------------------------------",
"---------------- Xooo&=&***##o ------ ooooooooooo -----------------------------------",
"---------------- XXoo&===**ooo ------ ooooooooooo -----------------------------------",
"---------------- Xooooo====ooo ------ oooooooooooo ----------------------------------",
"---------------- XXoXoXoo#==oo ------ Xoooooooooooo ---------------------------------",
"---------------- XXoooooooo#o ------- Xoooooooooooo ---------------------------------",
"---------------- XXoXoXooooo -------- Xoooooooooooo ---------------------------------",
"---------------- XXoooooooooo ------- Xoooooooooooo ---------------------------------",
"----------------- XoXoXoXoooo ------- XXooooooooooo ---------------------------------",
"----------------- Xoooooooooo -------- Xoooooooooooo --------------------------------",
"----------------- XoooooXooo --------- XXooooooooooo --------------------------------",
"---------------- XXooooooooo ---------- Xooooooooooo --------------------------------",
"--------------- XXXoooooXooo ---------- Xooooooooooo --------------------------------",
"--------------- XXXooooooooo ---------- Xooooooooooo --------------------------------",
"--------------- XXXXXooooooo# ---------- oXooooooooo --------------------------------",
"-------------- XXXXXXooooooo ----------- oooooooooooo -------------------------------",
"-------------- XXXXXXXXooooo ------------ Xoooooooooo -------------------------------",
"------------- XXXXXXXXooooo ------------- ooooooooooo -------------------------------",
"------------- XXXXXXXXXoXX -------------- Xoooooooooo -------------------------------",
"------------- XXXXXXXXXXXX --------------- oooooooooo -------------------------------",
"------------ XXXXXXXXXXXX ---------------- XXoooooooo -------------------------------",
"------------- XXXXXXXXXX ------------------ ooooooooo -------------------------------",
"------------- XXXXXXXXX ------------------- Xooooooooo ------------------------------",
"------------ .oXXXXXXX --------------------- ooooooooo ------------------------------",
"------------ . XXXXX.. --------------------- XXooooooo ------------------------------",
"-----------   X  .....X --------------------- Xooooooo ------------------------------",
"------------  XXX@XXXXX --------------------- XXoooooo ------------------------------",
"------------  XXXXXXXXXX -------------------- XXoooooo ------------------------------",
"------------- XXXXXXXXXX --------------------- X@@%%%% ------------------------------",
"------------- XXXXXXXXXX --------------------- X@%%%%%% -----------------------------",
"-------------- XXXXXXXXXX --------------------- @%%%%%% -----------------------------",
"-------------- XXXXXXXXXX --------------------- @%%%%%% -----------------------------",
"-------------- XXXXXXXXXXX -------------------- @@%%%%% -----------------------------",
"--------------- XXXXXXXXXX -------------------- @@%%%%% -----------------------------",
"--------------- XXXXXXXXXXX ------------------- X@@%%%%% ----------------------------",
"---------------- XXXXXXXXXX ------------------- XXXXX%%% ----------------------------",
"----------------- XXXXXXXXXX ----------------- XXXXXXXX% ----------------------------",
"------------------ XXXXXXXXX ---------------- XXXXXXXXX@ ----------------------------",
"------------------ XXXXXXXX ----------------- XXXXXXXXXXX ---------------------------",
"------------------- XX     ------------------ XXXXXXXXXXXX --------------------------",
"--------------------  ----------------------- XXXXXXXXXXXX --------------------------",
"-------------------------------------------- XXXXXXXXXXXXX --------------------------",
"-------------------------------------------- XXXXXXXXXXXXX --------------------------",
"-------------------------------------------- XXXXXXXXXXXXX --------------------------",
"--------------------------------------------    XXXXXXXXXo --------------------------",
"------------------------------------------------           --------------------------",
"-------------------------------------------------------------------------------------",
"-------------------------------------------------------------------------------------"
};
