/* XPM */
static char *_4_fps_zombie_WALK_crop[] = {
/* columns rows colors chars-per-pixel */
"85 167 16 1 ",
"  c black",
". c #010000",
"X c #01070A",
"o c #01070B",
"O c #1C0000",
"+ c #1D0000",
"@ c #063938",
"# c #073938",
"$ c #460100",
"% c #470100",
"& c #1D5D5B",
"* c #960D00",
"= c #970D00",
"- c #F30802",
"; c #DFB77B",
": c None",
/* pixels */
":::::::::::::::::::::::::::::::::::::::::::::::::::::::::::::::::::::::::::::::::::::",
":::::::::::::::::::::::::::::::::::::::::::::::::::::::::::::::::::::::::::::::::::::",
":::::::::::::::::::::::::::::::::::::::::::::::::::::::::::::::::::::::::::::::::::::",
":::::::::::::::::::::::::::::::::::::::::::::::::::::::::::::::::::::::::::::::::::::",
":::::::::::::::::::::::::::::::::::::::::::::::::::::::::::::::::::::::::::::::::::::",
":::::::::::::::::::::::::::::::::::::::::::::::::::::::::::::::::::::::::::::::::::::",
":::::::::::::::::::::::::::::::::::::::::::::::::::::::::::::::::::::::::::::::::::::",
":::::::::::::::::::::::::::::::::::::::::::::::::::::::::::::::::::::::::::::::::::::",
":::::::::::::::::::::::::::::::::::::::::::::::::::::::::::::::::::::::::::::::::::::",
":::::::::::::::::::::::::::::::::::::::::  ::::::::::::::::::::::::::::::::::::::::::",
":::::::::::::::::::::::::::::::::::::::: @ ::::::::::::::::::::::::::::::::::::::::::",
":::::::::::::::::::::::::::::::::::::::: X ::::::::::::::::::::::::::::::::::::::::::",
"::::::::::::::::::::::::::::::::::      XXX :::::::::::::::::::::::::::::::::::::::::",
"::::::::::::::::::::::::::::::::::::: XXXXX@    :::::::::::::::::::::::::::::::::::::",
":::::::::::::::::::::::::::::::::::::: XXXXXXXXX  :::::::::::::::::::::::::::::::::::",
":::::::::::::::::::::::::::::::::::::: XXXXXXXXXXX ::::::::::::::::::::::::::::::::::",
":::::::::::::::::::::::::::  :::::::  XXXXXXXXXXXXX :::::::::::::::::::::::::::::::::",
"::::::::::::::::::::::::::::  :     XXXXXXXXXXXXXXXX  :::::::::::::::::::::::::::::::",
":::::::::::::::::::::::::::: ; ---&&XXXXXXXXXXXXXXXXX :::::::::::::::::::::::::::::::",
"::::::::::::::::::::::::::: *----&&&&XXXXXXXXXXXXXXXXX ::::::::::::::::::::::::::::::",
"::::::::::::::::::::::::::: &**&&&&@&XXXXXXXXXXXXXXXXX@ :::::::::::::::::::::::::::::",
"::::::::::::::::::::::::::: &&&&&&%*@&XXXXXXXXXXXXXXXXX@ ::::::::::::::::::::::::::::",
"::::::::::::::::::::::::::: &&&&&&**&&&XXXXXXX@XXXXXXXX :::::::::::::::::::::::::::::",
"::::::::::::::::::::::::::: &&&&&&&&&&&&XXXXXXXXXXXXXXXX    :::::::::::::::::::::::::",
":::::::::::::::::::::::::: *&&&&&&&&&&&&&@XXXXXXXXXXXXXXXXX :::::::::::::::::::::::::",
":::::::::::::::::::::::::: *&&&&&&&&&&&&&&@XXXXXXXXXXXXX   ::::::::::::::::::::::::::",
":::::::::::::::::::::::::: *&&&&&&&&&&&&&&&@XXXXXXXXXXX :::::::::::::::::::::::::::::",
":::::::::::::::::::::::::: *&&&&&&&&&&&-&&&&@@XXXXXXXX ::::::::::::::::::::::::::::::",
":::::::::::::::::::::::::  *&&&&&&&&&&--&&&&&&@@@XXXXX ::::::::::::::::::::::::::::::",
"::::::::::::::::::::::::: **@&&&&&&&&&--@&&&&&@@XXXXXX ::::::::::::::::::::::::::::::",
"::::::::::::::::::::::::: **&&&&&&&&&----&&&&@@@XXXXX :::::::::::::::::::::::::::::::",
"::::::::::::::::::::::::: *-@&@&&&&&*----&&&@@@@XXXX  :::::::::::::::::::::::::::::::",
":::::::::::::::::::::::: **-&&&&&&&&*---*&&&@@@@@@@ :::::::::::::::::::::::::::::::::",
":::::::::::::::::::::::: **&@&@&@&@&*--*@&&&@@@@@@@O ::::::::::::::::::::::::::::::::",
":::::::::::::::::::::::: *-&&@@@@@@@@*-&&&&@@@@@@@@ %    ::::::::::::::::::::::::::::",
"::::::::::::::::::::::: *-*&*-X@@@@@@*-&@&@@@@@@@@@$%%%%% :::::::::::::::::::::::::::",
":::::::::::::::::::::: %*--@X--XX@@@@%-&&&@@@@@@@@$$$$$$%% ::::::::::::::::::::::::::",
":::::::::::::::::::::  %%-@XX----X@@@@-&@&@@@@@@@$$$$$$$%% ::::::::::::::::::::::::::",
":::::::::::::::::::::  %*-@XXXXX--@@@@-&&@@@@@@@&$$$$$$$$$ ::::::::::::::::::::::::::",
":::::::::::::::::::: % %**@XXXXXXXX@@@-&@@@@@@@@$$$$$$$$$$% :::::::::::::::::::::::::",
"::::::::::::::::::: %% %-&@XXXXXXXX@@@&&&@@@@@@%$$$$$$$$%%% :::::::::::::::::::::::::",
":::::::::::::::::: %O %%*&@XXXXXXXX@@@@&@@@OXOO%$$$$$$$$$%% :::::::::::::::::::::::::",
"::::::::::::::::: $$% %@&&&XXXXXXXX@@&&&@@@ $$%%$$$$$$$$$$% :::::::::::::::::::::::::",
":::::::::::::::: %O$O O&&&@*XXXXXXX@@-@&@@X $$%%$$$$$$$$$$% :::::::::::::::::::::::::",
"::::::::::::::: $$$$% %&&&&%---XXX@@&&&@@@ $$$$$$$$$$$$$$$$ :::::::::::::::::::::::::",
":::::::::::::: %$$O%O O&&&&&@*----X&@&@@@% $$$$$$$$$$$$$$$% :::::::::::::::::::::::::",
"::::::::::::: %%%$%%% O&&&&&&&&@**@&-&&@@ $$$$$$$$$%$$$$$%% :::::::::::::::::::::::::",
":::::::::::: %%%%%%%O% OO&&&&&&&&&&&@&@@O $$$$$$$$OOO$$$$%%% ::::::::::::::::::::::::",
"::::::::::: %%$$$$$$$$$  O#&&&&&&&&-&&@@O %%%%$$$$OOO$$$$$$$ ::::::::::::::::::::::::",
"::::::::::: %%$$$$$$$$%%% OO#&@&&&&&&&@O %%%$$$$$OOOO%$$$$$$ ::::::::::::::::::::::::",
":::::::::: $%$$$$$$$$$%$%%  O#@@@@-@##OO %$$$$$$$OOOO$$$$$$$% :::::::::::::::::::::::",
"::::::::: %$$$$$$$$$$$$$++O% OXXX-X     %$$$$$$$OOOOO$$$$$$$% :::::::::::::::::::::::",
":::::::: %%$$$$$$$$$$$%$%%OOO   -- $%%%%$$$$$$$$OOOOO$$$$$$$%% ::::::::::::::::::::::",
":::::::: $%%$$$$$$$$$$%   OOOO -- O%%%%%$$$$$$$$OOOOO$$$$$$$%% ::::::::::::::::::::::",
"::::::: $$$$$$$$$$$$%% ;;;  O -- OO%$$$$$$$$$$$$%OOOO$$$$$%%% :::::::::::::::::::::::",
"::::::: $$$$$$$$$$%%% ;;;;;; --- OO$$$$$$$$$$$$$O% OO$$$$$$%% :::::::::::::::::::::::",
"::::::: %%%$$$$$$$$$.;;;;;;;;-- %%%%$$$$$$$$$$$$% : O%%%%$$$$$  :::::::::::::::::::::",
":::::: %%%$$$$$$$$% %;;;;;;;;- %%%%%$$$$$*$$$$$$%$ OOO%%$$$$$$% :::::::::::::::::::::",
":::::: %$$$$$$%%%%% =;;;;;;;; $$$$%$$$$$**$$$$$$%   OO$$$$$$$$%% ::::::::::::::::::::",
"::::: %%$$$$$$$%O%O O;;;;;;;; $$$$$$$$$$**$$$$$$ ::: OO$$$$$$$%% ::::::::::::::::::::",
"::::: %%$$%%%%%%OOOO *;;;;;;; %%$$$$$$$$**$$$$$$ ::: O%%$$$$$$% :::::::::::::::::::::",
"::::: **$&&&     OOO %%;;;;; =%%$$$$$$$$**$$$$%% :: OO%%$$$$$$% :::::::::::::::::::::",
"::::: &&&&& ::::: OOO  &&&  %*%%$$$$$$$$**$$$$$% ::: O%%$$$$$$ ::::::::::::::::::::::",
"::::: &&&&@ ::::: OOOOO   %%%*%%$$$$*$$$**$$$$$ ::::  O%$$$$$@@ :::::::::::::::::::::",
"::::: &&&&& :::::: OOOOOO$$$$$**$$****$$$$$$$$$$ ::::: OOOO@@&& :::::::::::::::::::::",
":::::: &&& ::::::: OOOOOO$$$$$$*$*$***$$$$$$$$$$ ::::: OX@#@@&& :::::::::::::::::::::",
":::::: &&& ::::::: OOOOOOO$$$$*********$$$$$$$$$ :::::: XX@@&&&& ::::::::::::::::::::",
":::::: &&& ::::::: OOOOOOOO$$$$********$$$$$$$$$ ::::::: X@@@&&& ::::::::::::::::::::",
":::::: &&& ::::::: OOOOOOO$$$******-*-**$$$$$$$$ ::::::: @@&&&&& ::::::::::::::::::::",
":::::: &&& ::::::: OOOOOO$$$$*$**---*-**$$$$$$$$% ::::::: X&@&&&& :::::::::::::::::::",
":::::: &&& ::::::: OOO$$$$$$$---*---****$$$$$$$$% ::::::: @@&&&&& :::::::::::::::::::",
":::::: &&& ::::::: OO$O$$$$$$*****$*$**$$$$$$$$$% :::::::: @&&&&&& ::::::::::::::::::",
":::::: &&& ::::::: O%%%%$$$$$***$$$$$$$$$$$$$$$$% ::::::::: &&&&&& ::::::::::::::::::",
":::::: &&& :::::: O%O%$%$$$$$$$$$$$$$$$$$$$$$$$$% :::::::: @@&&&&& ::::::::::::::::::",
":::::: && ::::::: O%$$$$$$$$$$$$$$$$$$$$$$$$$$$$% :::::::: @@&&&&&& :::::::::::::::::",
":::::: && ::::::: O%$$$$$$$$$$$$$$$$$$$$$$$$$$$$% :::::::: @@&&&&&& :::::::::::::::::",
":::::: && ::::::: $%$$$$$$$$$$$$$$$$$$$$$$$$$$%%% :::::::: @@&&&&&& :::::::::::::::::",
"::::: &&& ::::::: O%$$$$$$$$$$$$$$$$$$$$$$$$$$%%% :::::::: @@&&&&&& :::::::::::::::::",
"::::: && :::::::: O%$$$$$$$$$$$$$$$$$$$$$$$$$$%%% :::::::: @@@&&&&&& ::::::::::::::::",
"::::: && ::::::::: OO$$$$$$$$$$%$$$$$$O$$$$$O$OOOO :::::::: X@@&&&&& ::::::::::::::::",
"::::: && :::::::: +OOOO%%%%%%%%%$$$$$OOO$$$$$OOOOO :::::::: @@@&&&&& ::::::::::::::::",
":::: &&& :::::::: oooOOOOOOOOOOOOOOOOOOOOOO$OOOOOO ::::::::  #@&&&&& ::::::::::::::::",
":::: &&& :::::::: oooOOOOOOOOOOOOOOOOOOOOOOOOOOOOO :::::::::: &&&&&&& :::::::::::::::",
":::: &&& :::::::: ooooOOOOOOOOOOOOOOOOOOOOOOOOOOOO :::::::::: OO&&&&& :::::::::::::::",
":::: &&& :::::::: ooooOOOOOOOOOOOOOOOOOOOOOOOOOOOO :::::::::: **%%&&& :::::::::::::::",
":::: &&& :::::::: oooooOOOOOOOOOOOOOOOOOOOOOOOOOO+ :::::::::: %=*-**%% ::::::::::::::",
"::: &&&& :::::::: oXoooOOOOOOOOOOOOOOOOOOOOOOOOOOO ::::::::::: =***-** ::::::::::::::",
"::: &&& ::::::::: XXoooOOOOOOOOOOOOOOOOOOOOOOOOOOO+ :::::::::: O&&&&@* ::::::::::::::",
"::: &&& ::::::::: ooooOOOOOOOOOOOOOOOOOOOOOOOOOOOOO ::::::::::: @@&&&& ::::::::::::::",
"::: &&& :::::::::: ooooOOOOOOOOOOOOOOOOOOOOOOOOOOO+ ::::::::::: @@@&&& ::::::::::::::",
"::: &&& ::::::::::: oo+OOOOOOOOOOOOOOOOOOOOOOOOOOOO ::::::::::: @@&&&&& :::::::::::::",
"::: && ::::::::::::: ooOOOOOOOoOoOOOOOOOOOOOOOOOOOO :::::::::::: @@&&&& :::::::::::::",
":: &&& ::::::::::::: oOOOOOOOOOOOOOOOOOOOOOOOOOOOOO :::::::::::: @@&&&& :::::::::::::",
":: &&& :::::::::::: oooOOOOOoOoOoooXoOOOOOOOOOOOOOO ::::::::::::: @@@&& :::::::::::::",
":: && ::::::::::::: OOOOOOOOOOOOooXXXOOOOOOOOOOOOOO ::::::::::::: @@&&& :::::::::::::",
":: && :::::::::::: +oOoOOOOOoOoXooXXXOOOOOOOOOOOOOO ::::::::::::: @@@&&& ::::::::::::",
":: && :::::::::::: OOOOOOOOOOOOooooooOOOOOOOOOOOOOO :::::::::::::: @@&&& ::::::::::::",
": && :::::::::::::: OOOOOOOOOOoo ooooOOOOOOOOOOOOOO :::::::::::::: @@&&& ::::::::::::",
": && ::::::::::::: *%OOOOOOOOOOO ooooOOOOOOOOOOOOOO :::::::::::::: @@&&&& :::::::::::",
": && ::::::::::::: *-*%OO%OOOOOO XXooOOOOOOOOOOOOOO ::::::::::::  @@@&&&&& ::::::::::",
" &&& ::::::::::::: *----$$$OOOOO ooooOOOOO%%%OOOOOO ::::::::::: @@@@@&&&&& ::::::::::",
" &&& ::::::::::::: O*----$O$OOOOo ooooOOOOO%OOOOOOO :::::::::: @@@@@@&@&&&& :::::::::",
" &&&& :::::::::::: o%*----%%OOOO+ oooOOOOO%%%OOOOO ::::::::::: @@@@@@@&&&&& :::::::::",
"@&&&& :::::::::::: Xo*%----%OOOOo oooOOOOOO%OOOOOO :::::::::: @@@@@@@@@&&&&& ::::::::",
"@@&&& :::::::::::: OOO*$---$$OOO+  ooOOOOOOOOOOOOO ::::::::: @@@@@@@@@@@&&&& ::::::::",
"@@@@ & ::::::::::: OO$$*$---OOOO+ : oOOOOOOOOOOOOO ::::::::: @o@ooo@@@@@@@@&& :::::::",
"@@& : & ::::::::: O%%$$$$$*-$$OOO : oOOOOOOOOOOOOO ::::::::: @##  o@@@@@@@@@& :::::::",
"@@@ : & ::::::::: $*****$*$*-$OO+ : oOOOOOOOOOOOOO ::::::::: @X :: o@@@@@@@@@& ::::::",
"@@& ::  ::::::::: ------*$$$---OO : oOOOOOOOOOOOOO :::::::::    ::: @@@@@@@@@@ ::::::",
"@@& ::::::::::::: ------**$$$*-O+ : oOOOOOOOOOOOOO :::::::::::::::: o@ @@@@@@@@ :::::",
" @& ::::::::::::: -------**$$$$$O :: oOOOOOOOOOOO ::::::::::::::::: @ : @@@@@@@ :::::",
": @ ::::::::::::: -------***$$$$O :: oOOOOOOOOOOO ::::::::::::::::: @ : X@@@@@ ::::::",
"::  :::::::::::: -------;-*-%*%%% :: oOOOOOOOOOOO ::::::::::::::::: @ : o@@@@ :::::::",
":::::::::::::::: ;;------;*-*%$$% :: ooOOOOOOOOOO ::::::::::::::::: @ : ooo@ ::::::::",
"::::::::::::::::: ;;----;;-***$$ ::: oOOOOOOOOOOO ::::::::::::::::: @ ::    :::::::::",
"::::::::::::::::: %**---*-*****$ ::: OOOOOOOOOOOO :::::::::::::::::   :: ::::::::::::",
"::::::::::::::::: OO%**---*****$ ::: +OOOOOOOOOO ::::::::::::::::::::::::::::::::::::",
":::::::::::::::::: OO%*---*****$ ::: OOOOOOOOOOO ::::::::::::::::::::::::::::::::::::",
":::::::::::::::::: OOOO*---*$**$ ::: OOOOOOOOOOO ::::::::::::::::::::::::::::::::::::",
":::::::::::::::::: OoOO%*;;-*$$$ ::: +OOOOOOOOOO ::::::::::::::::::::::::::::::::::::",
":::::::::::::::::: OOOOO**;;;-$$ :::: OOOOOOOOOOO :::::::::::::::::::::::::::::::::::",
":::::::::::::::::: ooOoOOOO*;;-$ :::: OOOOOOOOOOO :::::::::::::::::::::::::::::::::::",
"::::::::::::::::::: OOOOOOOO$*$$ :::: OOOOOOOOOOOO ::::::::::::::::::::::::::::::::::",
"::::::::::::::::::: oOoOOOOOOOO$ :::: oOOOOOOOOOOOO :::::::::::::::::::::::::::::::::",
"::::::::::::::::::: oOOOOOOOOOOO :::: oOOOOOOOOOOOO :::::::::::::::::::::::::::::::::",
"::::::::::::::::::: oOoOoOOOOOOO :::: oOOOOOOOOOOOO :::::::::::::::::::::::::::::::::",
"::::::::::::::::::: oOOOOOOOOOOO :::: oOOOOOOOOOOOOO ::::::::::::::::::::::::::::::::",
":::::::::::::::::::: OoOoOOOOOOO ::::: OOOOOOOOOOOOO ::::::::::::::::::::::::::::::::",
":::::::::::::::::::: +OOOOOOOO++ ::::: +OOOOOOOOOOOO ::::::::::::::::::::::::::::::::",
"::::::::::::::::::: oooOoOoOOO+ :::::: +OOOOOOO%OOOO ::::::::::::::::::::::::::::::::",
":::::::::::::::::: oooOOOOOOOO+ ::::::: OOOOOOO%OOOOO :::::::::::::::::::::::::::::::",
"::::::::::::::::: oooooOOOOOOO+ ::::::: OOOOOOOOOOOOO :::::::::::::::::::::::::::::::",
":::::::::::::::: oooXXoOOOOOOOO :::::::: OOOOOOOOOOOO :::::::::::::::::::::::::::::::",
"::::::::::::::: ooooXooXoOOOOOO+ ::::::: +OOOOOOOOO%O :::::::::::::::::::::::::::::::",
"::::::::::::::: XXXXXXXooOOOOOO ::::::::: OOOOOOOOOO% :::::::::::::::::::::::::::::::",
":::::::::::::: XXXXXXXXooooooO+ ::::::::: oOOOOOOOOOO% ::::::::::::::::::::::::::::::",
":::::::::::::: XXXXXXXXXXXooo+ ::::::::::: OOOOOOOOOOO ::::::::::::::::::::::::::::::",
"::::::::::::: XXooXXXXXXXXXooo ::::::::::: +OOOOOOOOOO ::::::::::::::::::::::::::::::",
"::::::::::::: XXooooXXXXXooo  ::::::::::::: OOOOOOOOOO ::::::::::::::::::::::::::::::",
":::::::::::::  XooooXXXXXoo ::::::::::::::: OOOOOOOOO+ ::::::::::::::::::::::::::::::",
"::::::::::::    oooooooo   ::::::::::::::::: OOOOOOOOO ::::::::::::::::::::::::::::::",
"::::::::::::: oo    ..  :::::::::::::::::::: OOOOOOOOOO :::::::::::::::::::::::::::::",
":::::::::::::  oooXXooo ::::::::::::::::::::: OOOOOOOOO :::::::::::::::::::::::::::::",
"::::::::::::: .oooXXooo ::::::::::::::::::::: oOOOOOOOO :::::::::::::::::::::::::::::",
":::::::::::::: oooXXXXX :::::::::::::::::::::: OOOOOOOO :::::::::::::::::::::::::::::",
":::::::::::::: oooXXXXo :::::::::::::::::::::: ooOOOOOO :::::::::::::::::::::::::::::",
":::::::::::::: ooXXXooo ::::::::::::::::::::::: oOOOOOOO ::::::::::::::::::::::::::::",
":::::::::::::: oXXXXooo ::::::::::::::::::::::: oX##@&#& ::::::::::::::::::::::::::::",
"::::::::::::::: ooXXXXXX ::::::::::::::::::::::: #@&&&&& ::::::::::::::::::::::::::::",
"::::::::::::::: ooXXXXXX ::::::::::::::::::::::: #@&&&&& ::::::::::::::::::::::::::::",
"::::::::::::::: oXXXXXXX ::::::::::::::::::::::: @@&&&&&& :::::::::::::::::::::::::::",
"::::::::::::::: XXXXXXXX ::::::::::::::::::::::: @@&&&&&& :::::::::::::::::::::::::::",
":::::::::::::::: oooXXXX :::::::::::::::::::::::: @@&&&&& :::::::::::::::::::::::::::",
":::::::::::::::: oXXXoXXo ::::::::::::::::::::::: o@@&&&& :::::::::::::::::::::::::::",
":::::::::::::::: oooooooo ::::::::::::::::::::::: ooX@&&&& ::::::::::::::::::::::::::",
":::::::::::::::: oooooooo :::::::::::::::::::::: oooXXXX&& ::::::::::::::::::::::::::",
"::::::::::::::::: oooooo :::::::::::::::::::::: XXXXXXXXX@@ :::::::::::::::::::::::::",
":::::::::::::::::       ::::::::::::::::::::::: XXXXXXXXX@o :::::::::::::::::::::::::",
"::::::::::::::::::::::::::::::::::::::::::::::: XXXXXXXXXX@ :::::::::::::::::::::::::",
":::::::::::::::::::::::::::::::::::::::::::::::: XXXXXXXXXX :::::::::::::::::::::::::",
":::::::::::::::::::::::::::::::::::::::::::::::: ooXXXXXooo :::::::::::::::::::::::::",
"::::::::::::::::::::::::::::::::::::::::::::::: XXoXXXXXXoo :::::::::::::::::::::::::",
"::::::::::::::::::::::::::::::::::::::::::::::: XXooXXXXXXo :::::::::::::::::::::::::",
"::::::::::::::::::::::::::::::::::::::::::::::: XXXoXXXXXXo :::::::::::::::::::::::::",
"::::::::::::::::::::::::::::::::::::::::::::::: ooooXooooo ::::::::::::::::::::::::::",
":::::::::::::::::::::::::::::::::::::::::::::::           :::::::::::::::::::::::::::",
":::::::::::::::::::::::::::::::::::::::::::::::::::::::::::::::::::::::::::::::::::::"
};
