/* XPM */
static char *_9_fps_zombie_WALK_crop[] = {
/* columns rows colors chars-per-pixel */
"85 167 18 1 ",
"  c black",
". c #010000",
"X c #00070A",
"o c #01070A",
"O c #1C0000",
"+ c #063938",
"@ c #073938",
"# c #460100",
"$ c #470100",
"% c #1D5D5A",
"& c #1D5D5B",
"* c #960D00",
"= c #970D00",
"- c #F20802",
"; c #F30802",
": c #F30803",
"> c #DFB77B",
", c None",
/* pixels */
",,,,,,,,,,,,,,,,,,,,,,,,,,,,,,,,,,,,,,,,,,,,,,,,,,,,,,,,,,,,,,,,,,,,,,,,,,,,,,,,,,,,,",
",,,,,,,,,,,,,,,,,,,,,,,,,,,,,,,,,,,,,,,,,,,,,,,,,,,,,,,,,,,,,,,,,,,,,,,,,,,,,,,,,,,,,",
",,,,,,,,,,,,,,,,,,,,,,,,,,,,,,,,,,,,,,,,,,,,,,,,,,,,,,,,,,,,,,,,,,,,,,,,,,,,,,,,,,,,,",
",,,,,,,,,,,,,,,,,,,,,,,,,,,,,,,,,,,,,,,,,,,,,,,,,,,,,,,,,,,,,,,,,,,,,,,,,,,,,,,,,,,,,",
",,,,,,,,,,,,,,,,,,,,,,,,,,,,,,,,,,,,,,,,,,,,,,,,,,,,,,,,,,,,,,,,,,,,,,,,,,,,,,,,,,,,,",
",,,,,,,,,,,,,,,,,,,,,,,,,,,,,,,,,,,,,,,,,,,,,,,,,,,,,,,,,,,,,,,,,,,,,,,,,,,,,,,,,,,,,",
",,,,,,,,,,,,,,,,,,,,,,,,,,,,,,,,,,,,,,,,,,,,,,,,,,,,,,,,,,,,,,,,,,,,,,,,,,,,,,,,,,,,,",
",,,,,,,,,,,,,,,,,,,,,,,,,,,,,,,,,,,,,,,,,,,,,,,,,,,,,,,,,,,,,,,,,,,,,,,,,,,,,,,,,,,,,",
",,,,,,,,,,,,,,,,,,,,,,,,,,,,,,,,,,,,,,,,,,,,,,,,,,,,,,,,,,,,,,,,,,,,,,,,,,,,,,,,,,,,,",
",,,,,,,,,,,,,,,,,,,,,,,,,,,,,,,,,,,,,,,,,,, ,,,,,,,,,,,,,,,,,,,,,,,,,,,,,,,,,,,,,,,,,",
",,,,,,,,,,,,,,,,,,,,,,,,,,,,,,,,,,,,,,,,,,  ,,,,,,,,,,,,,,,,,,,,,,,,,,,,,,,,,,,,,,,,,",
",,,,,,,,,,,,,,,,,,,,,,,,,,,,,,,,,,,,,,,,,,  ,,,,,,,,,,,,,,,,,,,,,,,,,,,,,,,,,,,,,,,,,",
",,,,,,,,,,,,,,,,,,,,,,,,,,,,,,,,,,,,    , oo ,,,,,,,,,,,,,,,,,,,,,,,,,,,,,,,,,,,,,,,,",
",,,,,,,,,,,,,,,,,,,,,,,,,,,,,,,,,,,,,,,  oooo  ,,,,,,,,,,,,,,,,,,,,,,,,,,,,,,,,,,,,,,",
",,,,,,,,,,,,,,,,,,,,,,,,,,,,,,,,,,,,,,, ooooooo    ,,,,,,,,,,,,,,,,,,,,,,,,,,,,,,,,,,",
",,,,,,,,,,,,,,,,,,,,,,,,,,,,,,,,,,,,,,,, oooooooooo ,,,,,,,,,,,,,,,,,,,,,,,,,,,,,,,,,",
",,,,,,,,,,,,,,,,,,,,,,,,,,,,, ,,,,,,,,, oooooooooooo ,,,,,,,,,,,,,,,,,,,,,,,,,,,,,,,,",
",,,,,,,,,,,,,,,,,,,,,,,,,,,,,   ,      oooooooooooooo ,,,,,,,,,,,,,,,,,,,,,,,,,,,,,,,",
",,,,,,,,,,,,,,,,,,,,,,,,,,,,, =: :::;&oooooooooooooooo ,,,,,,,,,,,,,,,,,,,,,,,,,,,,,,",
",,,,,,,,,,,,,,,,,,,,,,,,,,,,, =::::&&&ooooooooooooooooo ,,,,,,,,,,,,,,,,,,,,,,,,,,,,,",
",,,,,,,,,,,,,,,,,,,,,,,,,,,, ==::&&&&&&ooooooo++ooooooo+ ,,,,,,,,,,,,,,,,,,,,,,,,,,,,",
",,,,,,,,,,,,,,,,,,,,,,,,,,,, =+&&&&&#=+&ooooooo+oooooooo ,,,,,,,,,,,,,,,,,,,,,,,,,,,,",
",,,,,,,,,,,,,,,,,,,,,,,,,,,, =&&&&&&:=&&+oooooo++ooooooo+ ,,,,,,,,,,,,,,,,,,,,,,,,,,,",
",,,,,,,,,,,,,,,,,,,,,,,,,,,, =&&&&&&+&&&&+oooooooooooooo ,,,,,,,,,,,,,,,,,,,,,,,,,,,,",
",,,,,,,,,,,,,,,,,,,,,,,,,,, :=&&&&&&&&&&&&&oooooooooooooo    ,,,,,,,,,,,,,,,,,,,,,,,,",
",,,,,,,,,,,,,,,,,,,,,,,,,,, ==&&&&&&&&&&&&&+oooooooooooooooo  ,,,,,,,,,,,,,,,,,,,,,,,",
",,,,,,,,,,,,,,,,,,,,,,,,,,, :=&&&&&&&&&&&&&&+oooooooooooo   ,,,,,,,,,,,,,,,,,,,,,,,,,",
",,,,,,,,,,,,,,,,,,,,,,,,,,  ==&&&&&&&&&&&&&&+++ooooooooo ,,,,,,,,,,,,,,,,,,,,,,,,,,,,",
",,,,,,,,,,,,,,,,,,,,,,,,,,  ==&&&&&&&&&&&+&&&&++ooooooo ,,,,,,,,,,,,,,,,,,,,,,,,,,,,,",
",,,,,,,,,,,,,,,,,,,,,,,,,,  ==&&&&&&&&&&;=+&+&++++ooooo ,,,,,,,,,,,,,,,,,,,,,,,,,,,,,",
",,,,,,,,,,,,,,,,,,,,,,,,,, #:=&&&&&&&&&::=&&&&&+++ooooo ,,,,,,,,,,,,,,,,,,,,,,,,,,,,,",
",,,,,,,,,,,,,,,,,,,,,,,,, ==*=+&&&&&&&=::::&+&++++ooo  ,,,,,,,,,,,,,,,,,,,,,,,,,,,,,,",
",,,,,,,,,,,,,,,,,,,,,,,,, =:;&&&&&&&&+::::=&&&+++o++ , ,,,,,,,,,,,,,,,,,,,,,,,,,,,,,,",
",,,,,,,,,,,,,,,,,,,,,,,,, =:=&+&+&+&+&=:::+&++++++++o  ,,,,,,,,,,,,,,,,,,,,,,,,,,,,,,",
",,,,,,,,,,,,,,,,,,,,,,,, ==:;&&&&+&&++#::#&&&+++++++ ##   ,,,,,,,,,,,,,,,,,,,,,,,,,,,",
",,,,,,,,,,,,,,,,,,,,,,,  =::++=o+++++++=:&+&++++++++###### ,,,,,,,,,,,,,,,,,,,,,,,,,,",
",,,,,,,,,,,,,,,,,,,,,,  ==::&;>;oo+++++=:&&&+++++++####### ,,,,,,,,,,,,,,,,,,,,,,,,,,",
",,,,,,,,,,,,,,,,,,,,, # #=::oo;;::o+++++:&+++++++++######## ,,,,,,,,,,,,,,,,,,,,,,,,,",
",,,,,,,,,,,,,,,,,,,, ## =::&ooooo::o++++:&&++++++&######### ,,,,,,,,,,,,,,,,,,,,,,,,,",
",,,,,,,,,,,,,,,,,,, ## ##:=&oooooooo++++:&+++++++########## ,,,,,,,,,,,,,,,,,,,,,,,,,",
",,,,,,,,,,,,,,,,,, ### $=:&+oooooooo++++:+++++++########### ,,,,,,,,,,,,,,,,,,,,,,,,,",
",,,,,,,,,,,,,,,,, ##O# #==&@oooooooo++++:+++O+++########### ,,,,,,,,,,,,,,,,,,,,,,,,,",
",,,,,,,,,,,,,,,, ##### #=&&@oooooo+o++++++++OOO############ ,,,,,,,,,,,,,,,,,,,,,,,,,",
",,,,,,,,,,,,,,, ####O O&&&&@oooooooo+++++++O ############## ,,,,,,,,,,,,,,,,,,,,,,,,,",
",,,,,,,,,,,,,,, ####$ #&&&&+=:ooooo++++;++O ############### ,,,,,,,,,,,,,,,,,,,,,,,,,",
",,,,,,,,,,,,,, #####O O&&&&&O:::ooo+++++++O ################ ,,,,,,,,,,,,,,,,,,,,,,,,",
",,,,,,,,,,,,, ######## O&&&&&&=;;;oo+++++O ################# ,,,,,,,,,,,,,,,,,,,,,,,,",
",,,,,,,,,,,, #########O O&&&&&&&+=#+++++@O #######OOO####### ,,,,,,,,,,,,,,,,,,,,,,,,",
",,,,,,,,,,,, ##########O.O&&&&&&&&&&&;++O $$#######OO####### ,,,,,,,,,,,,,,,,,,,,,,,,",
",,,,,,,,,,, ##########O#O.O@@&&&&&&&++++O ########OOOO###### ,,,,,,,,,,,,,,,,,,,,,,,,",
",,,,,,,,,, #############OO O@&&&&&&&;++O ########OOOO######## ,,,,,,,,,,,,,,,,,,,,,,,",
",,,,,,,,, ############$ ..  oooo++@;++oO #######OOOOO######## ,,,,,,,,,,,,,,,,,,,,,,,",
",,,,,,,, ############# >>>>>>    @;;OOO $########O OO######### ,,,,,,,,,,,,,,,,,,,,,,",
",,,,,,,, ###########$ #>>>>>> o  ;;    #$#######OO OO######### ,,,,,,,,,,,,,,,,,,,,,,",
",,,,,,,, ########### $;>>>>>>> >;; $$$########### , O######### ,,,,,,,,,,,,,,,,,,,,,,",
",,,,,,, ############ $=>>>>>>>;;; $$#$##########O , O######## ,,,,,,,,,,,,,,,,,,,,,,,",
",,,,,,, ############ =>>>>>>>>;: $#######=####### , O######### ,,,,,,,,,,,,,,,,,,,,,,",
",,,,,, ###########O$$ @>>>>>>># $$#######=###### ,, OO#########  ,,,,,,,,,,,,,,,,,,,,",
",,,,,, ##########OO$# &>>>>>>  #########==###### ,, OO########## ,,,,,,,,,,,,,,,,,,,,",
",,,,,, #########  OOOO &@&&& ###########==###### ,, OOO######### ,,,,,,,,,,,,,,,,,,,,",
",,,,,, ==#####  ,  OOOO     ############==##### ,,,, ########### ,,,,,,,,,,,,,,,,,,,,",
",,,,,, &&&+#  ,,,, OOOOOO#$#################### ,,,, ########## ,,,,,,,,,,,,,,,,,,,,,",
",,,,,, &&&& ,,,,,,   OOOO######=###===######## # ,,, ########## ,,,,,,,,,,,,,,,,,,,,,",
",,,,,, &&&& ,,,,,, OOOOOO##########=#= # ###  ## ,,, OO######## ,,,,,,,,,,,,,,,,,,,,,",
",,,,,, &&&& ,,,,,, OOOOOO#######***==***######## ,,,  OOO###+&+ ,,,,,,,,,,,,,,,,,,,,,",
",,,,,, &&& ,,,,,,, OOOOOO#######***=****######### ,,,, OoO+++&& ,,,,,,,,,,,,,,,,,,,,,",
",,,,,, &&& ,,,,,,, OOO$#######=:**--****######### ,,,,, o++&&&&& ,,,,,,,,,,,,,,,,,,,,",
",,,,,, &&& ,,,,,, OOO$#########=*******=######### ,,,,, o++&&&&& ,,,,,,,,,,,,,,,,,,,,",
",,,,,, &&& ,,,,,, O#############========######### ,,,,,, ++&&&&& ,,,,,,,,,,,,,,,,,,,,",
",,,,,, &&& ,,,,,, O################=#=########### ,,,,,, ++&&&&& ,,,,,,,,,,,,,,,,,,,,",
",,,,,, &&& ,,,,,, ############################### ,,,,,,, +&&&&&& ,,,,,,,,,,,,,,,,,,,",
",,,,,, &&& ,,,,,, O############################## ,,,,,,, o&&&&&& ,,,,,,,,,,,,,,,,,,,",
",,,,,, &&& ,,,,,, ############################### ,,,,,,,, +&&&&&& ,,,,,,,,,,,,,,,,,,",
",,,,,, &&& ,,,,,, O#############################O ,,,,,,,,, &&&&&& ,,,,,,,,,,,,,,,,,,",
",,,,,, &&& ,,,,,,, ####$###$##################### ,,,,,,,,, &&&&&& ,,,,,,,,,,,,,,,,,,",
",,,,,, && ,,,,,,, OOOOO$OOO$O###O#O#O#OOO#O#O#OOOO ,,,,,,, ++&&&&&& ,,,,,,,,,,,,,,,,,",
",,,,,, && ,,,,,,, ooOOOOOOOOOOOOOOOOOOOOOOOOOOOOOO ,,,,,,, +&&&&&&& ,,,,,,,,,,,,,,,,,",
",,,,,, && ,,,,,,, ooXOOOOOOOOOOOOOOOOOOOOOOOOOOOOO ,,,,,,, ++&&&&&& ,,,,,,,,,,,,,,,,,",
",,,,, &&& ,,,,,,, oooOOOOOOOOOOOOOOOOOOOOOOOOOOOOO ,,,,,,, ++&&&&&& ,,,,,,,,,,,,,,,,,",
",,,,, && ,,,,,,,, ooooXOOOOOOOOOOOOOOOOOOOOOOOOOOO ,,,,,,, ++&&&&&& ,,,,,,,,,,,,,,,,,",
",,,,, && ,,,,,,,, ooooOOOOOOOOOOOOOOOOOOOOOOOOOOOO ,,,,,,, ++&&&&&& ,,,,,,,,,,,,,,,,,",
",,,,, && ,,,,,,,, oooooOOOOOOOOOOOOOOOOOOOOOOOOOOOO ,,,,,,, +&&&&&&& ,,,,,,,,,,,,,,,,",
",,,, &&& ,,,,,,,, oooOOOOOOOOOOOOOOOOOOOOOOOOOOOOOO ,,,,,,, +&&&&&&& ,,,,,,,,,,,,,,,,",
",,,, &&& ,,,,,,,,, ooOOOOOOOOOOOOOOOOOOOOOOOOOOOOOO ,,,,,,,, &&&&&&& ,,,,,,,,,,,,,,,,",
",,,, &&& ,,,,,,,,,, XOOOOOOOOOOOOOOOOOOOOOOOOOOOOOO ,,,,,,,,, OO&&&& ,,,,,,,,,,,,,,,,",
",,,, &&& ,,,,,,,,,, oOOOOOOOOOOOOOOOOOOOOOOOOOOOOOO ,,,,,,,, ==OOO&& ,,,,,,,,,,,,,,,,",
",,,, &&& ,,,,,,,,,, oOOOOOOOOOOOOOOOOOOOOOOOOOOOOOO ,,,,,,,, =::;;=O& ,,,,,,,,,,,,,,,",
",,, &&&& ,,,,,,,,,, oOOOOOOOOOoOXOXOOOOOOOOOOOOOOOO ,,,,,,,, O#==;;;= ,,,,,,,,,,,,,,,",
",,, &&& ,,,,,,,,,, XOOOOOOOOOOOOOoOOOOOOOOOOOOOOOOO ,,,,,,,,, +&&&&=: ,,,,,,,,,,,,,,,",
",,, &&& ,,,,,,,,,, OOOOOOOOOOOoOoooOoOOOOOOOOOOOOOO ,,,,,,,,, +&&&&&& ,,,,,,,,,,,,,,,",
",,, &&& ,,,,,,,,,, OOOOOOOOOOOOOooooOOOOOOOOOOOOOOO ,,,,,,,,,, +&&&&& ,,,,,,,,,,,,,,,",
",,, && ,,,,,,,,,,, #OOOOOOOOOOOOoooooOOOOOOOOOOOOOO ,,,,,,,,,, ++&&&& ,,,,,,,,,,,,,,,",
",,, && ,,,,,,,,,,, ===#O$###OOOOOooooOOOOOOOOOOOOOOO ,,,,,,,,, +&&&&&& ,,,,,,,,,,,,,,",
",,, && ,,,,,,,,,,, :::::$###OOOO ooooXOOOOOOOOOOOOOO ,,,,,,,,,, +&&&&& ,,,,,,,,,,,,,,",
",, &&& ,,,,,,,,,, O=:::::###OOOOO ooXXOOOOOOOOOOOOOO ,,,,,,,,,, +&&&&& ,,,,,,,,,,,,,,",
",, && ,,,,,,,,,,, OO#=::::##OOOOo ooXXXOOOOOOOOOOOOO ,,,,,,,,,, +&&&&& ,,,,,,,,,,,,,,",
",, && ,,,,,,,,,,, OOO#==---##OOOO  oooOOOOOOOOOOOOOO ,,,,,,,,,,, +&&&& ,,,,,,,,,,,,,,",
",, && ,,,,,,,,,,, OOO####--##OOOO , oooOOOOOOOOOOOOO ,,,,,,,,,,, ++&&& ,,,,,,,,,,,,,,",
",, & ,,,,,,,,,,,, ##O#==#=--#OOOO , oooOOOOOOOOOOOOO ,,,,,,,,,,, +&&&& ,,,,,,,,,,,,,,",
", && ,,,,,,,,,,,, ##=:-:-=#-:#OOO , oooOOOOOOOOOOOOO ,,,,,,,,,,, ++&&& ,,,,,,,,,,,,,,",
", &&& ,,,,,,,,,,, :::::::-=##:;OO , oooOOOOOOOOOOOOO ,,,,,,,,,,, +&&&&& ,,,,,,,,,,,,,",
" &&&& ,,,,,,,,,,, :::::::-:###;OO ,, ooOOOOOOOOOOOOO ,,,,,,,,,, +&+&&&& ,,,,,,,,,,,,,",
" &&&&& ,,,,,,,,,, :::::::::=####O ,, ooOOOOOOOOOOOOO ,,,,,,,,, ++&&&&&&& ,,,,,,,,,,,,",
" &&&&& ,,,,,,,,,, ::::::::-:####O ,, ooOOOOOOOOOOOOO ,,,,,,,, +++&+&&&&&& ,,,,,,,,,,,",
" @&&&&& ,,,,,,,, *::::::>:-::#### ,,, oOOOOOOOOOOOOO ,,,,,,,, ++++&&&&&&& ,,,,,,,,,,,",
" @&&+ & ,,,,,,,, >>:::::::=::=## ,,,, oOOOOOOOOOOOOO ,,,,,,, ++++++&&&&&&& ,,,,,,,,,,",
" +&& , & ,,,,,,, #>>::::>>:-::=# ,,,, ooOOOOOOOOOOOO ,,,,,,, ++++++&&&&&&& ,,,,,,,,,,",
"+++& , & ,,,,,,,, #O*::::>:=::=# ,,,, ooOOOOOOOOOOOO ,,,,,, +++++++&+&&&&& ,,,,,,,,,,",
"+++& ,, ,,,,,,,,, OOO#*----*:::= ,,,,, oOOOOOOOOOOO ,,,,,, +++o+++++&&&&&&& ,,,,,,,,,",
"+++& ,,,,,,,,,,,, XOOO##**=*=:== ,,,,, ooOOOOOOOOOO ,,,,,, +++o +++++&+&&&& ,,,,,,,,,",
" +&& ,,,,,,,,,,,,, OOOO#*>>>==== ,,,,, oOOOOOOOOOOO ,,,,,, +++ , +++++&&&&& ,,,,,,,,,",
",  + ,,,,,,,,,,,,, XXOOO###>>>== ,,,,, ooOOOOOOOOOO ,,,,,, +o ,,, +++++++&+& ,,,,,,,,",
",,, ,,,,,,,,,,,,,, XOOOOOO$$#>># ,,,,, ooOOOOOOOOOO ,,,,,, ++ ,,, ++++++++&& ,,,,,,,,",
",,,,,,,,,,,,,,,,,, XoOOOOOO$#=## ,,,,, ooOOOOOOOOOO ,,,,,,,  ,,,, ++ ++++++&& ,,,,,,,",
",,,,,,,,,,,,,,,,,,, ooOOOOOO##$$ ,,,,,, oOOOOOOOOOO ,,,,,,,,,,,,, + , +++++&& ,,,,,,,",
",,,,,,,,,,,,,,,,,,, oOoOOOOOOOO$ ,,,,,, OOOOOOOOOOO ,,,,,,,,,,,,, + , +++++++ ,,,,,,,",
",,,,,,,,,,,,,,,,,,, XoOOOOOOOOOO ,,,,,, OOOOOOOOOOO ,,,,,,,,,,,,, + , ++++++& ,,,,,,,",
",,,,,,,,,,,,,,,,,,, oooOOOOOOOOO ,,,,,, OOOOOOOOOOO ,,,,,,,,,,,,, + , ++++++ ,,,,,,,,",
",,,,,,,,,,,,,,,,,,, oooOOOOOOOOO ,,,,,, OOOOOOOOOOO ,,,,,,,,,,,,, + , +++++ ,,,,,,,,,",
",,,,,,,,,,,,,,,,,,,, ooOOOOOOOOO ,,,,,, OOOOOOOOOOO ,,,,,,,,,,,,, + ,, +++ ,,,,,,,,,,",
",,,,,,,,,,,,,,,,,,,, oooOOOOOOOO ,,,,,,, OOOOOOOOOOO ,,,,,,,,,,,, + ,,    ,,,,,,,,,,,",
",,,,,,,,,,,,,,,,,,  ooooXOOOOOO ,,,,,,,, OOOOOOOOOOO ,,,,,,,,,,,,   ,, ,,,,,,,,,,,,,,",
",,,,,,,,,,,,,,,,,, oooooOOOOOOO ,,,,,,, OOOOOOOOOOOOO ,,,,,,,,,,,,,,,,,,,,,,,,,,,,,,,",
",,,,,,,,,,,,,,,,, ooooooXOOOOOOO ,,,,,, oOOOOOOOOOOOO ,,,,,,,,,,,,,,,,,,,,,,,,,,,,,,,",
",,,,,,,,,,,,,,,, oooooooOOOOOOOO ,,,,,, oOOOOOOOOOOOO ,,,,,,,,,,,,,,,,,,,,,,,,,,,,,,,",
",,,,,,,,,,,,,,, oooooooooOOOOOOO ,,,,,,, OoOOOOOOOOOOO ,,,,,,,,,,,,,,,,,,,,,,,,,,,,,,",
",,,,,,,,,,,,,, oooooooooOOOOOOOO ,,,,,,, OOOOOOOOOOOOO ,,,,,,,,,,,,,,,,,,,,,,,,,,,,,,",
",,,,,,,,,,,,,, ooooooooooOXOOOO ,,,,,,,, ooOOOOOOOOOOO ,,,,,,,,,,,,,,,,,,,,,,,,,,,,,,",
",,,,,,,,,,,,, oooooooooooooOOO ,,,,,,,,,, OOOOOOOOOOOO ,,,,,,,,,,,,,,,,,,,,,,,,,,,,,,",
",,,,,,,,,,,, oooooooooooooooo ,,,,,,,,,,, oOOOOOOOOOOO ,,,,,,,,,,,,,,,,,,,,,,,,,,,,,,",
",,,,,,,,,,,, ooooooooooooooo ,,,,,,,,,,,, oOOOOOOOOOOOO ,,,,,,,,,,,,,,,,,,,,,,,,,,,,,",
",,,,,,,,,,,  oooooooooooooo ,,,,,,,,,,,,,, OoOOOOOOOOOO ,,,,,,,,,,,,,,,,,,,,,,,,,,,,,",
",,,,,,,,,,, .oooooooooooo  ,,,,,,,,,,,,,,, OOOOOOOOOOOO ,,,,,,,,,,,,,,,,,,,,,,,,,,,,,",
",,,,,,,,,,, ..oooooOoo   ,,,,,,,,,,,,,,,,,, oOOOOOOOOOO ,,,,,,,,,,,,,,,,,,,,,,,,,,,,,",
",,,,,,,,,,, oo.oooooO ,,,,,,,,,,,,,,,,,,,,, OOOOOOOOOOO ,,,,,,,,,,,,,,,,,,,,,,,,,,,,,",
",,,,,,,,,,, ooo..    ,,,,,,,,,,,,,,,,,,,,,, oOoOOOOOOOO ,,,,,,,,,,,,,,,,,,,,,,,,,,,,,",
",,,,,,,,,,, oooooooo ,,,,,,,,,,,,,,,,,,,,,,, OOOOOOOOOO ,,,,,,,,,,,,,,,,,,,,,,,,,,,,,",
",,,,,,,,,,, oooooooo ,,,,,,,,,,,,,,,,,,,,,,, ooOOOOOOOOO ,,,,,,,,,,,,,,,,,,,,,,,,,,,,",
",,,,,,,,,,, oooooooo ,,,,,,,,,,,,,,,,,,,,,,,, OOOOOOOOOO ,,,,,,,,,,,,,,,,,,,,,,,,,,,,",
",,,,,,,,,,, oooooooo ,,,,,,,,,,,,,,,,,,,,,,,, oOOOOOOOOO ,,,,,,,,,,,,,,,,,,,,,,,,,,,,",
",,,,,,,,,,, ooooooo ,,,,,,,,,,,,,,,,,,,,,,,,,, OOOOOOOOO ,,,,,,,,,,,,,,,,,,,,,,,,,,,,",
",,,,,,,,,,, ooooooo ,,,,,,,,,,,,,,,,,,,,,,,,,, OoOOOOOOO ,,,,,,,,,,,,,,,,,,,,,,,,,,,,",
",,,,,,,,,, oooooooo ,,,,,,,,,,,,,,,,,,,,,,,,,,, OOOOOOOO ,,,,,,,,,,,,,,,,,,,,,,,,,,,,",
",,,,,,,,,, oooooooo ,,,,,,,,,,,,,,,,,,,,,,,,,,, oOOOOOOO ,,,,,,,,,,,,,,,,,,,,,,,,,,,,",
",,,,,,,,,, oooooooo ,,,,,,,,,,,,,,,,,,,,,,,,,,, ooOOOOOO ,,,,,,,,,,,,,,,,,,,,,,,,,,,,",
",,,,,,,,, ooooooooo ,,,,,,,,,,,,,,,,,,,,,,,,,,,, ooOOOOO ,,,,,,,,,,,,,,,,,,,,,,,,,,,,",
",,,,,,,,, oooooooo ,,,,,,,,,,,,,,,,,,,,,,,,,,,,, X@@++&@& ,,,,,,,,,,,,,,,,,,,,,,,,,,,",
",,,,,,,,, oooooooo ,,,,,,,,,,,,,,,,,,,,,,,,,,,,,, @@&&&&& ,,,,,,,,,,,,,,,,,,,,,,,,,,,",
",,,,,,,,, oooooooo ,,,,,,,,,,,,,,,,,,,,,,,,,,,,,, @@&&&&& ,,,,,,,,,,,,,,,,,,,,,,,,,,,",
",,,,,,,,, oooooooo ,,,,,,,,,,,,,,,,,,,,,,,,,,,,,, @@&&&&& ,,,,,,,,,,,,,,,,,,,,,,,,,,,",
",,,,,,,, ooooooooo ,,,,,,,,,,,,,,,,,,,,,,,,,,,,,, @@&&&&& ,,,,,,,,,,,,,,,,,,,,,,,,,,,",
",,,,,,,,, ooooooo ,,,,,,,,,,,,,,,,,,,,,,,,,,,,,,, X@@&&&&& ,,,,,,,,,,,,,,,,,,,,,,,,,,",
",,,,,,,,,,  ooooo ,,,,,,,,,,,,,,,,,,,,,,,,,,,,,,, X@@&&&&& ,,,,,,,,,,,,,,,,,,,,,,,,,,",
",,,,,,,,,,,,  o  ,,,,,,,,,,,,,,,,,,,,,,,,,,,,,,,, ooX@&&&& ,,,,,,,,,,,,,,,,,,,,,,,,,,",
",,,,,,,,,,,,,, ,,,,,,,,,,,,,,,,,,,,,,,,,,,,,,,,, oooXoooX& ,,,,,,,,,,,,,,,,,,,,,,,,,,",
",,,,,,,,,,,,,,,,,,,,,,,,,,,,,,,,,,,,,,,,,,,,,,,, oooooooXX@ ,,,,,,,,,,,,,,,,,,,,,,,,,",
",,,,,,,,,,,,,,,,,,,,,,,,,,,,,,,,,,,,,,,,,,,,,,,, ooooooooo@X ,,,,,,,,,,,,,,,,,,,,,,,,",
",,,,,,,,,,,,,,,,,,,,,,,,,,,,,,,,,,,,,,,,,,,,,,,, oooooooooXX ,,,,,,,,,,,,,,,,,,,,,,,,",
",,,,,,,,,,,,,,,,,,,,,,,,,,,,,,,,,,,,,,,,,,,,,,,, oooooooooX@ ,,,,,,,,,,,,,,,,,,,,,,,,",
",,,,,,,,,,,,,,,,,,,,,,,,,,,,,,,,,,,,,,,,,,,,,,,, oooooooooX ,,,,,,,,,,,,,,,,,,,,,,,,,",
",,,,,,,,,,,,,,,,,,,,,,,,,,,,,,,,,,,,,,,,,,,,,,,, oooooooooo ,,,,,,,,,,,,,,,,,,,,,,,,,",
",,,,,,,,,,,,,,,,,,,,,,,,,,,,,,,,,,,,,,,,,,,,,,,, oooooooooo ,,,,,,,,,,,,,,,,,,,,,,,,,",
",,,,,,,,,,,,,,,,,,,,,,,,,,,,,,,,,,,,,,,,,,,,,,,, oooooooooo ,,,,,,,,,,,,,,,,,,,,,,,,,",
",,,,,,,,,,,,,,,,,,,,,,,,,,,,,,,,,,,,,,,,,,,,,,,, ooooooooo ,,,,,,,,,,,,,,,,,,,,,,,,,,",
",,,,,,,,,,,,,,,,,,,,,,,,,,,,,,,,,,,,,,,,,,,,,,,,   o      ,,,,,,,,,,,,,,,,,,,,,,,,,,,",
",,,,,,,,,,,,,,,,,,,,,,,,,,,,,,,,,,,,,,,,,,,,,,,,,,, ,,,,,,,,,,,,,,,,,,,,,,,,,,,,,,,,,",
",,,,,,,,,,,,,,,,,,,,,,,,,,,,,,,,,,,,,,,,,,,,,,,,,,,,,,,,,,,,,,,,,,,,,,,,,,,,,,,,,,,,,"
};
