/* XPM */
static char *_0_fps_zombie_WALK_crop[] = {
/* columns rows colors chars-per-pixel */
"85 167 18 1 ",
"  c black",
". c #010001",
"X c #00070A",
"o c #01070A",
"O c #01070B",
"+ c #1C0000",
"@ c #1C0100",
"# c #063938",
"$ c #073938",
"% c #460100",
"& c #470100",
"* c #1D5D5A",
"= c #1C5D5B",
"- c #1D5D5B",
"; c #960D00",
": c #F30802",
"> c #DFB77B",
", c None",
/* pixels */
",,,,,,,,,,,,,,,,,,,,,,,,,,,,,,,,,,,,,,,,,,,,,,,,,,,,,,,,,,,,,,,,,,,,,,,,,,,,,,,,,,,,,",
",,,,,,,,,,,,,,,,,,,,,,,,,,,,,,,,,,,,,,,,,,,,,,,,,,,,,,,,,,,,,,,,,,,,,,,,,,,,,,,,,,,,,",
",,,,,,,,,,,,,,,,,,,,,,,,,,,,,,,,,,,,,,,,,,,,,,,,,,,,,,,,,,,,,,,,,,,,,,,,,,,,,,,,,,,,,",
",,,,,,,,,,,,,,,,,,,,,,,,,,,,,,,,,,,,,,,,,,,,,,,,,,,,,,,,,,,,,,,,,,,,,,,,,,,,,,,,,,,,,",
",,,,,,,,,,,,,,,,,,,,,,,,,,,,,,,,,,,,,,,,,,,,,,,,,,,,,,,,,,,,,,,,,,,,,,,,,,,,,,,,,,,,,",
",,,,,,,,,,,,,,,,,,,,,,,,,,,,,,,,,,,,,,,,,,,,,,,,,,,,,,,,,,,,,,,,,,,,,,,,,,,,,,,,,,,,,",
",,,,,,,,,,,,,,,,,,,,,,,,,,,,,,,,,,,,,,,,,,,,,,,,,,,,,,,,,,,,,,,,,,,,,,,,,,,,,,,,,,,,,",
",,,,,,,,,,,,,,,,,,,,,,,,,,,,,,,,,,,,,,,,,,,,,,,,,,,,,,,,,,,,,,,,,,,,,,,,,,,,,,,,,,,,,",
",,,,,,,,,,,,,,,,,,,,,,,,,,,,,,,,,,,,,,,,,,,,,,,,,,,,,,,,,,,,,,,,,,,,,,,,,,,,,,,,,,,,,",
",,,,,,,,,,,,,,,,,,,,,,,,,,,,,,,,,,,,,,,,,,,  ,,,,,,,,,,,,,,,,,,,,,,,,,,,,,,,,,,,,,,,,",
",,,,,,,,,,,,,,,,,,,,,,,,,,,,,,,,,,,,,,,,,, $ ,,,,,,,,,,,,,,,,,,,,,,,,,,,,,,,,,,,,,,,,",
",,,,,,,,,,,,,,,,,,,,,,,,,,,,,,,,,,,,,,,,,, $ ,,,,,,,,,,,,,,,,,,,,,,,,,,,,,,,,,,,,,,,,",
",,,,,,,,,,,,,,,,,,,,,,,,,,,,,,,,,,,,      OO ,,,,,,,,,,,,,,,,,,,,,,,,,,,,,,,,,,,,,,,,",
",,,,,,,,,,,,,,,,,,,,,,,,,,,,,,,,,,,,,,, OOOOO   ,,,,,,,,,,,,,,,,,,,,,,,,,,,,,,,,,,,,,",
",,,,,,,,,,,,,,,,,,,,,,,,,,,,,,,,,,,,,,,, oooOOOX   ,,,,,,,,,,,,,,,,,,,,,,,,,,,,,,,,,,",
",,,,,,,,,,,,,,,,,,,,,,,,,,,,,,,,,,,,,,,, oooOOOXOOO  ,,,,,,,,,,,,,,,,,,,,,,,,,,,,,,,,",
",,,,,,,,,,,,,,,,,,,,,,,,,,,,, ,,,,,,,,, OOOoooooooooX ,,,,,,,,,,,,,,,,,,,,,,,,,,,,,,,",
",,,,,,,,,,,,,,,,,,,,,,,,,,,,,   ,      OOOoooooooooOX$ ,,,,,,,,,,,,,,,,,,,,,,,,,,,,,,",
",,,,,,,,,,,,,,,,,,,,,,,,,,,,, :: ::::-OOooooooooooOOOX$ ,,,,,,,,,,,,,,,,,,,,,,,,,,,,,",
",,,,,,,,,,,,,,,,,,,,,,,,,,,,, ;::::---OOooooooooooOOOOO ,,,,,,,,,,,,,,,,,,,,,,,,,,,,,",
",,,,,,,,,,,,,,,,,,,,,,,,,,,,, ;:::-----OooooooooooooOOo$ ,,,,,,,,,,,,,,,,,,,,,,,,,,,,",
",,,,,,,,,,,,,,,,,,,,,,,,,,,, ;-;----$;$-oOooooooooooOOooO ,,,,,,,,,,,,,,,,,,,,,,,,,,,",
",,,,,,,,,,,,,,,,,,,,,,,,,,,, ;------;:--$XOoooooooooXOOO$ ,,,,,,,,,,,,,,,,,,,,,,,,,,,",
",,,,,,,,,,,,,,,,,,,,,,,,,,,, ;------$---**ooooooooooXXOOO ,,,,,,,,,,,,,,,,,,,,,,,,,,,",
",,,,,,,,,,,,,,,,,,,,,,,,,,,  ;-------------OXXXXooooooooXX    ,,,,,,,,,,,,,,,,,,,,,,,",
",,,,,,,,,,,,,,,,,,,,,,,,,,,  ;--------------XXXXooooooooXXOOO ,,,,,,,,,,,,,,,,,,,,,,,",
",,,,,,,,,,,,,,,,,,,,,,,,,,,  ;---------------$XXooooooooO    ,,,,,,,,,,,,,,,,,,,,,,,,",
",,,,,,,,,,,,,,,,,,,,,,,,,, ; ;$-------------$-$Xoooooooo ,,,,,,,,,,,,,,,,,,,,,,,,,,,,",
",,,,,,,,,,,,,,,,,,,,,,,,,,  &;-----------:--===$XXXXooo ,,,,,,,,,,,,,,,,,,,,,,,,,,,,,",
",,,,,,,,,,,,,,,,,,,,,,,,,,  ;;----------::$-$*$=$$XXooO ,,,,,,,,,,,,,,,,,,,,,,,,,,,,,",
",,,,,,,,,,,,,,,,,,,,,,,,,, ;:;---------:::$-***$$$$XOOO ,,,,,,,,,,,,,,,,,,,,,,,,,,,,,",
",,,,,,,,,,,,,,,,,,,,,,,,, ;;::$-------;::::-$*$$$$XXO O ,,,,,,,,,,,,,,,,,,,,,,,,,,,,,",
",,,,,,,,,,,,,,,,,,,,,,,,, ;::-------==;::::=--$$#O$$ , ,,,,,,,,,,,,,,,,,,,,,,,,,,,,,,",
",,,,,,,,,,,,,,,,,,,,,,,, ;;:;-$-$-$-$=;::;&-$=$$##$$O   ,,,,,,,,,,,,,,,,,,,,,,,,,,,,,",
",,,,,,,,,,,,,,,,,,,,,,,, ;;::---=---#$$;:;--=#$$####%%%%   ,,,,,,,,,,,,,,,,,,,,,,,,,,",
",,,,,,,,,,,,,,,,,,,,,,,  &::;-;O$$$$#$$;:=$=$######$%%%%%% ,,,,,,,,,,,,,,,,,,,,,,,,,,",
",,,,,,,,,,,,,,,,,,,,,,  &;::-;O::O$$$$##:===####$$$%%%%%%% ,,,,,,,,,,,,,,,,,,,,,,,,,,",
",,,,,,,,,,,,,,,,,,,,, & &:::OOO:::O$#$##:=######$$$%%%%%%%% ,,,,,,,,,,,,,,,,,,,,,,,,,",
",,,,,,,,,,,,,,,,,,,, && ;::-OOOOO::;###$:=$#####$=%%%%%%%%% ,,,,,,,,,,,,,,,,,,,,,,,,,",
",,,,,,,,,,,,,,,,,,, && &;:;-OOOXOOO;####:$$#####$%%%%%%%%%& ,,,,,,,,,,,,,,,,,,,,,,,,,",
",,,,,,,,,,,,,,,,,, &&& ;::-$OOOOOOXX####:#$$$$$$$%%%%&%%%%% ,,,,,,,,,,,,,,,,,,,,,,,,,",
",,,,,,,,,,,,,,,,, &&+% &;--$XOOOOXXX####:#$$X$$$%%%%%%%%%%% ,,,,,,,,,,,,,,,,,,,,,,,,,",
",,,,,,,,,,,,,,,, &%%% &----$OOOOOOXX####:#$++++&%%%%%%%%%%% ,,,,,,,,,,,,,,,,,,,,,,,,,",
",,,,,,,,,,,,,,, %%%%+ +----$;XOOoOXX######$  &&&%%%%%%%%%%% ,,,,,,,,,,,,,,,,,,,,,,,,,",
",,,,,,,,,,,,,, &%%%%& +-----;::OOOO$####$$+ &%%%%%%%%%%%%%%% ,,,,,,,,,,,,,,,,,,,,,,,,",
",,,,,,,,,,,,,, &%%%%+& $-----$::::O$###:$+ &&&%%%%%%%%%%%%%% ,,,,,,,,,,,,,,,,,,,,,,,,",
",,,,,,,,,,,,, &&%%%%&&& $------:::;$$#$$$+ &%%%%%%%&%%%%%%%% ,,,,,,,,,,,,,,,,,,,,,,,,",
",,,,,,,,,,,, &&&%%%%&&+& +------*$$*$$:$X %%%%%%%%+++%%%%%%% ,,,,,,,,,,,,,,,,,,,,,,,,",
",,,,,,,,,,, &&%%%%%%%%%%+.+-----*----$$$@ %%%%%%%%&++%%%%%%% ,,,,,,,,,,,,,,,,,,,,,,,,",
",,,,,,,,,,, &&%%%%%%%%%%++.+$-------$:$+ %%%%%%%%%++++%%%%%% ,,,,,,,,,,,,,,,,,,,,,,,,",
",,,,,,,,,, %&%%%%%%%&&%% ...O$$$----:$$@ %%%%%%%%+ ++%%%%%%%% ,,,,,,,,,,,,,,,,,,,,,,,",
",,,,,,,,, &%%%%%%%%%%&& ->>  $OOOOO::$@ +%%%%%%%++  +%%%%%%%% ,,,,,,,,,,,,,,,,,,,,,,,",
",,,,,,,, &&%%%%%%%%%%& :>>>>> ..  ::   %%%%%%%%%%+ , %%%%%%%%% ,,,,,,,,,,,,,,,,,,,,,,",
",,,,,,,, &&&%%%%%%%%& &>>>>>>> + :: +%%%%%%%%%%%+ , +%%%%%%%%% ,,,,,,,,,,,,,,,,,,,,,,",
",,,,,,,, &%%%%%%%%&%& :>>>>>>>  :: &%%%%%%%%%%%%% , +%%%%%%%%% ,,,,,,,,,,,,,,,,,,,,,,",
",,,,,,, %%%%%%%%%%&&& ;>>>>>>>:::.+%%%%%%%%%%%%%+ , +%%%%%%%% ,,,,,,,,,,,,,,,,,,,,,,,",
",,,,,,, &&&%%%%%%%%%&.;>>>>>>>>: &&%%%%%%;%%%%%%% , ++%%%%%%%% ,,,,,,,,,,,,,,,,,,,,,,",
",,,,,, &&&%%%%%%+++&+ $>>>>>>>& &&%%%%%%%;%%%%%% ,, ++%%%%%%%%%  ,,,,,,,,,,,,,,,,,,,,",
",,,,,, &%%%%%%&&++++++ ->>>>>  &%%%%%%%%;;%%%%%% ,, ++%%%%%%%%%% ,,,,,,,,,,,,,,,,,,,,",
",,,,,, &%%%%&&&   +++++  &-- &&%%%%%%%%%;;%%%%%& ,,, ++%%%%%%%%% ,,,,,,,,,,,,,,,,,,,,",
",,,,,, ;;;-&&  ,,, ++++++   &&%%%%%%%%%%;;%%%%% ,,,, +%%%%%%%%%% ,,,,,,,,,,,,,,,,,,,,",
",,,,,, -==$$ ,,,,,   ++++&+&&&%%%%%%;;%&%%%%&&  ,,,, +%%%%%%%%% ,,,,,,,,,,,,,,,,,,,,,",
",,,,,, -=-- ,,,,,, +  ++&&&&&%%;%%;;;;&&&&%%  % ,,,, +%%%%%%%%% ,,,,,,,,,,,,,,,,,,,,,",
",,,,,, ---- ,,,,,, ++++++&&&%%%%%;%;;;;     %%%% ,,, ++%%%%%%%+ ,,,,,,,,,,,,,,,,,,,,,",
",,,,,, ---- ,,,,,, ++++%%%%%%%%%;;;;;;;;%%%%%%%% ,,,  ++@&&&$-$ ,,,,,,,,,,,,,,,,,,,,,",
",,,,,, --- ,,,,,,, ++++%%%%%%%;;;;;:;;;;%%%%%%%%& ,,,, +@@$$$-- ,,,,,,,,,,,,,,,,,,,,,",
",,,,,, --- ,,,,,, +++&&%%%%%%%;;;;:;;;;;;%%%%%%%& ,,,,, O$$=---- ,,,,,,,,,,,,,,,,,,,,",
",,,,,, --- ,,,,,, +++&%%%%%%%%%%%;%;;;;;%%%%%%%%% ,,,,, O$$----- ,,,,,,,,,,,,,,,,,,,,",
",,,,,, --- ,,,,,, +%%%%%%%%%%%%%%%;;;;;;%%%%%%%%% ,,,,,, $$=---- ,,,,,,,,,,,,,,,,,,,,",
",,,,,, --- ,,,,,, +%%%%%%%%%%%%%%%%%%%%%%%%%%%%%% ,,,,,, $$=---- ,,,,,,,,,,,,,,,,,,,,",
",,,,,, --- ,,,,,, %%%%%%%%%%%%%%%%%%%%%%%%%%%%%%% ,,,,,,, $=----- ,,,,,,,,,,,,,,,,,,,",
",,,,,, --- ,,,,,, %%%%%%%%%%%%%%%%%%%%%%%%%%%%%%% ,,,,,,,, $----- ,,,,,,,,,,,,,,,,,,,",
",,,,,, --- ,,,,,, %%%%%%&&%%%%%%%%%%%%%%%%%%%%%%% ,,,,,,,, $------ ,,,,,,,,,,,,,,,,,,",
",,,,,, --- ,,,,,, ++&&%%&&%%%%%%%%%%%%+%%%+%+%+%+ ,,,,,,,,, ------ ,,,,,,,,,,,,,,,,,,",
",,,,,, -=- ,,,,,, +++++&++++%%%%%%%%%++++%%%%%++++ ,,,,,,, $------ ,,,,,,,,,,,,,,,,,,",
",,,,,, -= ,,,,,,, XX++++++++++++++++++++++++++++++ ,,,,,,, $$------ ,,,,,,,,,,,,,,,,,",
",,,,,, -= ,,,,,,, oo++++++++++++++++++++++++++++++ ,,,,,,, $------- ,,,,,,,,,,,,,,,,,",
",,,,,, -= ,,,,,,, ooX+++++++++++++++++++++++++++++ ,,,,,,, $$------ ,,,,,,,,,,,,,,,,,",
",,,,, --* ,,,,,,, OoO+++++++++++++++++++++++++++++ ,,,,,,, $$------ ,,,,,,,,,,,,,,,,,",
",,,,, -- ,,,,,,,, OOOXX+++++++++++++++++++++++++++ ,,,,,,, $$------ ,,,,,,,,,,,,,,,,,",
",,,,, -- ,,,,,,,, OOOO+++++++++++++++++++++++++++++ ,,,,,, $$=----- ,,,,,,,,,,,,,,,,,",
",,,, --- ,,,,,,,,, OoOO++++++++++++++++++++++++++++ ,,,,,,, $=------ ,,,,,,,,,,,,,,,,",
",,,, --- ,,,,,,,,, Oo++++++++++++++++++++++++++++++ ,,,,,,, $-==---- ,,,,,,,,,,,,,,,,",
",,,, --- ,,,,,,,,,, o++++++++++++++++++++++++++++++ ,,,,,,,, --=---- ,,,,,,,,,,,,,,,,",
",,,, --- ,,,,,,,,,, X++++++++++++++++++++++++++++++ ,,,,,,,,, ++-=-= ,,,,,,,,,,,,,,,,",
",,,, --- ,,,,,,,,,, X+++++++++O+X++++++++++++++++++ ,,,,,,,, ;;&+&-* ,,,,,,,,,,,,,,,,",
",,,, --- ,,,,,,,,,, X++++++++++++++++++++++++++++++ ,,,,,,,, ;:::::& ,,,,,,,,,,,,,,,,",
",,, ---- ,,,,,,,,, OO+++++++++O+XXOOO++++++++++++++ ,,,,,,,, +=;;::: ,,,,,,,,,,,,,,,,",
",,, --- ,,,,,,,,,, +++++++++++++oooo+++++++++++++++ ,,,,,,,,, $=---;: ,,,,,,,,,,,,,,,",
",,, --- ,,,,,,,,,, +++++++++++++oooOO+++++++++++++++ ,,,,,,,, X=----- ,,,,,,,,,,,,,,,",
",,, --- ,,,,,,,,,, %%+++&%&+++++ooOOO+++++++++++++++ ,,,,,,,,, *----- ,,,,,,,,,,,,,,,",
",,, -- ,,,,,,,,,,, :::;;+%+&+++++oOOOO++++++++++++++ ,,,,,,,,, $----- ,,,,,,,,,,,,,,,",
",,, -- ,,,,,,,,,, ;::::::%%%+++++.OXOO++++++++++++++ ,,,,,,,,, $----- ,,,,,,,,,,,,,,,",
",,, -- ,,,,,,,,,, +%;:::::%%++++O.OXXO++++++++++++++ ,,,,,,,,,, $----- ,,,,,,,,,,,,,,",
",, --- ,,,,,,,,,, +++%;:::%%+++++. XXX++++++++++++++ ,,,,,,,,,, ------ ,,,,,,,,,,,,,,",
",, -- ,,,,,,,,,,, +++%%;%::%+++++ , XXO+++++++++++++ ,,,,,,,,,, $=---- ,,,,,,,,,,,,,,",
",, -- ,,,,,,,,,,, +&%%%;%;::%++++ , XOO+++++++++++++ ,,,,,,,,,, $----- ,,,,,,,,,,,,,,",
",, -- ,,,,,,,,,,, &&&;:::;%::%+++ , XOO+++++++++++++ ,,,,,,,,,,, ----- ,,,,,,,,,,,,,,",
",, - ,,,,,,,,,,,, ;;::::::;%;:%++ , OOO+++++++++++++ ,,,,,,,,,,, ----- ,,,,,,,,,,,,,,",
", -- ,,,,,,,,,,,, :::::::::%%%:++ ,, OO+++++++++++++ ,,,,,,,,,,, -$--- ,,,,,,,,,,,,,,",
", --- ,,,,,,,,,,, :::::::::;%%%%+ ,, OO+++++++++++++ ,,,,,,,,,,, ----- ,,,,,,,,,,,,,,",
" ----- ,,,,,,,,,, ::::::::::%%%%+ ,, OO+++++++++++++ ,,,,,,,,,, $------ ,,,,,,,,,,,,,",
" ----- ,,,,,,,,, ;::::::>::::%%%& ,,, oo++++++++++++ ,,,,,,,,  $=------- ,,,,,,,,,,,,",
" $----- ,,,,,,,, >>:::::::;:::%% ,,,, OOO++++&++++++ ,,,,,,,, $$$-------- ,,,,,,,,,,,",
" $--- - ,,,,,,,, &>>::::>>::::;& ,,,, OO+++++&++++++ ,,,,,,,, $$$=====--- ,,,,,,,,,,,",
" $-- , - ,,,,,,,, &+;::::>:;:::; ,,,,, OX++++&++++++ ,,,,,,, $$$$$$===--- ,,,,,,,,,,,",
" $-- , - ,,,,,,,, X++%;::::;:::; ,,,,, O+++++&&+++++ ,,,,,,, $$$$$==------ ,,,,,,,,,,",
" $$- ,,  ,,,,,,,, X+++%&;;>;;::; ,,,,, OX+++++++++++ ,,,,,, $$$$$$$=------ ,,,,,,,,,,",
" $-- ,,,,,,,,,,,,, X++++;>>>>::; ,,,,, OX+++++++++++ ,,,,, $$$$$$$$=------ ,,,,,,,,,,",
" $-- ,,,,,,,,,,,,, OO+++%%;%>>;; ,,,,, OO+++++++++++ ,,,,, $$$X $$$$$------ ,,,,,,,,,",
"   - ,,,,,,,,,,,,, O+++++++%;;>% ,,,,,, O+++++++++++ ,,,,, $$$ , $$$=------ ,,,,,,,,,",
",,,  ,,,,,,,,,,,,, OX++++++++;;; ,,,,,, O+++++++++++ ,,,,, $$ ,, $$$$-$-$-- ,,,,,,,,,",
",,,,,,,,,,,,,,,,,,, O+++++++++&& ,,,,,, X+++++++++++ ,,,,, $$ ,, $$$$$$===== ,,,,,,,,",
",,,,,,,,,,,,,,,,,,, O+O+++++++++ ,,,,,, X+++++++++++ ,,,,,   ,,, $$$$$$$$=$= ,,,,,,,,",
",,,,,,,,,,,,,,,,,,, OO++++++++++ ,,,,,, X+++++++++++ ,,,,,,,,,,, $$$ $#$$#=== ,,,,,,,",
",,,,,,,,,,,,,,,,,,, OOO+++++++++ ,,,,,,, +++++++++++ ,,,,,,,,,,, $$ , #$$$$== ,,,,,,,",
",,,,,,,,,,,,,,,,,,, XXO+++++++++ ,,,,,,, ++++++++++ ,,,,,,,,,,,, $$ , $$$$$== ,,,,,,,",
",,,,,,,,,,,,,,,,,,,, OOX++++++++ ,,,,,, +++++++++++ ,,,,,,,,,,,, $$ , $$$$$$$ ,,,,,,,",
",,,,,,,,,,,,,,,,,,,, OOO++++++++ ,,,,,,, ++++++++++ ,,,,,,,,,,,, $$ , $$$$$$ ,,,,,,,,",
",,,,,,,,,,,,,,,,,,  OOOOO++++++ ,,,,,,,, +++++++++++ ,,,,,,,,,,, $$ , $$#$  ,,,,,,,,,",
",,,,,,,,,,,,,,,,,, oooooO++++++ ,,,,,,,, +++++++++++ ,,,,,,,,,,, $$ , $$  ,,,,,,,,,,,",
",,,,,,,,,,,,,,,,, OoooooO+++++++ ,,,,,,, ++++++++++++ ,,,,,,,,,,  $ ,   ,,,,,,,,,,,,,",
",,,,,,,,,,,,,,,, Ooooooo++++++++ ,,,,,,, +++++++++++++ ,,,,,,,,,,,  ,,,,,,,,,,,,,,,,,",
",,,,,,,,,,,,,,,, OooooooO+++++++ ,,,,,,, +O+++++++++++ ,,,,,,,,,,,,,,,,,,,,,,,,,,,,,,",
",,,,,,,,,,,,,,, OOoooooo++++++++ ,,,,,,, +++++++++++++ ,,,,,,,,,,,,,,,,,,,,,,,,,,,,,,",
",,,,,,,,,,,,,, oOOooooooO+O++++ ,,,,,,,, OO+++++++++++ ,,,,,,,,,,,,,,,,,,,,,,,,,,,,,,",
",,,,,,,,,,,,, oooooooooOO+++++ ,,,,,,,,,, ++++++++++++ ,,,,,,,,,,,,,,,,,,,,,,,,,,,,,,",
",,,,,,,,,,,, OoooooooooOOOOOO ,,,,,,,,,,, O++++++++++++ ,,,,,,,,,,,,,,,,,,,,,,,,,,,,,",
",,,,,,,,,,,, OOOoooooooooooo ,,,,,,,,,,,, O++++++++++++ ,,,,,,,,,,,,,,,,,,,,,,,,,,,,,",
",,,,,,,,,,, OOooooooooOOooO ,,,,,,,,,,,,,, +O++++++++++ ,,,,,,,,,,,,,,,,,,,,,,,,,,,,,",
",,,,,,,,,,, .ooooooOoooOOO ,,,,,,,,,,,,,,, ++++++++++++ ,,,,,,,,,,,,,,,,,,,,,,,,,,,,,",
",,,,,,,,,, ..ooooooOooo   ,,,,,,,,,,,,,,,, +O++++++++++ ,,,,,,,,,,,,,,,,,,,,,,,,,,,,,",
",,,,,,,,,, ...OOOOOOO  ,,,,,,,,,,,,,,,,,,,, +++++++++++ ,,,,,,,,,,,,,,,,,,,,,,,,,,,,,",
",,,,,,,,,, .OO  .... ,,,,,,,,,,,,,,,,,,,,,, O++++++++++ ,,,,,,,,,,,,,,,,,,,,,,,,,,,,,",
",,,,,,,,,, .OOO$$O.. ,,,,,,,,,,,,,,,,,,,,,,, +++++++++++ ,,,,,,,,,,,,,,,,,,,,,,,,,,,,",
",,,,,,,,,, .OOOOOOO ,,,,,,,,,,,,,,,,,,,,,,,, +O+++++++++ ,,,,,,,,,,,,,,,,,,,,,,,,,,,,",
",,,,,,,,,, OOOoooooO ,,,,,,,,,,,,,,,,,,,,,,, +++++++++++ ,,,,,,,,,,,,,,,,,,,,,,,,,,,,",
",,,,,,,,,, OOOooooo ,,,,,,,,,,,,,,,,,,,,,,,,, O+++++++++ ,,,,,,,,,,,,,,,,,,,,,,,,,,,,",
",,,,,,,,,, OooooOoO ,,,,,,,,,,,,,,,,,,,,,,,,, ++++++++++ ,,,,,,,,,,,,,,,,,,,,,,,,,,,,",
",,,,,,,,,, OooooOOO ,,,,,,,,,,,,,,,,,,,,,,,,,, +O+++++++ ,,,,,,,,,,,,,,,,,,,,,,,,,,,,",
",,,,,,,,,, oooooooo ,,,,,,,,,,,,,,,,,,,,,,,,,, +++++++++ ,,,,,,,,,,,,,,,,,,,,,,,,,,,,",
",,,,,,,,, OooooooO ,,,,,,,,,,,,,,,,,,,,,,,,,,, OO+++++++ ,,,,,,,,,,,,,,,,,,,,,,,,,,,,",
",,,,,,,,, ooooooOO ,,,,,,,,,,,,,,,,,,,,,,,,,,,, ++++++++ ,,,,,,,,,,,,,,,,,,,,,,,,,,,,",
",,,,,,,,, ooooooOO ,,,,,,,,,,,,,,,,,,,,,,,,,,,, O+++++++ ,,,,,,,,,,,,,,,,,,,,,,,,,,,,",
",,,,,,,, OOooooooo ,,,,,,,,,,,,,,,,,,,,,,,,,,,,, O++@@@@@ ,,,,,,,,,,,,,,,,,,,,,,,,,,,",
",,,,,,,, OOOooooO ,,,,,,,,,,,,,,,,,,,,,,,,,,,,,, OO+@@@@+ ,,,,,,,,,,,,,,,,,,,,,,,,,,,",
",,,,,,,, XooooooO ,,,,,,,,,,,,,,,,,,,,,,,,,,,,,, OO$$=-$- ,,,,,,,,,,,,,,,,,,,,,,,,,,,",
",,,,,,, ooooooooO ,,,,,,,,,,,,,,,,,,,,,,,,,,,,,,, $$$---- ,,,,,,,,,,,,,,,,,,,,,,,,,,,",
",,,,,,, OOOOoooo ,,,,,,,,,,,,,,,,,,,,,,,,,,,,,,,, $$*=--- ,,,,,,,,,,,,,,,,,,,,,,,,,,,",
",,,,,,, OOOOoooO ,,,,,,,,,,,,,,,,,,,,,,,,,,,,,,,, $$-=--- ,,,,,,,,,,,,,,,,,,,,,,,,,,,",
",,,,,,,, OoOooOO ,,,,,,,,,,,,,,,,,,,,,,,,,,,,,,,, $$------ ,,,,,,,,,,,,,,,,,,,,,,,,,,",
",,,,,,,,,  oooOO ,,,,,,,,,,,,,,,,,,,,,,,,,,,,,,,, O$$----- ,,,,,,,,,,,,,,,,,,,,,,,,,,",
",,,,,,,,,,, O   ,,,,,,,,,,,,,,,,,,,,,,,,,,,,,,,,, o$$----- ,,,,,,,,,,,,,,,,,,,,,,,,,,",
",,,,,,,,,,,, ,,,,,,,,,,,,,,,,,,,,,,,,,,,,,,,,,,,, ooOO$--- ,,,,,,,,,,,,,,,,,,,,,,,,,,",
",,,,,,,,,,,,,,,,,,,,,,,,,,,,,,,,,,,,,,,,,,,,,,,, XooOoXOO- ,,,,,,,,,,,,,,,,,,,,,,,,,,",
",,,,,,,,,,,,,,,,,,,,,,,,,,,,,,,,,,,,,,,,,,,,,,,, XoooooOOO$ ,,,,,,,,,,,,,,,,,,,,,,,,,",
",,,,,,,,,,,,,,,,,,,,,,,,,,,,,,,,,,,,,,,,,,,,,,,, OOOooooOO$$ ,,,,,,,,,,,,,,,,,,,,,,,,",
",,,,,,,,,,,,,,,,,,,,,,,,,,,,,,,,,,,,,,,,,,,,,,,, OOXoooooOOO ,,,,,,,,,,,,,,,,,,,,,,,,",
",,,,,,,,,,,,,,,,,,,,,,,,,,,,,,,,,,,,,,,,,,,,,,,, oooooooooO ,,,,,,,,,,,,,,,,,,,,,,,,,",
",,,,,,,,,,,,,,,,,,,,,,,,,,,,,,,,,,,,,,,,,,,,,,,, oooooooooO ,,,,,,,,,,,,,,,,,,,,,,,,,",
",,,,,,,,,,,,,,,,,,,,,,,,,,,,,,,,,,,,,,,,,,,,,,,, OOOooooOOX ,,,,,,,,,,,,,,,,,,,,,,,,,",
",,,,,,,,,,,,,,,,,,,,,,,,,,,,,,,,,,,,,,,,,,,,,,,, XOOoOoooOX ,,,,,,,,,,,,,,,,,,,,,,,,,",
",,,,,,,,,,,,,,,,,,,,,,,,,,,,,,,,,,,,,,,,,,,,,,,, OOOOOXXooX ,,,,,,,,,,,,,,,,,,,,,,,,,",
",,,,,,,,,,,,,,,,,,,,,,,,,,,,,,,,,,,,,,,,,,,,,,,, OOOOOOXoo ,,,,,,,,,,,,,,,,,,,,,,,,,,",
",,,,,,,,,,,,,,,,,,,,,,,,,,,,,,,,,,,,,,,,,,,,,,,,          ,,,,,,,,,,,,,,,,,,,,,,,,,,,",
",,,,,,,,,,,,,,,,,,,,,,,,,,,,,,,,,,,,,,,,,,,,,,,,,,,,,,,,,,,,,,,,,,,,,,,,,,,,,,,,,,,,,",
",,,,,,,,,,,,,,,,,,,,,,,,,,,,,,,,,,,,,,,,,,,,,,,,,,,,,,,,,,,,,,,,,,,,,,,,,,,,,,,,,,,,,"
};
