/* XPM */
static char *_7_fps_zombie_WALK_crop[] = {
/* columns rows colors chars-per-pixel */
"85 167 15 1 ",
"  c black",
". c #010000",
"X c #01070A",
"o c #1C0000",
"O c #1C0001",
"+ c #063938",
"@ c #073938",
"# c #460100",
"$ c #470100",
"% c #1C5D5B",
"& c #1D5D5B",
"* c #960D00",
"= c #F30802",
"- c #DFB77B",
"; c None",
/* pixels */
";;;;;;;;;;;;;;;;;;;;;;;;;;;;;;;;;;;;;;;;;;;;;;;;;;;;;;;;;;;;;;;;;;;;;;;;;;;;;;;;;;;;;",
";;;;;;;;;;;;;;;;;;;;;;;;;;;;;;;;;;;;;;;;;;;;;;;;;;;;;;;;;;;;;;;;;;;;;;;;;;;;;;;;;;;;;",
";;;;;;;;;;;;;;;;;;;;;;;;;;;;;;;;;;;;;;;;;;;;;;;;;;;;;;;;;;;;;;;;;;;;;;;;;;;;;;;;;;;;;",
";;;;;;;;;;;;;;;;;;;;;;;;;;;;;;;;;;;;;;;;;;;;;;;;;;;;;;;;;;;;;;;;;;;;;;;;;;;;;;;;;;;;;",
";;;;;;;;;;;;;;;;;;;;;;;;;;;;;;;;;;;;;;;;;;;;;;;;;;;;;;;;;;;;;;;;;;;;;;;;;;;;;;;;;;;;;",
";;;;;;;;;;;;;;;;;;;;;;;;;;;;;;;;;;;;;;;;;;;;;;;;;;;;;;;;;;;;;;;;;;;;;;;;;;;;;;;;;;;;;",
";;;;;;;;;;;;;;;;;;;;;;;;;;;;;;;;;;;;;;;;;;;;  ;;;;;;;;;;;;;;;;;;;;;;;;;;;;;;;;;;;;;;;",
";;;;;;;;;;;;;;;;;;;;;;;;;;;;;;;;;;;;;;;;;;;;  ;;;;;;;;;;;;;;;;;;;;;;;;;;;;;;;;;;;;;;;",
";;;;;;;;;;;;;;;;;;;;;;;;;;;;;;;;;;;;;;;;;;; @ ;;;;;;;;;;;;;;;;;;;;;;;;;;;;;;;;;;;;;;;",
";;;;;;;;;;;;;;;;;;;;;;;;;;;;;;;;;;;;;;;;;;; X ;;;;;;;;;;;;;;;;;;;;;;;;;;;;;;;;;;;;;;;",
";;;;;;;;;;;;;;;;;;;;;;;;;;;;;;;;;;;;;      XXX   ;;;;;;;;;;;;;;;;;;;;;;;;;;;;;;;;;;;;",
";;;;;;;;;;;;;;;;;;;;;;;;;;;;;;;;;;;;;;;; XXXXXXXX   ;;;;;;;;;;;;;;;;;;;;;;;;;;;;;;;;;",
";;;;;;;;;;;;;;;;;;;;;;;;;;;;;; ;;;;;;;;;; XXXXXXXXXX ;;;;;;;;;;;;;;;;;;;;;;;;;;;;;;;;",
";;;;;;;;;;;;;;;;;;;;;;;;;;;;;;  ;; ;;;; ; XXXXXXXXXXX ;;;;;;;;;;;;;;;;;;;;;;;;;;;;;;;",
";;;;;;;;;;;;;;;;;;;;;;;;;;;;;; *  =    = XXXXXXXXXXXXX ;;;;;;;;;;;;;;;;;;;;;;;;;;;;;;",
";;;;;;;;;;;;;;;;;;;;;;;;;;;;;; *=*=====XXXXXXXXXXXXXXXX ;;;;;;;;;;;;;;;;;;;;;;;;;;;;;",
";;;;;;;;;;;;;;;;;;;;;;;;;;;;; *=======&XXXXXXXXXXXXXXXXX ;;;;;;;;;;;;;;;;;;;;;;;;;;;;",
";;;;;;;;;;;;;;;;;;;;;;;;;;;;; *=*====&&XXXXXXXXXXXXXXXXXX ;;;;;;;;;;;;;;;;;;;;;;;;;;;",
";;;;;;;;;;;;;;;;;;;;;;;;;;;;; **===&&&&&XXXXXXXXXXXXXXXXX ;;;;;;;;;;;;;;;;;;;;;;;;;;;",
";;;;;;;;;;;;;;;;;;;;;;;;;;;; *$&*%&&&&$&@XXXXXXXXXXXXXXXXX ;;;;;;;;;;;;;;;;;;;;;;;;;;",
";;;;;;;;;;;;;;;;;;;;;;;;;;;; **&&&&&&*=&&XXXXXXXXXXXXXXXX ;;;;;;;;;;;;;;;;;;;;;;;;;;;",
";;;;;;;;;;;;;;;;;;;;;;;;;;;  =*&&&&&&**&&&XXXXXXXXXXXXXXX ;;;;;;;;;;;;;;;;;;;;;;;;;;;",
";;;;;;;;;;;;;;;;;;;;;;;;;;;  =*&&&&&&&&&&&&XXXXXXXXXXXXXXX    ;;;;;;;;;;;;;;;;;;;;;;;",
";;;;;;;;;;;;;;;;;;;;;;;;;;;  =*&&&&&&&&&&&&&XXXXXXXXXXXXXXXXXX ;;;;;;;;;;;;;;;;;;;;;;",
";;;;;;;;;;;;;;;;;;;;;;;;;; $ =*&&&&&&&&&%%%%@XXXXXXXXXXXXXXX   ;;;;;;;;;;;;;;;;;;;;;;",
";;;;;;;;;;;;;;;;;;;;;;;;;; * =*&&&&&&&&&%%%%@@@XXXXXXXXXX   ;;;;;;;;;;;;;;;;;;;;;;;;;",
";;;;;;;;;;;;;;;;;;;;;;;;;;  *=*&&&&&&&&&%&=%%@++XXXXXXXX ;;;;;;;;;;;;;;;;;;;;;;;;;;;;",
";;;;;;;;;;;;;;;;;;;;;;;;;; **=*&&&&&&&&&&==%+@++@@XXXXX ;;;;;;;;;;;;;;;;;;;;;;;;;;;;;",
";;;;;;;;;;;;;;;;;;;;;;;;; **==*&&&%&&&%%*=*&%@++@@XXXXX ;;;;;;;;;;;;;;;;;;;;;;;;;;;;;",
";;;;;;;;;;;;;;;;;;;;;;;;; *===@&@&@&&&&*====++++@@XXX XX ;;;;;;;;;;;;;;;;;;;;;;;;;;;;",
";;;;;;;;;;;;;;;;;;;;;;;  **===&&%&&&&&@=====++++@@@@@ oX   ;;;;;;;;;;;;;;;;;;;;;;;;;;",
";;;;;;;;;;;;;;;;;;;;;; * *==*&@&@%@%@@$*===$++++++@@@ $X $ ;;;;;;;;;;;;;;;;;;;;;;;;;;",
";;;;;;;;;;;;;;;;;;;;; $ *====&@@@@@@@@@*==*+++++++++##  $$ ;;;;;;;;;;;;;;;;;;;;;;;;;;",
";;;;;;;;;;;;;;;;;;;; $ $*=*=@%XX@@@@@@++#=++++++++++#$$#$$$ ;;;;;;;;;;;;;;;;;;;;;;;;;",
";;;;;;;;;;;;;;;;;;; $$ *===%%@===X@@+++@+=++++++++@#####$$$ ;;;;;;;;;;;;;;;;;;;;;;;;;",
";;;;;;;;;;;;;;;;;; $$ $**=@%XXX===X@+++++=++++++@@######$$$ ;;;;;;;;;;;;;;;;;;;;;;;;;",
";;;;;;;;;;;;;;;;; $$$ $%%%&XXXXXX===@@+++=++++@@%$########$$ ;;;;;;;;;;;;;;;;;;;;;;;;",
";;;;;;;;;;;;;;;; #$$o @%%%&@*XXXXXX=@@+++++@++X@@$########$ ;;;;;;;;;;;;;;;;;;;;;;;;;",
";;;;;;;;;;;;;;; ###$$$ %%&&&*==XXXXX++++++@@Ooo@ $######### ;;;;;;;;;;;;;;;;;;;;;;;;;",
";;;;;;;;;;;;;;; ###$oo o%&&&&*==*XXX++++++@O oo ############ ;;;;;;;;;;;;;;;;;;;;;;;;",
";;;;;;;;;;;;;; $######o o&&&&&*===X@@@@@@@o $  $############ ;;;;;;;;;;;;;;;;;;;;;;;;",
";;;;;;;;;;;;; $$####o#oo o&&&&&&***@+@@@@* $$$$$###########$ ;;;;;;;;;;;;;;;;;;;;;;;;",
";;;;;;;;;;;; #$$#######o$ @&&&&&%%%@++@@o= $##$$$$oo######$$ ;;;;;;;;;;;;;;;;;;;;;;;;",
";;;;;;;;;;;; $$$######o#o o@@&&&%%@@++@oX= $###$$$ooo#####$$ ;;;;;;;;;;;;;;;;;;;;;;;;",
";;;;;;;;;;; $$######$$$$o$ o@@@&%%%@@@OO  $#####$oooo####### ;;;;;;;;;;;;;;;;;;;;;;;;",
";;;;;;;;;; $$$#######$$$ooo   oX@@@@@XX = $$####ooooo####### ;;;;;;;;;;;;;;;;;;;;;;;;",
";;;;;;;;;; $##########$$$ooo$$    XXXo   $######oo oo####### ;;;;;;;;;;;;;;;;;;;;;;;;",
";;;;;;;;; ############$$oooooooXXX     = $######oo oo#######$ ;;;;;;;;;;;;;;;;;;;;;;;",
";;;;;;;; $$#############$oooooooXXXooo = $$#####o ; o$$$##### ;;;;;;;;;;;;;;;;;;;;;;;",
";;;;;;;; #$$############ooo  oooooooo =.$$$$####o ; o$#$####$$ ;;;;;;;;;;;;;;;;;;;;;;",
";;;;;;; ################o  ** .ooooo$ = ########$ ; o#######$# ;;;;;;;;;;;;;;;;;;;;;;",
";;;;;;; ##########o#o#oo -*----.o$o$ =.$######## ;; o######### ;;;;;;;;;;;;;;;;;;;;;;",
";;;;;;; ######$$$oooooo *------- $$ = $$#######$ ;; o#######$ ;;;;;;;;;;;;;;;;;;;;;;;",
";;;;;; $#####$$$ooooooo *-------   =$ $$#######$ ;; o#######$$ ;;;;;;;;;;;;;;;;;;;;;;",
";;;;;; $######$   ooooo -------- -== $$$**####$$ ;; oo######$$#  ;;;;;;;;;;;;;;;;;;;;",
";;;;;; *#ooo## ;;;  ooo --------=== $$$$#*####$ ;;; ooo######$## ;;;;;;;;;;;;;;;;;;;;",
";;;;;; *&&&$  ;;;;   oo &-------=  $*$$$*###$$  ;;;; oo$$####### ;;;;;;;;;;;;;;;;;;;;",
";;;;;; &&&@ ;;;;;; o     &&----*  $*$$$$$###  $ ;;;; oo$$$##$*## ;;;;;;;;;;;;;;;;;;;;",
";;;;;; &&&& ;;;;;; ooo    @&&&  ***         #### ;;; o$$####$$$ ;;;;;;;;;;;;;;;;;;;;;",
";;;;;; &&&& ;;;;; ooooo$o$    $$$* * **$$$$$#### ;;; oo$####$$ ;;;;;;;;;;;;;;;;;;;;;;",
";;;;;; &&& ;;;;;; oo$$##$$##$##*********$$######  ;;  oo##$$$$$ ;;;;;;;;;;;;;;;;;;;;;",
";;;;;; &&& ;;;;;  o$$$##$$##$$##$*$*$***$$######$ ;;;; oooO@@%% ;;;;;;;;;;;;;;;;;;;;;",
";;;;;; &&& ;;;;;  $$####$$$#####$$*****#$####### ;;;;; XX@@%%%% ;;;;;;;;;;;;;;;;;;;;;",
";;;;;; &&& ;;;;; $$$####$$$$####$$$$$###$######$ ;;;;;; X@@%%%% ;;;;;;;;;;;;;;;;;;;;;",
";;;;;; &&% ;;;;; #############################$$ ;;;;;; X@&%&&&& ;;;;;;;;;;;;;;;;;;;;",
";;;;;; &&% ;;;;; ##############################$$ ;;;;;; X@%&&&& ;;;;;;;;;;;;;;;;;;;;",
";;;;;; &&& ;;;;;; ############################$$$ ;;;;;; @@%&&&& ;;;;;;;;;;;;;;;;;;;;",
";;;;;; &&& ;;;;;; o###########################o$o ;;;;;;; @%&&&&& ;;;;;;;;;;;;;;;;;;;",
";;;;;; &&& ;;;;;; ooo####$##$$$#############$$$$o ;;;;;;; @%&&&&& ;;;;;;;;;;;;;;;;;;;",
";;;;;; &&& ;;;;; Xooooooooooooooooooooooooooooooo  ;;;;;;; @&&&&& ;;;;;;;;;;;;;;;;;;;",
";;;;;; && ;;;;;;; Xoooooooooooooooooooooooooooooo  ;;;;;;; @&&&&&& ;;;;;;;;;;;;;;;;;;",
";;;;;; && ;;;;;;; Xoooooooooooooooooooooooooooooo  ;;;;;;;; &&&&&& ;;;;;;;;;;;;;;;;;;",
";;;;; &&% ;;;;;;; XXooooooooooooooooooooooooooooo. ;;;;;;; @%%&&&& ;;;;;;;;;;;;;;;;;;",
";;;;; &&% ;;;;;;; XXXoooooooooooooooooooooooooooo  ;;;;;;; @%%&&&&& ;;;;;;;;;;;;;;;;;",
";;;;; && ;;;;;;;; XXoooooooooooooooooooooooooooooo ;;;;;;; @%&&&&&& ;;;;;;;;;;;;;;;;;",
";;;;; && ;;;;;;;; XXXoooooooooooooooooooooooooooooo ;;;;;; @%%&&&&& ;;;;;;;;;;;;;;;;;",
";;;;; && ;;;;;;;;  oooooooooooooooooooooooooooooooo ;;;;;; @&&&&&&& ;;;;;;;;;;;;;;;;;",
";;;; &&& ;;;;;;;;  oooooooooooooooooooooooooooooooo ;;;;;; @@&&&&&& ;;;;;;;;;;;;;;;;;",
";;;; &&& ;;;;;;;;  oooooooooooooooooooooooooooooooo ;;;;;; X@&&&&&& ;;;;;;;;;;;;;;;;;",
";;;; &&& ;;;;;;;;  ooooooooooooooooooooooooooooooo  ;;;;;;; @&&%&&& ;;;;;;;;;;;;;;;;;",
";;;; &&& ;;;;;;;; oooooooooooooooooooooooooooooooo  ;;;;;;; o$%%&&& ;;;;;;;;;;;;;;;;;",
";;;; &&& ;;;;;;;; ooooooooooooooXoXoXoooooooooooooo ;;;;;;;; *$$$&% ;;;;;;;;;;;;;;;;;",
";;;; &&& ;;;;;;;; oooooo$$$ooooooXXXXoooooooooooooo  ;;;;;; *====** ;;;;;;;;;;;;;;;;;",
";;;; &&& ;;;;;;;; ooooooo$o$ooooXXXXXXXoooooooooooo  ;;;;;; o*====** ;;;;;;;;;;;;;;;;",
";;; &&& ;;;;;;;;; $===  **$$ooooXXXXXXoooooooooooooo ;;;;;;; &&&&&** ;;;;;;;;;;;;;;;;",
";;; &&& ;;;;;;;;; *== ** =$$ooooo XXXXXooooooooooooo ;;;;;;; @&&&&&* ;;;;;;;;;;;;;;;;",
";;; &&& ;;;;;;;;; o$$$$**==$$ooooX XXXoooooooooooooo ;;;;;;; @&&&&&& ;;;;;;;;;;;;;;;;",
";;; &&& ;;;;;;;; oo$o$*=**==$ ooX ; XXXooooooooooooo ;;;;;;;; &&&&&& ;;;;;;;;;;;;;;;;",
";;; &&& ;;;;;;;; $$$*=====*=== oo ; XXooooooooooooooo ;;;;;;; @&&&&& ;;;;;;;;;;;;;;;;",
";;; && ;;;;;;;;; $$========#$== o ; XoXoooooooooooooo ;;;;;;; @%&&&& ;;;;;;;;;;;;;;;;",
";;; && ;;;;;;;;;    =======*$$$ o ;; oooooooooooooooo ;;;;;;; @%&&&& ;;;;;;;;;;;;;;;;",
";;; && ;;;;;;;;; ===========$$## ;;; oXoooooooooooooo ;;;;;;;; %&&&& ;;;;;;;;;;;;;;;;",
";;; && ;;;;;;;; -======-=====$$# ;;; Xooooooooooooooo ;;;;;;;; %&&&& ;;;;;;;;;;;;;;;;",
";; && ;;;;;;;;; *--====-======$# ;;;; XoXoooooooooooo ;;;;;;;; %&&&& ;;;;;;;;;;;;;;;;",
";; && ;;;;;;;;;; **====--=====*$ ;;;; oooooooooooooooo ;;;;;;; %&&&&& ;;;;;;;;;;;;;;;",
";; && ;;;;;;;;;; Xooo**     ==*$ ;;;; XoXooooooooooooo ;;;;;;;; &&&&& ;;;;;;;;;;;;;;;",
";; &&& ;;;;;;;;; Xooooo**---===$ ;;;;; ooooooooooooooo ;;;;;;;; &&&&& ;;;;;;;;;;;;;;;",
"; &&&&& ;;;;;;;;; Xooooo***---* ;;;;;; XXooooooooooooo ;;;;;;; %&&&&& ;;;;;;;;;;;;;;;",
"; &&&&& ;;;;;;;;; XXooooo$$***- ;;;;;; Xoooooooooooooo ;;;;;; @%&&&&&& ;;;;;;;;;;;;;;",
"; @&&&&& ;;;;;;;; XXXoooooo$$** ;;;;;;; XoXooooooooooo ;;;;; @@%&&&&&&& ;;;;;;;;;;;;;",
"; @&&& && ;;;;;;;; XXoooooo$$$$ ;;;;;;; Xoooooooooooooo ;;;; @%%&&&&&&& ;;;;;;;;;;;;;",
"; @&& ; & ;;;;;;;; XXXooooooooo ;;;;;;;; XXoooooooooooo ;;; @@@%&&&&&&&& ;;;;;;;;;;;;",
"; @&& ;; & ;;;;;;; XXXooooooooo ;;;;;;;; XXoooooooooooo ;;; @@@%%&&&&&&& ;;;;;;;;;;;;",
"; @&& ;;; ;;;;;;;;; XXXoooooooo ;;;;;;;; XXoooooooooooo ;;; @@@@@&&&&&&& ;;;;;;;;;;;;",
"; @&@ ;;;;;;;;;;;;; XXooooooooo ;;;;;;;; XXoooooooooooo ;; @@@@@%%&&&&&& ;;;;;;;;;;;;",
"; @&@& ;;;;;;;;;;;; XXXoooooooo ;;;;;;;;; XXooooooooooo ;; @@@@@@%&&&&&&& ;;;;;;;;;;;",
";  @ & ;;;;;;;;;;;; XXXoooooooo ;;;;;;;;; XXooooooooooo ; @@@@@@%&&&&&&&& ;;;;;;;;;;;",
";;; ;  ;;;;;;;;;;;;; XXoooooooo ;;;;;;;;; XXXoooooooooo ; @@@  @@%&&&&&&& ;;;;;;;;;;;",
";;;;;;;;;;;;;;;;;;  XXXoooooooo ;;;;;;;;; XXooooooooooo ; @@ ;; &&&&&&&&&& ;;;;;;;;;;",
";;;;;;;;;;;;;;;;; XXXXXoooooooo ;;;;;;;;;; XXoooooooooo ; @@ ;; @&&&&&&&&& ;;;;;;;;;;",
";;;;;;;;;;;;;;;;; XXXXXoooooooo ;;;;;;;;;; XXoooooooooo ; X ;;; &&&&&&&&&& ;;;;;;;;;;",
";;;;;;;;;;;;;;;; XXXXXXoooooooo ;;;;;;;;;; XXoooooooooo ; X ;;; && &&&&&&&& ;;;;;;;;;",
";;;;;;;;;;;;;;;; XXXooooooooooo ;;;;;;;;;;; Xoooooooooo ;   ;;; & ; &&&&&&& ;;;;;;;;;",
";;;;;;;;;;;;;;; XXXoXoooooooooo ;;;;;;;;;;; Xoooooooooo ;;;;;;; & ; @&&&&&& ;;;;;;;;;",
";;;;;;;;;;;;;;; XXooooooooooooo ;;;;;;;;;;; Xoooooooooo ;;;;;;; & ; @&&&&&&& ;;;;;;;;",
";;;;;;;;;;;;;; XXXXoooooXXXXXo ;;;;;;;;;;;; Xoooooooooo ;;;;;;; & ; @&@&&&&& ;;;;;;;;",
";;;;;;;;;;;;; XXXoooooooXXXXX ;;;;;;;;;;;;;; oooooooooo ;;;;;;; & ; @@%&&&& ;;;;;;;;;",
";;;;;;;;;;;;; XXXoooooooXXXX ;;;;;;;;;;;;;;; oooooooooo ;;;;;;; & ; @@@%@& ;;;;;;;;;;",
";;;;;;;;;;;; XXXooooooooXXX ;;;;;;;;;;;;;;;; oooooooooo ;;;;;;; &&  @@@%  ;;;;;;;;;;;",
";;;;;;;;;;;; XXoooooooooXX ;;;;;;;;;;;;;;;;; ooooooooooo ;;;;;; @& ; @  ;;;;;;;;;;;;;",
";;;;;;;;;;; XXoooooooooooX ;;;;;;;;;;;;;;;; oooooooooooo ;;;;;;   ;;  ;;;;;;;;;;;;;;;",
";;;;;;;;;;; XXXoooooooooX ;;;;;;;;;;;;;;;;; Xooooooooooo ;;;;;;;;;;;;;;;;;;;;;;;;;;;;",
";;;;;;;;;; XXXoooooooooo  ;;;;;;;;;;;;;;;;; oooooooooooo ;;;;;;;;;;;;;;;;;;;;;;;;;;;;",
";;;;;;;;;; oXoXoooooooX ;;;;;;;;;;;;;;;;;;; Xoooooooooooo ;;;;;;;;;;;;;;;;;;;;;;;;;;;",
";;;;;;;;;; ooooooooooo  ;;;;;;;;;;;;;;;;;;; Xoooooooooooo ;;;;;;;;;;;;;;;;;;;;;;;;;;;",
";;;;;;;;;;; XoooXoooXo ;;;;;;;;;;;;;;;;;;;;; oXoooooooooo ;;;;;;;;;;;;;;;;;;;;;;;;;;;",
";;;;;;;;;;; ooooooooo ;;;;;;;;;;;;;;;;;;;;;; oooooooooooo ;;;;;;;;;;;;;;;;;;;;;;;;;;;",
";;;;;;;;;   ooooooX  ;;;;;;;;;;;;;;;;;;;;;;; XXoooooooooo ;;;;;;;;;;;;;;;;;;;;;;;;;;;",
";;;;;;;;;  @       ;;;;;;;;;;;;;;;;;;;;;;;;;; ooooooooooo ;;;;;;;;;;;;;;;;;;;;;;;;;;;",
";;;;;;;;   @@@@@@@@ ;;;;;;;;;;;;;;;;;;;;;;;;; Xoooooooooo ;;;;;;;;;;;;;;;;;;;;;;;;;;;",
";;;;;;;;  @@@@@@@@  ;;;;;;;;;;;;;;;;;;;;;;;;; Xoooooooooo ;;;;;;;;;;;;;;;;;;;;;;;;;;;",
";;;;;;;; X@@@@@@@@  ;;;;;;;;;;;;;;;;;;;;;;;;; XoXoooooooo ;;;;;;;;;;;;;;;;;;;;;;;;;;;",
";;;;;;;; X@@@@XX@  ;;;;;;;;;;;;;;;;;;;;;;;;;;; Xooooooooo ;;;;;;;;;;;;;;;;;;;;;;;;;;;",
";;;;;;; XXXXXXXXX  ;;;;;;;;;;;;;;;;;;;;;;;;;;; XXoooooooo ;;;;;;;;;;;;;;;;;;;;;;;;;;;",
";;;;;;; XXXXXXXXX ;;;;;;;;;;;;;;;;;;;;;;;;;;;; Xooooooooo ;;;;;;;;;;;;;;;;;;;;;;;;;;;",
";;;;;;; XXXXXXXXX ;;;;;;;;;;;;;;;;;;;;;;;;;;;; XXoooooooo ;;;;;;;;;;;;;;;;;;;;;;;;;;;",
";;;;;;; XXXXXXXXX ;;;;;;;;;;;;;;;;;;;;;;;;;;;;; Xoooooooo ;;;;;;;;;;;;;;;;;;;;;;;;;;;",
";;;;;; XXXXXXXXX ;;;;;;;;;;;;;;;;;;;;;;;;;;;;;; Xoooooooo ;;;;;;;;;;;;;;;;;;;;;;;;;;;",
";;;;;; XXXXXXXXX ;;;;;;;;;;;;;;;;;;;;;;;;;;;;;; ooooooooo ;;;;;;;;;;;;;;;;;;;;;;;;;;;",
";;;;; XXXXXXXXX ;;;;;;;;;;;;;;;;;;;;;;;;;;;;;;;; oXoooooo ;;;;;;;;;;;;;;;;;;;;;;;;;;;",
";;;;; XXXXXXXXX ;;;;;;;;;;;;;;;;;;;;;;;;;;;;;;;; oooooooo ;;;;;;;;;;;;;;;;;;;;;;;;;;;",
";;;; XXXXXXXXX ;;;;;;;;;;;;;;;;;;;;;;;;;;;;;;;;; XXoooooo ;;;;;;;;;;;;;;;;;;;;;;;;;;;",
";;; XXXXXXXXXX ;;;;;;;;;;;;;;;;;;;;;;;;;;;;;;;;; XXoooooo ;;;;;;;;;;;;;;;;;;;;;;;;;;;",
";;; XXXXXXXXX ;;;;;;;;;;;;;;;;;;;;;;;;;;;;;;;;;;; Xoooooo ;;;;;;;;;;;;;;;;;;;;;;;;;;;",
";;; XXXXXXXXX ;;;;;;;;;;;;;;;;;;;;;;;;;;;;;;;;;;; XXXOOoo ;;;;;;;;;;;;;;;;;;;;;;;;;;;",
";; XXXXXXXXX ;;;;;;;;;;;;;;;;;;;;;;;;;;;;;;;;;;;; X@@%%%@ ;;;;;;;;;;;;;;;;;;;;;;;;;;;",
";; XXXXXXXXX ;;;;;;;;;;;;;;;;;;;;;;;;;;;;;;;;;;;; @@@%&&% ;;;;;;;;;;;;;;;;;;;;;;;;;;;",
";; XXXXXXXX ;;;;;;;;;;;;;;;;;;;;;;;;;;;;;;;;;;;;; @@@&&&% ;;;;;;;;;;;;;;;;;;;;;;;;;;;",
";;; XXXXXXX ;;;;;;;;;;;;;;;;;;;;;;;;;;;;;;;;;;;;; @@%%&&&& ;;;;;;;;;;;;;;;;;;;;;;;;;;",
";;;; XXXXX ;;;;;;;;;;;;;;;;;;;;;;;;;;;;;;;;;;;;;; X@@%&&&& ;;;;;;;;;;;;;;;;;;;;;;;;;;",
";;;;;      ;;;;;;;;;;;;;;;;;;;;;;;;;;;;;;;;;;;;;;; @@%%&&& ;;;;;;;;;;;;;;;;;;;;;;;;;;",
";;;;;;;;;;;;;;;;;;;;;;;;;;;;;;;;;;;;;;;;;;;;;;;;; XXX@%&&& ;;;;;;;;;;;;;;;;;;;;;;;;;;",
";;;;;;;;;;;;;;;;;;;;;;;;;;;;;;;;;;;;;;;;;;;;;;;; XXXXXXX&& ;;;;;;;;;;;;;;;;;;;;;;;;;;",
";;;;;;;;;;;;;;;;;;;;;;;;;;;;;;;;;;;;;;;;;;;;;;;; XXXXXXXXX. ;;;;;;;;;;;;;;;;;;;;;;;;;",
";;;;;;;;;;;;;;;;;;;;;;;;;;;;;;;;;;;;;;;;;;;;;;;; XXXXXXXXX  ;;;;;;;;;;;;;;;;;;;;;;;;;",
";;;;;;;;;;;;;;;;;;;;;;;;;;;;;;;;;;;;;;;;;;;;;;;; XXXXXXXXX. ;;;;;;;;;;;;;;;;;;;;;;;;;",
";;;;;;;;;;;;;;;;;;;;;;;;;;;;;;;;;;;;;;;;;;;;;;;; XXXXXXXXXX ;;;;;;;;;;;;;;;;;;;;;;;;;",
";;;;;;;;;;;;;;;;;;;;;;;;;;;;;;;;;;;;;;;;;;;;;;;; XXXXXXXXXX ;;;;;;;;;;;;;;;;;;;;;;;;;",
";;;;;;;;;;;;;;;;;;;;;;;;;;;;;;;;;;;;;;;;;;;;;;;;     XXXXXX ;;;;;;;;;;;;;;;;;;;;;;;;;",
";;;;;;;;;;;;;;;;;;;;;;;;;;;;;;;;;;;;;;;;;;;;;;;; XXXXXXXXXX ;;;;;;;;;;;;;;;;;;;;;;;;;",
";;;;;;;;;;;;;;;;;;;;;;;;;;;;;;;;;;;;;;;;;;;;;;;; XXXXXXXXX. ;;;;;;;;;;;;;;;;;;;;;;;;;",
";;;;;;;;;;;;;;;;;;;;;;;;;;;;;;;;;;;;;;;;;;;;;;;; XXXXXXXXX ;;;;;;;;;;;;;;;;;;;;;;;;;;",
";;;;;;;;;;;;;;;;;;;;;;;;;;;;;;;;;;;;;;;;;;;;;;;; XXXXXXXXX ;;;;;;;;;;;;;;;;;;;;;;;;;;",
";;;;;;;;;;;;;;;;;;;;;;;;;;;;;;;;;;;;;;;;;;;;;;;;          ;;;;;;;;;;;;;;;;;;;;;;;;;;;",
";;;;;;;;;;;;;;;;;;;;;;;;;;;;;;;;;;;;;;;;;;;;;;;;;;;;;;;;;;;;;;;;;;;;;;;;;;;;;;;;;;;;;",
";;;;;;;;;;;;;;;;;;;;;;;;;;;;;;;;;;;;;;;;;;;;;;;;;;;;;;;;;;;;;;;;;;;;;;;;;;;;;;;;;;;;;",
";;;;;;;;;;;;;;;;;;;;;;;;;;;;;;;;;;;;;;;;;;;;;;;;;;;;;;;;;;;;;;;;;;;;;;;;;;;;;;;;;;;;;"
};
