/* XPM */
static char *_4_fps_zombie_WALK_crop[] = {
/* columns rows colors chars-per-pixel */
"85 167 13 1 ",
"  c black",
". c #010000",
"X c #01070A",
"o c #01070B",
"O c #1C0001",
"+ c #063938",
"@ c #460100",
"# c #1D5D5A",
"$ c #1D5D5B",
"% c #960D00",
"& c #F30802",
"* c #DFB77B",
"= c None",
/* pixels */
"=====================================================================================",
"=====================================================================================",
"=====================================================================================",
"=====================================================================================",
"=====================================================================================",
"=====================================================================================",
"=====================================================================================",
"=====================================================================================",
"=====================================================================================",
"=====================================================================================",
"==========================================  =========================================",
"==========================================  =========================================",
"========================================= XX ========================================",
"====================================     +XXo =======================================",
"======================================= XXXXoo    ===================================",
"======================================== XXXooXXXX  =================================",
"============================= ========== XXXooXXXXXX ================================",
"=============================  == ===   oXXXXXXXXXXXX ===============================",
"============================= %  &   #XXooXXXXXXXXXXXX ==============================",
"============================= %&&&&&$$XXXXXXXXXXXXXXXXX =============================",
"============================= %$&&$$$$$oXXXXXXXXXXXXXXX+ ============================",
"============================ %$&$$$$+@#oXXXXXXXXXXXXXXX+ ============================",
"============================ %$$$$$$%%+#oXXXXXXXXXXXXXXX+ ===========================",
"============================ %$$$$$$@%$$#XXXXXXXXXXXXXXXX ===========================",
"============================ %$$$$$$$$$$$$+oXXXXXXXXXXXX++   ========================",
"=========================== %%$$$$$$$$$$$$#+XoXXXXXXXXXXooooo =======================",
"=========================== %%$$$#$$$$$$$$$$+oooXXXXXX+Xoo    =======================",
"==========================  %%$$$$$$$$$$$$$$++ooXXXXXXXXo ===========================",
"==========================  %%$$$$$$$$$$$&$$#$++XXXoXXoo ============================",
"==========================  %%$$$$$$$$$$&%$$+#++++XoXXo =============================",
"========================== %%%$$$$$$$$$&&%$$###++++oXXX =============================",
"========================== @%%+$$$$$$$%&&&&$+#++++ooXXX =============================",
"========================= %%&$$$$$$$$+&&&&%$$$+++oo+o  ==============================",
"========================= %&%$+$+$+$+$%&&&@$+$++++++ ================================",
"======================== %@&&$$$$$$$$+%&&%$$$+++++++@  ==============================",
"======================== %%&%$X+++++++%&+$+$++++++++@@@   ===========================",
"======================= .%&&$&*&X+++++%&$$$$++++++++@@@@@ ===========================",
"====================== .@%&&+X&&&&X+++@&+$+++++++++@@@@@@@ ==========================",
"===================== @.@%&%XXXXX&&X+++&$$$+++++++@@@@@@@@ ==========================",
"==================== @@.@%%$XXXXXX&%+++&+$++++++++@@@@@@@@@ =========================",
"=================== @@@ %&&$XXXXXXXX+++&##+++++++@@@@@@@@@@ =========================",
"================== @@@ @@&+$XXXXXXXX+++&+#++++++@@@@@@@@@@@ =========================",
"================= @@@@ +%%$$XXXXXXXX+++&$+++OO@@@@@@@@@@@@@ =========================",
"================ @@@O@ @@$$$XXXXXXXX+++++++O.@@@@@@@@@@@@@@ =========================",
"=============== @@@@@@.@$$$+%XXXXXXX++++&++O.@@@@@@@@@@@@@@ =========================",
"============== @@@@@O.O++$$$@&&XXXX+++++++o.@@@@@@@@@@@@@@@ =========================",
"============== @@@@@@.@+$$$$$+&&&&%X$$$+++@.@@@@@@@@@@@@@@@ =========================",
"============= @@@@@@O@ O+$$$$$$+&&%%+$+++&.@@@@@@@@@@@@@@@@ =========================",
"============ @@@@@@@@@@ O+####$$$$$$$$#++O.@@@@@@@OO@@@@@@@ =========================",
"=========== @@@@@@@@@@@@..O#$$$$$$$$$$++o.@.@@@@@@OOO@@@@@@@ ========================",
"=========== @@@@@@@@@@@@OO.O+$$$$$$#$$$+O..&.@@@@@OOO@@@@@@@ ========================",
"========== @@@@@@@@@@@@@OOO.O++++$+#$$+OO.@.&.@@@O.O.....@@@ ========================",
"========= @@@@@@@@@@@@@@@@OO.OOXXXXXOOOO.@@.%&.@@O..*****.@@ ========================",
"======== @@@@@@@@@@@@@@@@@O@O...........@@@@.&&..O.*******.@@ =======================",
"======== @@@@@@@@@@@@@@@@@@@@@OOOXOO@@@@@@@@@.&&&..********.@ =======================",
"======= @@@@@@@@@@@@@@@@@@@@@@OOOOO@@@@@@@@@@@.&&&#*******@.@@ ======================",
"======= @@@@@@@@@@@@@@@@@@@@@@@@@@@@@@@@@@@@@@@.@%%*******%.@@ ======================",
"======= @@@@@@@@@@@@@@@@@@@@@@@@@@@@@@@@@%@@@@@@.. *******%.@@ ======================",
"====== @@@@@@@@@@@@@@@@@@@@@@@@@@@@@@@@@@%@@@@@@@ = ******.@@ =======================",
"====== @@@@@@@@@@@O@O@@@@@@@@@@@@@@@@@@@@%@@@@@@ == +$#*$.@@@@  =====================",
"====== @@@@@@@@@@OOO@@@@@@@@@@@@@@@@@@@@%%@@@@@@ == ..#$.@@@@@@@ ====================",
"===== @%%%%@@     OOOOO@O@@@@@@@@@@@@@@@@%@@@@@@ == OO..@@@@@@@@ ====================",
"====== $$$$+ ==== .OOOOO@@@@@@@@@@@@@@@@@%@@@@@ ==== @@@@@@@%%%% ====================",
"====== $$$$ ====== OOOOOO@@@@@@%@@@@%%@@@@@@@@@ ==== @@@@@@%@%@% ====================",
"====== $$$$ ===== OOOOOOO@@@@@@%@@%%%%@@@@@@@@@ ==== @@@@@@@@@@ =====================",
"====== $$$$ ===== OOOOOOO@@@@@@@@@@%%%@@@@@@@@@ ==== O@@@@@@@@@ =====================",
"====== $$$ ====== OOOOOOO@@@@@@@%%%%%%%@@@@@@@@ ==== OOO@@@@@$$ =====================",
"====== $$$ ====== OOOOO@O@@@@@@%%%%%%%%@@@@@@@@ =====  OOOO$$$$ =====================",
"====== $$$ ===== OO@@@@@@@@@@%%%%&&&%%%@@@@@@@@ ======= o+##$$$ =====================",
"====== $$$ ===== @O@@@@@@@@@@@%%%&&%%%%@@@@@@@@ ======= o++#$$$$ ====================",
"====== $$$ ===== @@@@@@@@@@@@@%%%%%%%%@@@@@@@@@@ ======= ++$$$$$ ====================",
"====== $$$ ===== @@@@@@@@@@@@@@@@@@%%%@@@@@@@@@@ ======= o+$$$$$ ====================",
"====== $$$ ===== @@@@@@@@@@@@@@@@@@@@@@@@@@@@@@@ ======== +##$$$$ ===================",
"====== $$$ ===== @@@@@@@@@@@@@@@@@@@@@@@@@@@@@@@ ======== o+$$$$$ ===================",
"====== $$$ ===== O@@@@@@@@@@@@@@@@@@@@@@@@@@@@@@ ========= +$$$$$ ===================",
"====== $$$ ===== OO@@@@@@@@@@@@@@@@@@@@@@@@@@@@@ ========= +$$$$$$ ==================",
"====== $$ ====== OOO@@@@@@@@@@@@@@@@@@@@@@@@@@@@ ========== $$$$$$$ =================",
"====== $$ ===== OOOOOOO@@@@@@@@@@@@@@@@@@@@@@@@ =========== +$$$$$$ =================",
"====== $$ ===== OOOOOOOO@@@@@@@@@@@@@@@@@@@@@@@@ ========== +$$$$$$ =================",
"====== $$ ===== oOOOOOOOOOOOOOOOO@O@O@O@O@O@O@O@ ========== +$$$$$$$ ================",
"====== $ ====== OOOOOOOOOOOOOOOOOOOOOOOO@@@OOO@@ ========== +$$$$$$$ ================",
"===== $$ ====== oOOOOOOOOOOOOOOOOOOOOOOOOOOOOOO@ ========== +$$$$$$$ ================",
"===== $$ ====== oOOOOOOOOOOOOOOOOOOOOOOOOOOOOOO@ ========== ++$$$$$$$ ===============",
"==== $$# ====== oOoOOOOOOOOOOOOOOOOOOOOOO@OOOOO@ =========== +$$$$$$$ ===============",
"==== $$$ ====== oXOOOOOOOOOOOOOOOOOOOOOO@@OOOOO@ =========== +$#$$$$$ ===============",
"==== $$$ ===== oXXoOOOOOOOOOOOOOOOOOOOO@O@OOOOOO =========== Oo@@%@%+$ ==============",
"==== $$$ ===== oooOOOOOOOOOOOOOOOOOOOOOO@OOOOOO ============= O&&&&&&% ==============",
"==== $$$ ===== XoOOOOOOOOOOOOOOOOOOOOOOOOOOOOO ============== +%%%%%@&@ =============",
"==== $$$ ===== XOOOOOOOOOOOOOOOOOOOOOOOOOOOOOO =============== +$$$$$$ ==============",
"==== $$ ====== OOOOOOOOOOOOOOOOOOOOOOOOOOOOOOO ================ +$$$$$$ =============",
"=== $$$ ====== OO@@OO@@@@@OOOOOOOOOOOOOOOOOOOO ================ +$$$$$$$ ============",
"=== $$$ ====== OO@@&%@O@@@OOOOOOOOoOOOOOOOOOOO ================= +$$$$$$ ============",
"=== $$$ ====== OO@%&&&&&@@@@OOOOOOOOOOOOOOOOOO ================= +$$$$$$ ============",
"=== $$ ====== OOO@@@%%&&&@@@OOOOoOoOoOOOOOOOOO ================== +$$$$$ ============",
"=== $$ ====== OOOO@%@@%&&&@@OOOOOooOOOOOOOOOOO ================== +$$$$$$ ===========",
"=== $$ ====== OOO@@%%%%%&&&@OOOOoooOoOOOOOOOOO =================== $$$$$$ ===========",
"== $$ ======= @@@@%&&&&%@@&&OOOOO.oOOOOOOOOOOO =================== +$$$$$ ===========",
"== $$ ======= @%%&&&&&&&%@@@%OOO.ooOOOOOOOOOOO ==================== $$$$$$  =========",
"== $$ ======= %&&&&&&&&&&@@@@OOO.oOOOOOOOOOOOO ==================== +$$$$$$$ ========",
"== $ ========= &&&&&&&&&&%@@O@OO.ooOOOOOOOOOOO ==================== $$$$$$$$ ========",
"== $ ======== %&&&&&&&&&&&%@@@O .oOOOOOOOOOOOO =================== $$$$$$$$$$ =======",
"= $$$ ====== **%&&&&%*&&&&&%@@ = ooOOOOOOOOOOOO ================= +$$$$$$$$$$ =======",
"= $$$$ ====== %&&&&&&**&&&&&@@ = oOOOOOOOOOOOOO ================= +$$+$$$$$$$$ ======",
"= $$$# ====== @OO%%&&*&&%&&&@@ = ooOOOOOOOOOOOO ================ ++$$+$$$$$$$$ ======",
"= $$$$$ ====== OOOO@%%&**&&&@@ = XOOOOOOOOOOOOO =============== $+$$$+$$$$$$$$$ =====",
" ++$+ $ ====== XXOOO@%%%***&@ == OXOOOOOOOOOOOO =============== $$$$$++$$$$$$$$ =====",
" ++$ = $ ===== XXOOOOO@%%%**@ == OOOOOOOOOOOOOO ============== $$$$$$+$$$$$$$$$ =====",
" ++$ = # ===== XXXOOOOO@@%%*@ == OXOOOOOOOOOOOO ============= $$$$$$$$ $$$$$$  ======",
" ++$ ==  ===== XXXOOOOOO@@@@@ == OOOOOOOOOOOOOO ============= $$$$$$$ = $$   ========",
" ++$ ========== XXXOOOOOO@O@@ == OXOOOOOOOOOOOO ============= $$$$$#$ =   ===========",
"= $+ ========== XXXOOOOOOOO@@ === OOOOOOOOOOOOO ============= $$$     ===============",
"=  + ========== XXXOOOOOOOO@ ==== XOOOOOOOOOOOO ============= $$ ====================",
"===  ========== XXXOOOOOOOOO ==== XOOOOOOOOOOOO =============    ====================",
"=============== XXXXOOOOOOOO ==== XOOOOOOOOOOOO =====================================",
"=============== XXXXOOOOOOOO ==== XOOOOOOOOOOOO =====================================",
"=============== XXXOOOOOOOOO ==== XOOOOOOOOOOOO =====================================",
"=============== XXXOOOOOOOOO ==== OOOOOOOOOOOOO =====================================",
"=============== ooXOOOOOOOOO ==== XOOOOOOOOOOOO =====================================",
"================ ooOOOOOOOOO ==== OOOOOOOOOOOOO =====================================",
"=============== XooOOOOOOOOO ==== XOoOOOOOOOOO ======================================",
"=============== XXOOOOOOOOO ===== OOOOOOOOOOOO ======================================",
"============== XXXOOOOOOOOO ====== OXOOOOOOOOO ======================================",
"============= XXXOOOOOOOOOO ====== OOOOOOOOOOO ======================================",
"============= XXXOOOOOOOOOO ====== OXOOOOOOOOO ======================================",
"============= XXXOOOOOOOOOO ====== OOOOOOOOOO =======================================",
"============ XXXXOOOOOOOOOO ====== OXOOOOOOOO =======================================",
"============ XXXOOOOOOOOOO ======= OOOOOOOOOOO ======================================",
"============ XXXOOOOOOOOOO ======= OXOOOOOOOOOO =====================================",
"============ XXOOOOOOOOOO ======== OOOOOOOOOOOOO ====================================",
"=========== XXXOOOOOOOOOO ======== OXOOOOOOOOOOO ====================================",
"=========== XXOOOOOOOOOOO ======= OOOOOOOOOOOOOOO ===================================",
"=========== XXXOOOOOOOOO ========= OOOXOXOXOOOOOOO ==================================",
"=========== XXOOOOOOOOOO ========= OOOOXXXXOOOOOOO ==================================",
"========== XXOOOOOOOOOO =========== XOXXXXXXXOXOXOO =================================",
"========== XXOOOOOOOOOO =========== XXXXXXXXXOOOOOO.  ===============================",
"========= XXXOOOOOOOOOO ============  XXXXXXXXXXXXX.. ===============================",
"========= XXOOOOOOOOOO =============== XX   XXXXXX+... ==============================",
"========= XXXOOOOOOOOO ================  === .....++.. ==============================",
"========= XOOOOOOOOOOO ===================== X....+++. ==============================",
"========= XOOOOOOOOOO ===================== XXXXX++++  ==============================",
"======== OOOOOOOOOOOO ====================== XXXXX+++ ===============================",
"======== OOOOOOOOOOO ======================= XXXXXXXo ===============================",
"======== OOOOOOOOOOO ======================= XXXXXXXo ===============================",
"======= OOOOOOOOOOOO ======================= XXXXXXXo ===============================",
"======= OOOOOOOOOOO ======================== XXXXXXXo ===============================",
"======= OOOOOOOOOOO ======================== XXXXXXXo ===============================",
"======== OOOOOOOOO  ======================== XXXXXXX ================================",
"======== X+++#++X ========================== XXXXXXX ================================",
"======== ++$##$$ =========================== XXXXXXX ================================",
"======== ++$$#$$ =========================== XXXXXXX ================================",
"======= ++#$$$$$ =========================== XXXXXXX ================================",
"======= ++$$$$$$ ========================== XXXXXXXX ================================",
"======= ++$$$$# =========================== XXXXXXXX ================================",
"======= +++$++X =========================== XXXXXXXX ================================",
"====== X+XXXXXXX ========================== XXXXXXXX ================================",
"====== XXXXXXXXXX ==========================  XXXX   ================================",
"===== XXXXXXXXXXX ============================    ===================================",
"===== XXXXXXXXXXX ===================================================================",
"===== XXXXXXXXXX ====================================================================",
"===== XXXXXXXXXX ====================================================================",
"===== XXXXXXXXXX ====================================================================",
"===== XXXXXXXXXXX ===================================================================",
"===== XXXXXXXXXXX ===================================================================",
"====== XXXXXXXXXX ===================================================================",
"=======  XXXXXXX  ===================================================================",
"=========       =====================================================================",
"====================================================================================="
};
