/* XPM */
static char *_6_fps_zombie_WALK_crop[] = {
/* columns rows colors chars-per-pixel */
"85 167 15 1 ",
"  c black",
". c #010000",
"X c #01070A",
"o c #1C0000",
"O c #1D0000",
"+ c #1C0001",
"@ c #063938",
"# c #063939",
"$ c #460100",
"% c #1D5D5B",
"& c #960D00",
"* c #970D00",
"= c #F30802",
"- c #DFB77B",
"; c None",
/* pixels */
";;;;;;;;;;;;;;;;;;;;;;;;;;;;;;;;;;;;;;;;;;;;;;;;;;;;;;;;;;;;;;;;;;;;;;;;;;;;;;;;;;;;;",
";;;;;;;;;;;;;;;;;;;;;;;;;;;;;;;;;;;;;;;;;;;;;;;;;;;;;;;;;;;;;;;;;;;;;;;;;;;;;;;;;;;;;",
";;;;;;;;;;;;;;;;;;;;;;;;;;;;;;;;;;;;;;;;;;;;;;;;;;;;;;;;;;;;;;;;;;;;;;;;;;;;;;;;;;;;;",
";;;;;;;;;;;;;;;;;;;;;;;;;;;;;;;;;;;;;;;;;;;;;;;;;;;;;;;;;;;;;;;;;;;;;;;;;;;;;;;;;;;;;",
";;;;;;;;;;;;;;;;;;;;;;;;;;;;;;;;;;;;;;;;;;;;;;;;;;;;;;;;;;;;;;;;;;;;;;;;;;;;;;;;;;;;;",
";;;;;;;;;;;;;;;;;;;;;;;;;;;;;;;;;;;;;;;;;;;;;;;;;;;;;;;;;;;;;;;;;;;;;;;;;;;;;;;;;;;;;",
";;;;;;;;;;;;;;;;;;;;;;;;;;;;;;;;;;;;;;;;;;;;;;;;;;;;;;;;;;;;;;;;;;;;;;;;;;;;;;;;;;;;;",
";;;;;;;;;;;;;;;;;;;;;;;;;;;;;;;;;;;;;;;;;;;;;;;;;;;;;;;;;;;;;;;;;;;;;;;;;;;;;;;;;;;;;",
";;;;;;;;;;;;;;;;;;;;;;;;;;;;;;;;;;;;;;;;;;;;;;;;;;;;;;;;;;;;;;;;;;;;;;;;;;;;;;;;;;;;;",
";;;;;;;;;;;;;;;;;;;;;;;;;;;;;;;;;;;;;;;;;;;;;;;;;;;;;;;;;;;;;;;;;;;;;;;;;;;;;;;;;;;;;",
";;;;;;;;;;;;;;;;;;;;;;;;;;;;;;;;;;;;;;;;;;  ;;;;;;;;;;;;;;;;;;;;;;;;;;;;;;;;;;;;;;;;;",
";;;;;;;;;;;;;;;;;;;;;;;;;;;;;;;;;;;;;;;;;;  ;;;;;;;;;;;;;;;;;;;;;;;;;;;;;;;;;;;;;;;;;",
";;;;;;;;;;;;;;;;;;;;;;;;;;;;;;;;;;;;;;;;; X ;;;;;;;;;;;;;;;;;;;;;;;;;;;;;;;;;;;;;;;;;",
";;;;;;;;;;;;;;;;;;;;;;;;;;;;;;;;;;;;     XXX ;;;;;;;;;;;;;;;;;;;;;;;;;;;;;;;;;;;;;;;;",
";;;;;;;;;;;;;;;;;;;;;;;;;;;;;;;;;;;;;;; XXXXX    ;;;;;;;;;;;;;;;;;;;;;;;;;;;;;;;;;;;;",
";;;;;;;;;;;;;;;;;;;;;;;;;;;;;;;;;;;;;;; XXXXXXXXX  ;;;;;;;;;;;;;;;;;;;;;;;;;;;;;;;;;;",
";;;;;;;;;;;;;;;;;;;;;;;;;;;;;;;;;;;;;;; XXXXXXXXXXX ;;;;;;;;;;;;;;;;;;;;;;;;;;;;;;;;;",
";;;;;;;;;;;;;;;;;;;;;;;;;;;;  ;;;;;;;  XXXXXXXXXXXXX ;;;;;;;;;;;;;;;;;;;;;;;;;;;;;;;;",
";;;;;;;;;;;;;;;;;;;;;;;;;;;;;        XXXXXXXXXXXXXXXX ;;;;;;;;;;;;;;;;;;;;;;;;;;;;;;;",
";;;;;;;;;;;;;;;;;;;;;;;;;;;;; *=====%%XXXXXXXXXXXXXXXX ;;;;;;;;;;;;;;;;;;;;;;;;;;;;;;",
";;;;;;;;;;;;;;;;;;;;;;;;;;;;; =====%%%XXXXXXXX#XXXXXXX# ;;;;;;;;;;;;;;;;;;;;;;;;;;;;;",
";;;;;;;;;;;;;;;;;;;;;;;;;;;; *%=*%%%##%XXXXXXXXXXXXXXXX@ ;;;;;;;;;;;;;;;;;;;;;;;;;;;;",
";;;;;;;;;;;;;;;;;;;;;;;;;;;; %%%%%%%**%%XXXXXXXXXXXXXXXX ;;;;;;;;;;;;;;;;;;;;;;;;;;;;",
";;;;;;;;;;;;;;;;;;;;;;;;;;; **%%%%%%**%%XXXXXXXXXXXXXXXX ;;;;;;;;;;;;;;;;;;;;;;;;;;;;",
";;;;;;;;;;;;;;;;;;;;;;;;;;; **%%%%%%%%%%%%XXXXXXXXXXXXXX ;;;;;;;;;;;;;;;;;;;;;;;;;;;;",
";;;;;;;;;;;;;;;;;;;;;;;;;;; **%%%%%%%%%%%%%XXXXXXXXXXXXXX     ;;;;;;;;;;;;;;;;;;;;;;;",
";;;;;;;;;;;;;;;;;;;;;;;;;;  =*%%%%%%%%%%%%%%XXXXXXXXXXXXXX   ;;;;;;;;;;;;;;;;;;;;;;;;",
";;;;;;;;;;;;;;;;;;;;;;;;;;  **%%%%%%%%%%%%%%@@XXXXXXXXXX  ;;;;;;;;;;;;;;;;;;;;;;;;;;;",
";;;;;;;;;;;;;;;;;;;;;;;;;;  =*%%%%%%%%%%%%%%%@@XXXXXXXX ;;;;;;;;;;;;;;;;;;;;;;;;;;;;;",
";;;;;;;;;;;;;;;;;;;;;;;;; $ **%%%%%%%%%%=*%%@%@@@#XXXXX ;;;;;;;;;;;;;;;;;;;;;;;;;;;;;",
";;;;;;;;;;;;;;;;;;;;;;;;; &&=*%%%%%%%%%*=*%%%%%@@@XXXXX ;;;;;;;;;;;;;;;;;;;;;;;;;;;;;",
";;;;;;;;;;;;;;;;;;;;;;;;; &*&*#%%%%%%%o==*=%@%@@@@XXXX ;;;;;;;;;;;;;;;;;;;;;;;;;;;;;;",
";;;;;;;;;;;;;;;;;;;;;;;;; **=%%%%%%%%%====*%%%#@@XXX   ;;;;;;;;;;;;;;;;;;;;;;;;;;;;;;",
";;;;;;;;;;;;;;;;;;;;;;;;; $=*%#%@%@%#@====$%#%@@@@@@ ;;;;;;;;;;;;;;;;;;;;;;;;;;;;;;;;",
";;;;;;;;;;;;;;;;;;;;;;;; **==%%%%%%%%%===*%%%@@@@@@#    ;;;;;;;;;;;;;;;;;;;;;;;;;;;;;",
";;;;;;;;;;;;;;;;;;;;;;; $*==*%@@@@@@##*=$%#%@@@@@@@#$$$$  ;;;;;;;;;;;;;;;;;;;;;;;;;;;",
";;;;;;;;;;;;;;;;;;;;;;; $$==%#=X@@@@@@*=%%%%@@@@@@@$$$$$$ ;;;;;;;;;;;;;;;;;;;;;;;;;;;",
";;;;;;;;;;;;;;;;;;;;;   $*==@====X@@@@$=#%@@@@@@@@#$$$$$$$ ;;;;;;;;;;;;;;;;;;;;;;;;;;",
";;;;;;;;;;;;;;;;;;;; $$ *==*XXX====@@@*#%%%@@@@@@#$$$$$$$$ ;;;;;;;;;;;;;;;;;;;;;;;;;;",
";;;;;;;;;;;;;;;;;;; $$$ $=*%XXXXXX=X@@==@%@@@@@@#$$$$$$$$$$ ;;;;;;;;;;;;;;;;;;;;;;;;;",
";;;;;;;;;;;;;;;;;; $$$ $$=*%XXXXXXXX@@@=%%@@@@@@#$$$$$$$$$$ ;;;;;;;;;;;;;;;;;;;;;;;;;",
";;;;;;;;;;;;;;;;;; $$$ $*=%@XXXXXXXX@@@=@@@@@@@%$$$$$$$$$$$ ;;;;;;;;;;;;;;;;;;;;;;;;;",
";;;;;;;;;;;;;;;;; $$$$ $=*%@XXXXXXXX@@@=@@@#oo$$$$$$$$$$$$$ ;;;;;;;;;;;;;;;;;;;;;;;;;",
";;;;;;;;;;;;;;;; $$$o$ $*%%#XXXXXXXX@@@=@@@o $$$$$$$$$$$$$$ ;;;;;;;;;;;;;;;;;;;;;;;;;",
";;;;;;;;;;;;;;; $$$$$ $%%%%XXXXXXXXX@@@@@@# $$$$$$$$$$$$$$$ ;;;;;;;;;;;;;;;;;;;;;;;;;",
";;;;;;;;;;;;;; $$$o$o o%%%%#*=XXXXXX@@@@=#o $$$$$$$$$$$$$$$ ;;;;;;;;;;;;;;;;;;;;;;;;;",
";;;;;;;;;;;;; $$$$$$$ o%%%%%$===*XX@@@@@$# $$$$$$$$$$$$$$$$ ;;;;;;;;;;;;;;;;;;;;;;;;;",
";;;;;;;;;;;;; $$$$$$o$ o%%%%%%*===XX@@@@#o $$$$$$$o$$$$$$$$ ;;;;;;;;;;;;;;;;;;;;;;;;;",
";;;;;;;;;;;; $$$$$$$$$$ o%%%%%%%#**#%%@@#=.$$$$$$$ooo$$$$$$ ;;;;;;;;;;;;;;;;;;;;;;;;;",
";;;;;;;;;;; $$$$$$$$$$oo.o#%%%%%%%%%@%@@o.=.$$$$$$ooo$$$$$$$ ;;;;;;;;;;;;;;;;;;;;;;;;",
";;;;;;;;;; $$$$$$$$$$$$$o.o#%%%%%%%%%%@@o..=.$$$$$.o.... $$$ ;;;;;;;;;;;;;;;;;;;;;;;;",
";;;;;;;;;; $$$$$$$$$$$$$oo o@@@%%%%%@%#o.$ *..$$oo..-----.$$ ;;;;;;;;;;;;;;;;;;;;;;;;",
";;;;;;;;; $$$$$$$$$$$$$$$oo oooX@#@#@#@o.$$.== $oo ------- $$ ;;;;;;;;;;;;;;;;;;;;;;;",
";;;;;;;; $$$$$$$$$$$$$$$$$o$    ........$$$$.== . ; ------* $ ;;;;;;;;;;;;;;;;;;;;;;;",
";;;;;;;; $$$$$$$$$$$$$$$$$$$$$++ooo$$$$$$$$$$.===. -------- $$ ;;;;;;;;;;;;;;;;;;;;;;",
";;;;;;; $$$$$$$$$$$$$$$$$$$$$$++ooo$$$$$$$$$$$ ==*#-------* $$ ;;;;;;;;;;;;;;;;;;;;;;",
";;;;;;; $$$$$$$$$$$$$$$$$$$$$$$$$$$$$$$$$$$$$$$ * *-------.$$$ ;;;;;;;;;;;;;;;;;;;;;;",
";;;;;;; $$$$$$$$$$$$$$$$$$$$$$$$$$$$$$$$$*$$$$$$ ; %%-----.$$ ;;;;;;;;;;;;;;;;;;;;;;;",
";;;;;; $$$$$$$$$$$$$$$$$$$$$$$$$$$$$$$$$$*$$$$$$ ;; %%%%%.$$$$ ;;;;;;;;;;;;;;;;;;;;;;",
";;;;;; $$$$$$$$$ooo$+$+$$$$$$$$$$$$$$$$$$*$$$$$$ ;;      $$$$$$  ;;;;;;;;;;;;;;;;;;;;",
";;;;; $$$$$$$$$$ ooooo$$$$$$$$$$$$$$$$$$**$$$$$ ;;; oo$$$$$$$$$$ ;;;;;;;;;;;;;;;;;;;;",
";;;;; $*$$o$ $  ; oooo+++$$$$$$$$$$$$$$$**$$$$$ ;;;; oo$$$$$$$$* ;;;;;;;;;;;;;;;;;;;;",
";;;;; **%%% ; ;;;; oo++++$$$$$$$$$$$*$$$*$$$$$$ ;;;; o$$$$$$**** ;;;;;;;;;;;;;;;;;;;;",
";;;;; %%%%# ;;;;; o +++++$+$$$$*$$$***$$$$$$$$  ;;;; $$$$$$$$$$ ;;;;;;;;;;;;;;;;;;;;;",
";;;;;; %%%% ;;;;; +++ +++$$$$$*$$$&&&&$$$$$$$$$ ;;;; o$$$$$$$$$ ;;;;;;;;;;;;;;;;;;;;;",
";;;;;; %%%% ;;;;; ++++++++$$$$$$$&&&&&$$$$$$$$$ ;;;; oo$$$$$$$# ;;;;;;;;;;;;;;;;;;;;;",
";;;;;; %%% ;;;;; o+++$$$+$$$$$$*&&&&&&&$$$$$$$$ ;;;;   oooo#%%% ;;;;;;;;;;;;;;;;;;;;;",
";;;;;; %%% ;;;;; o+$+$$$$$$$$&**&=&&&&*$$$$$$$$ ;;;;;;; X##%%%% ;;;;;;;;;;;;;;;;;;;;;",
";;;;;; %%% ;;;;; $$$$$$$$$$$$$*********$$$$$$$$$ ;;;;;; X@%%%%%% ;;;;;;;;;;;;;;;;;;;;",
";;;;;; %%% ;;;;; $$$$$$$$$$$$$$$$*$***$$$$$$$$$$ ;;;;;;; #@%%%%% ;;;;;;;;;;;;;;;;;;;;",
";;;;;; %%% ;;;;; $$$$$$$$$$$$$$$$$****$$$$$$$$$$ ;;;;;;; #@%%%%% ;;;;;;;;;;;;;;;;;;;;",
";;;;;; %%% ;;;;; $$$$$$$$$$$$$$$$$$$$$$$$$$$$$$$ ;;;;;;;; @%%%%%% ;;;;;;;;;;;;;;;;;;;",
";;;;;; %%% ;;;;; $$$$$$$$$$$$$$$$$$$$$$$$$$$$$$$ ;;;;;;;; #@%%%%% ;;;;;;;;;;;;;;;;;;;",
";;;;;; %%% ;;;;; oo$$$$$$$$$$$$$$$$$$$$$$$$$$$$$ ;;;;;;;;; #%%%%% ;;;;;;;;;;;;;;;;;;;",
";;;;;; %%% ;;;;; ooo$$$$$$$$$$$$$$$$$$$$$$$$$$$$ ;;;;;;;;; #%%%%%% ;;;;;;;;;;;;;;;;;;",
";;;;;; %%% ;;;; ooooooo$$$$$$$$$$$$$$$$$$$$$$$$$ ;;;;;;;;;; @%%%%%% ;;;;;;;;;;;;;;;;;",
";;;;;; %% ;;;;; oooooooo$$$$$$$$$$$$$$$$$$$$$$$$ ;;;;;;;;;; @%%%%%% ;;;;;;;;;;;;;;;;;",
";;;;;; %% ;;;;; Xooooooooooooooo+$+$+++$o$o$o$oo ;;;;;;;;;; @%%%%%% ;;;;;;;;;;;;;;;;;",
";;;;;; %% ;;;;; Xooooooooooooooo++++++++o$$ooooo ;;;;;;;;;; @%%%%%%% ;;;;;;;;;;;;;;;;",
";;;;;; %% ;;;;; XXXooooooooooooo++++++++oooooooo ;;;;;;;;;; @%%%%%%% ;;;;;;;;;;;;;;;;",
";;;;; %% ;;;;;; XX++++++++++oooo++++++++++++++++ ;;;;;;;;;; @%%%%%%% ;;;;;;;;;;;;;;;;",
";;;;; %% ;;;;;; XXX+++++++++oooo++++++++++++++++ ;;;;;;;;;; @@%%%%%% ;;;;;;;;;;;;;;;;",
";;;;; %% ;;;;; XXX++++++oooooooo+++++++++++++++$ ;;;;;;;;;; #@%%%%%%% ;;;;;;;;;;;;;;;",
";;;; %%% ;;;;; XXXX+++++oooooooo+++++++++++++++  ;;;;;;;;;;; #%%%%%%% ;;;;;;;;;;;;;;;",
";;;; %%% ;;;;; XXX++++++oooooooo++++++++o$$o++ ;;;;;;;;;;;;; oo#$***% ;;;;;;;;;;;;;;;",
";;;; %%% ;;;;; XX+++++++oooooooo++++++++o$oo++ ;;;;;;;;;;;;;; $=====** ;;;;;;;;;;;;;;",
";;;; %%% ;;;;; X++++++++oooooooo++++++++oooooo ;;;;;;;;;;;;;; %*=====* ;;;;;;;;;;;;;;",
";;;; %%% ;;;;; o++++++++oooooooo++++++++oooooo ;;;;;;;;;;;;;; X#%%%%%* ;;;;;;;;;;;;;;",
";;;; %%% ;;;;; o+$++++$$$+oooooooooooooooooooo ;;;;;;;;;;;;;;; #%%%%%% ;;;;;;;;;;;;;;",
";;;; %% ;;;;;; o+$$=*++$+$+ooooooooooooooooooo ;;;;;;;;;;;;;;;; #%%%%%% ;;;;;;;;;;;;;",
";;; %%% ;;;;; oo+$*====**$$ooooooooooooooooooo ;;;;;;;;;;;;;;;; @%%%%%% ;;;;;;;;;;;;;",
";;; %%% ;;;;; oo+$$======*o$ooooXoXoXooooooooo ;;;;;;;;;;;;;;;;; %%%%%% ;;;;;;;;;;;;;",
";;; %%% ;;;;; oo++$$&&===$$$oooooooooooooooooo ;;;;;;;;;;;;;;;;; #%%%%%% ;;;;;;;;;;;;",
";;; %%% ;;;;; oo++$$$&$===$$ooooXXXooooooooooo ;;;;;;;;;;;;;;;;; @%%%%%% ;;;;;;;;;;;;",
";;; %% ;;;;;; oo+$**=&**===*ooooX oooooooooooo ;;;;;;;;;;;;;;;;;; %%%%%% ;;;;;;;;;;;;",
";;; %% ;;;;;; $$$======*$$==oooo XXooooooooooo ;;;;;;;;;;;;;;;;;; #%%%%% ;;;;;;;;;;;;",
";;; %% ;;;;;; *=========$$$=$+++ XXoooooooooooo ;;;;;;;;;;;;;;;;;; %%%%% ;;;;;;;;;;;;",
";; %% ;;;;;;; ==========$$$$+++  XXoooooooooooo ;;;;;;;;;;;;;;;;;; %%%%%%   ;;;;;;;;;",
";; %% ;;;;;;; ===========$$$$o ; XXXooooooooooo ;;;;;;;;;;;;;;;;;; %%%%%%%%% ;;;;;;;;",
";; %% ;;;;;; *============$$$o ; XXXooooooooooo ;;;;;;;;;;;;;;;;;; %%%%%%%%% ;;;;;;;;",
";; % ;;;;;;; --=====--====*$$$ ; XXXooooooooooo ;;;;;;;;;;;;;;;;; %%%%%%%%%%% ;;;;;;;",
"; #%% ;;;;;;; $======-=====*$$ ; XXXooooooooooo ;;;;;;;;;;;;;;;;; #%%%%%%%%%% ;;;;;;;",
"; %%%% ;;;;;; oo**==--=*===*$ ;; XXXooooooooooo ;;;;;;;;;;;;;;;; @@%%@%%%%%%%% ;;;;;;",
"; %%%% ;;;;;; Xooo$**=-*===*$ ;; XXXXoooooooooo ;;;;;;;;;;;;;;;; @@%%#%%%%%%%% ;;;;;;",
"; %%%%% ;;;;; XX+++$**---==*$ ;; XXXooooooooooo ;;;;;;;;;;;;;;; %#@%%@@%%%%%%%% ;;;;;",
"; #%%%% ;;;;; XXX+++$$***-** ;;; XXXXoooooooooo ;;;;;;;;;;;;;; %%%#%%@ %%%%%%%% ;;;;;",
"; @%%  % ;;;;; XX++++$$$**-$ ;;;; XXooooooooooo ;;;;;;;;;;;;;; %%% %% ; %%%%%%%% ;;;;",
" @@% ;;  ;;;;; XX++++++$$**$ ;;;; XXXoooooooooo ;;;;;;;;;;;;; %%% ; % ; %%%%%%%% ;;;;",
" #@% ;;   ;;;; XXX++++++$$$$ ;;;; XXooooooooooo ;;;;;;;;;;;;; %%% ; % ; %%%%%%  ;;;;;",
" @@@ ;;;;;;;;; XXX++++++o$o$ ;;;; XXXoooooooooo ;;;;;;;;;;;;; %%% ; % ;; %%   ;;;;;;;",
"; #@% ;;;;;;;; XXX++++oooooo ;;;; XXoooooooooooo ;;;;;;;;;;;; %%% ; %% ;   ;;;;;;;;;;",
"; @%% ;;;;;;;; XXXX++++ooooo ;;;; XXooooooooooo ;;;;;;;;;;;;; %% ;;    ;;;;;;;;;;;;;;",
";;  # ;;;;;;;; XXX++++++++oo ;;;; XXooooooooooo ;;;;;;;;;;;;;;   ;;;;;;;;;;;;;;;;;;;;",
";;;; ;;;;;;;;; XXXX+++++++o ;;;;; Xoooooooooooo ;;;;;;;;;;;;;;;;;;;;;;;;;;;;;;;;;;;;;",
";;;;;;;;;;;;;; XXXX++++++++ ;;;;; ooooooooooooo ;;;;;;;;;;;;;;;;;;;;;;;;;;;;;;;;;;;;;",
";;;;;;;;;;;;;; XXXX++++++++ ;;;;; Xoooooooooooo ;;;;;;;;;;;;;;;;;;;;;;;;;;;;;;;;;;;;;",
";;;;;;;;;;;;;; XXX++++++ooo ;;;;; oooooooooooo ;;;;;;;;;;;;;;;;;;;;;;;;;;;;;;;;;;;;;;",
";;;;;;;;;;;;;;; XXX+++++ooo ;;;;;; ooooooooooo ;;;;;;;;;;;;;;;;;;;;;;;;;;;;;;;;;;;;;;",
";;;;;;;;;;;;;;; XX++++++ooo ;;;;;; ooooooooooo ;;;;;;;;;;;;;;;;;;;;;;;;;;;;;;;;;;;;;;",
";;;;;;;;;;;;;; XX+++++++ooo ;;;;;; oXooooooooo ;;;;;;;;;;;;;;;;;;;;;;;;;;;;;;;;;;;;;;",
";;;;;;;;;;;;;; XXooooooooo ;;;;;;; ooooooooooo ;;;;;;;;;;;;;;;;;;;;;;;;;;;;;;;;;;;;;;",
";;;;;;;;;;;;; XXXooooooooo ;;;;;;; oXoooooooo ;;;;;;;;;;;;;;;;;;;;;;;;;;;;;;;;;;;;;;;",
";;;;;;;;;;;; XXXXooooooooo ;;;;;;; oooooooooo ;;;;;;;;;;;;;;;;;;;;;;;;;;;;;;;;;;;;;;;",
";;;;;;;;;;;; XXXXooooooooo ;;;;;;; oXooooooooo  ;;;;;;;;;;;;;;;;;;;;;;;;;;;;;;;;;;;;;",
";;;;;;;;;;;; XXXoooooooooo ;;;;;;; oooooooooooo ;;;;;;;;;;;;;;;;;;;;;;;;;;;;;;;;;;;;;",
";;;;;;;;;;;; XXXXooooooooo ;;;;;;; ooooooooooooo ;;;;;;;;;;;;;;;;;;;;;;;;;;;;;;;;;;;;",
";;;;;;;;;;; XXXXooooooooo ;;;;;;; ooooooooooooooo ;;;;;;;;;;;;;;;;;;;;;;;;;;;;;;;;;;;",
";;;;;;;;;;; XXXoooooooooo ;;;;;;; Xoooooooooooooo ;;;;;;;;;;;;;;;;;;;;;;;;;;;;;;;;;;;",
";;;;;;;;;;; XXXoooooooooo ;;;;;;;; ooooooooooooooo ;;;;;;;;;;;;;;;;;;;;;;;;;;;;;;;;;;",
";;;;;;;;;;; XXXooooooooo ;;;;;;;;; oooooXoXoXooooo ;;;;;;;;;;;;;;;;;;;;;;;;;;;;;;;;;;",
";;;;;;;;;; XXXoooooooooo ;;;;;;;;;; ooooXXXXooooooo  ;;;;;;;;;;;;;;;;;;;;;;;;;;;;;;;;",
";;;;;;;;;; XXXXoooooooo ;;;;;;;;;;;; oXXXXXXXoooooXo  ;;;;;;;;;;;;;;;;;;;;;;;;;;;;;;;",
";;;;;;;;;; XXXooooooooo ;;;;;;;;;;;;; XXXXXXXoooooXo   ;;;;;;;;;;;;;;;;;;;;;;;;;;;;;;",
";;;;;;;;;; XXoooooooooo ;;;;;;;;;;;;;; XXXXXXoXXXXX@   ;;;;;;;;;;;;;;;;;;;;;;;;;;;;;;",
";;;;;;;;; XXXooooooooo ;;;;;;;;;;;;;;;;          .X@.. ;;;;;;;;;;;;;;;;;;;;;;;;;;;;;;",
";;;;;;;;; XXXooooooooo ;;;;;;;;;;;;;;;;;;;;;;  XXX#@.. ;;;;;;;;;;;;;;;;;;;;;;;;;;;;;;",
";;;;;;;;; XXoooooooooo ;;;;;;;;;;;;;;;;;;;;;; XXX@@@@@ ;;;;;;;;;;;;;;;;;;;;;;;;;;;;;;",
";;;;;;;; XXXXoooooooo ;;;;;;;;;;;;;;;;;;;;;; XXXXX@@@# ;;;;;;;;;;;;;;;;;;;;;;;;;;;;;;",
";;;;;;;; XXXooooooooo ;;;;;;;;;;;;;;;;;;;;;;; XXXXXX@@ ;;;;;;;;;;;;;;;;;;;;;;;;;;;;;;",
";;;;;;;; XXoooooooooo ;;;;;;;;;;;;;;;;;;;;;;; XXXXXXXX ;;;;;;;;;;;;;;;;;;;;;;;;;;;;;;",
";;;;;;;; ooooooooooo ;;;;;;;;;;;;;;;;;;;;;;;; XXXXXXXX ;;;;;;;;;;;;;;;;;;;;;;;;;;;;;;",
";;;;;;;; ooooooooooo ;;;;;;;;;;;;;;;;;;;;;;;; XXXXXXXX ;;;;;;;;;;;;;;;;;;;;;;;;;;;;;;",
";;;;;;;; ooooooooooo ;;;;;;;;;;;;;;;;;;;;;;;; XXXXXXXX ;;;;;;;;;;;;;;;;;;;;;;;;;;;;;;",
";;;;;;; ooooooooooo ;;;;;;;;;;;;;;;;;;;;;;;;; XXXXXXXX ;;;;;;;;;;;;;;;;;;;;;;;;;;;;;;",
";;;;;;; ooooooooooo ;;;;;;;;;;;;;;;;;;;;;;;;; XXXXXXXX ;;;;;;;;;;;;;;;;;;;;;;;;;;;;;;",
";;;;;;; ooooooooooo ;;;;;;;;;;;;;;;;;;;;;;;;;; XXXXXXX ;;;;;;;;;;;;;;;;;;;;;;;;;;;;;;",
";;;;;;;; ooXXoooo   ;;;;;;;;;;;;;;;;;;;;;;;;;; XXXXXXXX ;;;;;;;;;;;;;;;;;;;;;;;;;;;;;",
";;;;;;;; X#%#%#@ ;;;;;;;;;;;;;;;;;;;;;;;;;;;;; XXXXXXXX ;;;;;;;;;;;;;;;;;;;;;;;;;;;;;",
";;;;;;;; #@%%%%% ;;;;;;;;;;;;;;;;;;;;;;;;;;;;; XXXXXXXX ;;;;;;;;;;;;;;;;;;;;;;;;;;;;;",
";;;;;;;; @%%%%%% ;;;;;;;;;;;;;;;;;;;;;;;;;;;;; XXXXXXXX ;;;;;;;;;;;;;;;;;;;;;;;;;;;;;",
";;;;;;; @@%%%%%% ;;;;;;;;;;;;;;;;;;;;;;;;;;;;; XXXXXXXX ;;;;;;;;;;;;;;;;;;;;;;;;;;;;;",
";;;;;;; @@#%%%%% ;;;;;;;;;;;;;;;;;;;;;;;;;;;;; XXXXXXXX ;;;;;;;;;;;;;;;;;;;;;;;;;;;;;",
";;;;;;; #@%%%%@ ;;;;;;;;;;;;;;;;;;;;;;;;;;;;;; XXXXXXXX ;;;;;;;;;;;;;;;;;;;;;;;;;;;;;",
";;;;;;; ##@@XXXX ;;;;;;;;;;;;;;;;;;;;;;;;;;;;;; XXXXX  ;;;;;;;;;;;;;;;;;;;;;;;;;;;;;;",
";;;;;; X@XXXXXXXX ;;;;;;;;;;;;;;;;;;;;;;;;;;;;;;     ;;;;;;;;;;;;;;;;;;;;;;;;;;;;;;;;",
";;;;;; XXXXXXXXXX ;;;;;;;;;;;;;;;;;;;;;;;;;;;;;;;;;;;;;;;;;;;;;;;;;;;;;;;;;;;;;;;;;;;",
";;;;; XXXXXXXXXXX ;;;;;;;;;;;;;;;;;;;;;;;;;;;;;;;;;;;;;;;;;;;;;;;;;;;;;;;;;;;;;;;;;;;",
";;;;; XXXXXXXXXXX ;;;;;;;;;;;;;;;;;;;;;;;;;;;;;;;;;;;;;;;;;;;;;;;;;;;;;;;;;;;;;;;;;;;",
";;;;; XXXXXXXXXXX ;;;;;;;;;;;;;;;;;;;;;;;;;;;;;;;;;;;;;;;;;;;;;;;;;;;;;;;;;;;;;;;;;;;",
";;;;; XXXXXXXXXX ;;;;;;;;;;;;;;;;;;;;;;;;;;;;;;;;;;;;;;;;;;;;;;;;;;;;;;;;;;;;;;;;;;;;",
";;;;; XXXXXXXXXXX ;;;;;;;;;;;;;;;;;;;;;;;;;;;;;;;;;;;;;;;;;;;;;;;;;;;;;;;;;;;;;;;;;;;",
";;;;; XXXXXXXXXXX ;;;;;;;;;;;;;;;;;;;;;;;;;;;;;;;;;;;;;;;;;;;;;;;;;;;;;;;;;;;;;;;;;;;",
";;;;; XXXXXXXXXXX ;;;;;;;;;;;;;;;;;;;;;;;;;;;;;;;;;;;;;;;;;;;;;;;;;;;;;;;;;;;;;;;;;;;",
";;;;;; XXXXXXXXXX ;;;;;;;;;;;;;;;;;;;;;;;;;;;;;;;;;;;;;;;;;;;;;;;;;;;;;;;;;;;;;;;;;;;",
";;;;;;;           ;;;;;;;;;;;;;;;;;;;;;;;;;;;;;;;;;;;;;;;;;;;;;;;;;;;;;;;;;;;;;;;;;;;",
";;;;;;;;;;;;;;;;;;;;;;;;;;;;;;;;;;;;;;;;;;;;;;;;;;;;;;;;;;;;;;;;;;;;;;;;;;;;;;;;;;;;;",
";;;;;;;;;;;;;;;;;;;;;;;;;;;;;;;;;;;;;;;;;;;;;;;;;;;;;;;;;;;;;;;;;;;;;;;;;;;;;;;;;;;;;"
};
