/* XPM */
static char *_1_fps_zombie_WALK_crop[] = {
/* columns rows colors chars-per-pixel */
"85 167 12 1 ",
"  c black",
". c #010000",
"X c #01070A",
"o c #1C0000",
"O c #063938",
"+ c #460100",
"@ c #470100",
"# c #1D5D5B",
"$ c #960D00",
"% c #F30802",
"& c #DFB77B",
"* c None",
/* pixels */
"*************************************************************************************",
"*************************************************************************************",
"*************************************************************************************",
"*************************************************************************************",
"*************************************************************************************",
"*************************************************************************************",
"*************************************************************************************",
"*************************************************************************************",
"*************************************************************************************",
"*****************************************  ******************************************",
"*****************************************  ******************************************",
"**************************************** O ******************************************",
"***********************************    * XO *****************************************",
"***********************************   X XXXX   **************************************",
"************************************** XXXXXXXX   ***********************************",
"*************************************** XXXXXXXXXX **********************************",
"***************************  ********** XXXXXXXXXXX *********************************",
"****************************           XXXXXXXXXXXXX ********************************",
"**************************** $%$%%%%%XXXXXXXXXXXXXXXX *******************************",
"*************************** $$$%%%%%#XXXXXXXXXXXXXXXXX ******************************",
"*************************** $$%%%%###OXXXXXXXXXXXXXXXXO *****************************",
"*************************** @$$%$###O#OXXXXXXXXXXXXXXXX *****************************",
"************************** $$#$#####$O#OXXXXXXXXXXXXXXX *****************************",
"************************** $$######$%$##XXXXXXXXXXXXXXX *****************************",
"*************************  $$############OXXXXXXXXXXXXXX     ************************",
"************************* @ $#############OXXXXXXXXXXXXXXXXX ************************",
"************************* $ %##############OXXXXXXXXXXXXX   *************************",
"************************ @@ $###############OXXXXXXXXXX  ****************************",
"************************ $ $%################OOXXXXXXX ******************************",
"************************ $ $$###########%#O#OOOOXOXXXX ******************************",
"************************  $$%##########$%O#####OOXXXXX ******************************",
"************************ $$%%#########$%%$%#O#OOXXXX X ******************************",
"************************ $%%%#########%%%%@###OOXOOX XX  ****************************",
"*********************** @$%%$#O#O#O#O@%%%%O#OOOOOOO@@  +@ ***************************",
"*********************** $%%%#########O%%#@##OOOOOOO+@@@+@ ***************************",
"*********************   $%%%O#O#OOOOO@%%@#O#OOOOOO++@@@@@@ **************************",
"******************** @ $%%%##X%XOOOOOO%%O#OOOOOOOO++++++@@ **************************",
"******************* @@ $%%$#X%%%XXOOOO%OOOOOOOOOO++++++++@@ *************************",
"****************** @@ @$%%#OXX%%%%XOOO%OOOOOOOOOO+++++++++@ *************************",
"***************** @@o @%$##XXXXXX%%OOO%OOOOOOOOO+++++++++++ *************************",
"**************** @@+ @$%##OXXXXXXXOXOO%OOOOOoOO@++++++++@@@ *************************",
"*************** ++@+ @O###O$XXXXXXXXOO%OOOOoXoo@+++++++++@@ *************************",
"*************** ++++ o####O$%XXXXXXOOO%OOOooo @@++++++++++@ *************************",
"************** @++++ oO####O$%$XXXXOOOOOOo   @++++++++++++@ *************************",
"************* @@++++o.o######%%%%XOOOOOOO @+@@@+@@@@+++++++ *************************",
"************* @@@@o+oo oO#####O%$%XOOOO%o @@@@++@@ooo+++++@@ ************************",
"************ +@@@@@@@@o o#######OO#OOOOo @++++++@oooo@++++@+ ************************",
"*********** @++@@@@@o@oo oO#######OOOOXo% ++++++ooooo ++++++ ************************",
"*********** @@+++++++++oo oO#######OOOo   @@@@++oo   &  @@@++ ***********************",
"********** @@@++++++++o+o@ oooOOO#OOOo @ % @@@++oo &&&&& @@@@ ***********************",
"********* ++@+++++++++++@oo     XXXOoo @@ % @@@@o &&&&&&& @@@+ **********************",
"********* ++++++++++++++oooooooo      @@@@ % @@@ #&&&&&&&& @@@ **********************",
"******** @@+++++++++++++++++@oooXooo@@@@@+ %% @@ &&&&&&&&& @@@ **********************",
"******* ++@+++++++++++++++o+o@ooooooo@@@++@ @%   $&&&&&&&& @@@ **********************",
"******* ++++++++++++++++++++@+++@@++++++++@@  %%$$&&&&&&& ++@++ *********************",
"******* ++++++++++++++++++++++++o+o+++++@@@@@@ %% #&&&&&& ++++++ ********************",
"****** @@+++++++++@@@@@@+++++++++++++++++++++++  * $#&## @@@++++ ********************",
"****** @@@++++++ooooo@o@o++++++++++++++++$++@@++ **     @@@@++++ ********************",
"****** @++++++@@o oooooo++++++++++++++@@$$++@@@ ***** @@++@@++@@ ********************",
"***** @@++++@@@  * oooooo+o++++++++++++@++++@@  **** oo@+++++@@ *********************",
"***** $$o+@@@+ ***   oooo++++++++++$$@@@$@@@  @ **** o@@++++++@ *********************",
"***** $$O#O@  *** ooo   o+++++++++++$$      @@@ **** oo@+++@++@ *********************",
"***** ####O ****  ooo@@  @@+ @@+$$$$$$$+@@@@@++ *****  oo++@O### ********************",
"***** ####O **** oo@o@@@@@++@@++$$$$$$$+@@++@@++ ****** ooXOO### ********************",
"***** #### ***** ++++++++++++++$$$%$$$$+++++++++ ******* XOO#### ********************",
"****** ### ***** ++++++++++++++++$+$$$++++++++++ ******* XX###### *******************",
"****** ### ***** @+++++++++++++++$$$$$$+++++++++ ******** XO##### *******************",
"****** ### ***** @++++++++++++++++++++++++++++++ ******** XO##### *******************",
"****** ### ***** oo@++++++++++++++++++++++++++++ ********* O###### ******************",
"****** ### ***** oooo+++++++++++++++++++++++++++ ********** O###### *****************",
"****** ### ***** ooooo++++++++++++++++++++++++@@ ********** O###### *****************",
"****** ### **** Xoooooooooooooo+++++++o+o++++@@@ *********** ###### *****************",
"****** ### **** oooooooooooooooooo++oooooo@oo@o@ *********** ####### ****************",
"****** ### **** XXXooooooooooooooooooooooooooooo ********** O####### ****************",
"****** ### **** XXoooooooooooooooooooooooooooooo ********** O####### ****************",
"****** ## ***** XXXooooooooooooooooooooooooooooo ********** O####### ****************",
"****** ## ***** XXoooooooooooooooooooooooooooooo ********** OO###### ****************",
"****** ## **** XXXXooooooooooooooooooooooooooooo ********** XO###### ****************",
"****** ## **** XXXoooooooooooooooooooooooooooo  ************ O####### ***************",
"***** ### **** XXXoooooooooooooooooooooooooooo  ************ O####### ***************",
"***** ## ***** XXooooooooooooooooooooooooooooo  ************* @@@$$## ***************",
"***** ## ***** ooooooooooooooooooooooooooooooo  ************** %%%$$@ ***************",
"***** ## ***** oooooooooooooooooooooooooooooooo ************* $%%%%%% ***************",
"**** ### ***** oooo+ooooooooooooooooooooooooooo ************* X#####$ ***************",
"**** ### **** oo$+%$o+ooooooooooooooooooooooooo ************** O###### **************",
"**** ### **** oo+$%%$oo@ooooooooXoXoooooooooooo ************** O###### **************",
"**** ### **** ooo+%%%%$+@+ooooooooooooooooooooo ************** O###### **************",
"**** ### **** Xoo++%%%%+@@ooooooXoXoooooooooooo *************** ###### **************",
"**** ### **** oooo$+%%%%++@ooooo Xooooooooooooo *************** O##### **************",
"**** ### *** ooooo+%+%%%+++oooooXXXoooooooooooo *************** O##### **************",
"**** ## **** ooo++++++%%%+@@ooo XXXXooooooooooo *************** O##### **************",
"**** ## **** @@@@$$$+++%%$@@oo * XXXXoooooooooo **************** ###### *************",
"**** ## **** $%%%%%%$+++%%++oo * XXXoooooooooo@ **************** ###### *************",
"**** ## **** %%%%%%%%$+++%++oo * XXXXoooooooooo **************** O##### *************",
"*** ### **** %%%%%%%%%++++++o ** XXooooooooooo@ ***************** ###### ************",
"*** ## ***** %%%%%%%%%+$++++o ** XXoooooooooooo ***************** #######  **********",
"*** ## **** $%%%%%%%%%%@@@++o ** XXooooooooooo@ ***************** ######### *********",
"*** ## *** &&%%%%%%&$%%$@@++ **** Xoooooooooooo ***************** ######### *********",
"*** ## **** &&%%%%&&%%%%++++ **** Xooooooooooo@ **************** ########### ********",
"*** # ***** @$$%%%%&%$%%$+++ **** Xoooooooooooo **************** ########### ********",
"*** # ***** XXo$$%%%%$%%$@@ ***** Xooooooooooo@ *************** ############# *******",
"** ###  *** XXXo$$$%$$$%$@@ ***** Xoooooooooooo@ ************** O#O########### ******",
"** #### *** XXooo$$&&$$%$@@ ***** Xoooooooooooo *************** ############## ******",
"** ##### ** XXXoo$$&&&&$$+ ****** Xoooooooooooo ************** ##OX###O######## *****",
"** ##### ** XXXooo@@+$&&$@ ****** Xoooooooooooo ************** ##  ###O######### ****",
"** O##O # * XXXooooo+$+$+@ ****** Xoooooooooooo ************** # ** ### ######## ****",
"** O## * #  XXXooooo++@$++ ****** Xooooooooooo *************** # ** ## * ######## ***",
"** O## * #  XXXXooooo+o@++ ******* Xoooooooooo ************** ## *** # * ######## ***",
"** OO# ** ** XXXoooooo@@@ ******** Xoooooooooo ************** ## *** ##  ######## ***",
"** O## ***** XXXXoooooo@o ******** Xooooooooo *************** ## *** ## * ###### ****",
"** O## ***** XXXooooooooo ******** Xooooooooo *************** ## *** ## * ####  *****",
"**    # **** XXXXoooooooo ******** Xooooooooo ****************   *** ## * ##  *******",
"******  **** XXXoooooooo ********* Xooooooooo *********************** #  *  *********",
"************ XXXXooooooo ******** Xooooooooooo **********************  **************",
"************ XXXoooooooo ******** ooooooooooooo *************************************",
"************ XXXXooooooo ******** oooooooooooooo ************************************",
"************ XXXooooooo ********* oooooooooooooo ************************************",
"************ XXoooooooo ********** oooooooooooooo ***********************************",
"*********** XXXoooooooo ********** oooooooooooooo ***********************************",
"*********** XXXoooooooo ********** oXoXoXoXooooooo **********************************",
"********** XXXXoooooooo *********** oooooXXooooooo **********************************",
"********** XXXXooooooooo *********** XXXXXXXXoooooo *********************************",
"********** XXXXooooooooo ************ XXXXXXooooooo *********************************",
"********** XXXXoooooooo ************** XXXXXXooooooo ********************************",
"********* XXXXooooooooo *************** XXXXoooooooo ********************************",
"********* XXXXXoooooooo ****************  XXXoXoooooo *******************************",
"********* XXXXoooooooo *******************  ooooooooo *******************************",
"********* XXXXoooooooo *********************  XXXoXoX   *****************************",
"********* XXXXoooooooo *********************** ..XooO#. *****************************",
"********* XXXooooooooo ********************** X.XXXOO#.. ****************************",
"********* XXXoooooooo ***********************  XXXOOO# . ****************************",
"******** XXXXoooooooo ***********************  XXOOOO#O# ****************************",
"******** XXXXoooooooo ************************  XXOOOO## ****************************",
"******** XXXXooooooo *************************  XXXOXOOO. ***************************",
"******** XXXoooooooo ************************** XXXXXXXXX ***************************",
"******* XXXXXooooooo ************************** XXXXXXXXX ***************************",
"******* XXXooooooooo *************************** XXXXXXXX ***************************",
"******* XXXooooooooo *************************** XXXXXXXX ***************************",
"******* Xoooooooooo **************************** XXXXXXXXX **************************",
"******* Xoooooooooo ***************************** XXXXXXXXX *************************",
"******* ooooooooooo ***************************** XXXXXXXXX *************************",
"******* ooooooooooo ****************************** XXXXXXXXX ************************",
"****** ooooooooooo ******************************* XXXXXXXXX ************************",
"****** ooooooooooo ******************************** XXXXXXXXX ***********************",
"******  oooooooooo ******************************** XXXXXXXXX ***********************",
"******** oooooooo ********************************** XXXXXXXX ***********************",
"******** XOO###O *********************************** XXXXXXXXX **********************",
"******** OO###O# *********************************** XXXXXXXX ***********************",
"******** O###### ************************************ XXXXXX ************************",
"******* OOO##### ************************************ XXXXX *************************",
"******* OO###### *************************************     **************************",
"******* OOO###O *********************************************************************",
"******* XOOOXXXX ********************************************************************",
"******* XXXXXXXXX *******************************************************************",
"****** XXXXXXXXXX *******************************************************************",
"***** XXXXXXXXXXX *******************************************************************",
"****** XXXXXXXXXX *******************************************************************",
"****** XXXXXXXXXX *******************************************************************",
"****** XXXXXXXXX ********************************************************************",
"****** XXXXXXXXXX *******************************************************************",
"****** XXXXXXXXXX *******************************************************************",
"****** XXXXXXXXXX *******************************************************************",
"******* XXXXXXXXX *******************************************************************",
"******* XXXXXXXXX *******************************************************************",
"********          *******************************************************************",
"*************************************************************************************",
"*************************************************************************************"
};
