/* XPM */
static char *_7_fps_zombie_WALK_crop[] = {
/* columns rows colors chars-per-pixel */
"85 167 14 1 ",
"  c black",
". c #010000",
"X c #01070A",
"o c #01070B",
"O c #1C0000",
"+ c #1D0000",
"@ c #063938",
"# c #460100",
"$ c #470100",
"% c #1D5D5B",
"& c #960D00",
"* c #F30802",
"= c #DFB77B",
"- c None",
/* pixels */
"-------------------------------------------------------------------------------------",
"-------------------------------------------------------------------------------------",
"-------------------------------------------------------------------------------------",
"-------------------------------------------------------------------------------------",
"-------------------------------------------------------------------------------------",
"----------------------------------------  -------------------------------------------",
"----------------------------------------  -------------------------------------------",
"--------------------------------------- oo ------------------------------------------",
"--------------------------------------- XXo  ----------------------------------------",
"----------------------------------     oXooXo    ------------------------------------",
"------------------------------------- ooXXXXooXXo -----------------------------------",
"------------------------------------- ooXXXXooXXoo ----------------------------------",
"--------------------------  ---   -  XXXXXXXXXXXooX  --------------------------------",
"---------------------------    *** **XXXXXXXXXXXXoXXo -------------------------------",
"--------------------------- &*&*****@oXXXXXXXXXXXXXXo -------------------------------",
"-------------------------- *&******%ooXXXXXXoXXXXXXXo@ ------------------------------",
"-------------------------- *******%%ooXXXXXXooXXXXXXoo@ -----------------------------",
"-------------------------  &&****%%%ooXXXXXXooXXXXXXoo ------------------------------",
"------------------------- &&****%%%%%ooXXXXXoXXXXXXXoX ------------------------------",
"------------------------- &&@&%%%%$&+%oXXXXXXXXXXXXXXX ------------------------------",
"------------------------  &&%%%%%%&&@%@oXXXXXXXXXXXXXXX     -------------------------",
"------------------------  &&%%%%%%@%%%%@XXXXXXXXXXXXXXXXooo -------------------------",
"------------------------  &&%%%%%%%%%%%%%XXXXXXXXXXXooooo  --------------------------",
"------------------------  $&@%%%%%%%%%%%%@XXXXXXXXXXoo   ----------------------------",
"------------------------  &&%%%%%%%%%%%%%%@@ooooXXooX -------------------------------",
"------------------------  &&@%%%%%%%%%%%@%@@@oooXXooX -------------------------------",
"-----------------------  &&&%%%%%%%%%%%*%%@@@@@@Xoooo+   ----------------------------",
"----------------------- &&&*@%@%%%%%%%&*@@@@@@@@X   o+ $$ ---------------------------",
"----------------------- &&**%%%%%%%%%&**&@@@@@@ @@@ o+ $$ ---------------------------",
"---------------------  &&***@%@%@%@%$****$@@@@o@@@$ +o $## --------------------------",
"-------------------- $ &***&@@@@@%%@&****@@@@@ @@@$#  $$$$ --------------------------",
"------------------- $ &&**&%@@@@@@@@&**&$@@@@@@@@$$$$$$$$$$ -------------------------",
"------------------ $$ &***&@@@@@@@@@&**#@@@@@ @@@########## -------------------------",
"----------------- $$ $&*&*@@Xo@@@@@@#*@@@@@@ @@@##########$ -------------------------",
"---------------- $$$ $***%@o***o@@@@#*@@@@@@ @%$########$$$ -------------------------",
"---------------- $$ $&&*@%ooo****X@@$*@@@@@ o@@$########$$$ -------------------------",
"--------------- ### +%%%%@&ooooo**o@$@@@@@@+++ $##########$ -------------------------",
"-------------- $##O +%%%%%&*ooooooo@$@@@@@ ++ +$##########$ -------------------------",
"------------- $$$$$+ +%%%%@&**&oo@o@@@@@@+   #$$$$$$##$##### ------------------------",
"------------- $$$$+++ o%%%%%&***o@@@@@@@o O$+##$O$OOOOO##### ------------------------",
"------------ $$$###OOO @%%%%%%&*&@@@@@@+ $######$OOO+OO##### ------------------------",
"----------- $$####O$OO+ @%%%%%%%@%@@@@o+ $######OOO+OOO$####$ -----------------------",
"----------- ##########O +@%%%%%%%%@@@*+ $$######$O +OOO$####$$ ----------------------",
"---------- $########O#OO +@@@%@%%%@@@* $$$######++ +OOO$####$$ ----------------------",
"--------- #############O+ +++@@@%@@@+  $########$+ +OO######## ----------------------",
"--------- ###########$O$+O      ooo+o * ########+ - OOO####### ----------------------",
"-------- $############$$OO++OOoo     $  ########$ - OO########$  --------------------",
"------- $$############O$OOO+OO+Oo+O++$ * #######     OO######$$# --------------------",
"------- ###############OOOOOOOOO+OOO$# * $$$$$$ ===== +$########$ -------------------",
"------- ##############OOOOO#O#OOOOO#O$$ * $$$$ ======= $######## --------------------",
"------ $##############OOOO######$$###$$ ** $$ %======== ######## --------------------",
"------ $########O#O#OOOOOOO#####$$###$$$ ** $ $======== ######## --------------------",
"----- $$#####$$$++O+OOOOOO$$############& **  &======== $###$$$$ --------------------",
"----- $$#####$$   O+OOOOOOO$###$########&& ***$======== $$###$+  --------------------",
"----- $###$$## --- +OOOOOO####$$########&$$ $*&&=====   +$O$O@%%% -------------------",
"----- &&$&@$  ----   OOOO$ ###$$###&&###$$$$   &$    ---  O@@@%%% -------------------",
"----- %%%%@ ------ +     $$ $$$$             $$  -------- o@@%%%% -------------------",
"----- %%%%@ ------ ++O    $$    $&$&& &$$$$$##$# -------- o@@%%%%% ------------------",
"----- %%%% ------  +O$##$     &#&& &&&&$$$$$#### --------- @%%%%%% ------------------",
"----- %%%% ------  $O###$$$$$$#&$&&&&&&$#$$$#### ---------- @%%%%%% -----------------",
"----- %%%% ------ ######$$##$###$&&&&&########## ---------- @%%%%%% -----------------",
"------ %%% ------ #$####$$######$$#&############  ---------- @%%%%%% ----------------",
"------ %%% ------ $$####$#######$###############$ ---------- @%%%%%% ----------------",
"------ %%% ------ $$############$###############$ ---------- @%%%%%% ----------------",
"------ %%% ------ $$############################$ ---------- @%%%%%% ----------------",
"------ %%% ------ OOO########################### ----------- @%%%%%% ----------------",
"------ %%% ----- +OOOO########$$######$######### ---------- @@%%%%%% ----------------",
"------ %%% ----- +OOOOOOO#O#O#O$O#####$$#######$+ ---------- @@%%%%% ----------------",
"------ %%% ----- OOOOOOOOO##$OOOOOOOOOOOO###$$$O$ ---------- @@%%%%%% ---------------",
"------ %%% ----  +OOOOOOOOOOOOOOOOOOOOOOOOOOOOOO+ ---------- o@%%%%%% ---------------",
"------ %% -----  +OOOOOOOOOOOOOOOOOOOOOOOOOOOOOO -----------  %%%%%%% ---------------",
"------ %% -----  +OOOOOOOOOOOOOOOOOOOOOOOOOOOOOO ------------- ++%%%% ---------------",
"------ %% -----  o++OOOOOOOOOOOOOOOOOOOOOOOOOO++ ------------ $+O$$%% ---------------",
"----- %%% -----  oo+OOOOOOOOOOOOOOOOOOOOOOOOOO++ ------------ &****&$ ---------------",
"----- %% ------  o+OOOOOOOOOOOOOOOOOOOOOOOOOO+  ------------- %&*****$ --------------",
"----- %% -----   oo+OOOOOOOOOOOOOOOOOOOOOOOO+   -------------- %%%%%& ---------------",
"----- %% -----   o++OOOOOOOOOOOOOOOOOOOOOOOOOO  -------------- @%%%%%% --------------",
"----- %% -----  o+OOOOOOOOOOOOOOOOOOOOOOOOOOO+ --------------- @%%%%%% --------------",
"---- %%% -----  +OOOOOOOOOOOOOOOOOOOOOOOOOOOOO+ --------------- %%%%%% --------------",
"---- %%% -----  OOOOOOOOOOOOOOOOOOOOOOOOOOOOOO+ --------------- @%%%%% --------------",
"---- %%% ---- + OOO+OOOOOOOOOOOOOOOOOOOOOOOOOOO --------------- @%%%%% --------------",
"---- %%% ----  $#*OOOOOOOOOOOOoOoOOOOOOOOOOOOOO+ -------------- @%%%%% --------------",
"---- %%% ----  $&**O$OOOOOOOOOO+OOOOOOOOOOOOOOOO -------------- @%%%%% --------------",
"---- %%% ---- ++O***$$OOOOOOOOoooOoOOOOOOOOOOOOO --------------- %%%%% --------------",
"---- %%% ---  +O#&***###OOOOOOoooo+OOOOOOOOOOOOO --------------- %%%%% --------------",
"---- %%% --- +OO##****##OOOOOOo ooo+OOOOOOOOOOOO --------------- %%%%%% -------------",
"---- %%% --- +OOO#&***###OOOOO - oooOOOOOOOOOOOO --------------- @%%%%% -------------",
"---- %%% --- OOOO##&***##OOOOO - ooooOOOOOOOOOO+ ---------------- %%%%%% ------------",
"---- %% --- $$$##&##***&&+++O+ - oooOOOOOOO#OOOO ---------------- %%%%%%%  ----------",
"---- %% --- $$#######**&$$OO+ --- oooOOOO$O#OOOO ---------------- %%%%%%%% ----------",
"---- %% --- &***&&###&**&$OO+ --- ooOOOO$$##OOOO --------------- %%%%%%%%%% ---------",
"---- %% --- &***&*&###**&$O+ ---- oooOOOO$O#OOOO+ -------------- %%%%%%%%%%% --------",
"---- %% --- *******####*&#OO ---- ooOOOOO#OOOOOOO -------------- %%%%%%%%%%% --------",
"---- %% --- ******&&###&&#OO ---- oooOOOOOOOOOOO+ ------------- @@@%%%%%%%%%% -------",
"---- % --  *******&*####&$O ------ oOOOOOOOOOOOO+ ------------- @@@%%%%%%%%%% -------",
"---- % -- =******=&*&##$$$+ ------ ooOOOOOOOOOOO+ ------------- @@@%%%%%%%%%%% ------",
"---- %% -- =*****=*&*#####+ ------ o+OOOOOOOOOOO -------------- @@@%%%%%%%%%%%% -----",
"--- @%%% - &*****=*&&&##OO ------- ooOOOOOOOOOOO -------------- @@@@%%%%%%%%%%% -----",
"--- %%%%%  +&****=**&&###O ------- oOOOOOOOOOOOO -------------- @@o %%%%%%%%%%%% ----",
"--- @%%%%%% +&&****&&&#&OO ------- ooOOOOOOOOOO+ ------------- %@@ - %%@%%%%%%%% ----",
"--- @%%% %%% +&****&&&&&+ --------- oOOOOOOOOO+ -------------- %% -- %%@%%%%%%%%% ---",
"--- @%% - %% +O&&*&$&&##+ --------- oOOOOOOOOO+ -------------- %% -- %%% %%%%%%%% ---",
"--- @%% -- %% O&==* $&&#$ --------- oOOOOOOOOOO -------------- %% --- % - %%%%%%%% --",
"--- @%% -- $ +O&&===&$$$ ---------- oOOOOOOOOO+ -------------- %@ --- %%  %%%%%%%% --",
"--- @@@% -  oo++O#$== $$ ---------- +OOOOOOOOO ---------------- @ --- %% - %%%%%% ---",
"--- @@%% - oooo+OO$&$ $$ ---------- OOOOOOOOO+ ---------------- @ --- %% - %%%%%% ---",
"---- @%  - oooOOOOO$$$ $ --------- +OOOOOOOOOO+  --------------  ----- % - %%%%% ----",
"-----  -   ooooOOOOOO$  ----------- OOOOOOOOOOOO --------------------- %% - %%% -----",
"---------- oooOOOOOO+O  ----------- OOOOOOOOOOOO+ -------------------- %% - %  ------",
"---------- oo+oOOOOO+O+ ------------ OOOOOOOOOOO+ -------------------- %% -- --------",
"---------- ooOOOOOOOOO ------------- +OOOOOOOOOOOO --------------------   -----------",
"---------- ooOOOOOOO++ ------------ o+oOOOOOOOOOOO ----------------------------------",
"---------- oOOOOOOOOOO ------------ o+O+OOOOOOOOOO+ ---------------------------------",
"---------- ooOOOOOOOO+ ------------- +oOoOOOOOOOOOO ---------------------------------",
"---------- oOOOOOOOO& --------------- +OOOOOOOOOOO+ ---------------------------------",
"---------- ooOOOOOOO+ --------------- oOoOoOoOOOOOO+ --------------------------------",
"---------- ooOOOOOOOO ---------------- +OOOOOOOOOOOO --------------------------------",
"--------- oooOOOOOOO ------------------ oOoOoOoOOOOO --------------------------------",
"--------- oooOOOOOOO+ ------------------ +OOOOOOOOOO+ -------------------------------",
"--------- oooOOOOOOO+ ------------------ +oOoOoOOOOO+ -------------------------------",
"--------- ooo+OOOOOO+ ------------------- ++OOOOOOOO+ -------------------------------",
"-------- oooo+OOOOOOO+ ------------------- +oOoOoOO+O+ ------------------------------",
"-------- oXXo++OOOOOO ---------------------  ++OOO++OO ------------------------------",
"-------- XXXo+++OOO++ ----------------------  ooooo+O+ ------------------------------",
"-------- ooooOOOOOOO+ -----------------------  oooo+OO@ -----------------------------",
"-------- ooooOOOOOOO+ ------------------------  Xoo+OO@ -----------------------------",
"-------- oooOOOOOOOO -------------------------- XXoo@@@ -----------------------------",
"-------- ooooOOOOOOO -------------------------- XX@@@@@% ----------------------------",
"-------- oXX+OOOOOOO --------------------------- o@@@%%%  ---------------------------",
"------- ooXooOOOOOOO -------------------------- oo@@@%%%  ---------------------------",
"------- ooooOOOOOO+ ---------------------------  o@@@%%%%  --------------------------",
"------- ooooOOOOOO+ ---------------------------  ooo@@@%%  --------------------------",
"------- oooOOOOOOOO ---------------------------- oXXXXX@@@ --------------------------",
"------- oooOOOOOOO+ ---------------------------- oXoXXXXoo --------------------------",
"------- oooOOOOOOO+ ---------------------------- oooXXXXooo -------------------------",
"------ ooOoOOOOOOO+ ----------------------------- ooXXXXooo -------------------------",
"------ +OOOOOOOOOO+ ----------------------------- ooXXXXooo -------------------------",
"------ +oOoOOOOOOO ------------------------------- oXXXXooo -------------------------",
"------- OOOOOOOOOO ------------------------------- oXXXXoXXX ------------------------",
"------ ooOOOOOOOO+ ------------------------------- oXXXXXXXX ------------------------",
"------ oOOOOOOOO++ -------------------------------- oooXXXXXo -----------------------",
"------- oOOOOOOO+ --------------------------------- ooooXXXoo -----------------------",
"------ oOOOOOOOO++ --------------------------------- oXXXXoooo ----------------------",
"------ ooOOOOOOO+  --------------------------------- XXXXXoooo ----------------------",
"------- o+++++   ------------------------------------ ooooXXooo ---------------------",
"-------- o@@@%@@ ------------------------------------ ooooXXXoo ---------------------",
"-------- @@%%%%% ------------------------------------- ooXXXoooo --------------------",
"-------- @@%%%%% ------------------------------------- ooXXXooo ---------------------",
"------- @@%%%%%% ------------------------------------- ooooooo ----------------------",
"------- @@@%%%@ --------------------------------------- ooooX -----------------------",
"------- @@%%%%@ ---------------------------------------    o ------------------------",
"------- o@@@oooo ------------------------------------------ -------------------------",
"-------  oooXXXXo -------------------------------------------------------------------",
"------  ooXXXXXXo -------------------------------------------------------------------",
"------  XXXXXXooo -------------------------------------------------------------------",
"------ oXXXXXXooo -------------------------------------------------------------------",
"------ oXXXXXXXXo -------------------------------------------------------------------",
"------ oXXXXXX Xo -------------------------------------------------------------------",
"------ o ....     -------------------------------------------------------------------",
"------  XXXXXXXoo -------------------------------------------------------------------",
"------  XXooooooo -------------------------------------------------------------------",
"------- XXooooooo -------------------------------------------------------------------",
"--------   ooooo  -------------------------------------------------------------------",
"-----------     ---------------------------------------------------------------------",
"-------------------------------------------------------------------------------------",
"-------------------------------------------------------------------------------------",
"-------------------------------------------------------------------------------------"
};
