/* XPM */
static char *_1_fps_zombie_WALK_crop[] = {
/* columns rows colors chars-per-pixel */
"85 167 15 1 ",
"  c black",
". c #010000",
"X c #01070A",
"o c #01070B",
"O c #1C0000",
"+ c #1D0000",
"@ c #063938",
"# c #460100",
"$ c #1D5D5B",
"% c #960D00",
"& c #970D00",
"* c #F20802",
"= c #F30802",
"- c #DFB77B",
"; c None",
/* pixels */
";;;;;;;;;;;;;;;;;;;;;;;;;;;;;;;;;;;;;;;;;;;;;;;;;;;;;;;;;;;;;;;;;;;;;;;;;;;;;;;;;;;;;",
";;;;;;;;;;;;;;;;;;;;;;;;;;;;;;;;;;;;;;;  ;;;;;;;;;;;;;;;;;;;;;;;;;;;;;;;;;;;;;;;;;;;;",
";;;;;;;;;;;;;;;;;;;;;;;;;;;;;;;;;;;;;;;  ;;;;;;;;;;;;;;;;;;;;;;;;;;;;;;;;;;;;;;;;;;;;",
";;;;;;;;;;;;;;;;;;;;;;;;;;;;;;;;;;;;;; @X  ;;;;;;;;;;;;;;;;;;;;;;;;;;;;;;;;;;;;;;;;;;",
";;;;;;;;;;;;;;;;;;;;;;;;;;;;;;;;;;;;;; @X@@  ;;;;;;;;;;;;;;;;;;;;;;;;;;;;;;;;;;;;;;;;",
";;;;;;;;;;;;;;;;;;;;;;;;;;;;;;;;;;;;;; XXXXXX  ;;;;;;;;;;;;;;;;;;;;;;;;;;;;;;;;;;;;;;",
";;;;;;;;;;;;;;;;;;;;;;;;;;;;;;;;;     XXXXXXXXX  ;;;;;;;;;;;;;;;;;;;;;;;;;;;;;;;;;;;;",
";;;;;;;;;;;;;;;;;;;;;;;;;; ;;;;;;;;; XXXXXXXXXXXX  ;;;;;;;;;;;;;;;;;;;;;;;;;;;;;;;;;;",
";;;;;;;;;;;;;;;;;;;;;;;;;;   ;    ; XXXXXXXXXXXXXXX ;;;;;;;;;;;;;;;;;;;;;;;;;;;;;;;;;",
";;;;;;;;;;;;;;;;;;;;;;;;;; %= ==== =XXXXXXXXXXXXXXXX ;;;;;;;;;;;;;;;;;;;;;;;;;;;;;;;;",
";;;;;;;;;;;;;;;;;;;;;;;;;; %=======%XXXXXXXXXXXXXXXXX ;;;;;;;;;;;;;;;;;;;;;;;;;;;;;;;",
";;;;;;;;;;;;;;;;;;;;;;;;; @%=%=====@XXXXXXXXXXXXXXXXXX ;;;;;;;;;;;;;;;;;;;;;;;;;;;;;;",
";;;;;;;;;;;;;;;;;;;;;;;;; ========XXXXXXXXXXXXXXXXXXXX ;;;;;;;;;;;;;;;;;;;;;;;;;;;;;;",
";;;;;;;;;;;;;;;;;;;;;;;;; %=%====%XXXXXXXXXXXXXXXXXXXX ;;;;;;;;;;;;;;;;;;;;;;;;;;;;;;",
";;;;;;;;;;;;;;;;;;;;;;;;  %=====%$$XXXXXXXXXXXXXXXXXXX ;;;;;;;;;;;;;;;;;;;;;;;;;;;;;;",
";;;;;;;;;;;;;;;;;;;;;;;; %$=%=%$$$$$XXXXXXXXXXXXXXXXXX ;;;;;;;;;;;;;;;;;;;;;;;;;;;;;;",
";;;;;;;;;;;;;;;;;;;;;;;; %%%==$$$$X$XXXXXXXXXXXXXXXXX ;;;;;;;;;;;;;;;;;;;;;;;;;;;;;;;",
";;;;;;;;;;;;;;;;;;;;;;;; %#$$$$$$%%@$XXXXXXXXXXXXXXXXX     ;;;;;;;;;;;;;;;;;;;;;;;;;;",
";;;;;;;;;;;;;;;;;;;;;;;  %%$$$$$$%%$$@XXXXXXXXXXXXXXXXXXXX ;;;;;;;;;;;;;;;;;;;;;;;;;;",
";;;;;;;;;;;;;;;;;;;;;;;  %%$$$@$@$@$$$@XXXXXXXXXXXXXXXX   ;;;;;;;;;;;;;;;;;;;;;;;;;;;",
";;;;;;;;;;;;;;;;;;;;;;; & &$$$$$$$$$$$$@@XXXXXXXXXXXXX ;;;;;;;;;;;;;;;;;;;;;;;;;;;;;;",
";;;;;;;;;;;;;;;;;;;;;;;  &&$@$@$@$$$$$@@@@XXXXXXXXXXX   ;;;;;;;;;;;;;;;;;;;;;;;;;;;;;",
";;;;;;;;;;;;;;;;;;;;;;;  %&$$$$$$$$$$$$@@@@@XXXXXXXX# ##  ;;;;;;;;;;;;;;;;;;;;;;;;;;;",
";;;;;;;;;;;;;;;;;;;;;;; &%%$@@@$@$$$@$=@@@@@@@XXXXX++ ### ;;;;;;;;;;;;;;;;;;;;;;;;;;;",
";;;;;;;;;;;;;;;;;;;;;; %%%=$@@@$$$$$$@=@@@@@@@@    X# #### ;;;;;;;;;;;;;;;;;;;;;;;;;;",
";;;;;;;;;;;;;;;;;;;;;  &%=%@@@@@@$@$@==#@@@@@@@@@@ X# #### ;;;;;;;;;;;;;;;;;;;;;;;;;;",
";;;;;;;;;;;;;;;;;;;; & %===@@@@@@@@@====@@@@@@@@@# +# ##### ;;;;;;;;;;;;;;;;;;;;;;;;;",
";;;;;;;;;;;;;;;;;;; # &%==%@@@@@@@@&====+@@@@@@@###  ###### ;;;;;;;;;;;;;;;;;;;;;;;;;",
";;;;;;;;;;;;;;;;;; ## &===$@@@@@@@@&===#@@@@@@@@########### ;;;;;;;;;;;;;;;;;;;;;;;;;",
";;;;;;;;;;;;;;;;; ## %&=%=@@@@@@@@@&==#@@@@@@@@############ ;;;;;;;;;;;;;;;;;;;;;;;;;",
";;;;;;;;;;;;;;;; ### %===$@XX@@@@@@#=&@@@@@@@@@############ ;;;;;;;;;;;;;;;;;;;;;;;;;",
";;;;;;;;;;;;;;; ### #%%=@$X=%=X@@@@#=@@@@@@@@@ ############ ;;;;;;;;;;;;;;;;;;;;;;;;;",
";;;;;;;;;;;;;; #### #%%$$XXX====X@@=@@@@@@ ++@############## ;;;;;;;;;;;;;;;;;;;;;;;;",
";;;;;;;;;;;;; #### +@$$$$#=XXXX=%X@=@@@@@+    ####O#+#+##### ;;;;;;;;;;;;;;;;;;;;;;;;",
";;;;;;;;;;;;; ##### +$$$$$%==XXXX+@=@@@@@ #######OO++++##### ;;;;;;;;;;;;;;;;;;;;;;;;",
";;;;;;;;;;;; #####++ +$$$$$%===X@X@=@@@@ #######OOO+O++###### ;;;;;;;;;;;;;;;;;;;;;;;",
";;;;;;;;;;; #######++ @$$$$$@===%@@=@@@+ ########+++OOO####### ;;;;;;;;;;;;;;;;;;;;;;",
";;;;;;;;;;; ######O+O+ @@$$$$$@@@@@=@@+ ########++  OOO######## ;;;;;;;;;;;;;;;;;;;;;",
";;;;;;;;;; ##########O+ @@$$$$$$$$@=@@ ##########+ ; +O####### ;;;;;;;;;;;;;;;;;;;;;;",
";;;;;;;;; ##########+#++ @@$@$$$$$@=@+ #########++  +OO######## ;;;;;;;;;;;;;;;;;;;;;",
";;;;;;;;; ############OO ++@@@@$$@@=+ ###########+ ++OO######### ;;;;;;;;;;;;;;;;;;;;",
";;;;;;;; #############OO+     XXX@@=X ##########++ +OOOO+######## ;;;;;;;;;;;;;;;;;;;",
";;;;;;; ###############O+O+++O       ############ ; OOOO######### ;;;;;;;;;;;;;;;;;;;",
";;;;;;; ##############OOOOOOO+OOX+++ ###########+ ;; +OO+####### ;;;;;;;;;;;;;;;;;;;;",
";;;;;; ################OOOOOOOOO+++ = ########### ;;; OOO####### ;;;;;;;;;;;;;;;;;;;;",
";;;;;; ###########O#O#OOOOOOOOOO+++ = ########## ;;;; O+O####### ;;;;;;;;;;;;;;;;;;;;",
";;;;;; #############OOOOOOOO########.= #%####### ;;;; ++######## ;;;;;;;;;;;;;;;;;;;;",
";;;;; ##########OOOOOOOOOOO#O###+#+# = #%#####   ;;;;;  O#####@@$ ;;;;;;;;;;;;;;;;;;;",
";;;;; #########+ +OOOOOOOOO######### = #&%##  --- ;;;;;; +++@@@$$ ;;;;;;;;;;;;;;;;;;;",
";;;;; ##+#####  ; O+OOOOOOO########## =.&&# $----- ;;;;;;  +@@@$$$ ;;;;;;;;;;;;;;;;;;",
";;;;; %%%%$#  ;;;; +OOOOOOO########## &= &# ------- ;;;;;; X@@$$$$ ;;;;;;;;;;;;;;;;;;",
";;;;; @$@@+ ;;;;;;   OOOOOO########%&# ==  &------- ;;;;;; @@@@$$$$ ;;;;;;;;;;;;;;;;;",
";;;;; $$$$@ ;;;;;;;   ++O######## #%&&  == &------- ;;;;;;; @$@$$$$$ ;;;;;;;;;;;;;;;;",
";;;;; $$$$ ;;;;;;;; +   OO#########%&&& &==&------- ;;;;;;;; @@$$$$$ ;;;;;;;;;;;;;;;;",
";;;;; $$$$ ;;;;;;; ++O+OO######%%%%%%&&#  &%$----- ;;;;;;;;; @@$$$$$ ;;;;;;;;;;;;;;;;",
";;;;; $$$$ ;;;;;;; +++OOO#O#%==%%%%%%&&###  #$$--- ;;;;;;;;; @@$$$$$ ;;;;;;;;;;;;;;;;",
";;;;;; $$$ ;;;;;;  ++########%%==%%%%%%#####  $$$ ;;;;;;;;;; @@$$$$$ ;;;;;;;;;;;;;;;;",
";;;;;; $$ ;;;;;;; +#+##########%%%#%#%########    ;;;;;;;;;; @@$$$$$$ ;;;;;;;;;;;;;;;",
";;;;;; $$ ;;;;;;; ###############################  ;;;;;;;;; @$$$$$$$ ;;;;;;;;;;;;;;;",
";;;;;; $$ ;;;;;;; ############################### ;;;;;;;;;; @@$$$$$$ ;;;;;;;;;;;;;;;",
";;;;;; $$ ;;;;;;; ############################### ;;;;;;;;;; @@$$$$$$ ;;;;;;;;;;;;;;;",
";;;;;; $$ ;;;;;;; ############################### ;;;;;;;;;;; @$$$$$$ ;;;;;;;;;;;;;;;",
";;;;;; $$ ;;;;;;; ############################### ;;;;;;;;;;; @$$$$$$ ;;;;;;;;;;;;;;;",
";;;;;; $$ ;;;;;;; +############################## ;;;;;;;;;;;; $$$$$$ ;;;;;;;;;;;;;;;",
";;;;;; $$ ;;;;;;; OOOO########################### ;;;;;;;;;;;; ++$$$$ ;;;;;;;;;;;;;;;",
";;;;;; $$ ;;;;;; +OOOOOOOOO#O#################### ;;;;;;;;;;; ##+++$$ ;;;;;;;;;;;;;;;",
";;;;;; $$ ;;;;;; +OOOOOOOOOOOO##################+ ;;;;;;;;;;; &&==%++$ ;;;;;;;;;;;;;;",
";;;;;; $$ ;;;;;; +OOOOOOOOOOOOOOOOOO++++OOOOOOOO+ ;;;;;;;;;;;; %%===%+ ;;;;;;;;;;;;;;",
";;;;; $$$ ;;;;;; OOOOOOOOOOOOOOOOOOOOOOOOOOOOOOO+ ;;;;;;;;;;;; +$%%%%% ;;;;;;;;;;;;;;",
";;;;; $$ ;;;;;; o+OOOOOOOOOOOOOOOOOOOOOOOOOOOOOO+ ;;;;;;;;;;;;; @$$$$$ ;;;;;;;;;;;;;;",
";;;;; $$ ;;;;;; +OOOO+OOOOOOOOOOOOOOOOOOOOOOOO+++ ;;;;;;;;;;;;; @$$$$$ ;;;;;;;;;;;;;;",
";;;;; $$ ;;;;;; oOOOOOOOOOOOOOOOOOOOOOOOOOOOOO++O ;;;;;;;;;;;;; @$$$$$ ;;;;;;;;;;;;;;",
";;;;; $$ ;;;;;;  +++OOOOOOOOOOOOOOOOOOOOOOOO+++++ ;;;;;;;;;;;;; @$$$$$ ;;;;;;;;;;;;;;",
";;;; $$$ ;;;;;;  +OOOOOOOOOOOOOOOOOOOOOOOOOO++    ;;;;;;;;;;;;;; $$$$$ ;;;;;;;;;;;;;;",
";;;; $$$ ;;;;;;  OOOOOOOOOOOOOOOOOOOOOOOOOOO+O  + ;;;;;;;;;;;;;; @$$$$ ;;;;;;;;;;;;;;",
";;;; $$$ ;;;;;; o+OOOOOOOOOOOOOOOOOOOOOOOOOOOO    ;;;;;;;;;;;;;; @@$$$ ;;;;;;;;;;;;;;",
";;;; $$$ ;;;;;  +OOOOOOOOOOOOOOOOOOOOOOOOOOOOO+   ;;;;;;;;;;;;;; @$$$$$ ;;;;;;;;;;;;;",
";;;; $$$ ;;;;; +OOOOOOOOOOOOOOOOOOOOOOOOOOOOOO+   ;;;;;;;;;;;;;; @@$$$$ ;;;;;;;;;;;;;",
";;;; $$$ ;;;;; +OOOOOOOOOOOOOOOOOOOOOOOOOOOOOO+O  ;;;;;;;;;;;;;;; @$$$$ ;;;;;;;;;;;;;",
";;;; $$$ ;;;;;  OOOOOOOOOOOOOOoOXOOOOOOOOOOOOOO+  ;;;;;;;;;;;;;;; @$$$$ ;;;;;;;;;;;;;",
";;;; $$$ ;;;; +%%OOOOOOOOOOOOOOOOOOOOOOOOOOOOOOO  ;;;;;;;;;;;;;;; @$$$$$ ;;;;;;;;;;;;",
";;;; $$$ ;;;; O%%*OOOOOOOOOOoOoOoOoOOOOOOOOOOOOO  ;;;;;;;;;;;;;;;; $$$$$$ ;;;;;;;;;;;",
";;;; $$$ ;;;; +O=*=OOOOOOOOOOO++OOOOOOOOOOOOOOOO+ ;;;;;;;;;;;;;;; @$$$$$$$ ;;;;;;;;;;",
";;;; $$$ ;;; +O#%**%##OOOOOOooo ooo+OOOOOOOOOOOO+ ;;;;;;;;;;;;;;; @$$$$$$$$ ;;;;;;;;;",
";;;; $$$ ;;; OOO+===###OOOOOOO ; ooo+OOOOOOOOOOO+ ;;;;;;;;;;;;;;; @$$$$$$$$$ ;;;;;;;;",
";;;; $$$ ;;; +OO+%===###OOOOOO ; oooXOOOOOOOOOOO+ ;;;;;;;;;;;;;; @@$$$$$$$$$ ;;;;;;;;",
";;;; $$ ;;;; +OOO#===###OOOOO ;;; XXOOOOOOOOOOOO+ ;;;;;;;;;;;;;; @@@$$$$$$$$$ ;;;;;;;",
";;;; $$ ;;; +OO+O##===##OOOOO ;;; XXXOOOOOOOOOOO+ ;;;;;;;;;;;;;; @@@@$$$$$$$$ ;;;;;;;",
";;;; $$ ;;; #######===%##+OO+ ;;; oXOOOOOOOOOOOOO ;;;;;;;;;;;;;; @@@@$$$$$$$$$ ;;;;;;",
";;;; $$ ;;; %&#####%==%#++OO ;;;; ooXOOOOOOOOOOO+ ;;;;;;;;;;;;;; @@@@@$$$$$$$$$ ;;;;;",
";;;;; $ ;;;; =&%####===%#OOO ;;;;; oOOOOOOOOOOOO+ ;;;;;;;;;;;;;; @@@@@$$$$$$$$$$ ;;;;",
";;;;; $$ ;; %=%%#####===OOO+ ;;;;; oXOOOOOOOOOOO+ ;;;;;;;;;;;;;; @@@@@@$$$$$$$$$ ;;;;",
";;;; $$$$ ; ===%%%###%=%#OO ;;;;;; oOOOOOOOOOOOOO ;;;;;;;;;;;;; @@@  @$$$$$$$$$$$ ;;;",
";;;; $$$$$ ====&=%####=%#O+ ;;;;;; oXOOOOOOOOOOO+ ;;;;;;;;;;;;; @@ ;; @$$$$$$$$$$$ ;;",
";;;; $$$$$$ =====%%####%#++ ;;;;;;; XOOOOOOOOOOO+ ;;;;;;;;;;;;; @@ ;; @$@$$$$$$$$$ ;;",
";;;; @$$$$$$ =====%######+ ;;;;;;;; XOOOOOOOOOO+ ;;;;;;;;;;;;;;; @ ;;; $@ @$$$$$$$$ ;",
";;;; @$$@ @$$ ==--%%###+OO ;;;;;;;; X+OOOOOOOOOO ;;;;;;;;;;;;;;; @ ;;; $ ; @$$$$$$$ ;",
";;;; @@$ ; $$$ ==-%%##O++ ;;;;;;;;; XOOOOOOOOOOO ;;;;;;;;;;;;;;; @ ;;; $$  @@$$$$$ ;;",
";;;; @@$ ; +$ =====%%##O+ ;;;;;;;;; XOOOOOOOOO++ ;;;;;;;;;;;;;;;;  ;;; $$ ; @$$$$$ ;;",
";;;; @@@$    %====%%##OO+ ;;;;;;;;; XOOOOOOOOOO ;;;;;;;;;;;;;;;;;;;;;;; $ ; @$$$$ ;;;",
";;;;; @$$$ o+%====#%%##O ;;;;;;;;;;; OOOOOOOOO+ ;;;;;;;;;;;;;;;;;;;;;;; $$ ; $$$ ;;;;",
";;;;; @$@$ o+#====%#%#OO ;;;;;;;;;; +OOOOOOOOO+ ;;;;;;;;;;;;;;;;;;;;;;; $$ ; @@  ;;;;",
";;;;;;   $$ +#=-===%###O ;;;;;;;;;; +OOOOOOOOOO ;;;;;;;;;;;;;;;;;;;;;;;; $$ ;  ;;;;;;",
";;;;;;;;;  +o+#---==##+O ;;;;;;;;;;; OOOOOOOOOO+  ;;;;;;;;;;;;;;;;;;;;;; $$ ; ;;;;;;;",
";;;;;;;;; ++OOOO---=##+ ;;;;;;;;;;;; +OOOOOOOOOO+ ;;;;;;;;;;;;;;;;;;;;;;   ;;;;;;;;;;",
";;;;;;;;; XooOOOO##- #+ ;;;;;;;;;;;;; OOOOOOOOOOO+ ;;;;;;;;;;;;;;;;;;;;;;;;;;;;;;;;;;",
";;;;;;;;; oooOOOOO## ++ ;;;;;;;;;;;; X+OOOOOOOOOOO ;;;;;;;;;;;;;;;;;;;;;;;;;;;;;;;;;;",
";;;;;;;;; oooooOOOO++ + ;;;;;;;;;;;; XX+OOOOOOOOO+ ;;;;;;;;;;;;;;;;;;;;;;;;;;;;;;;;;;",
";;;;;;;;; XXooOOOOOO+  ;;;;;;;;;;;;; XXOOOOOOOOOOO+ ;;;;;;;;;;;;;;;;;;;;;;;;;;;;;;;;;",
";;;;;;;;; XXXooOOOOOO+ ;;;;;;;;;;;;; XX+XOOOOOOOOO+ ;;;;;;;;;;;;;;;;;;;;;;;;;;;;;;;;;",
";;;;;;;;; XXXX+OOOOO+ ;;;;;;;;;;;;;;; X+OOOOOOOOOOOO ;;;;;;;;;;;;;;;;;;;;;;;;;;;;;;;;",
";;;;;;;;; XXXXoOOOOO++ ;;;;;;;;;;;;;;; OXOXOOOOOOOOO ;;;;;;;;;;;;;;;;;;;;;;;;;;;;;;;;",
";;;;;;;;; XXoOOOOOOO+ ;;;;;;;;;;;;;;;; X+OOOOOOOOOOO ;;;;;;;;;;;;;;;;;;;;;;;;;;;;;;;;",
";;;;;;;;; XooOoOOOOO+ ;;;;;;;;;;;;;;;;; X+XOXOOOOOOO+ ;;;;;;;;;;;;;;;;;;;;;;;;;;;;;;;",
";;;;;;;;; oooOOOOOOO ;;;;;;;;;;;;;;;;;;; XOOOOOOOOOO+ ;;;;;;;;;;;;;;;;;;;;;;;;;;;;;;;",
";;;;;;;;; oooOOOOOOO ;;;;;;;;;;;;;;;;;;; XX+XOXOOOOO+ ;;;;;;;;;;;;;;;;;;;;;;;;;;;;;;;",
";;;;;;;;; XXoOOOOOOO ;;;;;;;;;;;;;;;;;;;; XX+OOOOOOOO ;;;;;;;;;;;;;;;;;;;;;;;;;;;;;;;",
";;;;;;;;; XXoOOOOOOO ;;;;;;;;;;;;;;;;;;;;; XXOXOOOOOO+ ;;;;;;;;;;;;;;;;;;;;;;;;;;;;;;",
";;;;;;;; ooXoOOOOOOO ;;;;;;;;;;;;;;;;;;;;; XXXOOOOOOOO ;;;;;;;;;;;;;;;;;;;;;;;;;;;;;;",
";;;;;;;; ooooOOOOOO+ ;;;;;;;;;;;;;;;;;;;;;; XXXOXOOOO+ ;;;;;;;;;;;;;;;;;;;;;;;;;;;;;;",
";;;;;;;; XXX++OOOOOO+ ;;;;;;;;;;;;;;;;;;;;;; XX+OOOOOO ;;;;;;;;;;;;;;;;;;;;;;;;;;;;;;",
";;;;;;;; XXXX+OOOOOO+ ;;;;;;;;;;;;;;;;;;;;;;; XXXOXOOO+ ;;;;;;;;;;;;;;;;;;;;;;;;;;;;;",
";;;;;;;; XXX+++OOOOO ;;;;;;;;;;;;;;;;;;;;;;;;; XXX+OOO+ ;;;;;;;;;;;;;;;;;;;;;;;;;;;;;",
";;;;;;;; XXXX+OOOOO+ ;;;;;;;;;;;;;;;;;;;;;;;;; XXXX+O+X ;;;;;;;;;;;;;;;;;;;;;;;;;;;;;",
";;;;;;;; XXXOOOOOOOO ;;;;;;;;;;;;;;;;;;;;;;;;;; XXXXX@@$ ;;;;;;;;;;;;;;;;;;;;;;;;;;;;",
";;;;;;;; XXXoOOOOOOO ;;;;;;;;;;;;;;;;;;;;;;;;;;; XX@@@@$ ;;;;;;;;;;;;;;;;;;;;;;;;;;;;",
";;;;;;; XXXXOOOOOOOO ;;;;;;;;;;;;;;;;;;;;;;;;;;; X@@@$$$$ ;;;;;;;;;;;;;;;;;;;;;;;;;;;",
";;;;;;; XXXXXOOOO++ ;;;;;;;;;;;;;;;;;;;;;;;;;;;; X@@@$$$$$ ;;;;;;;;;;;;;;;;;;;;;;;;;;",
";;;;;;; XXXXOOOOOOO ;;;;;;;;;;;;;;;;;;;;;;;;;;;;; @@@$$$$$ ;;;;;;;;;;;;;;;;;;;;;;;;;;",
";;;;;;; XXXOXOOOOO+ ;;;;;;;;;;;;;;;;;;;;;;;;;;;; @XX@@$$$$@ ;;;;;;;;;;;;;;;;;;;;;;;;;",
";;;;;;; XXXOOOOOOO+ ;;;;;;;;;;;;;;;;;;;;;;;;;;;; XXXX@$$$$@ ;;;;;;;;;;;;;;;;;;;;;;;;;",
";;;;;;; XXX+OOOO++ ;;;;;;;;;;;;;;;;;;;;;;;;;;;;;  XXXXX@@@@ ;;;;;;;;;;;;;;;;;;;;;;;;;",
";;;;;;; XXXOOOOOOO ;;;;;;;;;;;;;;;;;;;;;;;;;;;;;; XXXXXXXXX ;;;;;;;;;;;;;;;;;;;;;;;;;",
";;;;;;; XXXOOOOOOO ;;;;;;;;;;;;;;;;;;;;;;;;;;;;;; XXXXXXXXX ;;;;;;;;;;;;;;;;;;;;;;;;;",
";;;;;; XOOOOOOOOOO ;;;;;;;;;;;;;;;;;;;;;;;;;;;;;; XXXXXXXXX ;;;;;;;;;;;;;;;;;;;;;;;;;",
";;;;;; +XOXOOOOO++ ;;;;;;;;;;;;;;;;;;;;;;;;;;;;;;; XXXXXXXX ;;;;;;;;;;;;;;;;;;;;;;;;;",
";;;;;; +OOOOOOOOOO ;;;;;;;;;;;;;;;;;;;;;;;;;;;;;;; XXXXXXXXX ;;;;;;;;;;;;;;;;;;;;;;;;",
";;;;;;; oOoOOOoOo+ ;;;;;;;;;;;;;;;;;;;;;;;;;;;;;;; XXXXXXXXX ;;;;;;;;;;;;;;;;;;;;;;;;",
";;;;;;; OOOOOOO+++ ;;;;;;;;;;;;;;;;;;;;;;;;;;;;;;; XXXXXXXXX ;;;;;;;;;;;;;;;;;;;;;;;;",
";;;;;; XoOOOOOOOo+ ;;;;;;;;;;;;;;;;;;;;;;;;;;;;;;;; XXXXXXXX ;;;;;;;;;;;;;;;;;;;;;;;;",
";;;;;;; OOOOOOOO+ ;;;;;;;;;;;;;;;;;;;;;;;;;;;;;;;;; XXXXXXXXX ;;;;;;;;;;;;;;;;;;;;;;;",
";;;;;; +OOOOOOOO++ ;;;;;;;;;;;;;;;;;;;;;;;;;;;;;;;; XXXXXXXXX ;;;;;;;;;;;;;;;;;;;;;;;",
";;;;;; +OOOO++O++ ;;;;;;;;;;;;;;;;;;;;;;;;;;;;;;;;;; XXXXXXXX ;;;;;;;;;;;;;;;;;;;;;;;",
";;;;;;; OOOO+   + ;;;;;;;;;;;;;;;;;;;;;;;;;;;;;;;;;; XXXXXXXXX ;;;;;;;;;;;;;;;;;;;;;;",
";;;;;;;; +@ @@@@ ;;;;;;;;;;;;;;;;;;;;;;;;;;;;;;;;;;; XXXXXXXXX ;;;;;;;;;;;;;;;;;;;;;;",
";;;;;;;; @@$@$@@ ;;;;;;;;;;;;;;;;;;;;;;;;;;;;;;;;;;;; XXXXXXXX ;;;;;;;;;;;;;;;;;;;;;;",
";;;;;;;; @$$$$$$ ;;;;;;;;;;;;;;;;;;;;;;;;;;;;;;;;;;;; XXXXXXXXX ;;;;;;;;;;;;;;;;;;;;;",
";;;;;;;; @@$$$$$ ;;;;;;;;;;;;;;;;;;;;;;;;;;;;;;;;;;;; XXXXXXXXX ;;;;;;;;;;;;;;;;;;;;;",
";;;;;;;; @$$$$$ ;;;;;;;;;;;;;;;;;;;;;;;;;;;;;;;;;;;;;; XXXXXXX  ;;;;;;;;;;;;;;;;;;;;;",
";;;;;;;; @@$@$  ;;;;;;;;;;;;;;;;;;;;;;;;;;;;;;;;;;;;;; XXXXXX ;;;;;;;;;;;;;;;;;;;;;;;",
";;;;;;;; @  ooo  ;;;;;;;;;;;;;;;;;;;;;;;;;;;;;;;;;;;;;   XX  ;;;;;;;;;;;;;;;;;;;;;;;;",
";;;;;;;; oooooXXo ;;;;;;;;;;;;;;;;;;;;;;;;;;;;;;;;;;;;;;;  ;;;;;;;;;;;;;;;;;;;;;;;;;;",
";;;;;;; XXXXXXXXX ;;;;;;;;;;;;;;;;;;;;;;;;;;;;;;;;;;;;;;;;;;;;;;;;;;;;;;;;;;;;;;;;;;;",
";;;;;;; XXXXXXXXX ;;;;;;;;;;;;;;;;;;;;;;;;;;;;;;;;;;;;;;;;;;;;;;;;;;;;;;;;;;;;;;;;;;;",
";;;;;; XXXXXXoXXX ;;;;;;;;;;;;;;;;;;;;;;;;;;;;;;;;;;;;;;;;;;;;;;;;;;;;;;;;;;;;;;;;;;;",
";;;;;;; XXXXXXXXX ;;;;;;;;;;;;;;;;;;;;;;;;;;;;;;;;;;;;;;;;;;;;;;;;;;;;;;;;;;;;;;;;;;;",
";;;;;;; XXXXXXXXX ;;;;;;;;;;;;;;;;;;;;;;;;;;;;;;;;;;;;;;;;;;;;;;;;;;;;;;;;;;;;;;;;;;;",
";;;;;;; X         ;;;;;;;;;;;;;;;;;;;;;;;;;;;;;;;;;;;;;;;;;;;;;;;;;;;;;;;;;;;;;;;;;;;",
";;;;;;; XXXXXXXXX ;;;;;;;;;;;;;;;;;;;;;;;;;;;;;;;;;;;;;;;;;;;;;;;;;;;;;;;;;;;;;;;;;;;",
";;;;;;; XXXXXXXXX ;;;;;;;;;;;;;;;;;;;;;;;;;;;;;;;;;;;;;;;;;;;;;;;;;;;;;;;;;;;;;;;;;;;",
";;;;;;; XXXXXXXXX ;;;;;;;;;;;;;;;;;;;;;;;;;;;;;;;;;;;;;;;;;;;;;;;;;;;;;;;;;;;;;;;;;;;",
";;;;;;;; XXXXXXXX ;;;;;;;;;;;;;;;;;;;;;;;;;;;;;;;;;;;;;;;;;;;;;;;;;;;;;;;;;;;;;;;;;;;",
";;;;;;;;          ;;;;;;;;;;;;;;;;;;;;;;;;;;;;;;;;;;;;;;;;;;;;;;;;;;;;;;;;;;;;;;;;;;;",
";;;;;;;;;;;;;;;;;;;;;;;;;;;;;;;;;;;;;;;;;;;;;;;;;;;;;;;;;;;;;;;;;;;;;;;;;;;;;;;;;;;;;",
";;;;;;;;;;;;;;;;;;;;;;;;;;;;;;;;;;;;;;;;;;;;;;;;;;;;;;;;;;;;;;;;;;;;;;;;;;;;;;;;;;;;;",
";;;;;;;;;;;;;;;;;;;;;;;;;;;;;;;;;;;;;;;;;;;;;;;;;;;;;;;;;;;;;;;;;;;;;;;;;;;;;;;;;;;;;",
";;;;;;;;;;;;;;;;;;;;;;;;;;;;;;;;;;;;;;;;;;;;;;;;;;;;;;;;;;;;;;;;;;;;;;;;;;;;;;;;;;;;;"
};
