/* XPM */
static char *_6_fps_zombie_WALK_crop[] = {
/* columns rows colors chars-per-pixel */
"85 167 16 1 ",
"  c black",
". c #010000",
"X c #01070A",
"o c #01070B",
"O c #1C0000",
"+ c #063938",
"@ c #073938",
"# c #460100",
"$ c #470100",
"% c #1C5D5B",
"& c #1D5D5B",
"* c #960D00",
"= c #F20802",
"- c #F30802",
"; c #DFB77B",
": c None",
/* pixels */
"::::::::::::::::::::::::::::::::::::::   ::::::::::::::::::::::::::::::::::::::::::::",
":::::::::::::::::::::::::::::::::::::: @X :::::::::::::::::::::::::::::::::::::::::::",
":::::::::::::::::::::::::::::::::::::: o@X  :::::::::::::::::::::::::::::::::::::::::",
"::::::::::::::::::::::::::::::::::::: ooXXXX   ::::::::::::::::::::::::::::::::::::::",
"::::::::::::::::::::::::::::::::::::: XXXXXXXXX  ::::::::::::::::::::::::::::::::::::",
"::::::::::::::::::::::::::::::::     XXXXXXXXXXXo :::::::::::::::::::::::::::::::::::",
":::::::::::::::::::::::::  ::   ---XXXXXXXXXXXXXoo  :::::::::::::::::::::::::::::::::",
"::::::::::::::::::::::::: #  ------XXXXXXXXXXXXXoooo ::::::::::::::::::::::::::::::::",
"::::::::::::::::::::::::: **-*------XXXXXXXXXXXXXXXXo :::::::::::::::::::::::::::::::",
"::::::::::::::::::::::::: *;------*XXXXXXXXXXXXXXXXXo :::::::::::::::::::::::::::::::",
"::::::::::::::::::::::::: ;;*-----@XXXXXXXXXXXXXXXXXoo ::::::::::::::::::::::::::::::",
":::::::::::::::::::::::: **------*XXXXXXXXXXXXXXXXXXoo ::::::::::::::::::::::::::::::",
":::::::::::::::::::::::: *------*XXXXXXXXXXXXXXXXXXXo :::::::::::::::::::::::::::::::",
":::::::::::::::::::::::: &*-----%XXXXXXXXXXXXXXXXXXXo :::::::::::::::::::::::::::::::",
"::::::::::::::::::::::: #*-----&%%@XXXXXXXXXXXXXXXXXo :::::::::::::::::::::::::::::::",
":::::::::::::::::::::::  **-*&&&%O%XXXXXXXXXXXXXXXXXo :::::::::::::::::::::::::::::::",
":::::::::::::::::::::::  *&&&%%&#*%%XXXXXXXXXXXXXXXXXX    :::::::::::::::::::::::::::",
":::::::::::::::::::::::  *@&@%&&**O%XXXXXXXXXXXXXXXXooooX :::::::::::::::::::::::::::",
":::::::::::::::::::::::  *&&++@@%%%%%@XXXXXXXXXXXXXXooXX ::::::::::::::::::::::::::::",
":::::::::::::::::::::::  *@&++@@@%@%@@@XXXXXXXXXXXXXoo    :::::::::::::::::::::::::::",
"::::::::::::::::::::::: **%@++++@%%%%+++@XXXXXXXXXXO  $#$ :::::::::::::::::::::::::::",
"::::::::::::::::::::::: **#@++++@%@%@+++@@XXXXXXXXXO #$$## ::::::::::::::::::::::::::",
":::::::::::::::::::::  ****@++++@%%@+@++@@@@XXXXXXOO $#### ::::::::::::::::::::::::::",
"::::::::::::::::::::  #***#@+++@@%+++=++@@@@@@@   XO ##### ::::::::::::::::::::::::::",
"::::::::::::::::::: # **--*@@+++++++*=#@@@+++@@@@ XO ###### :::::::::::::::::::::::::",
":::::::::::::::::: ## **--@@@@++@@+*===#@@+++@@@O OO ###### :::::::::::::::::::::::::",
"::::::::::::::::: ### *---@@++++@@#==--@++++@+@### # ###### :::::::::::::::::::::::::",
":::::::::::::::: ### **-**@@++++@@#===*@++++@@@#### $###### :::::::::::::::::::::::::",
"::::::::::::::: #### *---@@@++++++#==#@@++++@@############# :::::::::::::::::::::::::",
":::::::::::::: ###O #**-#@X*+++@+@#==@@@++XO@O############## ::::::::::::::::::::::::",
"::::::::::::: ##### #*-&%X*--X@@@@#=@@@@@@ O $############## ::::::::::::::::::::::::",
"::::::::::::: ##O$ ##*@&&**--=**X@#=++@@@   O###OOOOOOO##### ::::::::::::::::::::::::",
":::::::::::: ##### O&&&&&&*--XX**@-@@+++O ######$OOOOOO$##### :::::::::::::::::::::::",
"::::::::::: ####O#O O&&&&&&*----XX-@@@++ #######OOOOOOOO###### ::::::::::::::::::::::",
"::::::::::: ######$$ O&&&&&&&----@-@@@@O #######$O OOOOO####### :::::::::::::::::::::",
":::::::::: #######O#O X@&&&&&&%@@%=@@@X ########OO OOOOO###### ::::::::::::::::::::::",
"::::::::: ###########O @@&&&&&&&%%@@@@ ##########O OOOOO####### :::::::::::::::::::::",
":::::::: ###########O#O X@@&@&&&&%@@@O #########OO OOOOOO####### ::::::::::::::::::::",
":::::::: ##############O @O@@@@&&&@@O ###########O OOOOO######### :::::::::::::::::::",
"::::::: ##############OOO    @XXXXXOO O#########OO  OOOOO######## :::::::::::::::::::",
"::::::: ###############OOOOOO        ############ :: OOOO####### ::::::::::::::::::::",
":::::: ###############OOOOOOOOOOOOOOO###########O ::: OOOO###### ::::::::::::::::::::",
":::::: ###############OOOOOOOOOOOO$############## ::: OOO####### ::::::::::::::::::::",
"::::: ##############O#OOOOOOO#OOO$O$############O ::: OOO#######% :::::::::::::::::::",
"::::: ###############OOOOOO#####$#$$####*####### :::::  O#####@@% :::::::::::::::::::",
"::::: ########OOOOOOOOOOOOO#####O$ $############ ::::::: OOOX@@&% :::::::::::::::::::",
":::: ##########O OOOOOOOOOO#####$ - ####*####### :::::::: OX@@@&%& ::::::::::::::::::",
"::::: **#*##    : OOOOOOOOO####$$ - ####**####O# ::::::::: X@@@&&&% :::::::::::::::::",
"::::: &&&@O ::::: OOOOOOOOO#####$ - $###*######$ :::::::::: @@@%%&&& ::::::::::::::::",
"::::: &&@@ ::::::: OOOOOOOO#####$ - ########O##  ::::::::::: @@&&&&& ::::::::::::::::",
"::::: &&&& :::::::: OOOOO#######$ *- $##$$##$$## ::::::::::: @@%&&&& ::::::::::::::::",
"::::: &&&& ::::::::  OOOO#O#####$$ - $##$     #$ ::::::::::: @@&&&&& ::::::::::::::::",
"::::: &&&& :::::::: OOOOOOO#####$* -- *$ ;;;;; $ ::::::::::: X@&&&&& ::::::::::::::::",
"::::: &&& ::::::::: OOOOOOO####*#* --;  ;;;;;;;  ::::::::::: @@&&&&&& :::::::::::::::",
"::::: &&& :::::::: OOOOOOOO##*****- ---;;;;;;;;  ::::::::::: @@&&&&&& :::::::::::::::",
"::::: &&& :::::::: OOOOOOOO#*------* -*;;;;;;;;;  :::::::::: @@@&&&&& :::::::::::::::",
":::::: && ::::::: OO########**---**** *;;;;;;;;;  :::::::::: @@@%%%&& :::::::::::::::",
":::::: && ::::::: O#O########*#***#*$$ *;;;;;;* $$ :::::::::: @@@%&&& :::::::::::::::",
":::::: && ::::::: ##$###############$## &;;;;;; $# :::::::::: @@@&&&& :::::::::::::::",
":::::: && ::::::: ##################### @&@;&& ##$ ::::::::::: @@&&&&& ::::::::::::::",
":::::: && ::::::: ######################   &  $## ::::::::::::: %&&&&& ::::::::::::::",
":::::: && ::::::: ######################$$$ ##$## :::::::::::: #O%&&&& ::::::::::::::",
":::::: && ::::::: ######################$#$$##### :::::::::::: *$$$%%& ::::::::::::::",
"::::: &&& ::::::: O############################## :::::::::::: &*-***$O :::::::::::::",
"::::: &&% ::::::: OO############################$ ::::::::::::: %$***** :::::::::::::",
"::::: && :::::::: OOOOO#########################O ::::::::::::: X%%%&*$ :::::::::::::",
"::::: && :::::::: OOOOOOOOOOO#################$#O :::::::::::::: @@&&&& :::::::::::::",
"::::: && :::::::: XOOOOOOOOOOOOOOOOOOOOOOOO#OOOOO :::::::::::::: @@&&&& :::::::::::::",
"::::: && :::::::: OOOOOOOOOOOOOOOOOOOOOOOOOOOOOOO :::::::::::::: @@@%%& :::::::::::::",
"::::: && ::::::: XXOOOOOOOOOOOOOOOOOOOOOOOOOOOOOO :::::::::::::: @@@@%& :::::::::::::",
":::: &&% ::::::: XXOOOOOOOOOOOOOOOOOOOOOOOOOOOOOO ::::::::::::::: @@%&& :::::::::::::",
":::: &&% ::::::: XXOOOOOOOOOOOOOOOOOOOOOOOOOOOOOOO :::::::::::::: @@@%& :::::::::::::",
":::: &&& ::::::: XXOOOOOOOOOOOOOOOOOOOOOOOOOOOOOOO :::::::::::::: @@%&& :::::::::::::",
":::: &&& ::::::: XXOOOOOOOOOOOOOOOOOOOOOOOOOOOOOOO ::::::::::::::: @@%&& ::::::::::::",
":::: &&& ::::::: XXOOOOOOOOOOOOOOOOOOOOOOOOOOOOOOO ::::::::::::::: @@%&& ::::::::::::",
":::: &&& ::::::: XXOXOOOOOOOOOOOOOOOOOOOOOOOOOOOOO ::::::::::::::: @@&&& ::::::::::::",
":::: &&& ::::::: XXXOOOOOOOOOOOOOOOOOOOOOOOOOOOOOO :::::::::::::::: @%%&&  ::::::::::",
":::: &&& :::::: XXXXXOOOOOOOOOOOOOOOOOOOOOOOOOOOO :::::::::::::::: @@&&&&&& :::::::::",
":::: &&& :::::: XXXXOOOOOOOOOOOOOOOOOOOOOOOOOOOOO :::::::::::::::: @@%&&&&& :::::::::",
":::: &&& :::::: XXXOXOOOOOOOOOXOXOOOOOOOOOOOOOOOOO :::::::::::::: @@@@&&&&&% ::::::::",
":::: &&& ::::: OOOOOOOOOOOOOOOOOOOOOOOOOOOOOOOOOOO :::::::::::::: @@@@&&&&&&& :::::::",
":::: &&& ::::: $OOOOOOOOOOOOXOXOXXXOOOOOOOOOOOOOO  :::::::::::::: @@@@@&&&&&& :::::::",
":::: &&& ::::: **#OOOOOOOOOOOOOOXXXXOOOOOOOOOOOOO  :::::::::::::: @@+@@%&&&&&& ::::::",
":::: && :::::: **-OOOOOOOOOOXOX XXXXoOOOOOOOOOOOOO :::::::::::::: o@+@@&&&&&&&& :::::",
"::::: & ::::: O$--*OOOOOOOOOOX : XXXOOOOOOOOOOOOO ::::::::::::::: XX+@@+%%&&%%% :::::",
"::::: & ::::: OO*--*OOOOOOOOXX :: XOOOOOOOOOOOOOO ::::::::::::::: XXX@++@%@&%%%% ::::",
"::::: & ::::: O$#---O#OOOOOOXX :: XOOOOOOOOOOOOOO :::::::::::::: XXX o++@@&&&&%%& :::",
"::::: & :::: OO$O*--*#OOOOOOXX :: XOOOOOOOOOOOOOO ::::::::::::::: @ : ++@@@&@&%%&& ::",
"::::: & :::: OO$##---##OOOOOX ::: OOOOOOOOOOOOOOO ::::::::::::::: @ :: @@@@++%%%%&& :",
":::: @&& ::: $#$O#*--*#OOOOOX :::: OOOOOOOOOOOOOO ::::::::::::::: o :: @@@+++@@%@%&& ",
":::: @&&% :: *#####---##OOOOO :::: OOOOOOOOOOOOOO ::::::::::::::::  :: @++++++++&&&& ",
":::: @@&%% : **####*--##OOOO ::::: OOOOOOOOOOOOOO ::::::::::::::::  ::: @%+@+++@@&& :",
":::: @&&&&&  -**$$##---*OOOO ::::: OOOOOOOOOOOOO :::::::::::::::::::::: @%@@o@@@@%% :",
"::::: @&@@&&% **####*--*OOO :::::: OOOOOOOOOOOOO :::::::::::::::::::::: @%@%o@@@@@ ::",
"::::: @&@ @&% -**####*-*#OO :::::: OOOOOOOOOOOO :::::::::::::::::::::::: %%% o@@@ :::",
"::::: @&&  O&% --#####**#OO ::::::: OOOOOOOOOOO :::::::::::::::::::::::: @@ : o@  :::",
"::::: @@&&    -*--#####*#O :::::::: OOOOOOOOOOO ::::::::::::::::::::::::: @& :  :::::",
"::::: @&&& *---*--######OO ::::::: OOOOOOOOOOO ::::::::::::::::::::::::::    ::::::::",
"::::: @@@&& ----;-*###OOOO :::::::: OOOOOOOOOO ::::::::::::::::::::::::::::::::::::::",
"::::::   && *---*-*###OOO ::::::::: OOOOOOOOOO ::::::::::::::::::::::::::::::::::::::",
":::::::::  O$-----*###OOO ::::::::: OOOOOOOOOOO  ::::::::::::::::::::::::::::::::::::",
":::::::::: OO*--**###OOO :::::::::: oOOOOOOOOOOO ::::::::::::::::::::::::::::::::::::",
":::::::::: OO$----*##OOO :::::::::: OOOOOOOOOOOOO :::::::::::::::::::::::::::::::::::",
":::::::::: XO#*----#OOOO :::::::::: oOOOOOOOOOOOO :::::::::::::::::::::::::::::::::::",
":::::::::: oO$;;----OOOO :::::::::: ooOOOOOOOOOOO :::::::::::::::::::::::::::::::::::",
":::::::::: ooO$;;;--OOO ::::::::::: oooOOOOOOOOOOO ::::::::::::::::::::::::::::::::::",
":::::::::: ooOOO;;;-OOO ::::::::::: ooOOOOOOOOOOOO ::::::::::::::::::::::::::::::::::",
":::::::::: ooooOO*;-#OX :::::::::::: ooOOOOOOOOOOOO :::::::::::::::::::::::::::::::::",
":::::::::: ooooOOO##*OO ::::::::::::: oOOOOOOOOOOOO :::::::::::::::::::::::::::::::::",
":::::::::: oXooOXOOOOO :::::::::::::: oOoOOOOOOOOOO :::::::::::::::::::::::::::::::::",
":::::::::: oXOOOOOOOO :::::::::::::::: oOOOOOOOOOOO :::::::::::::::::::::::::::::::::",
"::::::::: ooXOoOXOOOOO ::::::::::::::: ooOoOOOOOOOOO ::::::::::::::::::::::::::::::::",
"::::::::: XXOOOOOOOOO ::::::::::::::::: XoOOOOOOOOOO ::::::::::::::::::::::::::::::::",
"::::::::: XXXOXOXOOOO ::::::::::::::::: oooOoOOOOOOO ::::::::::::::::::::::::::::::::",
"::::::::: XXOOOOOOOO ::::::::::::::::::: ooOOOOOOOOO ::::::::::::::::::::::::::::::::",
"::::::::: XXXOXOOOOO :::::::::::::::::::: oOoOOOOOOOO :::::::::::::::::::::::::::::::",
"::::::::: XXOOOOOOOO :::::::::::::::::::: oOOOOOOOOOO :::::::::::::::::::::::::::::::",
"::::::::: XXXOOOOOOO ::::::::::::::::::::: OoOoOOOOOO :::::::::::::::::::::::::::::::",
"::::::::: XXOOOOOOOO :::::::::::::::::::::: oOOOOOOOO :::::::::::::::::::::::::::::::",
"::::::::: XOXOOOOOOO :::::::::::::::::::::: oOoOOOOOOO ::::::::::::::::::::::::::::::",
":::::::: ooOOOOOOOOOO :::::::::::::::::::::: XXOOOOOOO ::::::::::::::::::::::::::::::",
":::::::: ooOoOOOOOOOO ::::::::::::::::::::::: XXoOOOOO ::::::::::::::::::::::::::::::",
":::::::: oOOOOOOOOOOO ::::::::::::::::::::::: XXoOOOOO ::::::::::::::::::::::::::::::",
":::::::: ooOoOoOOOOO ::::::::::::::::::::::::: XoooOOO& :::::::::::::::::::::::::::::",
":::::::: ooOOOOOOOOO ::::::::::::::::::::::::: XX@@@&&& :::::::::::::::::::::::::::::",
":::::::: ooOXOOOOOOO :::::::::::::::::::::::::: X@@&&&& :::::::::::::::::::::::::::::",
":::::::: ooOOOOOOOOO :::::::::::::::::::::::::: X@@&&&&& ::::::::::::::::::::::::::::",
":::::::: ooooOOOOOO :::::::::::::::::::::::::::: @@&&&&& ::::::::::::::::::::::::::::",
":::::::: XXXOOOOOOO :::::::::::::::::::::::::::: @@&&&&&& :::::::::::::::::::::::::::",
":::::::: XXXoOOOOOO :::::::::::::::::::::::::::: XX@@&&%&& ::::::::::::::::::::::::::",
"::::::: ooXXOOOOOOO :::::::::::::::::::::::::::: X@X@&&&&& ::::::::::::::::::::::::::",
"::::::: oooooOOOOOO :::::::::::::::::::::::::::: XXXXX@@@@ ::::::::::::::::::::::::::",
"::::::: XXXoOOOOOOO :::::::::::::::::::::::::::: XXXXXXXXX ::::::::::::::::::::::::::",
"::::::: ooXOoOOOOO ::::::::::::::::::::::::::::: XXXXXXXXX ::::::::::::::::::::::::::",
"::::::: ooOOOOOOOO ::::::::::::::::::::::::::::: XXXXXXXXX ::::::::::::::::::::::::::",
"::::::: oOoOoOOOOO ::::::::::::::::::::::::::::: XXXXXXXXX ::::::::::::::::::::::::::",
"::::::: OOOOOOOOOO ::::::::::::::::::::::::::::: XXXXXXXXX ::::::::::::::::::::::::::",
"::::::: oOoOXOXOXO :::::::::::::::::::::::::::::: XXXXXXXX ::::::::::::::::::::::::::",
"::::::: oOOOOOOOOO :::::::::::::::::::::::::::::: XXXXXXXX ::::::::::::::::::::::::::",
"::::::: oOoOOOOOOO :::::::::::::::::::::::::::::: XXXXXXXX ::::::::::::::::::::::::::",
"::::::: ooOOOOOOOO ::::::::::::::::::::::::::::::: XXXXXXXX :::::::::::::::::::::::::",
"::::::: oOoOOOOOOO ::::::::::::::::::::::::::::::: XXXXXXXX :::::::::::::::::::::::::",
"::::::: ooOOOOOOO  ::::::::::::::::::::::::::::::: XXXXXXXX :::::::::::::::::::::::::",
":::::::: oooX@   ::::::::::::::::::::::::::::::::: XXXXXXXX :::::::::::::::::::::::::",
":::::::: o@@&&&@ ::::::::::::::::::::::::::::::::: XXXXXXXX :::::::::::::::::::::::::",
":::::::: @@@@&@& ::::::::::::::::::::::::::::::::: XXXXXXXXX ::::::::::::::::::::::::",
":::::::: @@&&&&& ::::::::::::::::::::::::::::::::: XXXXXXXXX ::::::::::::::::::::::::",
":::::::: @@&&&&& :::::::::::::::::::::::::::::::::: XXXXXXXX ::::::::::::::::::::::::",
":::::::: @@&&&&& :::::::::::::::::::::::::::::::::: XooXoooo ::::::::::::::::::::::::",
":::::::: @@@@@@  ::::::::::::::::::::::::::::::::::  oooo    ::::::::::::::::::::::::",
":::::::: oXXooXX ::::::::::::::::::::::::::::::::::::    ::::::::::::::::::::::::::::",
":::::::: XXXXoXXX :::::::::::::::::::::::::::::::::::::::::::::::::::::::::::::::::::",
"::::::: XXXXXXXXX :::::::::::::::::::::::::::::::::::::::::::::::::::::::::::::::::::",
"::::::: XXXXXXXXX :::::::::::::::::::::::::::::::::::::::::::::::::::::::::::::::::::",
"::::::: XXoXXXooX :::::::::::::::::::::::::::::::::::::::::::::::::::::::::::::::::::",
"::::::: XXooXXooX :::::::::::::::::::::::::::::::::::::::::::::::::::::::::::::::::::",
"::::::: oX        :::::::::::::::::::::::::::::::::::::::::::::::::::::::::::::::::::",
"::::::: ooooooooXX ::::::::::::::::::::::::::::::::::::::::::::::::::::::::::::::::::",
":::::::  oXXooooXX ::::::::::::::::::::::::::::::::::::::::::::::::::::::::::::::::::",
":::::::: XXXooooXX ::::::::::::::::::::::::::::::::::::::::::::::::::::::::::::::::::",
"::::::::    XXXXXX ::::::::::::::::::::::::::::::::::::::::::::::::::::::::::::::::::",
"::::::::::::      :::::::::::::::::::::::::::::::::::::::::::::::::::::::::::::::::::",
":::::::::::::::::::::::::::::::::::::::::::::::::::::::::::::::::::::::::::::::::::::",
":::::::::::::::::::::::::::::::::::::::::::::::::::::::::::::::::::::::::::::::::::::",
":::::::::::::::::::::::::::::::::::::::::::::::::::::::::::::::::::::::::::::::::::::",
":::::::::::::::::::::::::::::::::::::::::::::::::::::::::::::::::::::::::::::::::::::",
":::::::::::::::::::::::::::::::::::::::::::::::::::::::::::::::::::::::::::::::::::::"
};
