/* XPM */
static char *_7_fps_zombie_WALK_crop[] = {
/* columns rows colors chars-per-pixel */
"85 167 16 1 ",
"  c black",
". c #010000",
"X c #01070A",
"o c #01070B",
"O c #1C0000",
"+ c #063938",
"@ c #073938",
"# c #460100",
"$ c #470100",
"% c #1D5D5B",
"& c #960D00",
"* c #970D00",
"= c #F20802",
"- c #F30802",
"; c #DFB77B",
": c None",
/* pixels */
"::::::::::::::::::::::::::::::::::::::   ::::::::::::::::::::::::::::::::::::::::::::",
":::::::::::::::::::::::::::::::::::::: @X :::::::::::::::::::::::::::::::::::::::::::",
":::::::::::::::::::::::::::::::::::::: X@X  :::::::::::::::::::::::::::::::::::::::::",
"::::::::::::::::::::::::::::::::::::: XXXXXX   ::::::::::::::::::::::::::::::::::::::",
"::::::::::::::::::::::::::::::::::::: XXXXXXXXX  ::::::::::::::::::::::::::::::::::::",
"::::::::::::::::::::::::::::::::     XXXXXXXXXXXX :::::::::::::::::::::::::::::::::::",
":::::::::::::::::::::::::   :   ---XXXXXXXXXXXXXXX  :::::::::::::::::::::::::::::::::",
"::::::::::::::::::::::::: #* ------XXXXXXXXXXXXXXXXX ::::::::::::::::::::::::::::::::",
"::::::::::::::::::::::::: **--------XXXXXXXXXXXXXXXXX :::::::::::::::::::::::::::::::",
"::::::::::::::::::::::::: *;-------XXXXXXXXXXXXXXXXXX :::::::::::::::::::::::::::::::",
"::::::::::::::::::::::::: -;*-----@XXXXXXXXXXXXXXXXXXX ::::::::::::::::::::::::::::::",
":::::::::::::::::::::::: **------*XXXXXXXXXXXXXXXXXXXX ::::::::::::::::::::::::::::::",
":::::::::::::::::::::::: *------*XXXXXXXXXXXXXXXXXXXX :::::::::::::::::::::::::::::::",
":::::::::::::::::::::::: %*-----%XXXXXXXXXXXXXXXXXXXX :::::::::::::::::::::::::::::::",
"::::::::::::::::::::::: #*-----%%%XXXXXXXXXXXXXXXXXXX :::::::::::::::::::::::::::::::",
"::::::::::::::::::::::: #%*-*-%%%%%XXXXXXXXXXXXXXXXXX :::::::::::::::::::::::::::::::",
":::::::::::::::::::::::  *%%%%%%#&%XXXXXXXXXXXXXXXXXXX    :::::::::::::::::::::::::::",
":::::::::::::::::::::::  *@%@%%%&&O%XXXXXXXXXXXXXXXXXXXXX :::::::::::::::::::::::::::",
":::::::::::::::::::::::  *%%+@%%+%%%@XXXXXXXXXXXXXXXXXXX ::::::::::::::::::::::::::::",
":::::::::::::::::::::::  *@@+@@@+%+%@@@XXXXXXXXXXXXXXXX   :::::::::::::::::::::::::::",
"::::::::::::::::::::::: **%++++++%%%%+++XXXXXXXXXXX    $# :::::::::::::::::::::::::::",
"::::::::::::::::::::::: **+++++++%+%@+++@@XXXXXXXXX$ #$$# :::::::::::::::::::::::::::",
":::::::::::::::::::::  *&&&++++++%%++@++@+@XXXXXXXO# ##### ::::::::::::::::::::::::::",
"::::::::::::::::::::  #*&&#++++++++++=+++@@@@@@@ OX# ##### ::::::::::::::::::::::::::",
"::::::::::::::::::: # ***-++++++++++==@@@++++@@@@ X# ###### :::::::::::::::::::::::::",
":::::::::::::::::: ## **--+++++++++&===@@++++@@@O O# $##### :::::::::::::::::::::::::",
"::::::::::::::::: ### *---++++++@+*==--@++++@@@## ## ###### :::::::::::::::::::::::::",
":::::::::::::::: ### **-*&++++++@@*===*@++++@@@###  $###### :::::::::::::::::::::::::",
"::::::::::::::: #### *---@@@++++++*=-#@@++++@@############# :::::::::::::::::::::::::",
":::::::::::::: ###O #**-#@XX+++@+@#=-@@@++X+@O############## ::::::::::::::::::::::::",
"::::::::::::: ##### #*-*%X*--X@@@@#=++@@@@ O $############## ::::::::::::::::::::::::",
"::::::::::::: ##O# #O*@%%#*----XX@&=++@@@   ####OOOOOOO##### ::::::::::::::::::::::::",
":::::::::::: ##### O@%%%%%*--X-*#@-@@+++O #######OOOOOO###### :::::::::::::::::::::::",
"::::::::::: ####O#O O%%%%%%@----XX-@@@++ #######OOOOOOOO###### ::::::::::::::::::::::",
"::::::::::: ######$O O@%%%%%%@---@-@@@@O ########OOOOOOO####### :::::::::::::::::::::",
":::::::::: #######O$O X@%%%%%%%@@%@@@@X ########OOOOOOO####### ::::::::::::::::::::::",
"::::::::: ###########O O@%%%%%%%%%@@@@ ##########OOOOOOO####### :::::::::::::::::::::",
":::::::: ###########O#O  O@%@%%%%@@@+O #########OO OOOOOO####### ::::::::::::::::::::",
":::::::: #############OOO O@@@@@@-@@O ###########OOOOOOO######### :::::::::::::::::::",
"::::::: ##############OOOO    XOX-OOO O#########OO  OOOOO######## :::::::::::::::::::",
"::::::: ###############OOOOOOO   -   ############ :: OOOO####### ::::::::::::::::::::",
":::::: ###############OOOOOOOOOO - $O###########O ::: OOOO###### ::::::::::::::::::::",
":::::: ################OOOOOOOOO - $############# ::: OOO####### ::::::::::::::::::::",
"::::: ##############O#OOOOOOO#O#.- #############O ::: OOO####### ::::::::::::::::::::",
"::::: ###############OOOOOO##### - $####*####### :::::  O#####@@% :::::::::::::::::::",
"::::: ##########OOOOOOOOOOO#####.- $############ ::::::: OOOX@@%% :::::::::::::::::::",
":::: ##########O OOOOOOOOO###### - $####*####### :::::::: OO@@@%%% ::::::::::::::::::",
"::::: **#@*#    : OOOOOOOOO#####.- $####*#####O# ::::::::: X@@@%%% ::::::::::::::::::",
"::::: %%%@@ ::::: OOOOOOOOO##### -.$$###*######$ ::::::::: @@@@%%%% :::::::::::::::::",
"::::: %%@@ ::::::: OOOOOOOO##### -.$$$#########  :::::::::: X@@%%%%% ::::::::::::::::",
"::::: %%%% :::::::  OOOOOO######$ - *########### ::::::::::: @@%%%%% ::::::::::::::::",
"::::: %%%% ::::::: O OOOO#O#####$ - **########## ::::::::::: @@%%%%% ::::::::::::::::",
"::::: %%%% :::::::: OOOOOOO###### - ***$    $### ::::::::::: @@%%%%% ::::::::::::::::",
"::::: %%% ::::::::: OOOOOOOO##### -- ** ;;;; ### ::::::::::: @@%%%%%% :::::::::::::::",
"::::: %%% :::::::: OOOOOOOOO#**** *--  ;;;;;; ## ::::::::::: @@%%%%%% :::::::::::::::",
"::::: %%% :::::::: OOOOOOOO#----*- --;;;;;;;;; ## :::::::::: @@@%%%%% :::::::::::::::",
"::::: %%% :::::::: OOO#####*------* -*;;;;;;;; $$ :::::::::: @@@%%%%% :::::::::::::::",
"::::: %%% ::::::: OOO#O######**--*#* *;;;;;;;; $## :::::::::: @@@%%%% :::::::::::::::",
":::::: %% ::::::: O###########****### ;;;;;;;; ### :::::::::: @@@%%%% :::::::::::::::",
":::::: %% ::::::: O################## #;;;;;;* ### ::::::::::  @@%%%%% ::::::::::::::",
":::::: %% ::::::: #################### %%;;;; $## ::::::::::::: %%%%%% ::::::::::::::",
":::::: %% ::::::: ###################$$ %%%  #$## :::::::::::: #O%%%%% ::::::::::::::",
"::::: %%% ::::::: ######################   $##### :::::::::::: ####%%% ::::::::::::::",
"::::: %%% ::::::: O####################$$######## :::::::::::: %&&***#% :::::::::::::",
"::::: %%% ::::::: O############################## ::::::::::::: %****** :::::::::::::",
"::::: %% :::::::: OOO############################ ::::::::::::: X%%%%%# :::::::::::::",
"::::: %% :::::::: OOOOO########################## :::::::::::::: +@%%%% :::::::::::::",
"::::: %% :::::::: oOOOOOOOOOOOO#O#O#O#O#O#O#O#OOO :::::::::::::: @@@%%% :::::::::::::",
"::::: %% :::::::: oOOOOOOOOOOOOOOOOOOOOO##OOOOOOO :::::::::::::: @@@%%% :::::::::::::",
":::: %% :::::::: ooOOOOOOOOOOOOOOOOOOOOOOOOOOOOOOO :::::::::::::: @@@%% :::::::::::::",
":::: %% :::::::: ooOOOOOOOOOOOOOOOOOOOOOOOOOOOOOOO :::::::::::::: @@%%% :::::::::::::",
":::: %%% ::::::: ooOoOOOOOOOOOOOOOOOOOOOOOOOOOOOOO :::::::::::::: @@@%%% ::::::::::::",
":::: %%% ::::::: oooOOOOOOOOOOOOOOOOOOOOOOOOOOOOOO ::::::::::::::: @@%%% ::::::::::::",
":::: %%% ::::::: oXooOOOOOOOOOOOOOOOOOOOOOOOOOOOOO ::::::::::::::: @+%%% ::::::::::::",
":::: %%% ::::::: oXXOOOOOOOOOOOOOOOOOOOOOOOOOOOOOO ::::::::::::::: @+%%% ::::::::::::",
":::: %%% ::::::: ooOoOOOOOOOOOOOOOOOOOOOOOOOOOOOOO :::::::::::::::: ++%%% :::::::::::",
":::: %%% ::::::: ooOOOOOOOOOOOOOOOOOOOOOOOOOOOOOOO :::::::::::::::: @@%%%% ::::::::::",
":::: %%% ::::::: ooooOOOOOOOOOOOOOOOOOOOOOOOOOOOOO ::::::::::::::: @@@%%%%% :::::::::",
":::: %%% ::::::: oooOOOOOOOOOOOOOOOOOOOOOOOOOOOOOO ::::::::::::::: @@@%%%%%% ::::::::",
":::: %%% :::::: oooOoOOOOOOOOOOOOOOOOOOOOOOOOOOOOO :::::::::::::: @@@@@%%%%% ::::::::",
":::: %%% :::::: OoOOOOOOOOOOOOOOOOOOOOOOOOOOOOOOOO :::::::::::::: @@@@+%%%%%% :::::::",
":::: %%% :::::: OOOOOOOOOOOOoOoOoooOOOOOOOOOOOOOOO :::::::::::::: @@@@+%%%%%%% ::::::",
":::: %% :::::: ##OOOOOOOOOOOOOOOooXXOOOOOOOOOOOOOO :::::::::::::: @@++++%%%%%% ::::::",
":::: %% :::::: #*#OOOOOOOOOOoOXXooooXOOOOOOOOOOOOO :::::::::::::: XXX++++%%%%%% :::::",
":::: @% :::::: #*-OOOOOOOOOOOOO ooooOOOOOOOOOOOOOO :::::::::::::: XXo@@@+%%%%%%% ::::",
":::: @% ::::: OO*--OOOOOOOOOoO : ooOOOOOOOOOOOOOO ::::::::::::::: XXooo++++%@%%% ::::",
":::: @% ::::: OO#---##OOOOOOoo :: OOOOOOOOOOOOOOO ::::::::::::::: XX  @@+++%%%%%% :::",
"::::: % ::::: OOO---##OOOOOOoo :: oOOOOOOOOOOOOOO ::::::::::::::: X :: +++@@@%@%%% ::",
"::::: % ::::: OOO*---##OOOOOoo :: OOOOOOOOOOOOOOO ::::::::::::::: @ :: @@@@++++%%%% :",
":::: @%% ::: OOOO#---##OOOOOo ::: oOOOOOOOOOOOOOO :::::::::::::::: @ : @@@++++++@%%% ",
":::: @%%% :: ######---##OOOOO :::: OOOOOOOOOOOOOO ::::::::::::::::   :: @@@@@@@@@%%% ",
":::: @@%%% : *#####---##OOOOo :::: OOOOOOOOOOOOO :::::::::::::::::::::: @@@ o++@@@@ :",
":::: @%%%%%  **####*--*##OOO ::::: OOOOOOOOOOOOO :::::::::::::::::::::: @% : @@@@@@ :",
"::::: @%@ %%% **####*--*OOOO ::::: OOOOOOOOOOOOO ::::::::::::::::::::::: @@  @@@@@ ::",
"::::: @% : %% -**####--*#OO :::::: OOOOOOOOOOOO :::::::::::::::::::::::: @% : @@@ :::",
"::::: @%@  O% ---####*-*#OO :::::: OOOOOOOOOOOO :::::::::::::::::::::::: @@@  @  ::::",
"::::: @@%%   --*-#####-*#OO :::::: OOOOOOOOOOOO ::::::::::::::::::::::::: @@ : ::::::",
"::::: @%%% ;------#####*#O ::::::: OOOOOOOOOOO ::::::::::::::::::::::::::   :::::::::",
":::::: @@% *----;-#######O ::::::: OOOOOOOOOOO ::::::::::::::::::::::::::::::::::::::",
":::::::  %% *---*-*###OOOO ::::::: OOOOOOOOOOO ::::::::::::::::::::::::::::::::::::::",
":::::::::  O*------###OOO ::::::::: OOOOOOOOOO ::::::::::::::::::::::::::::::::::::::",
":::::::::: O#*----*###OOO ::::::::: OOOOOOOOOOO  ::::::::::::::::::::::::::::::::::::",
":::::::::: OO*---**###OO :::::::::: OOOOOOOOOOOO ::::::::::::::::::::::::::::::::::::",
":::::::::: oO#----*##OOO :::::::::: oOOOOOOOOOOO ::::::::::::::::::::::::::::::::::::",
":::::::::: oo#-;----#OOO :::::::::: OOOOOOOOOOOOO :::::::::::::::::::::::::::::::::::",
":::::::::: ooO*;*---OOOO ::::::::: XoOOOOOOOOOOOO :::::::::::::::::::::::::::::::::::",
":::::::::: oOOO;;;--OOO ::::::::::: OOOOOOOOOOOOO :::::::::::::::::::::::::::::::::::",
":::::::::: ooOOO#;;-*OO ::::::::::: oOoOOOOOOOOOOO ::::::::::::::::::::::::::::::::::",
":::::::::: oOOOOO#*-*OO :::::::::::: OOOOOOOOOOOOO ::::::::::::::::::::::::::::::::::",
":::::::::: ooOoOOOO##Oo :::::::::::: ooOOOOOOOOOOOO :::::::::::::::::::::::::::::::::",
":::::::::: oOOOOOOOOO  :::::::::::::: oOOOOOOOOOOOO :::::::::::::::::::::::::::::::::",
":::::::::: OoOoOoOOOO ::::::::::::::: oooOOOOOOOOOO :::::::::::::::::::::::::::::::::",
":::::::::: OOOOOOOOOOO ::::::::::::::: oXOOOOOOOOOO :::::::::::::::::::::::::::::::::",
"::::::::: XooOoOoOOOO :::::::::::::::: ooooOOOOOOOOO ::::::::::::::::::::::::::::::::",
"::::::::: ooOOOOOOOOO ::::::::::::::::: ooOOOOOOOOOO ::::::::::::::::::::::::::::::::",
"::::::::: oooOoOoOOO ::::::::::::::::::: ooOOOOOOOOO ::::::::::::::::::::::::::::::::",
"::::::::: ooOOOOOOOO ::::::::::::::::::: ooOOOOOOOOO ::::::::::::::::::::::::::::::::",
"::::::::: oOoOoOOOOO :::::::::::::::::::: oooOOOOOOO ::::::::::::::::::::::::::::::::",
"::::::::: oOOOOOOOOO :::::::::::::::::::: ooOOOOOOOOO :::::::::::::::::::::::::::::::",
"::::::::: oOoOOOOOOO ::::::::::::::::::::: ooOOOOOOOO :::::::::::::::::::::::::::::::",
"::::::::: XOOOOOOOOOO ::::::::::::::::::::: ooOOOOOOO :::::::::::::::::::::::::::::::",
":::::::: XXOXOOOOOOOO ::::::::::::::::::::: oooOOOOOO :::::::::::::::::::::::::::::::",
":::::::: XXOOOOOOOOOO :::::::::::::::::::::: oooOOOOOO ::::::::::::::::::::::::::::::",
":::::::: XXOXOOOOOOOO :::::::::::::::::::::: ooooOOOOO ::::::::::::::::::::::::::::::",
":::::::: XOOOOOOOOOO :::::::::::::::::::::::: oooOOOO@ ::::::::::::::::::::::::::::::",
":::::::: XXOXOXOOOOO ::::::::::::::::::::::::: oo@@@@% ::::::::::::::::::::::::::::::",
":::::::: XOOOOOOOOOO ::::::::::::::::::::::::: o@@@%%%% :::::::::::::::::::::::::::::",
":::::::: XXOXOXOOOOO ::::::::::::::::::::::::: o+@@%%%% :::::::::::::::::::::::::::::",
":::::::: XXOXOOOOOO ::::::::::::::::::::::::::: @@%%%%% :::::::::::::::::::::::::::::",
":::::::: XXOXOOOOOO ::::::::::::::::::::::::::: o@@%%%%% ::::::::::::::::::::::::::::",
":::::::: XXOXOOOOOO ::::::::::::::::::::::::::: o@@%%%%% ::::::::::::::::::::::::::::",
"::::::: XXXXXOOOOOO :::::::::::::::::::::::::::: o@@%%%%% :::::::::::::::::::::::::::",
"::::::: XXXXXOOOOOO :::::::::::::::::::::::::::: XX@@%%%%@ ::::::::::::::::::::::::::",
"::::::: XXXXXOOOOOO :::::::::::::::::::::::::::: XXXXXX@@@ ::::::::::::::::::::::::::",
"::::::: XXXXXOOOOOO ::::::::::::::::::::::::::: ooXXXXoXo@ ::::::::::::::::::::::::::",
"::::::: XOXXXOXOOOO ::::::::::::::::::::::::::: ooXXXXooo@ ::::::::::::::::::::::::::",
"::::::: OOOOOOOOOO :::::::::::::::::::::::::::: ooooXXXXX :::::::::::::::::::::::::::",
"::::::: XOXOXOXOXO ::::::::::::::::::::::::::::: oXoXXXXo :::::::::::::::::::::::::::",
"::::::: XOOOOOOOOO ::::::::::::::::::::::::::::: XXXXXXXo :::::::::::::::::::::::::::",
"::::::: XOOOOOOOOO ::::::::::::::::::::::::::::: XXXXXXXoo ::::::::::::::::::::::::::",
"::::::: XXXXOOOOOO ::::::::::::::::::::::::::::: oooXXXXoo ::::::::::::::::::::::::::",
"::::::: XOXOOOOOOO :::::::::::::::::::::::::::::: ooXXXXoo ::::::::::::::::::::::::::",
"::::::: XOOOOOOOO  :::::::::::::::::::::::::::::: XXXXXXoX ::::::::::::::::::::::::::",
"::::::::  X      :::::::::::::::::::::::::::::::: XXXXXXXX ::::::::::::::::::::::::::",
":::::::: o@@@+++ :::::::::::::::::::::::::::::::: ooXXXXXX ::::::::::::::::::::::::::",
":::::::: @@@+%+% :::::::::::::::::::::::::::::::: ooXXXXXX ::::::::::::::::::::::::::",
":::::::: @@@%%%% :::::::::::::::::::::::::::::::: oXXXXXXX ::::::::::::::::::::::::::",
":::::::: +@@+%+% :::::::::::::::::::::::::::::::: XXXXXXXXo :::::::::::::::::::::::::",
":::::::: @@@%%%% :::::::::::::::::::::::::::::::: ooooXXooo :::::::::::::::::::::::::",
":::::::: @@@@@X@ ::::::::::::::::::::::::::::::::: oooXXXoo :::::::::::::::::::::::::",
":::::::: oXXXXXXo ::::::::::::::::::::::::::::::::   oo     :::::::::::::::::::::::::",
":::::::: oXXXXXXoo ::::::::::::::::::::::::::::::::::  ::::::::::::::::::::::::::::::",
"::::::: XXXXXXXXoo ::::::::::::::::::::::::::::::::::::::::::::::::::::::::::::::::::",
"::::::: XXXXXXXXoo ::::::::::::::::::::::::::::::::::::::::::::::::::::::::::::::::::",
"::::::: XXXXXXoooX ::::::::::::::::::::::::::::::::::::::::::::::::::::::::::::::::::",
"::::::: XXXXooo    ::::::::::::::::::::::::::::::::::::::::::::::::::::::::::::::::::",
"::::::: XX......   ::::::::::::::::::::::::::::::::::::::::::::::::::::::::::::::::::",
":::::::  XXXooXXXXo :::::::::::::::::::::::::::::::::::::::::::::::::::::::::::::::::",
":::::::: ooooXXXoXo :::::::::::::::::::::::::::::::::::::::::::::::::::::::::::::::::",
":::::::: oooooXXooo :::::::::::::::::::::::::::::::::::::::::::::::::::::::::::::::::",
":::::::::           :::::::::::::::::::::::::::::::::::::::::::::::::::::::::::::::::",
":::::::::::::::::::::::::::::::::::::::::::::::::::::::::::::::::::::::::::::::::::::",
":::::::::::::::::::::::::::::::::::::::::::::::::::::::::::::::::::::::::::::::::::::",
":::::::::::::::::::::::::::::::::::::::::::::::::::::::::::::::::::::::::::::::::::::",
":::::::::::::::::::::::::::::::::::::::::::::::::::::::::::::::::::::::::::::::::::::",
":::::::::::::::::::::::::::::::::::::::::::::::::::::::::::::::::::::::::::::::::::::",
":::::::::::::::::::::::::::::::::::::::::::::::::::::::::::::::::::::::::::::::::::::"
};
